<?xml version="1.0" encoding="UTF-8"?>
<!DOCTYPE svg PUBLIC "-//W3C//DTD SVG 1.1//EN" "http://www.w3.org/Graphics/SVG/1.1/DTD/svg11.dtd">
<!-- Creator: CorelDRAW 2018 -->
<svg xmlns="http://www.w3.org/2000/svg" xml:space="preserve" width="60.96mm" height="60.96mm" version="1.1" style="shape-rendering:geometricPrecision; text-rendering:geometricPrecision; image-rendering:optimizeQuality; fill-rule:evenodd; clip-rule:evenodd"
viewBox="0 0 6096 6096"
 xmlns:xlink="http://www.w3.org/1999/xlink">
 <defs>
  <style type="text/css">
   <![CDATA[
    .str1 {stroke:#FEFEFE;stroke-width:8.47;stroke-miterlimit:22.9256}
    .str0 {stroke:#FEFEFE;stroke-width:7.62;stroke-miterlimit:22.9256}
    .fil1 {fill:none}
    .fil0 {fill:white}
   ]]>
  </style>
 </defs>
 <g id="Layer_x0020_1">
  <metadata id="CorelCorpID_0Corel-Layer"/>
  <g id="_747467192">
   <path class="fil0" d="M4507.63 4590.33c34.63,0 59.28,2.88 94.81,2.88 89.38,0 52.43,-2.81 68.95,31.61l-163.76 0 0 -34.49zm-2844.23 -5.75c27.53,0 43.87,2.88 71.82,2.88l86.19 0c0,16.79 2.88,20.08 2.88,34.49 -22.69,0 -33.87,-3.05 -54.51,-2.94l-115.22 -0.07c-14.64,-2.74 -3.91,-10.25 8.84,-34.36zm1106.08 -80.41l373.48 2.88 0 -63.2 43.12 0 0 63.2 367.73 0 -11.5 -63.2 45.96 0 11.5 68.95c-140.01,0 -270.78,-2.88 -410.82,-2.88l-456.8 0c0,-14.96 5.68,-36.32 7.55,-49.9 2.8,-19.84 -3.16,-16.17 41.27,-16.17l-11.49 60.32zm17.24 -316l293.04 0c34.63,0 59.29,-2.87 94.82,-2.87l341.9 0.04c20.12,0.1 27.32,-2.91 45.95,-2.91 8.35,17.42 50.95,222.25 54.58,229.8 -296.12,0 -584.97,-2.87 -879.12,-2.87 3.36,-7 4.16,-16.83 5.96,-25.63l18.22 -85.19c8.17,-37.12 16.34,-74.7 24.65,-110.37zm-1482.44 -83.32c2.63,-9.86 17.08,-28.46 23,-37.33l95.37 -145.93c8.31,-13.29 15.2,-23.61 23.3,-37.02 7.8,-12.98 16.18,-23.06 24.42,-35.91 8.9,-13.88 15.37,-24.62 24.69,-38.51 4.67,-6.99 6.86,-10.28 11.22,-17.52 5.33,-8.8 7.27,-10.18 12.6,-19.01l96.24 -147.91c9.7,-10.63 27.91,-6.33 54.02,-6.33 42.25,0 76.67,2.87 120.69,2.87 324.62,0 649.28,0 973.9,0 328.85,0 635.87,2.88 965.31,2.88 325.63,0 651.22,0 976.81,0l248.26 355.06c28.09,40.58 55.2,78.75 82.14,118.95l-2798.24 2.84c-314.47,0 -620.74,2.87 -933.73,2.87zm-603.32 586.05c0,95.61 -10.98,159.92 61.05,231.95l41.77 32.97c7.06,4.26 10.66,4.71 17.62,8.21 23,11.49 54.16,19.87 80.66,19.87l4501.93 0c107.87,0 203.97,-95.3 203.97,-192.47 0,-49.59 5.16,-33.94 -25.83,-77.57l-27.05 -39.03c-4.99,-7.2 -7.9,-11.98 -12.61,-19.01l-27.35 -38.72c-35.57,-56.9 -108.74,-155.24 -150.19,-217.51 -9.53,-14.3 -17.73,-25.83 -27.05,-39.03l-490.81 -710.02c-9.7,-13.05 -18.15,-24.58 -27.46,-38.61l-39.62 -58.04c-5.02,-7.58 -9.56,-13.16 -14.3,-20.19 -4.19,-6.2 -7.93,-16.65 -10.91,-23.55 -4.85,-11.25 -5.06,-13.19 -11.57,-22.89l-583.2 -2.87c-68.39,0 -129.41,-2.87 -195.38,-2.87 -264.64,0 -520.14,-2.88 -784.3,-2.88 -66.6,0 -124.77,-2.87 -192.51,-2.87 -65.1,0 -130.24,0 -195.35,0 -35.04,0 -59.46,-2.88 -94.82,-2.88l-295.91 0c-32.59,0.07 -59.53,-2.87 -94.78,-2.87l-295.91 0c-67.39,0 -125.02,-2.88 -192.51,-2.88 -66.08,0 -132.15,0 -198.22,0 -7.35,13.82 -12.61,33.28 -20.54,45.54l-377.61 492.86c-20.5,26.25 -37.78,51.14 -58.28,76.74l-405.9 530.63c-5.43,7.27 -57.03,70.72 -57.03,77.99z"/>
   <path class="fil0" d="M4582.32 3171.27l-2849.98 0c-25.93,0 -45.95,-20.02 -45.95,-45.96l0 -1737.94c0,-14.89 6.89,-26.32 15.06,-33.76 9.22,-8.42 19.95,-12.23 36.64,-12.23l2844.23 0c27.6,0 48.83,20.95 48.83,48.83l0 1732.23c0,28.25 -20.57,48.83 -48.83,48.83zm-3025.2 -1936.17l0 2022.32c0,52.68 54.3,106.32 106.28,106.32l3002.24 0c56.24,0 109.16,-56.31 109.16,-109.16l0 -2019.48c0,-31.75 -18.53,-60.29 -35.12,-76.88 -18.84,-18.84 -52.19,-35.15 -76.91,-35.15l-2990.75 0c-31.83,0 -61.75,17.08 -79.65,32.38 -9.66,8.25 -18.04,22.17 -23.83,33.63 -7.37,14.65 -11.42,23.65 -11.42,46.02z"/>
   <path class="fil0" d="M2292.59 4050.28c0,-7.34 4.53,-0.45 1.69,0 -0.03,0 -1.69,8.03 -1.69,0zm-206.85 -2.88c0,-7.34 4.54,-0.45 1.7,0 -0.03,0.04 -1.7,8.04 -1.7,0zm419.44 -5.74c-5.33,22.89 -2.42,31.61 28.74,31.61l985.4 0c16.1,0 30.65,-0.69 34.49,-17.24 11.5,8.45 -0.34,5.23 13.85,11.98 17.46,8.34 155.35,8.34 176.06,2.7 11.08,-3.01 11.47,-2.08 14.06,-11.81 12.82,3.43 4.95,5.85 21.23,10.39 32.59,9.11 111.89,3.98 148.29,3.98 17.87,0 30.06,-3.5 37.33,-14.37 10.49,7.03 5.82,7.38 20.67,10.94 31.97,7.66 156.39,4.64 195.07,0.94 14.58,-1.39 19.43,0.45 22.72,-11.88 13.23,3.53 10.18,11.5 31.62,11.5l155.14 0c11.64,0 14.86,-2.67 17.21,-11.5 13.26,3.53 10.18,11.5 31.62,11.5l155.14 0c11.64,0 14.86,-2.67 17.25,-11.5 9.97,5.3 16.06,11.5 31.58,11.5l158.01 0c28.99,0 -6.51,-41.04 -12.67,-50.53 -12.81,-19.7 -9.8,-23.75 -36.15,-29.92 5.57,-8.34 5.81,-3.84 8.62,-14.33 -21.89,-32.66 -32.59,-60.92 -60.36,-63.2 0.52,-0.45 1.38,-1.77 1.63,-1.29l6.99 -7.34c0,-11.49 -14.54,-28.95 -20.08,-37.36 -8.73,-13.13 -11.6,-24.17 -31.62,-25.84 5.82,-21.81 13.09,-3.32 -11.5,-40.24 -3.88,-5.81 -7.89,-13.09 -12.5,-19.08 -5.78,-7.48 -9.9,-9.35 -21.95,-9.62l9.1 -11.05c-14.78,-21.51 -21.85,-48.62 -49.34,-55.03 7.58,-11.32 7.89,-10.08 -0.32,-22.47 -21.67,-32.69 -32.34,-29.23 -77.26,-29.23 -30.19,0 -63.96,-3.43 -92.32,5.5 -12.15,3.85 -13.19,-0.62 -30.3,-3.56 -22.16,-3.78 -105.66,-5.51 -124.53,1 -29.85,10.25 -15.89,-2.94 -54.51,-2.94 -25.55,0 -84.91,-4.33 -107.07,2.21 -9.87,2.91 -8.97,4.61 -13.72,4.82 -4.64,0.17 -18.7,-7.03 -34.35,-7.03 -24.45,0 -99.28,-4.36 -118.26,2.63 -14.72,5.44 -9.11,4.19 -24.55,-0.42 -16.45,-4.88 -124.74,-4.77 -139.25,0.46 -20.81,7.48 -12.16,-2.67 -36.81,-2.67l-112.07 0c-13.99,0 -18.66,5.78 -23.82,6.44 -8.49,1.04 -8.66,-6.44 -22.13,-6.44l-123.56 0c-12.78,0 -11.18,6.82 -19.39,6.27 -3.4,-0.21 -10.63,-6.27 -23.69,-6.27l-120.65 0c-12.64,0 -9.14,5.05 -19.77,4.74 -7.28,-0.24 -10.63,-4.74 -23.34,-4.74l-123.53 0c-14.41,0 -7.93,6.41 -20.95,3.63 -29.92,-6.37 -109.36,-11.32 -141.36,-5.02 -0.8,0.14 -7.96,2.05 -9.25,2.46 -21.05,7.03 -20.08,-3.95 -43.91,-3.95 -27.32,0 -92.18,-4.15 -115.7,2.19 -38.33,10.25 -15.27,-2.19 -45.19,-2.19 -28.64,0 -94.47,-4.01 -119.13,1.6 -7.16,1.59 -11.7,4.36 -14.99,5.02 -10.46,2.11 -10.91,-6.62 -29.64,-6.62l-112.03 0c-14.55,0 -15.83,4.71 -24.69,6.41 -11.05,2.08 -9.35,-6.41 -24.17,-6.41l-123.53 0c-18.53,0 -12.15,10.39 -28.78,3.26 -7.44,-3.15 2.81,-3.26 -11.46,-3.26 -26.77,0 -116.46,-4.19 -136.27,1.91l-10.94 4.36c-11.64,0.8 -5.99,-6.27 -19.39,-6.27l-123.56 0c-14.13,0 -10.64,3.16 -21.27,4.51 -12.46,1.62 -8.48,-4.51 -21.81,-4.51l-129.28 0c-16.83,0 -37.36,25.49 -37.36,37.34 0,6.44 2.28,6.3 5.75,11.49 -19.74,9.46 -15.07,0.87 -27.15,21.72 -26.53,45.78 -19.47,23.34 -13.06,47.23 -11.91,0.28 -16.45,2.01 -21.92,9.7l-24.35 39.34c-5.85,12.88 -0.86,9.59 6.03,19.91 -28.71,2.39 -40.55,39.34 -54.58,60.32 2.32,8.66 -0.03,6.31 8.63,8.63l0 5.75c-28.3,0.62 -33.84,29.15 -46.62,48.17 -5.88,8.76 -7.96,9.28 -7.96,23.61 7.89,1.87 6.44,1.39 11.46,5.75 -30.51,2.57 -39.2,28.68 -52.64,50.77 -5.78,9.56 -10.25,12.67 -10.56,26.8 10.29,2.39 13.51,5.75 25.87,5.75l293.04 0c24.24,0 26.6,-5.23 40.2,-14.37 6.03,11.36 8.66,14.37 25.87,14.37l149.4 0c19.46,0 23.55,-7.06 34.49,-14.37 4.99,9.42 10.91,14.37 22.96,14.37l146.52 0c17.66,0 33.55,-2.94 37.36,-17.24 4.71,6.82 1.53,7.58 10.43,12.57 17.45,9.76 135.47,4.67 161.93,4.67 46.37,0 32.83,-26.94 43.11,-31.61zm1657.7 -51.71l31.59 0 -8.63 11.5 -22.96 -11.5zm-232.71 0l28.71 0c-6.68,9.18 -4.78,2.36 -11.46,11.5 -3.29,-2.18 -5.58,-3.53 -8.8,-5.61 -0.48,-0.31 -1.25,-0.76 -1.77,-1.11 -0.48,-0.31 -1.24,-0.79 -1.73,-1.11 -5.95,-4.08 -1.69,-0.79 -4.95,-3.67zm-198.26 0l28.75 0c-4.64,4.05 -9.18,8.04 -14.37,11.5 -5.2,-3.46 -9.74,-7.45 -14.38,-11.5zm-201.09 0l28.74 0c-4.64,4.05 -9.18,8.04 -14.37,11.5 -5.2,-3.46 -9.73,-7.45 -14.37,-11.5zm-1031.39 0l28.75 0c-4.64,4.05 -9.18,8.04 -14.38,11.5 -5.19,-3.46 -9.73,-7.45 -14.37,-11.5zm-203.97 0l31.58 0c-0.51,0.45 -1.38,0.38 -1.62,1.25 -0.25,0.87 -1.32,0.97 -1.67,1.21 -3.04,2.11 -2.32,1.59 -5.16,3.43 -3.22,2.08 -5.5,3.43 -8.76,5.61 -5.23,-3.46 -9.76,-7.45 -14.37,-11.5zm-201.75 0.66l29.36 -0.66c-0.52,0.45 -1.38,0.38 -1.62,1.25 -0.25,0.87 -1.32,0.97 -1.67,1.21 -3.08,2.11 -2.32,1.59 -5.19,3.43 -3.19,2.08 -5.47,3.43 -8.76,5.61l-12.12 -10.84zm-206.22 -0.66l28.74 0c-0.52,0.45 -1.39,0.38 -1.63,1.25l-15.62 10.25 -6.75 -7.58c-0.42,-0.39 -1.18,-1.01 -1.56,-1.35l-3.18 -2.57zm2674.71 -14.33c8.69,5.78 14.24,11.15 28.75,11.46l0 5.75c-10.05,2.7 -6.45,1.11 -11.5,8.62 -10.15,-6.79 -11.84,-8.24 -25.87,-11.5 5.61,-8.34 5.82,-3.84 8.62,-14.33zm-198.22 -2.88c11.95,7.97 9,13.92 28.74,14.34l0 5.75c-8.65,2.32 -6.33,-0.04 -8.62,8.62 -10.35,-2.74 -13.78,-8 -28.74,-11.5 6.3,-9.38 7.51,-3.98 8.62,-17.21zm-339.03 0l23 17.21 -34.46 0c8.52,-11.63 10.04,-0.17 11.46,-17.21zm-195.34 0c3.91,14.62 6.44,6.41 14.37,17.21l-28.75 0c3.4,-5.05 9.7,-13.78 14.38,-17.21zm-422.32 -60.32l25.84 0c-14.48,12.6 -10.74,15.44 -8.14,39.72 0.34,3.29 2.8,20.98 4.29,24.45 2.98,6.75 2.46,4.67 10.22,9.9l3.43 2.29c0.34,0.24 1.17,0.72 1.69,1.17l-27.63 -4.64c5.37,-4.36 3.12,1.56 6.51,-8.03 3.15,-8.87 -0.42,-18.49 -1.28,-25.18 -3.46,-26.46 1.07,-25.8 -14.93,-39.68zm-583.2 54.57c0.38,17.46 3.64,11.29 11.46,22.96l-28.71 0c8.21,-11.18 7.28,-0.38 15.55,-18.91l1.7 -4.05zm-204.01 -54.57l23 0c-8.97,7.79 -11.36,12.12 -14.23,25.97 -2.43,11.77 -5.89,24.24 -5.89,37.23 0,12.19 -0.35,0.31 4.05,7.41 6.03,9.66 -0.14,-6.1 4.57,6.92l-25.83 0c2.42,-6.68 0.62,-2.11 4.81,-6.65 11.26,-12.05 8.48,-6.58 12.4,-30.71 6.02,-37.47 10.66,-19.98 -2.88,-40.17zm-203.97 57.45c0.38,0.62 0.7,0.97 0.83,2.01 1.01,7.16 10.88,14.44 13.54,18.07l-31.61 0c9.87,-13.43 12.71,-0.66 17.24,-20.08zm-186.72 -48.87c0,-3.87 -3.12,-1.59 -5.75,-11.46l22.96 0c-2.74,7.59 -4.95,5.3 -10.6,12.36 -4.12,5.13 -5.85,10.88 -8.31,17.53 -4.74,12.67 -9.8,26.63 -12.67,39.06l11.49 11.46 -31.61 0c5.61,-7.65 8.34,-5.26 14.26,-11.6 5.27,-5.64 5.09,-9.45 8,-17.83 3.22,-9.21 12.23,-30.1 12.23,-39.52zm-206.88 -11.46l25.87 0c-11.5,15.69 -6.65,-6.82 -24.62,38.58 -16.07,40.69 -17.49,21.85 -4.13,41.83l-28.7 0c11.63,-15.86 10.32,4.68 36.7,-58.38 5.65,-13.54 -1.45,-8.31 -5.12,-22.03zm-215.47 63.2c1.11,13.23 2.32,7.83 8.62,17.21l-31.58 0 22.96 -17.21zm2554.07 -5.75l0.86 0.83c-0.07,-0.03 -1.14,-0.55 -0.86,-0.83zm-339.03 0c0,-7.34 4.57,-0.48 1.73,0 -0.03,0 -1.73,8 -1.73,0zm-2215.04 0l0.87 0.83c-0.07,-0.03 -1.15,-0.55 -0.87,-0.83zm2749.41 -2.87l0.87 0.83c-0.07,-0.03 -1.14,-0.55 -0.87,-0.83zm-2137.46 0c-1.04,-5.44 3.63,-10.22 1.83,-1.84 -0.07,0.21 0.07,11.85 -1.83,1.84zm1939.24 -2.88l0.87 0.87c-0.07,-0.07 -1.14,-0.59 -0.87,-0.87zm-560.21 -48.82l25.84 0c-2.15,3.18 -8.63,9.66 -8.63,11.46 0,12.33 8.25,23.27 8.63,40.24 -0.38,-0.62 -0.8,-2.36 -0.94,-1.94l-3.88 -10.49c-5.78,-18.6 -3.94,-24.45 -21.02,-39.27zm-973.93 37.33l2.87 0 0 14.37 -2.87 0 0 -14.37zm-1014.17 11.49l0.86 0.87c-0.07,-0.07 -1.14,-0.59 -0.86,-0.87zm2209.32 -2.87c0,-7.34 4.54,-0.45 1.7,0 -0.04,0 -1.7,8 -1.7,0zm336.12 -2.87l0.86 0.86c-0.07,-0.07 -1.14,-0.59 -0.86,-0.86zm-2542.57 0l0.87 0.86c-0.07,-0.07 -1.15,-0.59 -0.87,-0.86zm609.07 -2.88c0,-7.34 4.54,-0.45 1.7,0 -0.04,0 -1.7,8 -1.7,0zm2125.97 -2.87l0.87 0.86c-0.04,-0.07 -1.15,-0.59 -0.87,-0.86zm-195.35 0l0.87 0.86c-0.07,-0.07 -1.14,-0.59 -0.87,-0.86zm-336.12 0c0,-7.34 4.54,-0.45 1.7,0 -0.03,0 -1.7,8.03 -1.7,0zm-2200.7 0l0.87 0.86c-0.07,-0.07 -1.14,-0.59 -0.87,-0.86zm2533.95 -5.75l0.87 0.86c-0.07,-0.06 -1.15,-0.58 -0.87,-0.86zm-1919.13 -14.37l-5.74 17.24c0.69,-8.24 -0.45,-2.98 1.83,-9.66 3.5,-10.18 1.53,-4.15 3.91,-7.58zm-612.43 14.85l9.11 -11.98c-1.77,7.55 -2.6,8.45 -5.75,14.37l-3.36 -2.39zm2195.44 -3.36c0.28,-0.27 0.83,0.45 0.83,0.87l-0.83 -0.87zm-1186.53 -11.49c0,-10.5 -1.66,-11.74 -11.49,-14.34 0,-0.03 0.9,-10.87 20.01,-4.22 5.3,1.87 -0.17,-3.99 5.82,4.22 -18.53,4.92 -4.92,14.54 -17.21,28.71 1.49,-6.44 2.87,-6.62 2.87,-14.37zm1519.78 8.62l0.86 0.87c-0.07,-0.07 -1.14,-0.59 -0.86,-0.87zm-336.12 -2.87c0,-7.35 4.53,-0.45 1.69,0 -0.03,0 -1.69,8.03 -1.69,0zm333.24 -2.88l0.87 0.87c-0.07,-0.07 -1.15,-0.56 -0.87,-0.87zm-11.5 -17.21l11.5 0c-1.11,13.33 3.08,5.02 -5.75,11.46 -2.25,-8.48 -1.18,-4.64 -5.75,-11.46zm212.6 -5.75l0 5.75c-10.36,2.74 -7.66,0.24 -8.59,11.46 -10.22,-6.82 -6.27,-10.32 -20.12,-11.46 5.4,-20.26 10.11,-6.16 28.71,-5.75zm-551.59 2.88l22.99 0 -8.62 17.21c-2.25,-8.45 -0.41,-6.1 -12.78,-15.97 -0.31,-0.24 -1.07,-0.79 -1.59,-1.24zm-390.73 0l25.87 0c-4.43,6.33 -0.49,3.56 -8.62,5.74 0,15.38 3.11,29.37 6.23,42.6 6.75,28.47 7.93,19.05 19.63,29.19l-31.06 -2.32c5.61,-3.98 9.21,-5.43 10.36,-12.43 0.83,-5.23 -3.47,-18.84 -4.44,-23.27 -5.4,-24.48 -1.83,-25.52 -17.97,-39.51zm-390.73 0l22.99 0c-11.53,17.17 -8.62,2.28 -8.62,48.82 0,17.15 4.33,19.78 10.32,24.14l-27.56 4.57c0.52,-0.45 1.49,-1.66 1.73,-1.14l8.2 -6.16c7.42,-8.73 4.44,-28.19 4.44,-47.27 0,-13.06 -6.13,-14.96 -11.5,-22.96zm-172.35 2.87c-17.01,4.54 -11.5,14.09 -11.5,60.33 0,9.93 4.88,5.33 11.5,14.33l-31.62 0c4.43,-6.06 8.14,-7.3 14.37,-11.46 0,-13.09 2.91,-50.84 0.83,-55.58 -3.29,-7.48 -23.03,-14.68 6.55,-12.19 10.8,0.93 2.66,-5.23 9.87,4.57zm-617.7 -2.87c7.41,-3.43 2.39,-1.18 9.07,-1.94 2.05,-0.21 7.52,-0.8 13.93,-0.94l0 5.75c-9.94,2.63 -8.87,1.56 -11.5,11.46 -6.06,-4.43 -7.34,-8.14 -11.5,-14.33zm1479.91 -11.4c11.36,0.87 11.36,1.35 14.03,11.4l-17.25 0 3.22 -11.4zm-187.72 -0.76l12.77 11.5 -23.61 0.66 10.84 -12.16zm-191.86 0.66l11.5 11.5 -22.99 0c2.49,-6.86 3.67,-6.27 11.49,-11.5zm-192.47 -2.88c3.98,14.96 2.74,2.43 11.5,14.38l-23 0c2.53,-9.46 4.16,-9.49 11.5,-14.38zm-1508.31 11.5l25.87 0c-4.47,12.3 -2.18,-0.1 -17.24,17.21 -2.05,-8.76 -4.47,-11.01 -8.63,-17.21zm2269.65 2.88c4.09,-17.63 5.3,-8.94 17.21,-5.75 -6.06,8.31 -2.32,5.75 -17.21,5.75zm-968.18 -5.75c8.48,-2.29 4.64,-1.18 11.46,-5.75 7.03,4.71 9,4.54 11.5,11.5 -15.31,0 -16.42,3.18 -22.96,-5.75zm-172.39 2.87l-20.12 0c8.31,-12.43 11.81,-12.43 20.12,0zm-215.47 2.88c2.67,-10.05 1.07,-6.48 8.62,-11.5 10.05,2.67 6.44,1.07 11.5,8.62 -9.87,0.21 -11.18,1.94 -20.12,2.88zm-175.26 -2.88l-20.12 0c7.79,-10.59 13.05,-10.56 20.12,0zm-195.35 0l-20.12 0c7.76,-10.59 13.02,-10.56 20.12,0zm-203.97 -11.5l9.11 11.05 -23.48 0.45c4.6,-4.05 9.14,-8.03 14.37,-11.5zm1904.75 -60.32l17.25 0 -3.22 11.36c-10.32,-2.7 -3.36,-2.77 -14.03,-5.61l0 -5.75zm-186.76 0l17.25 0c-2.25,8.48 -1.18,4.64 -5.75,11.5 -6.82,-4.61 -2.98,-3.5 -11.5,-5.75l0 -5.75zm606.2 -5.75c6.72,3.57 7.48,4.92 17.25,5.75l-10.84 12.12c-4.05,-13.37 -4.5,-3.15 -6.41,-17.87zm-235.59 5.75l20.12 0 26.77 56.52c5.65,10.14 8,8.45 10.6,18.18l-25.87 0c4.99,-18.7 13.3,0.65 -6.72,-39.27 -21.85,-43.67 -13.26,-19.57 -24.9,-35.43zm-560.21 0l20.12 0c-2.28,8.48 -1.17,4.64 -5.74,11.5 -9.63,-5.09 -8.11,-2.15 -14.38,-11.5zm-189.59 0l22.95 0 -9.1 11.05c-5.75,-3.74 -9.42,-4.99 -13.85,-11.05zm-187.25 0.45l23.48 -0.45c-4.47,6.06 -8.14,7.31 -14.37,11.5l-9.11 -11.05zm-189.11 -0.45l22.96 0c-8.18,11.18 -4.51,0.17 -8.63,11.5 -9.42,-2.53 -9.45,-4.19 -14.33,-11.5zm-189.64 0l23 0c-10.7,9.28 -13.34,14.41 -23,0zm-190.08 0.45l23.44 -0.45c-4.6,4.02 -9.14,8 -14.33,11.5l-9.11 -11.05zm-189.15 -0.45l20.12 0c-7.76,10.6 -13.02,10.56 -20.12,0zm-192.47 0l20.12 0c-8.35,12.4 -11.81,12.4 -20.12,0zm-189.64 0l20.12 0c-10.42,9.07 -11.15,13.37 -20.12,0zm-206.84 0l31.61 0c1.98,5.54 2.77,-1.97 -2.07,3.95 -8.04,9.94 -29.54,46.05 -29.54,56.37 0,11.47 -0.49,1.42 2.77,5.86 0.31,0.38 0.9,1.17 1.24,1.59l-35.6 4.05c11.68,-10.14 8.11,1.66 22.06,-26.77 19.6,-40.03 17.25,-33.52 9.53,-45.05zm2014.11 -11.43l11.95 10.77 -17.87 0.66 5.92 -11.43zm-186.9 -0.07l12.12 10.84 -17.86 0.66c4.46,-6.68 3.74,-3.12 5.74,-11.5zm-186.27 0.45c4.71,3.05 9.25,7.03 13.89,11.05l-23 0 9.11 -11.05zm-186.73 0c4.71,3.05 9.25,7.03 13.86,11.05l-22.96 0 9.1 -11.05zm-184.37 -0.45l9.11 11.05 -23.48 0.45c4.64,-4.02 9.18,-8 14.37,-11.5zm-191.98 0.45c5.74,3.71 9.42,4.99 13.85,11.05l-22.96 0 9.11 -11.05zm-187.87 -1.07l12.74 11.46 -23.62 0.66 10.88 -12.12zm-197.6 12.12c4.09,-11.32 0.41,-0.31 8.62,-11.5 6.82,4.57 2.98,3.47 11.5,5.75 -6.41,8.73 -4.99,5.75 -20.12,5.75zm-189.63 0c4.12,-11.32 0.45,-0.31 8.62,-11.5 6.86,4.57 3.01,3.47 11.5,5.75 -6.38,8.73 -4.96,5.75 -20.12,5.75zm-189.6 0c4.01,-15 10.84,-12.43 17.24,-2.88 -8,3.85 -5.57,2.88 -17.24,2.88zm-172.39 -2.88l-20.09 0c10.43,-9.07 11.15,-13.36 20.09,0zm-189.6 -2.87c-9.77,8.48 -5.2,5.68 -17.25,2.87 2.88,-2 -2.32,-1.66 7.17,-3.63 8.07,-1.7 -0.62,-1.49 10.08,0.76zm2217.91 -63.2l28.74 0c-2.97,12.74 -5.85,7.03 -3.01,17.42 8.83,32.62 29.13,48 31.72,51.53l-34.45 0c8.72,-12.57 8.31,-7.86 -5.65,-40.31 -8.62,-20.05 -5.71,-13.47 -17.35,-28.64zm-181.01 0l14.37 0c-1.31,16.1 -4.4,8.42 -14.37,5.75l0 -5.75zm-180.98 0l14.38 0c-1.77,6.55 0.76,6.72 -6.34,7.9 -9.18,1.55 -5.23,-2.53 -8.04,-7.9zm666.53 -8.62c12.33,3.29 7.06,7.3 22.99,8.62l-9.11 11.05c-7.41,-4.85 -9.93,-7.14 -22.51,-8.17 8.18,-11.19 4.54,-0.18 8.63,-11.5zm-850.41 8.62l17.24 0c-8.03,12.02 -9.17,12.02 -17.24,0zm-183.85 0l17.24 0c-6.92,13.02 -8.86,12.5 -17.24,0zm-183.89 0l20.12 0c-8.31,12.43 -11.81,12.43 -20.12,0zm-183.85 0l20.09 0c-10.43,9.07 -11.12,13.37 -20.09,0zm-183.88 0l20.12 0c-10.43,9.07 -11.15,13.37 -20.12,0zm-186.73 0l20.09 0c-8.94,13.37 -9.66,9.07 -20.09,0zm-183.88 0l20.12 0c-10.43,9.07 -11.15,13.37 -20.12,0zm-183.85 0c12.43,-2.91 9.97,-7.03 17.21,2.88 -12.09,3.22 -9.21,9.07 -17.21,-2.88zm-186.76 0c8,-3.84 5.57,-2.87 17.24,-2.87 -4.01,14.99 -10.84,12.43 -17.24,2.87zm-169.52 -2.87l0 5.75 -11.46 0c6.48,-8.87 -1.87,-4.61 11.46,-5.75zm2146.13 2.87l-17.25 0c8.04,-12.02 9.18,-12.02 17.25,0zm-181.01 0l-17.25 0c8.03,-12.02 9.21,-12.02 17.25,0zm-181.01 0l-17.22 0c8.04,-12.02 9.18,-12.02 17.22,0zm-180.98 0l-17.25 0c8.04,-12.02 9.22,-12.02 17.25,0zm-181.01 0l-20.09 0c8.31,-12.43 11.78,-12.43 20.09,0zm-183.85 -5.75l0 5.75 -17.25 0c3.71,-13.82 4.92,-8.62 17.25,-5.75zm-183.89 5.75l-17.21 0c5.44,-8.14 12.78,-16.62 17.21,0zm-190.25 -12.12c5.22,7.48 4.12,3.64 6.4,12.12l-17.24 0 10.84 -12.12zm-186.11 0.62l11.5 8.63c-13.16,3.08 -6.96,3.08 -20.12,0 0.52,-0.45 1.42,-1.73 1.63,-1.28l6.99 -7.35zm-175.22 8.63l-17.25 0c9.84,-8.52 9.32,-11.85 17.25,0zm-183.89 0l-17.25 0c7.42,-10.08 10.74,-9.7 17.25,0zm-183.85 0l-20.12 0c10.42,-9.08 11.15,-13.37 20.12,0zm-186.76 0l-17.25 0c8.07,-12.02 9.22,-12.02 17.25,0zm2160.46 -60.33l14.37 0c-4.22,15.76 -8.86,8.24 -14.37,0zm-175.26 0l14.37 0c-7.62,11.43 -6.72,11.43 -14.37,0zm-178.1 0l14.37 0c-6.65,9.04 -7.76,9.04 -14.37,0zm-178.14 -2.87l14.37 0c-1.73,6.54 0.76,6.72 -6.34,7.89 -9.14,1.56 -5.19,-2.53 -8.03,-7.89zm-178.1 0l14.34 0c-1.74,6.54 0.79,6.72 -6.31,7.89 -9.17,1.56 -5.23,-2.53 -8.03,-7.89zm-178.14 0l14.37 0c-3.42,12.84 -3.46,8.27 -14.37,5.75l0 -5.75zm1249.73 11.49c-4.4,-6.33 -0.45,-3.56 -8.62,-5.74l0 -5.75c8.41,-2.01 4.15,0.38 8.62,-5.75 5.92,3.15 6.82,3.98 14.37,5.75 -4.43,6.06 -8.14,7.3 -14.37,11.49zm-1427.86 -11.49l14.37 0c-5.51,8.24 -10.15,15.75 -14.37,0zm-180.98 0l17.24 0c-8.06,12.01 -9.21,12.01 -17.24,0zm-178.14 0l14.37 0c-7.65,11.42 -6.71,11.42 -14.37,0zm-180.97 0l14.37 0c-7.66,11.42 -6.76,11.42 -14.37,0zm-181.02 0l17.25 0c-9.83,8.55 -9.31,11.84 -17.25,0zm1982.33 -5.75c13.37,1.11 5.06,-3.08 11.5,5.75 -13.79,6.37 -7.34,2.11 -11.5,-5.75zm-155.11 5.75c-7.03,2.91 -2.32,1.94 -11.5,0 6.24,-8.52 5.23,-8.52 11.5,0zm-163.76 0l-14.37 0c6.64,-9.04 7.72,-9.04 14.37,0zm-178.14 -5.75c13.33,1.11 5.02,-3.08 11.5,5.75l-11.5 0 0 -5.75zm-160.89 0c8.1,0 5.33,1.24 8.62,5.75l-17.24 0c3.39,-4.85 0.41,-5.75 8.62,-5.75zm-158.02 5.75l-17.21 0c8.04,-12.02 9.18,-12.02 17.21,0zm-166.6 0l-17.25 0c7.38,-10.08 10.74,-9.7 17.25,0zm-169.52 0l-11.49 0c3.39,-12.68 8.1,-12.68 11.49,0zm-1198.02 -5.75c20.12,-4.68 8.03,-1.28 25.87,2.87 -5.16,7.03 -3.92,6.2 -14.37,8.63 -6.83,-4.58 -2.98,-3.47 -11.5,-5.75l0 -5.75zm1031.38 0c-5.81,7.96 -4.05,7.82 -14.37,2.87 5.86,-7.93 4.05,-7.82 14.37,-2.87zm-169.48 2.87l-11.49 0c6.23,-8.52 5.23,-8.52 11.49,0zm-166.63 0l-14.38 0c6.62,-9.04 7.73,-9.04 14.38,0zm-169.52 0l-14.37 0c6.65,-9.04 7.72,-9.04 14.37,0zm-166.64 -2.87c-3.39,2.18 0.07,1.28 -6.23,2.39 -4.05,0.69 -6.93,0.48 -10.98,0.48 7.24,-9.9 4.78,-5.75 17.21,-2.87zm-178.1 -2.88c12.67,0 -0.69,-0.2 6.2,2.43l4.15 1.56c15.41,6.16 5.06,-2.81 12.61,7.51 -23.58,5.51 -3.81,0.73 -31.58,-5.75 3.36,-4.85 0.41,-5.75 8.62,-5.75z"/>
   <path class="fil0" d="M2826.96 4199.67l-43.11 198.22c45.68,0 83.18,2.88 126.4,2.84 77.36,0 490.12,-2.87 519.59,0.45 19.98,2.22 108.04,6.69 129.86,2.36 15.06,-2.98 4.36,-15.45 -1.39,-44.64 -4.12,-20.95 -7.89,-36.36 -12.57,-53.5 -4.84,-17.73 -7.82,-36.71 -12.08,-53.99l-11.47 -54.61c-115.87,0 -231.74,0 -347.61,0 -118.89,0 -231.23,2.87 -347.62,2.87z"/>
  </g>
  <path class="fil1" d="M2970.46 2672.53l449.99 -762.5m-81.4 3.04l-407.05 693.87"/>
  <path class="fil1" d="M3339.05 1913.07l-407.05 693.87 -442.96 0m0 65.59l481.42 0 449.99 -762.5"/>
  <path class="fil1" d="M3366.26 2288.52l-350.32 0m0 51.87l380.74 0"/>
  <path class="fil0 str0" d="M3081.68 2426.05l-296.55 0 -239.65 -421.26 242.03 -412.55 289.09 0.65c7.01,41.75 41.77,73.47 83.58,73.47 46.88,0 84.88,-39.86 84.88,-89.02 0,-49.16 -38,-89.02 -84.88,-89.02 -38.64,0 -71.25,27.09 -81.52,64.14 -0.06,0.23 -0.12,0.45 -0.18,0.67l-313.84 0.11 -267.55 453.36 262.16 461.05 321.95 3.32c9.16,38.79 42.57,67.54 82.39,67.54 46.87,0 84.87,-39.85 84.87,-89.02 0,-49.16 -38,-89.02 -84.87,-89.02 -39.14,0 -72.1,27.79 -81.91,65.58zm78.5 -800.99c-26.51,0 -48,-21.36 -48,-47.72 0,-26.36 21.49,-47.73 48,-47.73 26.52,0 48.01,21.37 48.01,47.73 0,26.36 -21.49,47.72 -48.01,47.72zm3.41 872.16c-26.52,0 -48.01,-21.37 -48.01,-47.73 0,-26.36 21.49,-47.72 48.01,-47.72 26.51,0 48.01,21.36 48.01,47.72 0,26.36 -21.5,47.73 -48.01,47.73z"/>
  <path class="fil0 str1" d="M3239.57 2033l296.55 0 239.65 421.25 -242.03 412.56 -289.09 -0.65c-7.01,-41.75 -41.76,-73.47 -83.58,-73.47 -46.88,0 -84.88,39.85 -84.88,89.02 0,49.16 38,89.01 84.88,89.01 38.64,0 71.25,-27.08 81.52,-64.14 0.06,-0.22 0.12,-0.44 0.18,-0.66l313.84 -0.11 267.55 -453.36 -262.16 -461.06 -321.95 -3.32c-9.16,-38.78 -42.57,-67.53 -82.39,-67.53 -46.87,0 -84.87,39.85 -84.87,89.01 0,49.17 38,89.02 84.87,89.02 39.14,0 72.1,-27.78 81.91,-65.57zm-78.5 800.98c26.51,0 48.01,21.37 48.01,47.73 0,26.35 -21.5,47.72 -48.01,47.72 -26.52,0 -48.01,-21.37 -48.01,-47.72 0,-26.36 21.49,-47.73 48.01,-47.73zm-3.41 -872.15c26.52,0 48.01,21.37 48.01,47.73 0,26.35 -21.49,47.72 -48.01,47.72 -26.51,0 -48,-21.37 -48,-47.73 0,-26.35 21.49,-47.72 48,-47.72z"/>
 </g>
</svg>
