<?xml version="1.0" encoding="UTF-8"?>
<!DOCTYPE svg PUBLIC "-//W3C//DTD SVG 1.1//EN" "http://www.w3.org/Graphics/SVG/1.1/DTD/svg11.dtd">
<!-- Creator: CorelDRAW -->
<svg xmlns="http://www.w3.org/2000/svg" xml:space="preserve" width="43.3492mm" height="30.48mm" version="1.1" style="shape-rendering:geometricPrecision; text-rendering:geometricPrecision; image-rendering:optimizeQuality; fill-rule:evenodd; clip-rule:evenodd"
viewBox="0 0 4334.92 3048"
 xmlns:xlink="http://www.w3.org/1999/xlink"
 xmlns:xodm="http://www.corel.com/coreldraw/odm/2003">
 <defs>
  <style type="text/css">
   <![CDATA[
    .str1 {stroke:white;stroke-width:8.47;stroke-miterlimit:22.9256}
    .str0 {stroke:white;stroke-width:7.62;stroke-miterlimit:22.9256}
    .fil5 {fill:none}
    .fil0 {fill:#FEFEFE}
    .fil2 {fill:#FEFEFE;fill-opacity:0.039216}
    .fil4 {fill:#FEFEFE;fill-opacity:0.109804}
    .fil1 {fill:#FEFEFE;fill-opacity:0.200000}
    .fil3 {fill:#FEFEFE;fill-opacity:0.380392}
   ]]>
  </style>
 </defs>
 <g id="Capa_x0020_1">
  <metadata id="CorelCorpID_0Corel-Layer"/>
  <g id="_2314881918112">
   <polygon class="fil0" points="566.05,929.51 208.43,1486.61 242.19,1520.57 598.77,967.81 "/>
   <polygon class="fil0" points="216.16,1679.52 427.9,2208.77 472.93,2208.77 252.06,1654.24 "/>
   <path class="fil0" d="M472.93 2223.23l-45.02 0c-4.23,0 -8.08,-3.02 -10.02,-7.86l-211.74 -529.21c-2.77,-6.97 -0.74,-15.53 4.6,-19.3l35.89 -25.31c2.68,-1.87 5.79,-2.29 8.72,-1.14 2.9,1.14 5.32,3.76 6.71,7.23l220.87 554.54c1.78,4.49 1.62,9.85 -0.41,14.14 -2.04,4.29 -5.68,6.92 -9.61,6.92l0.01 -0.01zm-38.15 -28.95l19.74 0 -207.2 -520.21 -16.14 11.37 203.6 508.87 0 -0.03z"/>
   <path class="fil0" d="M570.04 500.8c24.16,31.07 24.16,81.45 0,112.51 -24.18,31.07 -63.38,31.07 -87.56,0 -24.16,-31.06 -24.16,-81.44 0,-112.51 24.18,-31.07 63.37,-31.07 87.56,0z"/>
   <path class="fil0" d="M526.25 651.08c-19.54,0 -37.92,-9.77 -51.74,-27.53 -28.51,-36.66 -28.51,-96.3 0,-132.97 13.82,-17.76 32.2,-27.53 51.74,-27.53 19.54,0 37.92,9.77 51.73,27.53 28.51,36.67 28.51,96.31 0,132.97 -13.81,17.76 -32.19,27.53 -51.73,27.53zm0 -159.11c-13.53,0 -26.25,6.76 -35.83,19.05 -19.72,25.39 -19.72,66.7 0,92.07 9.57,12.29 22.29,19.06 35.83,19.06 13.52,0 26.24,-6.77 35.81,-19.06 19.74,-25.37 19.74,-66.68 0,-92.07 -9.57,-12.29 -22.29,-19.05 -35.81,-19.05z"/>
   <rect class="fil0" transform="matrix(0.652064 -0.838086 0.652064 0.838086 434.747 643.898)" width="244.1" height="85.43"/>
   <path class="fil0" d="M490.44 730.09c-2.88,0 -5.76,-1.41 -7.96,-4.24l-55.71 -71.6c-4.4,-5.65 -4.4,-14.8 0,-20.46l159.18 -204.58c2.11,-2.72 4.97,-4.25 7.96,-4.25 2.98,0 5.84,1.53 7.95,4.25l55.71 71.61c4.4,5.65 4.4,14.8 0,20.46l-159.17 204.57c-2.2,2.82 -5.07,4.24 -7.96,4.24zm-39.79 -86.06l39.79 51.15 143.26 -184.12 -39.79 -51.16 -143.26 184.13z"/>
   <path class="fil0" d="M729.19 1196.15l-0.56 0c-3.16,0 -6.12,0.12 -8.14,-3.04l-294.46 -459.2c-3.68,-5.75 -3.36,-13.57 0.74,-18.85l222.84 -286.14c4.12,-5.25 10.66,-5.52 15.11,-0.8l358.15 378.53c2.45,2.59 3.95,6.42 4.1,10.49 0.15,4.1 -1.04,8.08 -3.28,10.96l-286.5 366.03c-2.11,2.72 -4.98,2.01 -7.96,2.01l-0.04 0.01zm-279.29 -469.35l280.1 437.85 268.97 -345.7 -340.67 -360.01 -208.39 267.85 -0.01 0.01z"/>
   <g>
    <polygon class="fil1" points="538.18,572.42 609.81,480.36 593.89,459.9 522.26,551.97 "/>
   </g>
   <g>
    <path class="fil1" d="M535.55 494c0,0 -32.52,-11.33 -55.06,32.27 0,0 17.25,-4.14 25.88,5.24l29.18 -37.51z"/>
   </g>
   <g>
    <path class="fil1" d="M823.68 1083.44l16.95 0.44 87.52 -112.54 7.96 -10.22 -0.67 -19.58 -110.74 142.34m-1.02 -0.44z"/>
   </g>
   <path class="fil0" d="M295.29 1576.56c0,56.8 -35.82,102.82 -80.01,102.82 -44.19,0 -80,-46.02 -80,-102.82 0,-56.81 35.81,-102.84 80,-102.84 44.19,0 80.01,46.03 80.01,102.84z"/>
   <path class="fil0" d="M215.26 1693.97c-50.32,0 -91.25,-52.61 -91.25,-117.28 0,-64.68 40.94,-117.3 91.25,-117.3 50.32,0 91.26,52.62 91.26,117.3 0,64.68 -40.94,117.28 -91.26,117.28zm0 -205.65c-37.91,0 -68.74,39.63 -68.74,88.37 0,48.71 30.84,88.35 68.74,88.35 37.91,0 68.75,-39.64 68.75,-88.35 0,-48.74 -30.84,-88.37 -68.75,-88.37z"/>
   <g>
    <path class="fil1" d="M214.06 1488.41l0 176.73c33.77,0 68.74,-39.55 68.74,-88.34 0,-48.82 -34.98,-88.38 -68.74,-88.38l0 -0.01z"/>
   </g>
   <path class="fil0" d="M693.77 2527.04l-434.6 0c-5.38,0 -10,-4.89 -11.05,-11.67 -2.96,-19.3 -4.45,-38.82 -4.45,-58.01 0,-165 104.43,-299.2 232.81,-299.2 128.37,0 232.79,134.22 232.79,299.2 0,19.11 -1.5,38.62 -4.45,58 -1.03,6.77 -5.66,11.68 -11.04,11.68l-0.01 0zm-425.16 -28.93l415.69 0c1.62,-13.67 2.45,-27.32 2.45,-40.74 0,-149.02 -94.34,-270.27 -210.29,-270.27 -115.96,0 -210.3,121.25 -210.3,270.27 0,13.47 0.82,27.12 2.44,40.74l0.01 0z"/>
   <g>
    <path class="fil1" d="M476.47 2172.64c-37.36,0 -72.5,12.01 -103.39,32.99 11.7,-2.44 23.63,-4.06 35.86,-4.06 122.35,0 221.54,127.49 221.54,284.75 0,8.87 -0.4,17.61 -1.03,26.27l64.32 0c2.73,-17.87 4.24,-36.3 4.24,-55.2 0,-157.26 -99.19,-284.75 -221.54,-284.75z"/>
   </g>
   <g>
    <polygon class="fil2" points="251.58,1684.21 242.67,1689.28 433.07,2165.42 443.39,2165.42 "/>
   </g>
   <path class="fil0" d="M3716.77 1063.79c-11.72,0 -22.88,-3.39 -33.2,-10.1 -19.53,-12.72 -33.45,-35.7 -39.19,-64.76 -5.59,-28.33 -2.69,-59.12 8.17,-86.72 16.18,-41.09 47.63,-67.66 80.13,-67.66 11.71,0 22.89,3.4 33.18,10.1 39.8,25.88 53.73,93.83 31.04,151.46 -16.19,41.12 -47.64,67.66 -80.13,67.66l0 0.02zm15.91 -200.31c-24.09,0 -47.66,20.34 -60.04,51.81 -8.41,21.34 -10.7,44.98 -6.44,66.53 4.12,20.82 13.89,37.18 27.54,46.05 7.14,4.65 14.88,7 23.03,7 24.09,0 47.66,-20.33 60.05,-51.79 17.08,-43.41 7.61,-93.92 -21.11,-112.58 -7.13,-4.64 -14.88,-7 -23.03,-7l0 -0.02z"/>
   <g>
    <path class="fil3" d="M3760.9 857.58c-1.4,-0.91 -2.86,-1.64 -4.29,-2.41 9.06,26.8 8.64,60.45 -3.4,91.04 -19.1,48.51 -60.28,71.47 -93.91,53.59 5.93,17.54 15.89,32.17 29.46,40.99 34.33,22.34 78.29,-0.59 98.2,-51.18 19.92,-50.61 8.26,-109.7 -26.07,-132.03l0.01 0z"/>
   </g>
   <path class="fil0" d="M3608 1361.61c-66.07,0 -130.86,-54.1 -165.04,-137.84 -23.3,-57.06 -30.18,-120.93 -19.37,-179.86 10.94,-59.68 38.64,-107.18 78.02,-133.74 21.32,-14.38 44.55,-21.67 69.07,-21.67 66.07,0 130.85,54.11 165.04,137.83 23.3,57.06 30.19,120.95 19.38,179.86 -10.95,59.69 -38.65,107.19 -78.02,133.75 -21.32,14.37 -44.56,21.66 -69.08,21.66l0 0.01zm-37.33 -444.17c-20.83,0 -40.55,6.19 -58.61,18.36 -33.51,22.61 -57.15,63.37 -66.57,114.76 -9.55,52.14 -3.37,108.89 17.41,159.77 30.34,74.33 87.29,122.35 145.1,122.35 20.83,0 40.55,-6.18 58.61,-18.36 33.5,-22.59 57.15,-63.35 66.56,-114.74 9.56,-52.15 3.38,-108.91 -17.4,-159.78 -30.35,-74.33 -87.3,-122.36 -145.1,-122.36z"/>
   <ellipse class="fil0" transform="matrix(0.874121 0.377737 -0.293894 1.12349 3461.53 1612.14)" rx="103.74" ry="70.17"/>
   <path class="fil0" d="M4067.83 1250.34c22.91,44.66 -0.15,116.17 -51.53,159.73 -51.36,43.56 -111.59,42.63 -134.5,-2.03 -22.91,-44.65 0.15,-116.18 51.51,-159.72 51.38,-43.56 111.59,-42.65 134.51,2.01l0.01 0.01z"/>
   <path class="fil0" d="M3725.77 1977.21c-142.75,0 -258.87,-180.08 -258.87,-401.43 0,-221.36 116.11,-401.43 258.87,-401.43 142.75,0 258.87,180.07 258.87,401.43 0,221.35 -116.13,401.43 -258.87,401.43zm0 -773.94c-130.32,0 -236.36,167.1 -236.36,372.49 0,205.4 106.03,372.5 236.36,372.5 130.33,0 236.36,-167.1 236.36,-372.5 0,-205.39 -106.03,-372.49 -236.36,-372.49z"/>
   <g>
    <path class="fil3" d="M3725.77 1188.92c-17.37,0 -34.3,2.83 -50.65,8.14 112.46,36.52 196.97,192.23 196.97,378.81 0,186.58 -84.5,342.3 -196.97,378.82 16.35,5.31 33.28,8.13 50.65,8.13 136.75,0 247.61,-173.25 247.61,-386.95 0,-213.7 -110.86,-386.95 -247.61,-386.95z"/>
   </g>
   <path class="fil0" d="M3954.56 2527.04l-446.38 0c-41.13,0 -74.64,-42.71 -75.07,-95.46l-56.18 -529.42c-0.07,-0.64 -0.1,-1.29 -0.1,-1.96 0,-53.2 33.67,-96.47 75.07,-96.47l558.93 0c41.39,0 75.07,43.28 75.07,96.47 0,0.65 -0.04,1.32 -0.1,1.96l-56.17 529.42c-0.44,52.73 -33.95,95.46 -75.08,95.46l0.01 0zm-555.21 -627.76l56.17 529.32c0.07,0.64 0.11,1.29 0.11,1.94 0,37.24 23.58,67.55 52.55,67.55l446.38 0c28.99,0 52.57,-30.31 52.57,-67.55 0,-0.65 0.03,-1.32 0.1,-1.94l56.18 -529.32c-0.4,-36.82 -23.82,-66.61 -52.57,-66.61l-558.92 0c-28.74,0 -52.16,29.79 -52.56,66.61l-0.01 0z"/>
   <g>
    <path class="fil3" d="M4010.78 1818.25l-56.28 0c35.24,0 63.81,36.72 63.81,82.01l-56.27 530.37c0,45.29 -28.58,82.01 -63.81,82.01l56.27 -0.01c35.24,0 63.81,-36.72 63.81,-82.01l56.27 -530.37c0,-45.29 -28.57,-82.01 -63.81,-82.01l0.01 0.01z"/>
   </g>
   <path class="fil0" d="M3200.44 2411.44l-2067.12 0c-41.4,0 -75.08,-43.27 -75.08,-96.47l0 -1788.91c0,-53.2 33.68,-96.47 75.08,-96.47l2067.12 0c41.39,0 75.07,43.27 75.07,96.47l0 1788.91c0,53.19 -33.68,96.46 -75.07,96.46l0 0.01zm-2067.12 -1952.91c-28.99,0 -52.57,30.31 -52.57,67.55l0 1788.9c0,37.24 23.58,67.55 52.57,67.55l2067.12 -0.02c28.98,0 52.56,-30.3 52.56,-67.54l0 -1788.91c0,-37.24 -23.58,-67.54 -52.56,-67.54l-2067.12 0.01z"/>
   <g>
    <path class="fil1" d="M3189.19 443.94l-20.6 0c27.97,0 50.65,29.14 50.65,65.09l0 1772.06 33.77 0 0 -1755.16c0,-45.3 -28.58,-82 -63.82,-82l0 0.01z"/>
   </g>
   <path class="fil0" d="M3065.24 2382.54l-1796.98 0c-41.4,0 -75.08,-43.28 -75.08,-96.47l0 -1600.83c0,-53.2 33.68,-96.46 75.08,-96.46l1796.98 0c41.39,0 75.07,43.27 75.07,96.46l0 1600.83c0,53.21 -33.68,96.48 -75.07,96.48l0 -0.01zm-1796.98 -1764.84c-28.99,0 -52.56,30.3 -52.56,67.53l0 1600.83c0,37.24 23.58,67.53 52.56,67.53l1796.98 0.02c28.98,0 52.55,-30.31 52.55,-67.54l0 -1600.83c0,-37.24 -23.58,-67.53 -52.55,-67.53l-1796.98 -0.01z"/>
   <path class="fil0" d="M3598.43 2527.04l-2852.07 0c-40.41,0 -74.2,-33.43 -84.08,-83.2 -2.8,-14.05 -9.7,-47.78 -13.03,-62.11 -6.45,-27.67 -3.74,-54.62 7.42,-73.86 9.99,-17.25 25.86,-26.74 44.67,-26.74l2942.02 0c18.81,0 34.67,9.49 44.67,26.74 11.17,19.26 13.87,46.19 7.42,73.87 -3.33,14.31 -10.23,48.05 -13.02,62.1 -9.87,49.77 -43.67,83.2 -84.08,83.2l0.08 0zm-2897.05 -216.98c-11.69,0 -20.89,5.21 -26.62,15.09 -6.87,11.85 -8.29,29.46 -3.9,48.3 3.47,14.92 10.36,48.56 13.27,63.24 7.42,37.31 31.87,61.43 62.27,61.43l2852.09 -0.01c30.41,0 54.86,-24.12 62.27,-61.43 2.92,-14.69 9.8,-48.34 13.27,-63.23 4.39,-18.85 2.97,-36.46 -3.9,-48.31 -5.73,-9.88 -14.93,-15.09 -26.62,-15.09l-2942.02 0.01 -0.11 0z"/>
   <g>
    <path class="fil1" d="M2359.73 2295.48l-502.34 0 0 48.19c0,45.29 28.58,82.01 63.82,82.01l491.41 -0.01c35.24,0 63.81,-36.72 63.81,-82.01l0 -48.19 -116.7 0.01z"/>
   </g>
   <g>
    <path class="fil2" d="M683.03 2454.79c13.5,27.01 36.71,43.4 63.41,43.4l2852.08 0c26.71,0 49.91,-16.39 63.4,-43.4l-2978.83 0 -0.06 0z"/>
   </g>
   <g>
    <path class="fil4" d="M3065.24 603.03l-1796.98 0c-35.24,0 -63.82,36.72 -63.82,82.01l0 43.41c0,-45.29 28.58,-82.01 63.82,-82.01l1796.98 -0.01c35.23,0 63.81,36.72 63.81,82l0 -43.4c0,-45.29 -28.58,-82.01 -63.81,-82.01l0 0.01z"/>
   </g>
   <g>
    <polygon class="fil1" points="1069.43,2281.06 3219.15,2281.06 3219.15,2252.13 1069.43,2252.13 "/>
   </g>
   <ellipse class="fil0" cx="2172.53" cy="518.06" rx="12.66" ry="16.27"/>
   <g>
    <path class="fil2" d="M3174.02 444.66c1.87,-0.28 3.69,-0.73 5.62,-0.73l-5.62 0 0 0.73z"/>
   </g>
   <path class="fil0" d="M4310.96 2527.04l-56.27 0c-6.22,0 -11.26,-6.47 -11.26,-14.47 0,-8 5.04,-14.46 11.26,-14.46l56.27 0c6.23,0 11.26,6.47 11.26,14.46 0,7.99 -5.03,14.47 -11.26,14.47zm-146.31 0l-90.04 0c-6.22,0 -11.25,-6.47 -11.25,-14.47 0,-8 5.04,-14.46 11.25,-14.46l90.04 0c6.23,0 11.25,6.47 11.25,14.46 0,7.99 -5.03,14.47 -11.25,14.47z"/>
   <path class="fil0" d="M4074.58 2527.04l-3680.42 0c-6.22,0 -11.25,-6.47 -11.25,-14.47 0,-8 5.04,-14.46 11.25,-14.46l3680.42 0c6.23,0 11.25,6.47 11.25,14.46 0,7.99 -5.03,14.47 -11.25,14.47z"/>
   <path class="fil0" d="M382.98 2527.04c-6.21,0 -11.32,-6.47 -11.32,-14.47 0,-8 4.98,-14.46 11.21,-14.46l0.11 0c6.22,0 11.25,6.47 11.25,14.46 0,7.99 -5.04,14.47 -11.25,14.47zm-90.14 0l-90.05 0c-6.23,0 -11.25,-6.47 -11.25,-14.47 0,-8 5.03,-14.46 11.25,-14.46l90.05 0c6.22,0 11.25,6.47 11.25,14.46 0,7.99 -5.04,14.47 -11.25,14.47zm-180.08 0l-90.05 0c-6.23,0 -11.25,-6.47 -11.25,-14.47 0,-8 5.03,-14.46 11.25,-14.46l90.05 0c6.22,0 11.25,6.47 11.25,14.46 0,7.99 -5.04,14.47 -11.25,14.47z"/>
   <line class="fil5" x1="3759.77" y1="963.65" x2="3821.33" y2= "1000.86" />
   <path class="fil0" d="M3821.33 1015.35c-1.6,0 -3.24,-0.44 -4.79,-1.39l-61.39 -37.21c-5.62,-3.4 -8.03,-12.01 -5.38,-19.26 2.63,-7.2 9.35,-10.36 14.98,-6.91l61.4 37.21c5.62,3.4 8.03,12.02 5.37,19.26 -1.91,5.23 -5.97,8.3 -10.19,8.3z"/>
   <line class="fil5" x1="3724.92" y1="849.74" x2="3721.55" y2= "798.33" />
   <path class="fil0" d="M3724.92 864.23c-5.79,0 -10.72,-5.72 -11.2,-13.27l-3.34 -51.4c-0.52,-7.95 4.08,-14.95 10.28,-15.61 6.31,-0.95 11.63,5.24 12.14,13.2l3.34 51.41c0.53,7.95 -4.08,14.94 -10.27,15.61 -0.32,0.03 -0.64,0.06 -0.94,0.06l-0.01 0z"/>
   <line class="fil5" x1="3687.82" y1="902.88" x2="3635.54" y2= "864.23" />
   <path class="fil0" d="M3687.82 917.34c-1.91,0 -3.84,-0.62 -5.62,-1.93l-52.13 -38.65c-5.38,-4 -7.23,-12.85 -4.12,-19.77 3.1,-6.91 9.96,-9.29 15.38,-5.3l52.13 38.65c5.39,3.99 7.23,12.83 4.12,19.77 -2.08,4.63 -5.86,7.23 -9.76,7.23z"/>
   <line class="fil5" x1="3796.6" y1="902.88" x2="3821.33" y2= "898.01" />
   <path class="fil0" d="M3796.6 917.34c-5.47,0 -10.26,-5.12 -11.12,-12.28 -0.94,-7.9 3.28,-15.27 9.42,-16.49l24.62 -4.86c6.15,-1.23 11.87,4.21 12.83,12.12 0.95,7.89 -3.27,15.26 -9.42,16.48l-24.62 4.86c-0.57,0.11 -1.15,0.17 -1.71,0.17z"/>
   <line class="fil5" x1="3821.33" y1="1463.85" x2="3859.28" y2= "1407.85" />
   <path class="fil0" d="M3821.33 1478.3c-2.64,0 -5.28,-1.18 -7.41,-3.59 -4.68,-5.27 -5.15,-14.41 -1.05,-20.41l38.08 -55.84c4.09,-6.02 11.23,-6.57 15.88,-1.34 4.67,5.27 5.14,14.42 1.04,20.41l-38.07 55.83c-2.23,3.26 -5.34,4.93 -8.47,4.93l0 0.01z"/>
   <line class="fil5" x1="4012.74" y1="1347.17" x2="4074.58" y2= "1407.85" />
   <path class="fil0" d="M4074.58 1422.3c-2.38,0 -4.79,-0.98 -6.82,-2.98l-61.91 -60.89c-4.93,-4.86 -5.88,-13.93 -2.09,-20.28 3.77,-6.34 10.87,-7.54 15.77,-2.71l61.91 60.9c4.93,4.86 5.88,13.93 2.09,20.27 -2.2,3.73 -5.56,5.68 -8.95,5.68l0 0.01z"/>
   <line class="fil5" x1="3995.04" y1="1425.19" x2="4001.5" y2= "1449.39" />
   <path class="fil0" d="M4001.5 1463.85c-4.67,0 -9.03,-3.77 -10.64,-9.75l-6.43 -24.05c-2.02,-7.56 1.1,-15.79 6.98,-18.38 5.9,-2.61 12.29,1.43 14.31,8.97l6.42 24.05c2.02,7.56 -1.09,15.79 -6.98,18.38 -1.2,0.55 -2.45,0.8 -3.66,0.8l0 -0.02z"/>
   <line class="fil5" x1="3940.22" y1="1273.82" x2="3924.48" y2= "1200.85" />
   <path class="fil0" d="M3940.22 1288.27c-4.92,0 -9.45,-4.19 -10.83,-10.59l-15.71 -72.74c-1.66,-7.71 1.84,-15.67 7.82,-17.82 6,-2.12 12.2,2.37 13.86,10.08l15.73 72.74c1.66,7.7 -1.85,15.67 -7.84,17.81 -1.02,0.36 -2.03,0.52 -3.03,0.52z"/>
   <line class="fil5" x1="4007.12" y1="1210.6" x2="4018.37" y2= "1181.71" />
   <path class="fil0" d="M4007.12 1225.05c-1.69,0 -3.4,-0.5 -5.02,-1.53 -5.56,-3.57 -7.81,-12.27 -5.03,-19.41l11.25 -28.93c2.77,-7.15 9.55,-10.03 15.1,-6.48 5.56,3.57 7.81,12.27 5.04,19.42l-11.26 28.93c-1.98,5.07 -5.95,8 -10.08,8z"/>
   <line class="fil5" x1="4052.09" y1="1273.82" x2="4113.93" y2= "1253.96" />
   <path class="fil0" d="M4052.09 1288.27c-5.05,0 -9.64,-4.41 -10.92,-11 -1.49,-7.75 2.19,-15.6 8.23,-17.52l61.9 -19.68c6.03,-1.89 12.14,2.81 13.63,10.56 1.5,7.75 -2.18,15.6 -8.21,17.52l-61.91 19.68c-0.91,0.29 -1.81,0.43 -2.71,0.43l-0.01 0.01z"/>
   <line class="fil5" x1="4074.58" y1="1312.49" x2="4095.1" y2= "1314.64" />
   <path class="fil0" d="M4095.1 1329.1c-0.31,0 -0.64,-0.01 -0.98,-0.06l-20.62 -2.27c-6.19,-0.68 -10.79,-7.69 -10.25,-15.66 0.53,-7.94 5.91,-14.16 12.17,-13.17l20.64 2.28c6.19,0.67 10.78,7.69 10.25,15.66 -0.51,7.53 -5.43,13.22 -11.21,13.22z"/>
   <line class="fil5" x1="3545.59" y1="935.76" x2="3556.83" y2= "863.43" />
   <path class="fil0" d="M3545.59 950.24c-0.73,0 -1.46,-0.08 -2.22,-0.28 -6.09,-1.57 -10.04,-9.19 -8.82,-17.02l11.25 -72.33c1.21,-7.83 7.11,-12.98 13.24,-11.34 6.08,1.56 10.04,9.18 8.82,17.02l-11.26 72.33c-1.07,6.88 -5.77,11.63 -11.02,11.63l0.01 -0.01z"/>
   <line class="fil5" x1="3497.82" y1="929.51" x2="3470.55" y2= "902.88" />
   <path class="fil0" d="M3497.82 943.99c-2.38,0 -4.76,-0.96 -6.8,-2.95l-27.3 -26.64c-4.96,-4.84 -5.93,-13.9 -2.16,-20.26 3.76,-6.39 10.83,-7.59 15.76,-2.76l27.3 26.65c4.96,4.83 5.92,13.9 2.16,20.25 -2.21,3.76 -5.57,5.73 -8.96,5.73l0 -0.02z"/>
   <line class="fil5" x1="3497.82" y1="1232.28" x2="3429.79" y2= "1253.96" />
   <path class="fil0" d="M3429.79 1268.41c-5.05,0 -9.64,-4.4 -10.92,-10.98 -1.5,-7.75 2.18,-15.61 8.21,-17.53l68.04 -21.7c6.02,-1.87 12.14,2.8 13.64,10.55 1.5,7.75 -2.18,15.61 -8.21,17.53l-68.04 21.7c-0.92,0.28 -1.83,0.43 -2.73,0.43l0.01 0z"/>
   <line class="fil5" x1="3545.59" y1="1124.95" x2="3497.82" y2= "1104.54" />
   <path class="fil0" d="M3545.59 1139.44c-1.17,0 -2.38,-0.24 -3.55,-0.73l-47.75 -20.43c-5.9,-2.52 -9.08,-10.72 -7.13,-18.3 1.95,-7.58 8.34,-11.64 14.23,-9.17l47.74 20.43c5.91,2.53 9.1,10.73 7.14,18.3 -1.58,6.07 -5.96,9.9 -10.69,9.9l0.01 0z"/>
   <line class="fil5" x1="3589.17" y1="1024.96" x2="3598.16" y2= "963.65" />
   <path class="fil0" d="M3589.17 1039.44c-0.69,0 -1.38,-0.07 -2.07,-0.24 -6.11,-1.45 -10.14,-9 -9.01,-16.86l8.86 -61.31c1.14,-7.86 7.01,-13.1 13.12,-11.58 6.12,1.45 10.15,9 9.01,16.86l-8.85 61.31c-1,6.97 -5.73,11.83 -11.06,11.83l0 -0.01z"/>
   <line class="fil5" x1="3678.83" y1="1034.59" x2="3714.24" y2= "963.65" />
   <path class="fil0" d="M3678.83 1049.09c-2.09,0 -4.22,-0.75 -6.09,-2.31 -5.24,-4.33 -6.73,-13.28 -3.36,-20l35.65 -70.96c3.37,-6.72 10.35,-8.65 15.54,-4.31 5.23,4.32 6.74,13.27 3.36,19.98l-35.64 70.96c-2.15,4.29 -5.76,6.63 -9.46,6.63l0 0.01z"/>
   <line class="fil5" x1="3706.93" y1="1104.54" x2="3770.74" y2= "1114.73" />
   <path class="fil0" d="M3770.74 1129.21c-0.46,0 -0.93,-0.02 -1.41,-0.12l-63.79 -10.21c-6.16,-1 -10.54,-8.22 -9.76,-16.15 0.76,-7.93 6.3,-13.5 12.56,-12.56l63.78 10.22c6.16,0.99 10.54,8.21 9.77,16.14 -0.7,7.32 -5.57,12.68 -11.16,12.68l0.01 0z"/>
   <line class="fil5" x1="3437.1" y1="1166.1" x2="3376.67" y2= "1145.51" />
   <path class="fil0" d="M3437.1 1180.58c-0.96,0 -1.94,-0.15 -2.9,-0.47l-60.33 -20.59c-6.01,-2.05 -9.58,-9.98 -8,-17.7 1.6,-7.71 7.78,-12.3 13.77,-10.27l60.34 20.58c6,2.06 9.58,9.98 7.99,17.7 -1.34,6.47 -5.89,10.75 -10.87,10.75z"/>
   <line class="fil5" x1="3406.74" y1="1068.37" x2="3429.79" y2= "1063.79" />
   <path class="fil0" d="M3406.74 1082.82c-5.45,0 -10.24,-5.09 -11.11,-12.24 -0.96,-7.91 3.26,-15.29 9.4,-16.52l22.87 -4.57c6.19,-1.18 11.9,4.19 12.84,12.08 0.96,7.89 -3.25,15.29 -9.39,16.51l-22.87 4.56c-0.59,0.11 -1.17,0.17 -1.74,0.17l0 0.01z"/>
   <line class="fil5" x1="3624.3" y1="1155.8" x2="3635.54" y2= "1114.73" />
   <line class="fil5" x1="3478.14" y1="1000.86" x2="3448.34" y2= "963.65" />
   <path class="fil0" d="M3478.14 1015.35c-2.84,0 -5.68,-1.38 -7.87,-4.12l-29.7 -37.2c-4.46,-5.57 -4.54,-14.73 -0.2,-20.46 4.35,-5.72 11.48,-5.81 15.92,-0.25l29.71 37.21c4.46,5.57 4.54,14.73 0.2,20.45 -2.2,2.91 -5.14,4.37 -8.06,4.37z"/>
   <line class="fil5" x1="3551.22" y1="1200.85" x2="3570.05" y2= "1210.6" />
   <path class="fil0" d="M3570.05 1225.05c-1.39,0 -2.81,-0.32 -4.19,-1.03l-18.75 -9.65c-5.78,-2.97 -8.58,-11.4 -6.27,-18.82 2.32,-7.42 8.88,-11 14.64,-8.05l18.76 9.65c5.77,2.98 8.57,11.4 6.26,18.81 -1.77,5.65 -6,9.09 -10.45,9.09z"/>
   <line class="fil5" x1="3448.34" y1="1555.25" x2="3406.74" y2= "1485.52" />
   <path class="fil0" d="M3448.34 1569.7c-3.39,0 -6.75,-1.97 -8.96,-5.7l-41.43 -69.92c-3.76,-6.36 -2.8,-15.42 2.15,-20.27 4.95,-4.85 12.01,-3.61 15.78,2.76l41.42 69.91c3.77,6.35 2.81,15.43 -2.14,20.27 -2.04,2 -4.43,2.95 -6.81,2.95l-0.01 0z"/>
   <line class="fil5" x1="3387.91" y1="1542.97" x2="3368.23" y2= "1520.57" />
   <path class="fil0" d="M3387.91 1557.42c-2.65,0 -5.33,-1.2 -7.47,-3.65l-19.84 -22.64c-4.65,-5.3 -5.07,-14.44 -0.94,-20.42 4.12,-5.98 11.25,-6.52 15.89,-1.22l19.85 22.63c4.65,5.3 5.07,14.44 0.95,20.43 -2.22,3.22 -5.32,4.86 -8.42,4.86l-0.02 0.01z"/>
   <line class="fil5" x1="3406.74" y1="1611.96" x2="3356.15" y2= "1637.26" />
   <path class="fil0" d="M3356.15 1651.7c-4.51,0 -8.76,-3.5 -10.49,-9.24 -2.24,-7.44 0.63,-15.82 6.43,-18.72l50.8 -25.31c5.76,-2.87 12.3,0.8 14.56,8.26 2.24,7.44 -0.64,15.82 -6.43,18.71l-50.8 25.32c-1.33,0.66 -2.72,0.98 -4.07,0.98z"/>
   <line class="fil5" x1="3406.74" y1="1669.41" x2="3387.91" y2= "1700.12" />
   <path class="fil0" d="M3387.91 1714.57c-2.44,0 -4.91,-1.02 -6.98,-3.14 -4.87,-4.96 -5.69,-14.06 -1.83,-20.32l18.91 -30.62c3.85,-6.26 10.94,-7.33 15.81,-2.35 4.86,4.95 5.69,14.06 1.82,20.31l-18.9 30.63c-2.23,3.6 -5.51,5.48 -8.83,5.48l0 0.01z"/>
   <line class="fil5" x1="3448.34" y1="1644.49" x2="3437.1" y2= "1714.57" />
   <path class="fil0" d="M3437.1 1729.02c-0.76,0 -1.51,-0.1 -2.29,-0.3 -6.09,-1.62 -10,-9.28 -8.75,-17.09l11.25 -69.92c1.26,-7.83 7.19,-12.82 13.3,-11.25 6.09,1.63 10.01,9.28 8.75,17.09l-11.26 69.92c-1.1,6.84 -5.79,11.55 -11.01,11.55l0.01 0z"/>
   <line class="fil5" x1="3828.92" y1="1273.82" x2="3851.4" y2= "1188.92" />
   <path class="fil0" d="M3828.92 1288.27c-1.21,0 -2.43,-0.24 -3.63,-0.78 -5.89,-2.58 -9.03,-10.8 -7.01,-18.36l22.51 -84.79c2,-7.56 8.41,-11.63 14.29,-9.01 5.88,2.58 9.02,10.79 7.01,18.36l-22.51 84.79c-1.6,6.01 -5.97,9.79 -10.65,9.79l-0.01 0z"/>
   <line class="fil5" x1="3787.04" y1="1200.85" x2="3790.7" y2= "1166.1" />
   <path class="fil0" d="M3787.04 1215.3c-0.47,0 -0.94,-0.05 -1.43,-0.11 -6.17,-1 -10.53,-8.25 -9.74,-16.18l3.44 -34.87c0.79,-7.93 6.35,-13.39 12.58,-12.53 6.16,1.01 10.54,8.25 9.75,16.18l-3.44 34.87c-0.73,7.3 -5.57,12.65 -11.16,12.65l0 -0.01z"/>
   <line class="fil5" x1="3589.17" y1="1314.64" x2="3532.39" y2= "1263.71" />
   <path class="fil0" d="M3589.17 1329.1c-2.23,0 -4.46,-0.83 -6.42,-2.58l-56.79 -50.76c-5.1,-4.57 -6.36,-13.58 -2.81,-20.14 3.53,-6.57 10.54,-8.2 15.66,-3.62l56.79 50.76c5.1,4.56 6.36,13.58 2.81,20.14 -2.18,4.05 -5.69,6.2 -9.24,6.2z"/>
   <line class="fil5" x1="3058.5" y1="-838.21" x2="3066.55" y2= "1150.41" />
   <path class="fil0" d="M3680.51 1210.6c-1.17,0 -2.37,-0.23 -3.55,-0.74 -5.9,-2.52 -9.08,-10.71 -7.11,-18.29l11.26 -43.41c1.96,-7.57 8.29,-11.69 14.23,-9.13 5.9,2.51 9.08,10.7 7.11,18.3l-11.26 43.4c-1.56,6.06 -5.95,9.88 -10.67,9.88l-0.01 -0.01z"/>
   <line class="fil5" x1="3661.67" y1="1263.71" x2="3678.83" y2= "1289.36" />
   <path class="fil0" d="M3678.83 1303.81c-3.16,0 -6.29,-1.69 -8.51,-5l-17.07 -25.39c-4.07,-6.04 -3.54,-15.18 1.15,-20.41 4.69,-5.21 11.79,-4.56 15.88,1.48l17.07 25.39c4.06,6.05 3.54,15.18 -1.15,20.41 -2.13,2.36 -4.75,3.52 -7.37,3.52z"/>
   <line class="fil5" x1="3728.85" y1="1253.96" x2="3721.55" y2= "1329.1" />
   <path class="fil0" d="M3721.55 1343.55c-0.46,0 -0.93,-0.05 -1.42,-0.11 -6.17,-0.99 -10.53,-8.21 -9.76,-16.16l7.33 -75.08c0.76,-7.89 6.26,-13.41 12.57,-12.54 6.17,0.99 10.54,8.22 9.76,16.16l-7.33 75.07c-0.71,7.3 -5.56,12.66 -11.16,12.66l0.01 0z"/>
   <line class="fil5" x1="3928.14" y1="1398.82" x2="3961.87" y2= "1398.82" />
   <line class="fil5" x1="3461.27" y1="1463.85" x2="3506.24" y2= "1509.73" />
   <path class="fil0" d="M3506.24 1524.18c-2.44,0 -4.9,-1.02 -6.98,-3.11l-45.02 -45.8c-4.87,-4.96 -5.69,-14.06 -1.83,-20.33 3.84,-6.26 10.9,-7.34 15.81,-2.36l45.02 45.8c4.87,4.95 5.69,14.06 1.84,20.33 -2.22,3.6 -5.53,5.47 -8.84,5.47z"/>
   <line class="fil5" x1="3497.82" y1="1424.11" x2="3481.79" y2= "1420.5" />
   <path class="fil0" d="M3497.82 1438.56c-0.68,0 -1.35,-0.07 -2.03,-0.22l-16.04 -3.75c-6.11,-1.43 -10.17,-8.97 -9.06,-16.82 1.1,-7.87 6.94,-13.02 13.08,-11.65l16.04 3.75c6.11,1.43 10.18,8.97 9.07,16.81 -0.99,7 -5.73,11.89 -11.06,11.89l0 -0.01z"/>
   <line class="fil5" x1="3551.22" y1="1377.51" x2="3593.66" y2= "1420.5" />
   <path class="fil0" d="M3593.66 1434.95c-2.44,0 -4.88,-1 -6.95,-3.1l-42.45 -42.89c-4.88,-4.93 -5.74,-14.03 -1.89,-20.32 3.83,-6.27 10.9,-7.4 15.8,-2.43l42.46 42.9c4.88,4.93 5.73,14.03 1.89,20.31 -2.22,3.63 -5.52,5.53 -8.85,5.53l-0.01 0z"/>
   <line class="fil5" x1="3635.54" y1="1389.07" x2="3652.97" y2= "1425.19" />
   <path class="fil0" d="M3652.97 1439.65c-3.78,0 -7.46,-2.44 -9.6,-6.86l-17.39 -36.23c-3.26,-6.82 -1.62,-15.73 3.67,-19.93 5.3,-4.19 12.23,-2.06 15.5,4.72l17.39 36.23c3.26,6.82 1.62,15.73 -3.67,19.93 -1.85,1.45 -3.89,2.14 -5.9,2.14z"/>
   <line class="fil5" x1="3840.45" y1="1601.13" x2="3873.04" y2= "1555.25" />
   <path class="fil0" d="M3840.45 1615.58c-2.73,0 -5.45,-1.26 -7.61,-3.81 -4.58,-5.41 -4.89,-14.54 -0.69,-20.44l32.69 -45.81c4.19,-5.89 11.33,-6.28 15.9,-0.89 4.58,5.4 4.88,14.54 0.69,20.44l-32.69 45.81c-2.23,3.11 -5.26,4.7 -8.3,4.7l0.01 0z"/>
   <line class="fil5" x1="3900.04" y1="1624.61" x2="3922.52" y2= "1615.58" />
   <path class="fil0" d="M3900.04 1639.06c-4.8,0 -9.23,-3.96 -10.74,-10.16 -1.85,-7.62 1.46,-15.74 7.39,-18.11l22.51 -9.04c5.91,-2.43 12.24,1.84 14.09,9.49 1.85,7.61 -1.46,15.74 -7.39,18.11l-22.51 9.04c-1.1,0.45 -2.24,0.67 -3.35,0.67z"/>
   <line class="fil5" x1="3932.36" y1="1531.77" x2="3998.13" y2= "1520.57" />
   <path class="fil0" d="M3932.36 1546.22c-5.56,0 -10.39,-5.29 -11.15,-12.56 -0.82,-7.91 3.5,-15.19 9.66,-16.26l65.86 -11.32c6.23,-0.97 11.82,4.52 12.65,12.43 0.83,7.92 -3.51,15.19 -9.67,16.26l-65.85 11.32c-0.51,0.08 -1,0.13 -1.5,0.13z"/>
   <line class="fil5" x1="3974.8" y1="1601.13" x2="3990.26" y2= "1592.82" />
   <path class="fil0" d="M3974.8 1615.58c-4.36,0 -8.5,-3.26 -10.33,-8.73 -2.46,-7.33 0.16,-15.84 5.87,-19.01l15.22 -8.45c5.72,-3.16 12.35,0.23 14.79,7.55 2.46,7.33 -0.17,15.85 -5.87,19.01l-15.22 8.45c-1.46,0.81 -2.97,1.19 -4.46,1.19l0 -0.01z"/>
   <line class="fil5" x1="3521.7" y1="1714.57" x2="3478.14" y2= "1760.45" />
   <path class="fil0" d="M3478.14 1774.9c-3.27,0 -6.5,-1.8 -8.73,-5.31 -3.93,-6.19 -3.22,-15.32 1.6,-20.36l43.65 -45.81c4.84,-5.07 11.92,-4.14 15.85,2.05 3.93,6.18 3.21,15.31 -1.6,20.35l-43.65 45.81c-2.11,2.19 -4.62,3.27 -7.12,3.27z"/>
   <line class="fil5" x1="3545.59" y1="1644.49" x2="3589.17" y2= "1654.24" />
   <path class="fil0" d="M3589.17 1668.69c-0.63,0 -1.28,-0.07 -1.92,-0.22l-43.66 -9.63c-6.13,-1.34 -10.24,-8.83 -9.19,-16.69 1.04,-7.87 6.86,-13.14 12.99,-11.82l43.66 9.64c6.13,1.34 10.24,8.83 9.18,16.7 -0.93,7.05 -5.69,12.02 -11.07,12.02l0.01 0z"/>
   <line class="fil5" x1="3572.3" y1="1750.69" x2="3615.02" y2= "1714.57" />
   <path class="fil0" d="M3572.3 1765.14c-3.65,0 -7.23,-2.27 -9.4,-6.48 -3.43,-6.66 -2.01,-15.63 3.18,-20.04l42.54 -36.16c5.18,-4.43 12.16,-2.6 15.6,4.08 3.43,6.68 2.01,15.64 -3.18,20.05l-42.54 36.16c-1.91,1.62 -4.06,2.4 -6.19,2.4l-0.01 -0.01z"/>
   <line class="fil5" x1="3696.53" y1="1679.52" x2="3678.83" y2= "1737.33" />
   <path class="fil0" d="M3678.83 1751.77c-1.39,0 -2.78,-0.32 -4.14,-1.02 -5.79,-2.94 -8.61,-11.34 -6.32,-18.77l17.82 -57.86c2.29,-7.44 8.87,-11.05 14.6,-8.12 5.79,2.94 8.62,11.34 6.32,18.77l-17.82 57.87c-1.74,5.67 -5.99,9.13 -10.46,9.13z"/>
   <line class="fil5" x1="3738.69" y1="1732.63" x2="3748.53" y2= "1760.45" />
   <path class="fil0" d="M3748.53 1774.9c-4.27,0 -8.35,-3.12 -10.24,-8.43l-9.9 -27.73c-2.59,-7.26 -0.11,-15.85 5.55,-19.18 5.73,-3.31 12.35,-0.13 14.93,7.12l9.89 27.74c2.59,7.26 0.11,15.84 -5.54,19.19 -1.53,0.88 -3.13,1.31 -4.69,1.31l0 -0.02z"/>
   <line class="fil5" x1="3629.92" y1="1542.97" x2="3572.3" y2= "1520.57" />
   <path class="fil0" d="M3629.92 1557.42c-1.09,0 -2.2,-0.2 -3.31,-0.64l-57.55 -22.64c-5.93,-2.34 -9.28,-10.43 -7.46,-18.06 1.82,-7.65 8.08,-11.98 14.06,-9.59l57.56 22.64c5.93,2.33 9.28,10.43 7.46,18.07 -1.49,6.22 -5.93,10.23 -10.76,10.23l0 -0.01z"/>
   <line class="fil5" x1="3770.74" y1="1620.28" x2="3780.02" y2= "1592.82" />
   <path class="fil0" d="M3770.74 1634.73c-1.5,0 -3.04,-0.39 -4.52,-1.21 -5.7,-3.22 -8.27,-11.76 -5.78,-19.07l9.38 -27.44c2.51,-7.31 9.11,-10.61 14.84,-7.43 5.68,3.23 8.27,11.76 5.78,19.07l-9.38 27.44c-1.85,5.43 -6,8.64 -10.32,8.64z"/>
   <line class="fil5" x1="3840.16" y1="1708.43" x2="3875.58" y2= "1718.18" />
   <path class="fil0" d="M3875.58 1732.63c-0.76,0 -1.55,-0.09 -2.33,-0.31l-35.64 -9.64c-6.08,-1.66 -9.99,-9.33 -8.7,-17.14 1.28,-7.81 7.29,-12.84 13.33,-11.17l35.65 9.65c6.07,1.66 9.97,9.33 8.69,17.14 -1.12,6.81 -5.79,11.48 -11,11.48l0 -0.01z"/>
   <line class="fil5" x1="3399.15" y1="1991.66" x2="4063.33" y2= "1991.66" />
   <path class="fil0" d="M4063.33 2006.1l-664.04 0c-6.22,0 -11.26,-6.47 -11.26,-14.47 0,-8 5.04,-14.46 11.26,-14.46l664.04 0c6.23,0 11.25,6.47 11.25,14.46 0,8 -5.03,14.47 -11.25,14.47z"/>
   <path class="fil0" d="M881.81 2527.04l-255.04 0c-41.39,0 -75.07,-43.27 -75.07,-96.48l0 -443.55c0,-53.21 33.68,-96.47 75.07,-96.47l255.04 0c41.39,0 75.07,43.28 75.07,96.47l0 12.66c85.79,8.1 153.83,100.7 153.83,212.77 0,112.08 -68.04,204.67 -153.83,212.78l0 5.33c0,53.21 -33.68,96.48 -75.07,96.48l0 0.01zm-255.04 -607.57c-28.98,0 -52.56,30.31 -52.56,67.55l0 443.55c0,37.25 23.58,67.55 52.56,67.55l255.04 -0.01c28.98,0 52.56,-30.31 52.56,-67.55l0 -19.23c0,-7.96 5,-14.42 11.19,-14.46 78.64,-0.62 142.63,-83.35 142.63,-184.42 0,-101.06 -63.99,-183.79 -142.63,-184.41 -6.19,-0.06 -11.19,-6.52 -11.19,-14.46l0 -26.56c0,-37.24 -23.58,-67.55 -52.56,-67.55l-255.04 0zm318.85 419.53c-2.97,0 -5.8,-1.49 -7.91,-4.18 -2.14,-2.72 -3.34,-6.41 -3.34,-10.29l0 -224.16c0,-3.87 1.2,-7.58 3.34,-10.29 2.15,-2.73 5.16,-4.45 8.03,-4.19 53.73,0.75 97.43,57.51 97.43,126.55 0,69.04 -43.7,125.8 -97.43,126.55 -0.05,0 -0.07,0 -0.12,0l0 0.01zm11.26 -222.89l0 192.72c36.07,-7.58 63.79,-48.08 63.79,-96.36 0,-48.29 -27.72,-88.79 -63.79,-96.36z"/>
   <g>
    <path class="fil2" d="M945.64 2013.69l0 -26.56c0,-45.29 -28.58,-82.01 -63.82,-82.01l-82.49 0.01 0 607.57 82.49 0c35.24,0 63.82,-36.72 63.82,-82.01l0 -19.23c85.03,-0.68 153.82,-89.43 153.82,-198.89 0,-109.45 -68.79,-198.21 -153.82,-198.88zm0 310.96l0 -224.17c47.75,0.67 86.29,50.57 86.29,112.08 0,61.52 -38.54,111.43 -86.29,112.09z"/>
   </g>
   <line class="fil5" x1="630.5" y1="1962.76" x2="878.1" y2= "1962.76" />
   <path class="fil0" d="M878.1 1977.21l-247.61 0c-6.23,0 -11.25,-6.47 -11.25,-14.47 0,-8.01 5.03,-14.46 11.25,-14.46l247.61 0c6.22,0 11.26,6.47 11.26,14.46 0,8 -5.04,14.47 -11.26,14.47z"/>
   <path class="fil5" d="M1986.08 1844.43l397.15 -672.95m-71.84 2.68l-359.25 612.38"/>
   <path class="fil5" d="M2311.39 1174.16l-359.25 612.38 -390.94 0m0 57.89l424.88 0 397.15 -672.95"/>
   <path class="fil5" d="M2335.41 1505.52l-309.19 0m0 45.78l336.03 0"/>
   <path class="fil0 str0" d="M2084.25 1626.89l-261.73 0 -211.5 -371.78 213.6 -364.11 255.14 0.58c6.19,36.84 36.86,64.84 73.77,64.84 41.37,0 74.91,-35.18 74.91,-78.57 0,-43.39 -33.54,-78.56 -74.91,-78.56 -34.11,0 -62.89,23.9 -71.95,56.61 -0.05,0.2 -0.11,0.39 -0.16,0.59l-276.98 0.09 -236.14 400.12 231.38 406.91 284.14 2.93c8.09,34.24 37.58,59.61 72.71,59.61 41.37,0 74.91,-35.17 74.91,-78.56 0,-43.39 -33.54,-78.57 -74.91,-78.57 -34.54,0 -63.62,24.52 -72.28,57.87zm69.28 -706.92c-23.4,0 -42.37,-18.86 -42.37,-42.12 0,-23.26 18.97,-42.12 42.37,-42.12 23.4,0 42.37,18.86 42.37,42.12 0,23.26 -18.97,42.12 -42.37,42.12zm3 769.73c-23.4,0 -42.37,-18.85 -42.37,-42.11 0,-23.27 18.97,-42.12 42.37,-42.12 23.4,0 42.37,18.85 42.37,42.12 0,23.26 -18.97,42.11 -42.37,42.11z"/>
   <path class="fil0 str1" d="M2223.59 1280l261.73 0 211.5 371.79 -213.6 364.11 -255.14 -0.58c-6.19,-36.85 -36.86,-64.84 -73.77,-64.84 -41.37,0 -74.91,35.17 -74.91,78.56 0,43.39 33.54,78.57 74.91,78.57 34.11,0 62.89,-23.91 71.95,-56.61 0.05,-0.2 0.1,-0.39 0.16,-0.59l276.98 -0.1 236.14 -400.11 -231.38 -406.92 -284.14 -2.93c-8.09,-34.23 -37.58,-59.6 -72.71,-59.6 -41.37,0 -74.91,35.17 -74.91,78.56 0,43.39 33.53,78.56 74.9,78.56 34.55,0.01 63.63,-24.52 72.29,-57.87zm-69.28 706.92c23.4,0 42.37,18.86 42.37,42.12 0,23.27 -18.97,42.12 -42.37,42.12 -23.4,0 -42.37,-18.85 -42.37,-42.12 0,-23.26 18.97,-42.12 42.37,-42.12zm-3.01 -769.73c23.4,0 42.38,18.86 42.37,42.12 0,23.26 -18.97,42.12 -42.37,42.12 -23.4,0 -42.37,-18.86 -42.37,-42.12 0.01,-23.26 18.97,-42.12 42.37,-42.12z"/>
  </g>
 </g>
</svg>
