<?xml version="1.0" encoding="UTF-8"?>
<!DOCTYPE svg PUBLIC "-//W3C//DTD SVG 1.1//EN" "http://www.w3.org/Graphics/SVG/1.1/DTD/svg11.dtd">
<!-- Creator: CorelDRAW -->
<svg xmlns="http://www.w3.org/2000/svg" xml:space="preserve" width="21.1666mm" height="21.1666mm" version="1.1" style="shape-rendering:geometricPrecision; text-rendering:geometricPrecision; image-rendering:optimizeQuality; fill-rule:evenodd; clip-rule:evenodd"
viewBox="0 0 2116.66 2116.66"
 xmlns:xlink="http://www.w3.org/1999/xlink"
 xmlns:xodm="http://www.corel.com/coreldraw/odm/2003">
 <defs>
  <style type="text/css">
   <![CDATA[
    .str1 {stroke:#93D0C8;stroke-width:10;stroke-miterlimit:22.9256}
    .str0 {stroke:#50ACEB;stroke-width:7.62;stroke-miterlimit:22.9256}
    .fil2 {fill:none}
    .fil3 {fill:#979EA9}
    .fil4 {fill:#50ACEB}
    .fil5 {fill:#93D0C8}
    .fil1 {fill:#50ACEB;fill-rule:nonzero}
    .fil0 {fill:#93D0C8;fill-rule:nonzero}
   ]]>
  </style>
 </defs>
 <g id="Capa_x0020_1">
  <metadata id="CorelCorpID_0Corel-Layer"/>
  <g id="_2315039762816">
   <path class="fil0" d="M1704.31 694.27c59.91,0 120.01,-18.87 170.39,-57.2l27.94 -21.29 -17.25 -30.59c-83.52,-148.02 -205.86,-270.4 -353.92,-353.92l-30.6 -17.25 -21.28 27.93c-84.9,111.46 -74.21,270.56 24.99,370.25 54.54,54.29 127.01,82.07 199.73,82.07z"/>
   <path class="fil1" d="M1969.63 789.04l-9.59 -33.62 -34.63 4.76c-138.91,18.98 -243.67,139.11 -243.67,279.34 0,140.24 104.76,260.36 243.63,279.39l34.63 4.75 9.59 -33.61c22.98,-80.46 34.63,-164.75 34.63,-250.53 0,-85.78 -11.65,-170.07 -34.59,-250.48z"/>
   <path class="fil0" d="M1504.46 1466.97c-99.08,99.52 -109.77,258.67 -24.87,370.12l21.28 27.94 30.6 -17.25c148.02,-83.53 270.4,-205.91 353.92,-353.93l17.25 -30.59 -27.94 -21.29c-111.49,-84.85 -270.64,-74.12 -370.24,25z"/>
   <path class="fil1" d="M1077.09 1644.17c-140.24,0 -260.36,104.76 -279.38,243.63l-4.76 34.63 33.62 9.59c80.45,22.98 164.74,34.63 250.52,34.63 85.78,0 170.07,-11.65 250.49,-34.59l33.61 -9.59 -4.75 -34.63c-18.99,-138.91 -139.11,-243.67 -279.35,-243.67z"/>
   <path class="fil0" d="M279.52 1441.97l-27.93 21.29 17.25 30.59c83.48,148.02 205.86,270.4 353.92,353.93l30.59 17.25 21.29 -27.94c84.89,-111.46 74.21,-270.56 -24.99,-370.25 -99.53,-99.04 -258.63,-109.76 -370.13,-24.87z"/>
   <path class="fil1" d="M472.44 1039.52c0,-140.23 -104.77,-260.36 -243.63,-279.38l-34.63 -4.76 -9.59 33.62c-22.98,80.45 -34.63,164.74 -34.63,250.52 0,85.78 11.65,170.07 34.59,250.49l9.6 33.61 34.62 -4.75c138.91,-18.99 243.67,-139.11 243.67,-279.35z"/>
   <path class="fil0" d="M449.87 694.27c72.72,0 145.19,-27.74 199.74,-82.07l0.12 -0.13c99.08,-99.52 109.76,-258.67 24.87,-370.12l-21.29 -27.94 -30.59 17.25c-148.02,83.53 -270.4,205.87 -353.92,353.93l-17.25 30.59 27.93 21.29c50.39,38.33 110.49,57.2 170.39,57.2z"/>
   <path class="fil1" d="M1077.09 434.87c140.24,0 260.36,-104.77 279.39,-243.63l4.75 -34.63 -33.57 -9.59c-160.72,-45.96 -340.3,-45.96 -501.06,0l-33.57 9.59 4.75 34.63c18.95,138.87 139.07,243.63 279.31,243.63z"/>
   <g>
    <g>
     <ellipse class="fil2" cx="1083.34" cy="640.28" rx="53.06" ry="55.65"/>
     <ellipse class="fil2" cx="1083.34" cy="640.28" rx="30.01" ry="29.83"/>
     <ellipse class="fil2" cx="1083.34" cy="640.28" rx="53.06" ry="55.65"/>
     <ellipse class="fil2" cx="1085.46" cy="1185.47" rx="30.01" ry="29.83"/>
     <path class="fil2" d="M1034.27 1170.82c6.13,-23.63 26.73,-40.99 51.19,-40.99 29.31,0 53.06,24.91 53.06,55.64 0,30.73 -23.75,55.65 -53.06,55.65 -24.88,0 -45.77,-17.98 -51.5,-42.22"/>
     <polyline class="fil2" points="1032.94,624.73 836.08,625.21 668.83,908.61 834.52,1195.61 1033.96,1198.9 "/>
     <polyline class="fil2" points="1034.27,1170.82 848.89,1170.82 699.08,907.48 850.37,649.59 1030.91,649.59 "/>
     <path class="fil3" d="M1030.28 640.28c0,30.73 23.75,55.64 53.06,55.64 29.3,0 53.05,-24.91 53.05,-55.64 0,-30.73 -23.75,-55.65 -53.05,-55.65 -24.33,0 -44.83,17.17 -51.1,40.58 -1.28,4.79 -1.96,9.85 -1.96,15.07zm23.05 0c0,-16.48 13.43,-29.83 30.01,-29.83 16.57,0 30.01,13.35 30.01,29.83 0,16.47 -13.44,29.83 -30.01,29.83 -16.58,0 -30.01,-13.36 -30.01,-29.83z"/>
     <path class="fil2" d="M850.37 649.59l164.64 0m0 -24.38l-178.93 0"/>
     <path class="fil2" d="M836.08 625.21l-167.25 283.4m30.25 -1.13l151.29 -257.89"/>
     <path class="fil2" d="M668.83 908.61l165.69 287 199.44 3.29m0.31 -28.08l-185.38 0 -149.81 -263.34"/>
     <path class="fil2" d="M699.08 907.48l151.29 -257.89 164.64 0m0 -24.38l-178.93 0 -167.25 283.4"/>
     <path class="fil2" d="M1032.26 625.15l-196.18 0.06 -167.25 283.4 165.69 287 199.44 3.29m0.31 -28.08l-185.38 0 -149.81 -263.34 151.29 -257.89 180.72 0.41"/>
     <g>
      <path class="fil3" d="M1033.96 1198.9c5.73,24.24 26.62,42.22 51.5,42.22 29.31,0 53.06,-24.92 53.06,-55.65 0,-30.73 -23.75,-55.64 -53.06,-55.64 -24.46,0 -45.06,17.36 -51.19,40.99l-0.31 28.08zm51.5 16.4c-16.57,0 -30.01,-13.35 -30.01,-29.83 0,-16.48 13.44,-29.83 30.01,-29.83 16.58,0 30.01,13.35 30.01,29.83 0,16.48 -13.43,29.83 -30.01,29.83z"/>
     </g>
     <g>
      <path class="fil3" d="M1034.27 1170.82l-185.38 0 -149.81 -263.34 151.29 -257.89 180.71 0.41c4.39,26.1 26.11,45.92 52.26,45.92 29.3,0 53.05,-24.91 53.05,-55.64 0,-30.73 -23.75,-55.65 -53.05,-55.65 -24.16,0 -44.55,16.94 -50.96,40.1 -0.04,0.14 -0.08,0.28 -0.12,0.42l-196.18 0.06 -167.25 283.4 163.88 288.21 201.25 2.08 0.31 -28.08zm19.06 -530.54c0,-16.48 13.43,-29.83 30.01,-29.83 16.57,0 30.01,13.35 30.01,29.83 0,16.47 -13.44,29.83 -30.01,29.83 -16.58,0 -30.01,-13.36 -30.01,-29.83z"/>
     </g>
    </g>
    <g>
     <ellipse class="fil2" cx="1083.89" cy="1455.65" rx="53.06" ry="55.65"/>
     <ellipse class="fil2" cx="1083.89" cy="1455.65" rx="30.01" ry="29.83"/>
     <ellipse class="fil2" cx="1083.89" cy="1455.65" rx="53.06" ry="55.65"/>
     <ellipse class="fil2" cx="1081.76" cy="910.46" rx="30.01" ry="29.83"/>
     <path class="fil2" d="M1132.96 925.12c-6.13,23.62 -26.73,40.99 -51.2,40.99 -29.3,0 -53.06,-24.92 -53.06,-55.65 0,-30.73 23.76,-55.64 53.06,-55.64 24.89,0 45.78,17.97 51.5,42.21"/>
     <polyline class="fil2" points="1134.29,1471.2 1331.15,1470.72 1498.4,1187.32 1332.7,900.32 1133.26,897.03 "/>
     <polyline class="fil2" points="1132.96,925.12 1318.34,925.12 1468.14,1188.45 1316.85,1446.34 1136.31,1446.34 "/>
     <path class="fil3" d="M1136.95 1455.65c0,-30.73 -23.76,-55.64 -53.06,-55.64 -29.3,0 -53.06,24.91 -53.06,55.64 0,30.74 23.76,55.65 53.06,55.65 24.32,0 44.83,-17.17 51.09,-40.58 1.28,-4.79 1.97,-9.85 1.97,-15.07zm-23.05 0c0,16.48 -13.44,29.84 -30.01,29.84 -16.58,0 -30.01,-13.36 -30.01,-29.84 0,-16.47 13.43,-29.83 30.01,-29.83 16.57,0 30.01,13.36 30.01,29.83z"/>
     <path class="fil2" d="M1316.85 1446.34l-164.63 0m0 24.38l178.93 0"/>
     <path class="fil2" d="M1331.15 1470.72l167.25 -283.4m-30.26 1.13l-151.29 257.89"/>
     <path class="fil2" d="M1498.4 1187.32l-165.7 -287 -199.44 -3.29m-0.3 28.09l185.38 0 149.8 263.33"/>
     <path class="fil2" d="M1468.14 1188.45l-151.29 257.89 -164.63 0m0 24.38l178.93 0 167.25 -283.4"/>
     <path class="fil2" d="M1134.96 1470.79l196.19 -0.07 167.25 -283.4 -165.7 -287 -199.44 -3.29m-0.3 28.09l185.38 0 149.8 263.33 -151.29 257.89 -180.71 -0.41"/>
     <g>
      <path class="fil3" d="M1133.26 897.03c-5.73,-24.24 -26.61,-42.21 -51.5,-42.21 -29.3,0 -53.06,24.91 -53.06,55.64 0,30.73 23.76,55.65 53.06,55.65 24.47,0 45.07,-17.37 51.2,-40.99l0.3 -28.09zm-51.5 -16.4c16.57,0 30.01,13.36 30.01,29.83 0,16.48 -13.44,29.83 -30.01,29.83 -16.57,0 -30.01,-13.35 -30.01,-29.83 0,-16.47 13.44,-29.83 30.01,-29.83z"/>
     </g>
     <g>
      <path class="fil3" d="M1132.96 925.12l185.38 0 149.8 263.33 -151.29 257.89 -180.71 -0.41c-4.38,-26.09 -26.11,-45.92 -52.25,-45.92 -29.3,0 -53.06,24.91 -53.06,55.64 0,30.74 23.76,55.65 53.06,55.65 24.16,0 44.54,-16.93 50.96,-40.1 0.04,-0.14 0.07,-0.27 0.11,-0.41l196.19 -0.07 167.25 -283.4 -163.88 -288.21 -201.26 -2.08 -0.3 28.09zm-19.06 530.53c0,16.48 -13.44,29.84 -30.01,29.84 -16.58,0 -30.01,-13.36 -30.01,-29.84 0,-16.47 13.43,-29.83 30.01,-29.83 16.57,0 30.01,13.36 30.01,29.83z"/>
     </g>
    </g>
    <path class="fil4 str0" d="M1034.27 1170.82l-185.38 0 -149.81 -263.34 151.29 -257.89 180.71 0.41c4.39,26.1 26.11,45.92 52.26,45.92 29.3,0 53.05,-24.91 53.05,-55.64 0,-30.73 -23.75,-55.65 -53.05,-55.65 -24.16,0 -44.55,16.94 -50.96,40.1 -0.04,0.14 -0.08,0.28 -0.12,0.42l-196.18 0.06 -167.25 283.4 163.88 288.21 201.25 2.08c5.73,24.24 26.62,42.22 51.5,42.22 29.31,0 53.06,-24.92 53.06,-55.65 0,-30.73 -23.75,-55.64 -53.06,-55.64 -24.46,0 -45.06,17.36 -51.19,40.99zm49.07 -500.71c-16.58,0 -30.01,-13.36 -30.01,-29.83 0,-16.48 13.43,-29.83 30.01,-29.83 16.57,0 30.01,13.35 30.01,29.83 0,16.47 -13.44,29.83 -30.01,29.83zm2.12 545.19c-16.57,0 -30.01,-13.35 -30.01,-29.83 0,-16.48 13.44,-29.83 30.01,-29.83 16.58,0 30.01,13.35 30.01,29.83 0,16.48 -13.43,29.83 -30.01,29.83z"/>
    <path class="fil5 str1" d="M1132.96 925.12l185.38 0 149.8 263.33 -151.29 257.89 -180.71 -0.41c-4.38,-26.09 -26.11,-45.92 -52.25,-45.92 -29.3,0 -53.06,24.91 -53.06,55.64 0,30.74 23.76,55.65 53.06,55.65 24.16,0 44.54,-16.93 50.96,-40.1 0.04,-0.14 0.07,-0.27 0.11,-0.41l196.19 -0.07 167.25 -283.4 -163.89 -288.21 -201.25 -2.08c-5.73,-24.24 -26.61,-42.21 -51.5,-42.21 -29.3,0 -53.06,24.91 -53.06,55.64 0,30.73 23.76,55.65 53.06,55.65 24.47,0 45.07,-17.37 51.2,-40.99zm-49.07 500.7c16.57,0 30.01,13.36 30.01,29.83 0,16.48 -13.44,29.84 -30.01,29.84 -16.58,0 -30.01,-13.36 -30.01,-29.84 0,-16.47 13.43,-29.83 30.01,-29.83zm-2.13 -545.19c16.57,0 30.01,13.36 30.01,29.83 0,16.48 -13.44,29.83 -30.01,29.83 -16.57,0 -30.01,-13.35 -30.01,-29.83 0,-16.47 13.44,-29.83 30.01,-29.83z"/>
   </g>
  </g>
 </g>
</svg>
