<?xml version="1.0" encoding="UTF-8"?>
<!DOCTYPE svg PUBLIC "-//W3C//DTD SVG 1.1//EN" "http://www.w3.org/Graphics/SVG/1.1/DTD/svg11.dtd">
<!-- Creator: CorelDRAW -->
<svg xmlns="http://www.w3.org/2000/svg" xml:space="preserve" width="43.3492mm" height="30.48mm" version="1.1" style="shape-rendering:geometricPrecision; text-rendering:geometricPrecision; image-rendering:optimizeQuality; fill-rule:evenodd; clip-rule:evenodd"
viewBox="0 0 4334.92 3048"
 xmlns:xlink="http://www.w3.org/1999/xlink"
 xmlns:xodm="http://www.corel.com/coreldraw/odm/2003">
 <defs>
  <style type="text/css">
   <![CDATA[
    .str1 {stroke:white;stroke-width:8.47;stroke-miterlimit:22.9256}
    .str0 {stroke:white;stroke-width:7.62;stroke-miterlimit:22.9256}
    .fil1 {fill:#FEFEFE}
    .fil0 {fill:#FEFEFE;fill-rule:nonzero}
   ]]>
  </style>
 </defs>
 <g id="Capa_x0020_1">
  <metadata id="CorelCorpID_0Corel-Layer"/>
  <g id="_2314696758848">
   <path class="fil0" d="M2162.97 278.57c-22.27,24.33 -35.29,46.6 -60.3,102.79 -25.01,57.21 -36.31,99.7 -32.89,125.4 3.43,27.41 20.22,35.63 31.18,15.76 3.08,-5.83 10.62,-17.48 16.45,-25.7l10.62 -15.42 3.77 14.74c3.77,14.73 18.15,32.54 23.64,29.12 1.71,-1.03 10.62,0.34 20.55,2.74 13.02,3.43 20.9,3.77 31.53,1.03 13.02,-3.43 16.1,-2.74 31.52,5.48 19.18,10.62 32.55,10.28 60.3,-1.72l14.73 -6.16 0 11.99c0,23.64 16.45,40.77 26.38,27.75 2.06,-2.06 4.46,-11.99 5.48,-21.93 1.72,-15.76 9.26,-37.34 27.76,-80.17 4.79,-11.99 5.82,-12.33 34.94,-18.16 16.11,-3.08 30.5,-5.14 31.18,-4.11 1.03,0.69 -5.82,13.7 -14.73,28.44 -16.79,27.41 -20.21,43.85 -11.65,54.13 8.22,9.94 28.78,4.46 53.45,-14.39l10.96 -8.22 2.06 12.33c1.71,8.91 4.8,13.36 11.31,15.76 11.3,4.11 17.47,2.06 32.89,-11.64l12.33 -11.65 4.11 9.93c5.83,14.39 17.82,21.25 31.18,18.5 11.65,-2.39 14.73,-2.74 47.28,-2.39 22.27,0.34 53.45,-5.83 64.42,-12.68 4.11,-2.74 8.56,-4.11 9.59,-3.08 1.03,1.02 -2.4,20.21 -7.54,42.82l-9.25 40.78 -26.04 6.51c-33.92,8.22 -64.07,28.09 -74.69,48.65 -15.76,31.52 -13.7,70.23 5.82,109.64 13.37,26.72 23.3,35.28 42.49,37.34 14.73,1.71 16.44,1.03 28.78,-11.31 17.13,-17.13 25.35,-39.74 39.06,-106.89 5.82,-29.47 11.65,-54.82 12.68,-56.19 1.71,-2.06 37.68,-6.86 104.84,-14.39 43.51,-4.8 54.82,-7.2 60.64,-12 8.57,-7.53 7.88,-10.27 -3.08,-10.27 -5.48,0 -23.3,-0.69 -40.43,-1.37 -16.79,-0.69 -49.34,-0.35 -71.95,1.37 -22.61,1.37 -41.46,2.05 -42.49,1.37 -3.77,-4.11 25.7,-101.42 35.64,-116.84 6.51,-9.93 7.19,-19.18 2.39,-27.75 -3.42,-5.82 -2.74,-9.94 2.74,-22.27 8.23,-18.84 6.17,-32.21 -6.85,-45.23 -8.56,-8.56 -12.68,-10.27 -26.38,-9.93 -41.46,0.68 -106.55,45.22 -135.33,91.82 -3.77,6.51 -6.17,8.22 -6.17,4.45 0,-6.16 -16.11,-26.72 -20.9,-26.72 -1.71,0 -10.96,8.22 -20.22,17.81l-17.13 18.16 0 -11.99c0,-6.51 -2.05,-14.39 -4.45,-17.47 -6.17,-7.88 -19.19,-14.05 -25.01,-11.99 -4.11,1.37 -4.8,0.34 -3.09,-4.8 2.74,-8.22 -14.73,-27.41 -24.66,-27.41 -3.43,0 -19.19,3.08 -35.29,6.85 -15.76,3.43 -29.47,5.83 -30.5,5.14 -0.68,-0.68 4.46,-14.39 10.97,-30.15 18.5,-43.17 33.23,-83.94 33.23,-92.85 0,-8.56 -14.39,-23.98 -20.56,-21.93 -2.39,0.69 -10.62,21.25 -18.84,45.57 -7.88,24.67 -21.24,58.93 -29.12,76.06l-14.74 31.87 -13.02 0c-7.19,0 -18.15,-3.09 -24.66,-6.85 -9.6,-5.49 -12.34,-6.17 -17.48,-2.4 -4.8,3.77 -5.14,5.82 -2.05,14.39 5.82,15.42 13.36,22.27 28.09,24.32 11.65,2.06 13.02,3.09 10.96,9.6 -4.11,12.67 -15.76,36.66 -17.47,34.94 -0.69,-0.68 -11.99,1.37 -24.33,5.14 -12.67,3.43 -26.72,6.51 -31.17,6.51 -8.57,0 -8.23,-0.34 3.77,-13.02 13.7,-14.04 26.72,-37.69 26.72,-48.31 0,-8.22 -19.87,-24.32 -29.81,-24.32 -8.56,0 -39.74,34.94 -47.28,52.76 -5.14,11.65 -19.87,22.96 -24.33,18.16 -1.02,-1.03 2.4,-8.56 8.23,-16.79 15.76,-23.3 27.41,-47.97 29.81,-64.75 2.05,-14.74 1.71,-16.11 -9.94,-26.39 -6.85,-6.16 -16.1,-10.96 -20.56,-10.96l-7.88 0 7.54 -16.44c8.22,-16.79 15.42,-45.92 15.42,-61.33 0,-10.62 -23.3,-35.29 -33.24,-35.29 -3.77,0 -13.7,7.19 -21.92,16.1l-0.01 0zm22.28 35.98c-4.12,20.21 -18.51,45.91 -36.32,65.78 -9.6,10.62 -18.16,18.84 -18.85,17.81 -5.14,-4.79 47.97,-94.56 55.85,-94.56 1.03,0 0.69,5.14 -0.68,10.97l0 0zm543.39 89.76c0,14.05 -63.73,84.63 -83.94,93.2 -13.71,5.48 -42.83,6.51 -42.83,1.02 0,-20.55 67.15,-83.6 100.05,-93.87 19.18,-6.17 26.72,-6.17 26.72,-0.35zm-531.06 8.91c0,5.48 -11.31,28.1 -21.59,43.86l-9.93 15.07 -8.22 -7.88c-4.46,-4.11 -8.23,-9.25 -8.23,-10.96 0,-4.11 40.77,-43.52 44.89,-43.52 1.71,0 3.08,1.37 3.08,3.43l0 0zm471.44 228.53c-1.02,3.42 -5.14,22.27 -8.9,42.14 -12,57.22 -26.39,89.08 -40.78,89.08 -9.93,0 -22.61,-31.52 -22.61,-56.19 0,-37 11.65,-55.16 44.54,-70.92 23.99,-11.65 30.15,-12.34 27.75,-4.11z"/>
   <path class="fil0" d="M2533.35 273.77c0,6.17 1.71,13.02 4.11,15.42 8.22,8.23 33.57,2.4 33.57,-7.53 0,-7.89 -15.41,-19.19 -26.72,-19.19 -10.28,0 -10.96,1.03 -10.96,11.3l0 0z"/>
   <path class="fil0" d="M1908.07 396.43c-4.8,6.17 -12,17.13 -15.76,24.67 -9.6,18.85 -23.65,66.13 -23.65,80.17 0,8.91 -1.37,11.31 -6.51,11.31 -3.42,0 -11.3,1.03 -17.13,2.06 -10.28,2.05 -10.62,1.71 -10.62,-9.6 0,-6.85 5.48,-23.98 12.34,-38.71 6.51,-14.39 13.02,-31.52 14.04,-37.69 1.72,-10.28 0.69,-12.34 -9.59,-18.5 -6.51,-4.11 -13.02,-6.51 -15.07,-6.17 -7.2,2.4 -18.85,24.67 -29.13,55.5 -9.59,29.13 -12.67,33.92 -28.44,48.31 -9.59,8.57 -18.15,14.05 -18.84,12 -0.69,-2.06 4.8,-16.79 12.33,-32.21 14.74,-29.47 19.88,-48.65 16.45,-59.62 -2.06,-6.51 -18.84,-18.15 -26.04,-18.15 -4.8,0 -17.47,28.77 -29.12,66.12 -7.54,25.35 -10.97,31.18 -25.01,44.2l-16.11 14.73 -1.02 -10.62c-1.37,-15.08 6.85,-46.25 21.58,-80.86 7.2,-16.44 11.99,-32.21 10.97,-34.95 -2.75,-7.19 -18.51,-16.78 -24.33,-14.73 -2.4,1.03 -8.91,13.02 -14.05,27.07 -5.14,13.7 -13.02,32.89 -17.47,42.83 -9.6,19.87 -35.98,51.05 -45.91,54.13 -9.94,3.08 -12.68,17.47 -5.14,25.7 7.88,8.56 22.27,8.56 33.23,0l8.57 -6.51 8.22 12.67c7.19,10.97 10.28,12.68 22.61,13.71 11.65,1.02 17.82,-1.03 29.81,-9.25 14.73,-10.28 15.08,-10.28 20.9,-3.77 9.25,10.28 28.44,8.91 45.57,-3.09 7.54,-5.48 14.73,-11.64 16.1,-13.7 1.37,-2.4 6.51,-0.69 14.05,4.45 13.36,8.91 32.2,8.91 50.36,-0.34 8.23,-4.11 10.28,-4.11 16.79,0.69 4.46,2.74 14.05,5.14 21.59,5.14 11.99,0 16.79,-2.4 32.89,-16.79l18.84 -16.79 5.83 9.94c3.08,5.48 8.22,10.96 11.65,11.99 3.42,1.02 9.59,3.77 14.04,5.82 15.08,7.2 24.33,-0.34 33.58,-26.72 4.45,-13.37 11.99,-33.24 16.79,-44.54 4.8,-11.31 10.96,-29.81 13.7,-41.12 4.8,-19.19 4.8,-20.9 -0.68,-25.01 -5.48,-3.77 -7.2,-3.08 -14.73,5.82 -13.02,15.08 -28.1,37.35 -37.69,54.82l-8.57 15.76 -1.03 -18.84c-1.02,-26.72 -3.08,-33.58 -10.62,-35.98 -3.77,-1.02 -9.93,-7.53 -13.7,-14.04 -7.54,-12.34 -24.33,-21.93 -39.4,-21.93 -5.14,0 -11.65,4.11 -17.48,10.62l0.01 0zm22.61 49.34c-3.77,8.91 -8.57,15.07 -10.62,13.7 -5.48,-3.42 -4.11,-9.59 6.16,-25.35 11.31,-17.82 14.4,-10.62 4.46,11.65l0 0zm-20.9 60.3c0,1.71 -1.37,3.08 -3.43,3.08 -1.71,0 -3.42,-2.39 -3.42,-5.48 0,-2.74 1.71,-4.11 3.42,-3.08 2.06,1.03 3.43,3.43 3.43,5.48z"/>
   <path class="fil0" d="M908.3 532.11c-1.37,1.03 -2.4,9.59 -2.4,18.5 0,34.95 -19.53,112.04 -28.09,109.64 -19.19,-5.82 -24.67,4.11 -14.39,25.7 6.16,12.67 6.16,12.67 -6.86,50.36 -16.44,47.97 -18.5,66.13 -10.62,86.34 5.49,14.39 6.86,15.76 16.45,14.73 13.02,-1.37 21.93,-13.36 24.67,-33.92 1.71,-11.99 1.03,-17.13 -3.09,-21.24 -7.53,-7.19 -6.85,-13.36 3.77,-43.85l9.25 -26.39 39.41 -1.37c53.1,-2.05 56.53,-1.37 53.79,12.34 -1.37,5.82 -6.86,20.56 -12.34,32.55 -9.25,19.18 -9.93,23.3 -6.85,34.94 3.08,11.31 5.14,13.37 13.02,13.37 15.42,0 20.21,-6.51 32.89,-44.54 14.39,-41.8 14.73,-47.29 5.14,-59.62 -14.05,-17.82 -24.67,-20.9 -70.92,-20.22 -38.03,0.35 -42.14,0 -40.77,-5.13 14.39,-46.94 19.87,-68.87 22.95,-88.4 4.46,-32.89 4.46,-33.92 -5.48,-45.57 -8.56,-10.28 -15.07,-13.02 -19.53,-8.22l0 0z"/>
   <path class="fil0" d="M513.26 547.18c-1.03,1.72 -0.68,7.89 0.34,13.71 3.77,17.13 25.7,22.27 31.53,7.88 3.76,-9.59 -26.39,-30.15 -31.87,-21.59l0 0z"/>
   <path class="fil0" d="M632.84 556.09c-2.06,0.69 -10.28,20.56 -18.16,44.2 -15.42,45.57 -13.71,43.86 -33.24,36.66 -6.85,-2.74 -8.91,15.76 -4.45,39.75 3.77,20.55 3.43,25.01 -3.08,46.93 -12.68,42.83 -7.2,73.32 13.02,73.32 5.48,0 11.3,-2.05 13.36,-4.45 5.14,-6.17 14.39,-45.57 14.39,-60.99 0,-12.33 0,-12.33 17.47,-14.73 9.59,-1.37 18.5,-1.71 19.19,-0.68 1.03,1.02 -0.69,8.9 -3.77,17.81 -10.28,29.81 -5.14,57.91 10.62,62.02 10.28,2.39 20.56,-2.06 36.32,-16.11l12.33 -10.62 4.46 9.6c3.42,7.19 7.19,9.93 16.1,10.62 14.73,1.37 19.19,-3.09 19.87,-20.9 0,-7.88 3.77,-21.59 7.54,-30.5 8.22,-18.15 5.82,-26.38 -8.91,-33.23 -13.36,-6.17 -17.81,-4.45 -35.97,13.36 -9.6,9.25 -18.51,17.13 -19.88,17.13 -1.71,0 -0.68,-7.19 2.06,-16.1 7.19,-23.64 6.17,-33.58 -4.11,-41.8 -11.31,-8.91 -17.13,-8.91 -39.06,-0.34 -9.59,3.77 -19.87,6.85 -22.61,6.85 -6.51,0 -5.83,-2.06 17.13,-60.3 13.36,-33.23 17.13,-46.6 14.73,-51.74 -3.43,-7.88 -19.53,-17.81 -25.35,-15.76l0 0z"/>
   <path class="fil0" d="M1029.59 579.05c-6.85,8.22 -1.03,29.12 8.22,31.52 15.76,3.77 28.1,-5.14 23.64,-17.47 -1.71,-4.46 -21.58,-18.85 -26.04,-18.85 -1.02,0 -3.76,2.06 -5.82,4.8l0 0z"/>
   <path class="fil0" d="M823.67 583.16c-3.42,3.77 -3.77,8.57 -1.37,17.82 2.74,10.96 4.46,12.67 13.71,13.7 10.28,1.03 21.93,-5.82 21.93,-13.02 0,-3.43 -23.3,-23.98 -27.07,-23.98 -1.71,0 -4.8,2.4 -7.19,5.48l-0.01 0z"/>
   <path class="fil0" d="M3864.08 621.53c-2.05,1.37 -7.88,14.74 -13.02,29.81 -5.14,15.08 -15.07,39.75 -22.27,54.82l-13.02 27.41 -5.14 -12.33c-16.44,-38.03 -45.91,-31.87 -80.86,17.13l-15.76 22.27 -2.4 -11.31c-3.08,-15.76 -14.04,-29.12 -23.98,-30.49 -6.85,-0.69 -10.96,2.4 -19.87,14.73 -6.17,8.56 -11.65,15.42 -12.33,15.42 -1.03,0 -3.77,-4.46 -6.51,-9.94 -3.09,-5.48 -8.57,-10.62 -12.34,-11.65 -8.91,-2.4 -14.73,9.6 -20.9,43.17 -4.45,23.64 -9.93,30.84 -9.93,13.02 0,-11.99 -18.85,-41.11 -31.18,-47.96 -18.5,-10.28 -38.03,6.51 -44.54,38.03 -10.62,51.05 -9.6,61.33 6.51,76.06 13.7,11.99 48.99,-1.03 63.04,-23.3l6.51 -10.62 -1.03 10.28c-0.34,5.82 1.37,15.42 3.77,21.58 3.77,9.25 6.51,10.97 13.36,10.28 6.85,-0.69 11.65,-6.85 24.33,-31.18 20.21,-38.71 43.85,-69.89 49.33,-64.41 2.06,2.06 6.51,3.77 9.94,3.77 5.48,0 5.48,1.03 -0.68,15.76 -12,27.75 -6.86,58.93 11.3,70.92 13.02,8.57 33.92,7.2 54.14,-3.08l17.47 -8.57 5.82 7.54c7.54,10.96 7.89,10.96 16.45,15.76 4.45,2.4 10.62,4.46 14.39,4.46 4.11,0 7.2,3.08 8.57,8.56 2.74,10.96 13.7,16.45 27.75,14.05 13.02,-2.4 59.27,-31.52 76.4,-47.97 34.61,-32.21 22.27,-59.96 -26.72,-60.3 -20.22,-0.34 -21.59,-0.69 -15.76,-5.14 3.77,-2.74 10.96,-5.14 16.1,-5.14 10.62,0 25.35,-10.62 27.75,-19.87 1.72,-6.17 -14.39,-28.1 -20.21,-28.1 -6.51,0 -40.77,19.88 -53.79,31.18 -17.82,15.76 -21.59,31.52 -11.65,47.63 6.16,10.62 10.62,12.33 38.71,16.44l17.13 2.4 -20.55 14.05c-11.31,7.53 -25.36,15.42 -31.18,17.47 -9.25,3.43 -10.62,2.74 -15.76,-5.82 -3.09,-5.48 -9.25,-10.28 -13.71,-10.97 -6.51,-0.68 -7.88,-3.42 -8.9,-15.76 -0.69,-8.56 1.02,-18.16 3.76,-22.27 2.4,-4.11 9.6,-19.19 15.42,-33.23 5.83,-14.05 16.11,-37.69 22.96,-52.42 14.05,-29.81 25.69,-62.36 25.69,-70.93 0,-6.16 -12.33,-23.98 -16.44,-23.98 -1.37,0 -4.11,1.37 -6.17,2.74l0 0zm-76.74 119.24c0,10.96 -18.16,28.78 -29.47,28.78 -9.94,0 -10.28,-1.38 -1.03,-14.4 5.83,-8.22 25.01,-23.29 29.81,-23.29 0.34,0 0.69,4.11 0.69,8.9l0 0.01zm-207.63 40.08c3.77,10.28 -3.43,22.96 -18.16,32.55l-7.88 5.48 7.19 -11.99c4.11,-6.51 7.2,-17.47 7.2,-24.67 0,-15.42 6.51,-15.76 11.65,-1.37l0 0zm176.1 25.01c5.14,1.03 10.97,2.4 12.68,3.09 5.14,1.37 -26.38,15.41 -34.95,15.41 -9.59,0 -10.27,-8.22 -2.39,-26.72l5.14 -12.68 5.14 9.25c2.74,5.49 8.9,10.28 14.39,11.65l-0.01 0z"/>
   <path class="fil0" d="M427.61 635.24c-3.43,2.05 -30.15,55.5 -46.6,92.85 -8.91,20.21 -15.42,44.88 -13.71,53.45 0.35,4.11 4.46,11.3 8.57,16.78 12.68,15.77 26.04,10.63 58.24,-22.95 14.4,-15.08 26.39,-25.7 26.39,-23.3 0,2.4 3.42,8.91 7.19,14.73 7.54,10.28 11.99,10.97 32.55,4.46 5.14,-1.72 7.88,0 10.62,6.16 2.4,4.8 7.54,9.6 11.65,10.97 12.68,4.11 19.19,-6.85 21.93,-35.98 2.05,-22.95 1.37,-26.38 -5.14,-33.23 -11.65,-12.68 -23.3,-13.71 -32.21,-3.08l-7.19 9.59 0 -14.39c0,-11.65 -2.06,-16.1 -9.6,-22.61 -12.67,-10.97 -20.21,-10.28 -29.46,2.39 -14.39,19.53 -49,58.25 -50.37,56.88 -2.39,-2.06 22.62,-55.51 34.27,-73.66 5.14,-8.23 8.9,-18.16 8.22,-22.27 -1.03,-8.23 -19.87,-20.56 -25.36,-16.79l0.01 0z"/>
   <path class="fil0" d="M1174.17 666.07c-11.99,14.39 -29.12,34.95 -38.03,45.23l-16.78 18.5 0.34 -29.46c0.34,-30.5 -3.08,-39.06 -19.19,-47.63 -13.36,-7.19 -15.42,-1.37 -16.44,44.2 -0.35,23.98 -0.69,55.16 -1.03,69.55 -0.69,28.78 3.08,37.35 17.13,37.35 9.25,0 15.42,-5.83 40.09,-39.4 31.17,-42.15 53.44,-69.56 58.58,-71.61 6.17,-2.06 25.7,-28.78 25.7,-34.95 0,-6.85 -14.05,-18.5 -21.93,-18.5 -4.79,0 -14.39,8.91 -28.44,26.72l0 0z"/>
   <path class="fil0" d="M2824.57 680.46c-4.11,2.75 -3.08,3.43 4.46,3.43 5.14,0 9.25,-1.71 9.25,-3.43 0,-4.45 -6.85,-4.45 -13.71,0z"/>
   <path class="fil0" d="M770.57 694.17c-1.03,1.71 -3.43,15.07 -5.14,29.81 -1.71,14.73 -4.45,34.6 -6.17,44.19 -5.48,32.55 8.23,57.57 26.73,48.31 7.53,-3.76 8.56,-6.16 7.53,-19.52 -0.68,-8.57 1.37,-27.76 4.12,-42.83 3.08,-15.08 5.48,-31.86 5.48,-37 0,-16.11 -25.7,-34.27 -32.55,-22.96l0 0z"/>
   <path class="fil0" d="M3114.43 710.27c-2.74,3.43 -15.08,18.5 -27.07,33.58 -12.33,15.07 -28.78,33.58 -36.66,41.11l-14.04 13.71 7.19 -18.85c18.16,-45.56 18.84,-47.62 11.31,-57.56 -4.11,-5.82 -10.97,-9.59 -17.13,-10.28 -9.94,-1.02 -10.28,-0.34 -14.39,18.85 -7.88,35.29 -37.35,105.87 -46.94,112.38 -6.86,4.45 -8.23,7.54 -6.86,13.7 1.37,4.8 -1.02,16.11 -4.79,26.73 -8.23,21.93 -5.48,34.26 8.56,40.77 11.65,5.14 15.76,1.03 22.27,-23.98l5.48 -19.53 21.93 0.68c42.14,1.72 90.8,15.76 102.45,29.81 6.16,7.2 14.04,6.85 19.52,-0.68 7.54,-9.6 5.49,-15.76 -9.59,-30.5 -11.65,-11.3 -17.81,-14.39 -30.15,-15.76 -12.33,-1.37 -70.92,-12.67 -74.69,-14.73 -0.34,0 21.93,-23.3 50.02,-51.39 28.1,-28.1 53.45,-55.16 56.88,-60.65 5.82,-8.56 5.82,-9.93 0.68,-17.81 -8.56,-13.02 -18.16,-16.79 -23.98,-9.6l0 0z"/>
   <path class="fil0" d="M2076.22 602.23c-2.39,1.78 -5.48,9.99 -6.85,18.2 -3.08,17.09 -29.46,59.7 -50.36,80.78 -3.43,3.55 -4.8,7.77 -3.43,11.32 2.74,6.88 11.99,13.31 17.13,12.2 4.46,-0.88 17.13,-14.42 40.43,-42.38 15.08,-18.42 16.45,-19.31 20.22,-14.65 4.11,5.1 5.48,65.47 2.05,92.1 -1.03,7.32 -2.74,25.74 -4.11,41.05 -1.03,15.31 -2.74,28.41 -3.77,29.52 -3.42,3.55 3.43,10.65 13.36,13.98 18.5,6.21 19.53,3.99 22.27,-59.03 2.74,-61.7 2.4,-104.31 -0.68,-113.18 -1.03,-3.11 4.11,1.77 11.65,10.65 7.53,9.1 15.76,17.98 18.5,19.97 3.08,2 6.51,6.66 7.54,9.99 2.74,6.43 14.73,11.32 23.64,9.1 4.45,-1.11 12.33,-10.21 12.33,-14.65 0,-1.11 -7.88,-7.77 -17.13,-14.42 -20.56,-14.43 -24.33,-18.87 -38.03,-44.61 -10.96,-19.75 -22.96,-35.51 -31.52,-39.95 -2.4,-1.33 -10.28,-3.99 -16.79,-5.99 -10.96,-2.88 -13.02,-2.88 -16.45,0zm30.84 37.95c0,1.78 -1.71,2.66 -3.43,2 -2.05,-0.89 -2.74,-2.44 -1.71,-3.55 3.08,-3.11 5.14,-2.44 5.14,1.55z"/>
   <path class="fil0" d="M3474.18 725.35c-18.84,14.73 -33.58,51.05 -26.04,64.41 5.83,10.96 15.08,8.56 23.3,-6.17 8.22,-14.04 17.82,-24.32 17.82,-18.16 0,10.63 -26.04,58.93 -31.53,58.93 -1.37,0 -2.74,-3.08 -2.74,-6.85 0,-9.59 -11.99,-20.56 -22.27,-20.56 -6.85,0 -9.59,2.75 -14.04,13.71 -5.83,14.73 -18.16,25.35 -33.24,29.12 -8.56,2.4 -9.25,1.72 -9.25,-9.59 0,-12.34 15.42,-53.45 27.41,-72.98 6.85,-10.62 6.85,-11.99 1.71,-21.93 -4.45,-8.56 -7.53,-10.62 -14.73,-9.59 -7.54,0.68 -11.31,5.14 -20.21,21.58 -16.45,31.18 -26.38,68.87 -23.64,88.4 4.79,30.49 27.75,45.91 55.16,36.66 11.3,-3.77 13.36,-3.43 20.21,3.08 4.11,4.11 11.31,7.2 15.76,7.2 18.85,0 46.26,-28.1 67.16,-68.53 8.56,-16.44 9.93,-22.61 9.93,-48.65 0,-26.72 -0.68,-30.49 -8.22,-38.37 -10.28,-10.62 -20.22,-11.31 -32.55,-1.71l0 0z"/>
   <path class="fil0" d="M3167.54 748.65c-13.71,17.13 -26.04,43.85 -32.9,71.95 -5.48,20.21 -5.48,22.95 0,36.31 10.63,28.44 29.13,32.21 65.45,13.71 15.41,-7.54 23.98,-10.28 25.01,-7.88 2.74,8.56 17.47,19.87 25.69,19.87 4.46,0 16.11,-6.17 26.04,-14.05l17.82 -14.05 -2.4 23.65c-6.85,72.97 -14.39,110.32 -24.67,121.63 -8.22,9.25 -19.53,7.53 -37.34,-6.17 -22.62,-17.13 -37.01,-23.3 -42.15,-17.13 -6.51,7.88 1.37,20.9 23.3,37.69 34.26,26.38 56.53,32.2 72.98,19.18 15.76,-11.99 22.96,-36.31 31.86,-106.9 8.57,-66.46 17.82,-111.69 27.41,-134.99 2.74,-6.85 5.14,-15.41 5.14,-18.84 0,-8.57 -13.36,-20.22 -22.95,-20.22 -6.17,0 -8.23,2.74 -11.65,14.39 -2.06,8.23 -9.25,22.62 -16.45,32.21 -13.36,18.84 -40.43,44.54 -43.51,41.46 -1.03,-1.03 0.34,-16.11 3.43,-33.58 3.08,-17.47 5.48,-36.66 5.48,-42.48 0,-13.02 -8.91,-22.27 -21.59,-22.27 -8.56,0 -9.25,1.02 -9.25,16.1 -0.34,9.25 -2.05,26.38 -4.45,38.72l-4.11 22.27 -22.27 12.67c-12.34,6.86 -26.39,13.71 -31.53,14.74l-9.25 2.39 7.88 -25.35c7.2,-23.3 8.23,-25.01 16.79,-24.33 5.83,0.35 12.68,-3.08 19.87,-9.59 9.6,-8.91 10.28,-11.31 8.23,-22.96 -2.74,-15.07 -17.13,-31.52 -27.75,-31.52 -4.8,0 -11.65,5.14 -18.16,13.36l0 0.01z"/>
   <path class="fil0" d="M1428.89 753.65c0,1.56 1.82,6.24 4.42,10.14 4.16,7.28 4.16,7.54 -3.38,13.78l-7.54 6.49 0.78 61.86c0.52,59.52 0.78,61.86 6.24,67.84 6.24,6.5 13,7.8 17.16,2.6 3.11,-3.64 12.73,-41.33 17.15,-67.58l3.12 -17.93 12.47 18.97c21.84,32.75 77.46,129.96 88.9,155.69 6.23,13.52 13.77,27.29 16.89,30.67 7.54,7.8 16.38,6.76 17.42,-2.34 1.03,-8.57 -24.18,-60.56 -44.19,-91.23 -7.8,-11.95 -21.57,-34.57 -30.41,-50.16 -9.1,-15.86 -23.91,-40.03 -33.01,-54.06 -9.1,-14.04 -16.64,-26 -16.64,-26.51 0,-3.38 11.44,-0.27 40.81,10.65 17.68,6.5 33.27,10.92 34.57,10.14 3.64,-2.34 3.12,-15.08 -0.52,-20.28 -1.82,-2.33 -14.56,-7.79 -28.33,-11.69 -34.57,-10.4 -47.05,-17.42 -63.16,-34.83 -12.22,-13 -15.34,-15.08 -23.39,-15.08 -5.2,0 -9.36,1.3 -9.36,2.86l0 0z"/>
   <path class="fil0" d="M2722.54 799.87c-11.85,4.11 -29.4,10.94 -38.75,15.28 -9.35,4.33 -23.03,10.25 -30.09,13.45 -14.14,6.38 -15.28,8.66 -10.72,21.88 1.37,3.88 3.88,7.07 5.7,7.07 1.83,0 12.54,-4.79 23.94,-10.49 24.16,-12.08 59.27,-26.44 60.87,-25.08 0.45,0.69 0.45,3.88 -0.46,7.07 -1.14,4.79 -2.28,5.47 -5.93,3.42 -6.15,-3.19 -11.4,-2.73 -11.4,0.91 0,1.83 -4.56,7.3 -10.03,12.09 -14.36,12.53 -78.87,71.35 -123.33,112.38 -8.66,8.21 -30.09,27.59 -47.19,42.86 -17.32,15.5 -31.46,29.64 -31.46,31.46 0,5.93 6.84,16.87 10.26,16.87 2.05,0 5.25,-2.05 7.53,-4.79 2.05,-2.5 22.79,-22.34 46.05,-43.77 23.25,-21.43 49.46,-45.82 58.13,-54.25 8.89,-8.44 22.34,-20.75 29.86,-27.36 7.75,-6.84 24.85,-22.34 38.3,-34.65 25.53,-23.02 34.65,-27.58 32.37,-15.96 -4.79,24.85 -5.93,48.1 -2.96,58.59 3.42,12.77 8.43,17.55 14.82,13.68 5.01,-3.42 6.15,-9.35 2.73,-15.96 -2.28,-4.1 -2.28,-9.8 0,-27.58 2.96,-23.94 12.31,-72.27 16.19,-84.35 1.59,-5.24 1.59,-8.44 -0.46,-11.85 -5.7,-8.67 -10.94,-8.9 -33.97,-0.92l0 0z"/>
   <path class="fil0" d="M3660.57 1144.71c-2.4,5.49 -9.94,25.7 -17.13,44.54 -18.51,49.34 -42.83,108.27 -60.31,145.96 -20.9,45.57 -24.66,64.76 -16.1,87.03 4.8,13.02 8.22,17.47 14.39,18.15 4.45,0.69 9.25,0 10.96,-1.71 1.72,-1.71 3.77,-16.1 4.12,-32.2 1.71,-40.43 13.02,-61.33 26.72,-49 8.22,7.54 8.22,13.71 -0.34,38.72 -10.62,31.52 -0.35,55.5 17.47,40.43 2.74,-2.06 14.39,-22.96 25.7,-46.26l20.21 -42.14 17.13 2.06c32.9,3.77 39.06,-13.37 9.6,-26.39 -9.25,-3.76 -20.56,-10.62 -25.7,-15.41 -13.36,-12.68 -21.24,-9.25 -23.3,9.25 -1.02,8.56 -4.11,19.18 -6.51,23.64l-4.45 7.88 -15.08 -14.73c-8.22,-8.23 -15.07,-15.76 -15.07,-17.48 0,-1.37 13.02,-33.57 28.78,-71.95 16.1,-38.37 30.15,-73.66 31.18,-78.46 1.71,-7.19 0,-11.65 -7.88,-20.55l-10.62 -11.65 -3.77 10.28 0 -0.01z"/>
   <path class="fil0" d="M358.4 1169.38c-1.72,3.43 -4.11,14.05 -5.48,23.64 -2.75,21.93 -17.48,66.13 -36.66,109.3 -12,27.75 -15.08,32.21 -17.82,27.07 -5.48,-10.28 -16.79,-21.93 -21.93,-21.93 -7.19,0 -8.91,16.1 -3.08,33.23 3.08,8.57 5.48,21.93 5.48,28.78 0,16.79 -9.59,37 -16.79,36.32 -3.08,0 -18.5,3.43 -33.92,7.54 -15.42,4.45 -29.12,7.19 -30.15,6.16 -1.03,-1.02 2.06,-14.04 6.85,-28.78 12,-35.97 11.65,-50.02 -1.02,-63.04 -5.48,-5.48 -13.02,-9.93 -16.79,-9.93 -3.43,0 -16.1,8.9 -28.1,19.52 -12.33,11.31 -20.55,16.79 -19.18,13.02 9.93,-24.32 43.17,-123 43.17,-128.14 0,-6.51 -13.37,-20.89 -19.53,-20.89 -2.06,0 -4.8,5.13 -6.17,10.96 -3.77,18.5 -17.82,62.01 -42.48,132.94 -27.76,78.8 -30.5,91.13 -22.62,105.87 2.74,5.82 7.54,10.62 9.94,10.62 2.74,0 14.39,-15.08 25.7,-33.58 20.9,-33.58 49.68,-69.21 55.16,-69.21 1.71,0 -0.69,9.94 -5.14,22.27 -4.8,12.34 -8.57,27.75 -8.57,34.61 0,12.33 8.23,31.86 15.08,36.31 7.88,5.49 27.06,2.4 50.71,-7.53 13.02,-5.83 24.66,-10.28 25.01,-10.28 0.68,0 2.05,4.45 3.42,9.93 1.03,5.49 4.46,12 7.2,14.05 11.3,9.6 21.93,-6.17 30.49,-45.91 6.85,-31.52 6.51,-31.18 26.04,-32.21 9.59,-0.34 27.75,-3.08 40.09,-5.82 12.33,-3.08 22.61,-4.8 23.29,-4.45 0.35,0.68 -0.68,7.19 -2.74,14.73 -4.79,17.81 -1.02,43.17 7.88,52.76 9.94,10.62 22.96,8.91 47.97,-6.16l21.93 -13.37 9.25 9.94c5.14,5.48 12.33,9.94 16.1,9.94 13.02,0 33.58,-10.62 41.46,-21.25l7.54 -10.27 6.85 10.27c3.77,5.83 9.59,11.65 13.71,12.68 10.96,3.77 28.43,-1.03 38.71,-10.62 12.68,-11.65 6.85,-18.5 -15.76,-18.5l-16.79 0 0 -19.87c0,-35.29 -18.16,-47.28 -30.15,-20.22 -8.22,18.5 -28.44,40.09 -38.03,40.09 -8.91,0 -8.91,1.03 0,-21.93 7.54,-20.56 5.48,-30.49 -7.19,-34.6 -9.25,-3.09 -13.02,0 -19.19,14.73 -8.22,20.21 -30.49,39.74 -52.42,46.94 -7.54,2.4 -7.88,1.71 -5.83,-6.51 1.38,-5.14 6.86,-18.85 12.34,-30.15 5.82,-11.65 10.28,-24.33 10.28,-28.44 0,-13.02 -17.13,-23.64 -25.7,-16.1 -9.25,8.22 -77.43,26.72 -81.88,22.27 -0.69,-0.69 5.13,-16.45 13.36,-34.61 15.76,-36.32 34.6,-91.82 38.03,-113.41 1.71,-10.62 0.68,-15.76 -5.48,-23.98 -8.23,-11.99 -12.34,-13.02 -16.45,-4.8l0 0z"/>
   <path class="fil0" d="M3992.56 1176.23c-9.25,11.31 -17.47,25.7 -49.68,89.09l-31.86 62.69 -6.85 -11.64c-8.57,-13.71 -16.45,-17.48 -23.3,-11.65 -6.85,5.48 -4.45,44.54 3.77,60.3 5.48,10.62 5.48,12.68 0.68,24.67 -6.85,17.47 -10.62,60.98 -5.82,72.63 2.06,5.83 6.17,9.6 9.94,9.6 13.36,0 17.81,-7.88 23.64,-42.49l5.48 -33.57 10.28 2.05c5.48,1.03 13.7,2.06 18.5,2.06 8.56,0 8.91,0.34 14.73,22.95 5.14,20.22 21.24,28.44 55.51,28.44 28.43,0 37.34,-3.43 31.86,-12.33 -3.43,-5.48 -16.79,-10.62 -48.65,-18.5 -24.67,-6.17 -18.16,-20.22 9.25,-20.56 14.73,-0.35 37,-12.68 44.54,-24.67 9.93,-16.1 8.91,-32.55 -3.43,-51.74 -5.48,-8.9 -11.99,-16.1 -14.39,-16.1 -9.25,0.34 -42.83,26.38 -55.5,43.51 -10.28,14.39 -15.42,18.16 -22.62,18.16 -16.1,0 -30.83,-4.11 -30.83,-8.56 0,-5.48 60.98,-125.74 74.69,-146.99 13.02,-20.21 13.36,-26.04 3.08,-35.63 -7.53,-7.19 -8.22,-7.19 -13.02,-1.71l0 -0.01zm37.01 181.25c-14.05,11.99 -19.87,9.94 -6.51,-2.4 6.51,-5.82 12.67,-9.25 13.7,-8.22 1.37,1.37 -2.05,6.17 -7.19,10.62z"/>
   <path class="fil0" d="M739.73 1239.28c-11.99,11.3 -25.35,26.38 -30.15,33.23 -4.45,7.2 -10.96,17.13 -14.73,22.61 -7.19,10.62 -22.95,37.35 -29.12,48.65 -4.11,8.23 -16.79,15.08 -26.73,15.08 -11.3,0 -14.73,7.88 -9.93,22.61 3.42,10.62 6.51,13.71 13.36,14.39 6.85,0.69 9.59,3.43 10.96,10.28 5.83,27.07 29.47,44.2 55.51,40.77 26.72,-3.77 74.35,-15.41 78.11,-19.18 2.74,-2.74 2.06,-4.8 -2.39,-8.23 -4.11,-3.08 -17.82,-4.11 -48.66,-3.42 -51.73,1.37 -56.87,-0.69 -55.5,-20.56 1.03,-13.71 2.06,-15.08 26.72,-31.18 46.6,-30.84 69.9,-59.62 80.18,-98.33 5.14,-20.9 3.77,-30.84 -5.14,-40.43 -10.62,-11.31 -19.19,-8.57 -42.49,13.7l0 0.01zm15.42 37.34c-5.82,10.62 -27.41,33.92 -35.63,38.38 -6.17,3.42 -5.48,1.71 2.74,-9.6 12.68,-16.79 33.58,-39.4 35.63,-37.69 0.69,1.03 -0.68,4.8 -2.74,8.91l0 0z"/>
   <path class="fil0" d="M3505.02 1266.34c-20.56,3.77 -36.32,22.62 -36.32,42.49 0,19.53 10.62,48.65 25.01,67.15 6.17,8.22 12.68,16.79 14.39,19.53 7.54,10.28 -21.58,15.76 -34.26,6.51 -5.83,-4.11 -6.17,-6.51 -3.43,-18.16 5.14,-20.21 3.09,-31.18 -6.85,-31.18 -5.82,0 -9.25,3.43 -13.7,13.37 -10.28,22.27 -2.06,50.02 18.84,64.06 10.28,6.86 15.07,7.89 33.92,6.86 18.84,-1.37 22.95,-2.74 30.15,-10.97 10.28,-11.99 8.56,-21.58 -6.17,-41.45 -25.69,-34.61 -31.18,-43.86 -32.89,-54.82 -1.71,-9.94 -0.34,-13.36 8.91,-22.27 12.68,-13.02 20.21,-12.34 29.46,2.4 8.23,13.36 18.16,14.39 28.44,3.42 10.28,-10.62 9.59,-17.13 -3.08,-31.18 -8.57,-9.93 -29.47,-20.55 -37.35,-18.84 -1.03,0.34 -7.88,1.71 -15.07,3.08l0 0z"/>
   <path class="fil0" d="M2982.18 1278.34c-2.06,4.79 -3.43,12.67 -3.43,16.78 0,7.54 1.37,8.23 36.66,10.28 63.39,4.46 114.44,14.39 127.46,25.36l7.53 5.82 -15.07 17.13c-8.22,9.25 -25.01,22.96 -37.35,30.15 -30.49,17.82 -42.82,29.47 -45.56,42.83 -3.43,17.82 4.79,16.79 40.08,-4.11 42.49,-25.01 81.55,-65.1 81.55,-83.26 0,-13.7 -10.97,-35.29 -20.22,-40.08 -13.7,-7.2 -66.47,-18.16 -104.84,-22.28 -18.85,-2.05 -40.77,-4.79 -49,-5.82 -13.02,-1.71 -14.73,-1.03 -17.81,7.19l0 0.01z"/>
   <path class="fil0" d="M1115.28 1310.88c-31.96,46.94 -49.19,84.97 -47.72,105.53 0.63,8.91 2.73,10.28 38.47,29.81 20.81,11.31 40.78,23.3 44.57,26.72 8.2,7.2 11.98,7.2 15.34,0.69 2.11,-4.11 2.11,-8.22 0.43,-18.16 -2.74,-14.05 -0.64,-12.68 -50.46,-40.77l-27.96 -15.76 5.26 -10.62c2.73,-5.83 6.3,-10.28 7.98,-9.94 1.48,0.34 6.94,2.06 12.2,3.43 5.67,2.05 12.19,1.71 15.97,0 4.63,-2.4 24.6,-1.03 64.12,4.45 78.42,10.97 182.06,11.65 196.99,1.37 6.52,-4.11 6.94,-5.82 6.31,-17.47 -0.84,-12.34 -1.27,-13.02 -8.2,-12.68 -4,0 -20.39,3.08 -36.58,6.51 -32.59,6.51 -66.01,5.83 -128.45,-3.43 -18.5,-2.74 -38.89,-5.82 -45.2,-6.85 -6.31,-1.03 -18.92,-2.4 -28.17,-3.42 -9.25,-1.03 -20.18,-3.09 -24.18,-4.46l-7.15 -2.74 12.83 -16.79c7.15,-9.59 13.45,-19.18 14.08,-21.24 1.05,-4.11 -4.2,-28.44 -6.09,-28.44 -0.42,0 -11.57,15.42 -24.39,34.26l0 0z"/>
   <path class="fil0" d="M3774.66 1316.02c-16.1,6.86 -41.46,31.53 -56.53,54.48 -14.74,22.61 -17.13,42.49 -7.88,60.3 4.79,9.6 6.85,10.28 23.98,10.28 10.28,0 26.38,-2.74 35.29,-6.17 16.44,-6.51 16.79,-6.51 20.9,0.35 3.77,5.82 7.19,6.51 25.69,5.14 22.62,-2.06 58.25,-17.14 56.19,-23.99 -2.05,-6.16 -19.18,-9.59 -39.4,-8.22 -19.53,1.37 -20.9,0.34 -13.02,-10.28 7.2,-9.25 18.85,-35.29 18.85,-42.14 -0.34,-7.54 -11.99,-20.9 -18.16,-20.9 -2.74,0 -10.62,-5.48 -17.13,-11.99 -13.36,-13.36 -13.71,-13.36 -28.78,-6.85l0 -0.01zm-8.57 64.42c0.69,5.14 3.43,9.25 6.17,9.25 8.56,0 5.14,5.48 -7.19,11.3 -13.02,6.17 -32.55,7.88 -32.55,2.74 0,-5.82 24.66,-34.94 28.43,-33.57 2.4,0.68 4.46,5.48 5.14,10.28l0 0z"/>
   <path class="fil0" d="M3050.18 1322.53c-0.45,0.69 -33.7,2.06 -73.92,3.43 -40.22,1.37 -79.09,3.08 -86.51,3.77 -7.41,1.03 -23.14,2.4 -34.83,3.43 -11.68,0.68 -27.86,2.39 -35.95,3.42 -8.09,1.03 -33.7,3.43 -57.29,5.48 -62.69,5.14 -66.51,6.17 -69.21,17.82 -4.49,21.24 -1.12,22.61 40.67,14.39 48.98,-9.25 138.19,-16.1 232.78,-17.47 72.13,-1.03 94.82,-2.4 96.17,-5.83 3.82,-9.25 -6.74,-35.29 -11.91,-28.44l0 0z"/>
   <path class="fil0" d="M4141.95 1326.99c-22.27,8.91 -60.3,35.29 -67.16,46.94 -9.25,15.42 -8.56,34.6 2.06,44.88 6.51,6.51 11.99,8.57 24.33,8.57 13.02,0 15.41,1.02 13.7,5.48 -3.43,8.56 -15.76,58.59 -19.53,77.77 -7.88,42.83 -24.32,82.57 -38.71,94.57 -8.91,7.53 -22.96,5.48 -31.87,-4.46 -9.25,-10.96 -10.28,-28.78 -3.08,-56.19 8.56,-32.2 17.47,-40.77 45.91,-44.2 8.91,-1.02 19.19,-3.76 22.61,-6.51 6.17,-4.45 6.17,-4.79 -1.71,-11.3 -6.51,-5.48 -13.36,-6.86 -33.23,-7.2 -33.58,0 -42.15,5.83 -52.43,37.01 -4.45,12.67 -8.22,23.64 -8.22,24.66 -0.34,1.03 -1.71,6.86 -3.08,13.02 -4.46,18.51 3.77,53.8 16.44,70.24 23.64,31.18 46.6,33.58 72.3,7.88 17.47,-17.81 25.69,-38.03 39.4,-99.02 13.7,-61.32 26.04,-95.93 47.62,-132.59 1.71,-2.74 4.8,-8.91 6.85,-13.7 2.06,-4.8 6.51,-12.68 9.6,-17.48 6.85,-10.62 4.45,-21.93 -7.54,-34.95 -9.94,-10.62 -15.08,-10.96 -34.26,-3.42zm-2.06 40.77c-5.14,6.17 -23.64,16.1 -26.04,14.05 -1.37,-1.37 25.7,-19.53 29.47,-19.53 0.68,0 -0.69,2.4 -3.43,5.48z"/>
   <path class="fil0" d="M4214.92 1337.27c-7.19,8.56 -30.15,47.28 -40.08,67.84 -6.17,12.33 -8.57,23.29 -8.57,38.37 -0.34,31.86 11.31,40.77 41.8,32.2 5.83,-1.71 10.97,-2.39 10.97,-1.02 0,1.02 -10.28,17.13 -22.96,35.63 -13.02,18.5 -26.38,38.72 -30.15,45.23 -3.77,6.51 -13.02,22.27 -20.9,35.29 -18.16,30.83 -21.93,42.14 -21.93,67.49 0,21.93 6.17,36.32 15.42,36.32 4.8,0 5.83,-4.11 9.94,-35.63 3.42,-25.02 33.92,-76.07 104.15,-174.74l31.53 -43.86 0 -31.52 -0.35 -31.18 -8.22 16.11c-4.45,8.56 -14.05,20.21 -20.56,26.04 -13.02,10.62 -57.9,27.75 -62.01,23.64 -3.09,-3.09 4.45,-20.9 20.21,-46.94 30.5,-50.02 28.1,-42.83 19.53,-54.82 -8.56,-11.99 -10.62,-12.33 -17.81,-4.45l-0.01 0z"/>
   <path class="fil0" d="M2582 1803.67c-1.67,0.83 -3.01,2.67 -3.01,4 0,3.51 9.85,16.86 14.02,19.2 1.84,1 12.19,13.52 22.7,27.87 34.89,47.24 51.08,67.77 77.61,98.98 43.07,50.74 44.07,51.74 48.41,51.74 2.17,0 4.5,-0.84 5.01,-1.67 2.16,-3.34 4.17,-1.5 4.17,3.84 0,9.85 0,9.85 -24.04,-5.18l-14.68 -9.18 -5.68 3.01c-3.34,1.67 -5.67,4.34 -5.67,6.17 0,3.68 5.67,9.69 9.34,9.69 1.5,0 9.02,3.83 16.69,8.51 21.03,12.68 32.05,13.18 36.89,1.83 4.67,-11.18 -0.5,-53.07 -7.34,-58.25 -2.01,-1.67 -3.68,-1.5 -7.35,0.5 -5.51,2.84 -5.84,4.84 -2.33,16.36 1.33,4.51 2.5,9.01 2.5,9.85 0,3.34 -7.01,-3.84 -29.54,-29.71 -35.55,-41.06 -55.08,-65.26 -88.13,-108.49 -39.56,-51.74 -41.56,-53.75 -49.57,-49.07l0 0z"/>
   <path class="fil0" d="M2041.34 1854.7c1.72,9.08 0.69,12.71 -4.79,19.17 -8.91,10.49 -8.57,14.92 1.71,18.96l8.22 3.23 -1.37 127.49c-1.02,70.2 -0.34,130.93 1.03,134.76 2.06,5.24 5.48,7.87 13.71,9.88 11.64,3.03 11.64,3.63 3.42,16.34 -3.42,4.85 -3.77,4.85 -10.28,-4.03 -22.61,-30.66 -31.86,-36.51 -57.9,-37.12 -24.67,-0.4 -27.06,4.64 -5.48,12.1 16.79,6.06 27.07,15.74 41.8,39.14 10.62,16.74 19.87,24.21 30.15,24.21 12.33,0 19.53,-6.46 30.15,-27.03 5.82,-11.3 15.76,-30.26 21.93,-42.37 13.36,-25.21 12.33,-30.06 -5.83,-29.05 -9.93,0.61 -11.3,1.62 -19.52,15.74l-8.57 15.13 -3.08 -12.11c-1.72,-6.65 -3.09,-66.57 -2.74,-133.14 0.34,-66.57 -0.35,-129.31 -1.72,-139.4 -1.71,-17.14 -2.74,-18.55 -10.28,-20.77 -4.79,-1.21 -11.64,-2.22 -15.76,-2.22 -6.51,0 -6.85,0.8 -4.79,11.09l-0.01 0z"/>
   <path class="fil0" d="M1695.16 1746.43c-6.91,11.36 -19.16,30.73 -27.17,42.76 -26.06,39.86 -45.44,73.27 -64.59,110.46 -10.47,20.27 -19.38,37.2 -19.82,37.64 -0.45,0.67 -0.22,-6.01 0.67,-14.7 1.78,-20.04 0.22,-26.5 -8.02,-30.73 -10.25,-5.35 -11.14,-4.46 -11.14,11.13 0,8.02 -1.11,24.28 -2.45,35.86 -2.22,19.82 -2,21.83 2.45,31.18 5.79,11.58 11.36,13.81 23.39,8.91 21.38,-8.91 62.36,-46.1 69.26,-62.81 3.34,-7.79 3.12,-8.68 -0.67,-13.8 -6.23,-8.24 -8.91,-8.24 -13.14,0 -4.01,7.79 -26.28,32.07 -32.51,35.41 -3.57,2 -3.57,1.33 -0.89,-6.24 3.78,-10.91 23.83,-50.78 35.41,-70.82 14.92,-25.83 50.55,-81.29 64.36,-100.22 7.13,-9.57 12.92,-18.71 12.92,-20.04 0,-2.45 -7.35,-10.02 -12.7,-13.14 -1.56,-0.89 -7.35,6.46 -15.36,19.15l0 0zm-110.47 195.98c0,1.56 0.67,5.13 1.56,7.58 1.12,3.34 0.45,5.12 -2,6.01 -2.9,1.11 -3.57,-0.22 -3.57,-6.01 0,-4.01 0.67,-8.02 1.56,-8.69 2.01,-2 2.23,-2 2.45,1.11z"/>
   <path class="fil0" d="M3329.94 1770.68c-0.69,2.4 -9.25,29.12 -19.19,59.27 -9.94,30.15 -19.19,56.54 -20.56,58.59 -1.71,2.06 -13.36,6.51 -26.04,9.6 -13.02,3.08 -27.75,6.85 -33.57,8.56 -8.91,2.06 -10.28,3.77 -9.6,13.71 0,6.51 2.74,13.7 5.83,16.78 4.79,4.8 7.19,4.8 25.01,-0.34 10.96,-2.74 20.21,-4.8 20.9,-4.11 0.68,0.69 -2.4,14.73 -7.2,31.52 -12.33,42.83 -14.04,59.28 -9.25,84.97 3.09,15.76 6.51,23.98 11.65,27.75 6.51,4.8 7.88,4.46 15.08,-3.77 9.59,-11.3 10.28,-32.54 1.37,-40.77 -8.23,-7.19 -6.17,-22.27 9.93,-72.29 9.6,-30.49 13.02,-37.35 20.22,-40.09 11.31,-4.45 51.39,-11.65 79.83,-14.73 12.68,-1.37 23.64,-3.77 24.67,-5.14 2.4,-4.11 -14.05,-13.7 -23.64,-13.7 -4.8,0 -9.6,-1.72 -10.62,-3.77 -1.72,-2.4 -12.68,-2.74 -33.58,-1.03 -29.47,2.06 -30.84,2.06 -28.1,-4.11 7.54,-18.5 29.13,-85.66 29.13,-90.45 0,-5.48 -13.37,-20.56 -18.16,-20.56 -1.37,0 -3.09,2.06 -4.11,4.11l0 0z"/>
   <path class="fil0" d="M972.71 1800.15c-1.71,1.37 -3.77,5.48 -4.11,9.25 -4.79,40.43 -19.53,83.6 -45.22,131.91 -3.43,6.51 -11.65,24.32 -17.48,39.4 -6.16,15.07 -12.33,28.78 -13.7,30.83 -1.37,1.71 -3.43,7.54 -4.8,13.02 -1.71,7.54 -3.77,8.91 -9.94,7.54 -4.45,-1.37 -12.33,-0.34 -17.47,1.71 -5.48,2.06 -10.62,2.74 -11.65,2.06 -2.4,-2.74 16.45,-33.58 28.78,-46.6 16.79,-17.81 19.87,-28.44 11.31,-39.06 -4.46,-5.82 -10.28,-8.9 -16.11,-8.9 -7.88,0.34 -11.99,4.79 -29.46,32.54 -10.96,17.82 -22.96,41.8 -26.38,53.45l-6.51 20.56 7.88 16.1c9.59,20.22 17.81,21.93 39.74,8.23l16.45 -9.94 5.48 13.02c9.93,22.96 23.98,16.1 34.95,-16.45 3.08,-9.93 12.67,-27.75 21.24,-39.4 18.84,-25.69 20.9,-23.64 21.58,22.96 0.69,45.57 9.25,64.07 24.67,52.42 5.14,-3.77 6.17,-11.31 6.85,-45.57 0.69,-37 0,-42.83 -7.19,-57.56 -7.54,-15.76 -7.88,-16.79 -2.06,-22.95 6.51,-7.2 14.05,-9.6 10.28,-3.43 -3.77,5.82 1.71,17.13 8.57,17.13 12.33,0 51.39,-48.99 51.39,-64.41 0,-9.25 -15.42,-24.67 -24.67,-24.67 -3.77,0 -21.24,12.33 -39.06,27.41 -17.81,15.42 -32.2,26.72 -32.2,25.7 0,-1.03 6.85,-15.42 15.07,-31.87 35.29,-70.58 40.77,-97.3 22.96,-109.98 -10.62,-7.88 -13.71,-8.56 -19.19,-4.45l0 0z"/>
   <path class="fil0" d="M1142.31 1821.39c-3.77,3.77 -6.85,8.56 -6.85,10.62 0,2.06 -5.14,11.65 -11.31,21.24 -16.1,24.67 -50.71,85.31 -63.73,111.35 -33.23,65.79 -37.69,101.76 -16.44,132.25 6.16,8.91 8.22,9.6 22.27,7.88 10.28,-1.02 21.58,-6.16 35.63,-15.76l20.56 -14.04 9.59 10.27c11.31,12.34 16.11,12.68 34.95,3.09l14.39 -7.2 8.56 10.28c11.65,13.36 22.27,15.42 41.12,7.88 8.56,-3.42 21.93,-8.22 29.81,-10.28 16.78,-4.45 25.69,-17.47 19.18,-28.09 -3.42,-5.48 -3.08,-8.57 1.03,-17.13 3.08,-5.83 5.14,-13.71 4.46,-17.48 -1.38,-8.9 -17.48,-21.58 -24.67,-18.84 -2.74,1.03 -10.62,13.02 -17.48,26.04 -8.22,16.44 -15.07,25.69 -21.93,29.46 -14.39,7.2 -15.76,2.06 -5.48,-23.29 9.6,-23.99 8.91,-30.15 -3.42,-38.03 -14.74,-9.6 -20.9,-7.2 -27.76,11.64 -3.42,9.25 -11.3,21.93 -17.47,28.1 -13.02,12.33 -15.07,7.19 -4.45,-10.28 3.77,-6.17 6.85,-14.05 6.85,-17.13 0,-7.54 -18.84,-21.93 -26.38,-20.56 -3.09,0.69 -9.94,9.6 -15.42,20.22 -10.28,21.58 -22.96,33.57 -47.62,46.25 -18.51,9.25 -18.51,9.25 -16.79,-14.05 0.68,-12.67 16.79,-53.45 31.18,-79.48 23.29,-41.8 54.81,-93.2 66.46,-108.62 14.39,-18.84 15.08,-26.72 3.09,-35.97 -11.31,-8.91 -13.36,-8.91 -21.93,-0.34l0 0z"/>
   <path class="fil0" d="M3817.83 1828.93c-1.71,35.29 -3.08,44.54 -7.88,53.79 -5.14,9.25 -7.54,10.62 -20.22,10.62 -7.88,0 -18.16,2.05 -22.95,4.45 -7.2,3.43 -8.22,6.51 -7.54,16.11 1.71,16.78 5.83,20.55 19.87,18.15 6.51,-1.02 11.65,-0.68 11.65,0.69 0,1.71 -7.88,19.87 -17.81,40.77 -10.28,22.61 -18.16,44.54 -19.19,54.48 -1.37,14.73 -2.4,16.1 -10.62,16.1 -4.8,0 -15.42,0.35 -23.3,1.03 -8.22,1.03 -14.73,0.69 -14.73,0 0,-1.03 10.27,-12.68 22.61,-26.04 20.21,-21.93 22.27,-25.35 20.21,-34.95 -3.08,-13.7 -4.45,-22.95 -7.53,-51.39 -3.09,-25.7 -8.57,-36.66 -23.99,-46.6 -12.67,-8.56 -23.29,-8.22 -31.86,1.03 -8.22,8.91 -9.25,27.41 -1.71,33.58 4.45,3.77 6.85,3.77 13.7,0 8.91,-4.8 18.85,-2.74 18.85,4.11 -0.35,2.4 -8.91,9.94 -19.19,16.45 -19.53,12.33 -49.34,43.85 -56.53,59.61 -4.11,8.91 -8.23,9.25 -26.73,3.43 -7.19,-2.4 -2.74,-23.3 11.65,-54.48 6.85,-15.07 15.42,-34.6 18.85,-43.17 3.76,-8.91 9.59,-22.61 13.02,-30.84 11.64,-25.69 11.64,-26.72 1.71,-35.97 -9.6,-8.91 -14.05,-9.25 -18.85,-1.03 -2.74,4.8 -31.52,72.29 -37.34,88.4l-3.09 8.22 -12.33 -12.68c-6.51,-6.85 -14.73,-12.33 -17.82,-12.33 -15.41,0 -61.32,58.93 -74,94.56 -7.54,21.93 -0.69,49.68 14.73,57.56 7.2,4.11 11.31,4.11 21.59,0.35 15.07,-5.14 37.68,-22.27 47.62,-36.66l7.54 -10.28 7.19 8.56c9.94,11.65 20.9,16.79 31.18,14.05 6.85,-1.71 8.91,-0.34 11.65,6.51 3.77,9.25 9.94,12.68 24.33,12.68 7.88,0 10.27,2.05 13.36,11.3 2.39,6.51 7.53,13.71 11.99,16.11 7.19,3.77 10.96,2.74 29.81,-6.86 11.99,-5.82 25.35,-14.04 29.81,-18.15 6.51,-6.17 8.9,-6.51 14.73,-3.09 5.48,3.43 11.65,2.74 37.69,-6.16 16.78,-5.49 35.29,-12.68 40.77,-15.42 13.02,-6.86 13.7,-6.51 13.7,3.42 0,4.8 4.46,13.37 9.94,19.53 9.59,10.97 10.96,11.31 35.29,11.31 13.7,0 29.12,-1.03 33.92,-2.4 7.54,-2.05 9.59,-1.03 13.02,6.17 4.45,10.28 7.54,9.94 48.31,-5.83 53.79,-20.89 60.3,-32.2 18.5,-32.2 -18.16,0 -21.59,-1.03 -19.87,-5.14 1.37,-2.74 3.42,-11.31 5.14,-18.85 1.37,-7.53 4.45,-18.84 6.16,-25.01 3.43,-11.3 -0.68,-28.09 -6.85,-28.09 -1.37,0 -9.93,-7.54 -19.53,-17.13 -18.84,-18.85 -29.12,-23.99 -47.28,-23.99 -25.01,0 -39.4,15.08 -34.26,35.98 2.4,9.25 11.65,11.31 18.5,4.45 5.82,-5.82 34.26,-4.79 40.43,1.37 4.45,4.46 4.8,6.86 1.03,13.37 -8.23,15.41 -21.24,23.98 -52.42,33.57 -28.78,8.91 -44.89,9.25 -55.51,0.69 -8.22,-6.51 -8.56,-6.51 -32.55,2.05 -13.36,4.46 -25.01,7.54 -26.04,6.51 -1.02,-0.68 7.2,-21.24 18.51,-45.22l19.87 -43.52 30.15 2.06c25.35,1.71 30.49,1.03 32.2,-3.43 1.03,-3.08 0.69,-7.88 -1.37,-10.96 -4.45,-7.19 -31.52,-20.9 -41.8,-20.9 -8.56,0 -8.56,-2.4 -1.71,-42.83 1.37,-7.53 -0.34,-13.02 -5.48,-19.87 -9.25,-11.65 -20.56,-12.33 -20.9,-1.71l0 0zm-242.92 123c0,6.51 -13.7,27.06 -20.56,30.49 -3.42,2.06 -8.9,3.43 -12.33,3.43 -4.46,0 -3.77,-2.4 3.77,-13.02 14.73,-19.88 29.12,-30.15 29.12,-20.9zm106.21 54.47c0,3.77 -1.37,6.86 -3.08,6.86 -1.71,0 -5.82,1.02 -8.91,2.39 -5.48,2.06 -5.48,1.37 0,-6.85 7.2,-10.96 11.99,-11.99 11.99,-2.4zm-152.12 16.45c-8.57,8.56 -12.33,3.42 -6.51,-9.6 5.14,-11.99 5.14,-11.99 8.22,-3.76 2.4,6.16 2.06,9.59 -1.71,13.36l0 0z"/>
   <path class="fil0" d="M587.95 1867.98c-6.17,23.99 -14.39,50.37 -18.5,59.28 -12.33,26.72 -36.32,91.82 -45.57,123.68 -8.22,28.44 -8.56,31.18 -3.77,40.78 3.09,5.48 6.86,10.96 8.91,12.33 6.85,4.11 16.79,-5.82 27.75,-27.41 6.51,-12.33 12.34,-22.27 13.37,-22.27 1.02,0 4.11,5.48 6.51,11.99 6.85,19.87 28.43,27.41 48.3,17.13 15.08,-7.88 23.3,-20.9 32.9,-52.07 15.41,-49 9.25,-77.09 -20.56,-92.51 -13.71,-7.2 -22.61,-3.77 -40.77,15.76 -8.91,9.59 -16.11,16.79 -16.11,16.1 0,-0.34 3.77,-9.93 8.23,-21.24 17.47,-43.17 35.97,-101.07 33.92,-106.9 -2.4,-6.51 -14.74,-17.47 -19.88,-17.81 -2.05,0 -8.56,19.53 -14.73,43.17l0 -0.01zm45.57 120.26c-3.77,32.9 -11.31,54.82 -21.24,62.7 -9.25,7.2 -9.25,7.2 -14.73,0.35 -2.74,-3.77 -8.57,-8.23 -12.68,-9.6 -7.54,-2.74 -7.54,-3.08 6.17,-26.72 15.07,-26.04 32.55,-46.26 40.08,-46.26 3.77,0 4.11,4.12 2.4,19.53l0 0z"/>
   <path class="fil0" d="M1250.24 1870.04c3.08,18.5 10.27,25.35 20.21,18.5 10.62,-6.85 10.62,-17.13 0,-25.69 -5.14,-3.77 -11.99,-7.2 -15.76,-7.2 -6.17,0 -6.51,1.71 -4.45,14.39l0 0z"/>
   <path class="fil0" d="M1368.78 1876.55c-2.05,9.59 -8.56,28.44 -14.73,42.14 -13.7,31.52 -60.3,132.25 -64.41,139.79 -3.43,6.51 1.71,29.47 8.56,36.32 3.77,4.11 5.83,3.77 13.71,-1.37 10.96,-7.2 18.84,-23.64 18.84,-40.09 0,-6.17 2.4,-14.39 5.14,-18.16 4.8,-6.16 6.17,-5.14 31.52,21.59 14.74,15.76 28.44,28.44 30.84,28.44 2.4,0 8.22,-1.72 13.02,-4.12 12.33,-5.48 11.99,-21.24 -0.69,-29.12 -13.36,-7.88 -35.29,-29.12 -35.29,-33.57 0,-2.06 20.9,-19.88 46.94,-39.41 49.34,-38.03 78.12,-65.09 80.86,-75.71 2.4,-8.91 -13.02,-27.07 -22.95,-27.07 -4.8,0 -9.25,3.08 -11.31,7.54 -6.85,14.39 -28.78,37 -64.07,65.78 -18.84,15.42 -36.66,29.46 -39.06,30.83 -4.11,2.4 2.06,-13.02 13.36,-33.23 5.48,-9.94 23.64,-61.67 23.64,-67.49 0,-7.88 -14.39,-20.56 -22.95,-20.56 -6.17,0 -7.88,3.08 -10.97,17.47l0 0z"/>
   <path class="fil0" d="M2959.57 1916.29c-1.03,5.49 -10.28,35.64 -20.9,67.16 -18.16,55.16 -19.53,65.09 -11.65,77.43 6.17,9.59 17.47,-1.03 44.54,-42.14 15.42,-23.3 32.55,-46.6 38.03,-51.74l9.94 -9.59 -16.11 48.65c-15.07,45.91 -15.76,48.99 -10.62,57.9 8.57,15.76 16.1,11.65 40.43,-21.93 30.84,-42.48 39.06,-52.42 36.32,-44.54 -1.03,3.77 -2.74,15.42 -4.11,26.04 -2.06,22.27 5.14,41.12 15.76,41.12 7.53,0 10.62,-6.51 10.62,-22.27 0,-6.17 4.8,-29.13 10.28,-50.71 5.82,-21.93 10.27,-42.83 10.27,-46.6 0,-3.77 -4.79,-10.28 -10.96,-14.39l-10.62 -7.88 -21.93 23.98c-19.87,21.25 -21.93,22.62 -19.87,13.37 4.8,-26.04 5.14,-29.81 1.71,-35.98 -2.05,-3.77 -7.53,-9.59 -12.33,-12.68 -8.91,-5.48 -8.91,-5.48 -27.41,14.74 -9.94,10.96 -20.22,25.69 -22.27,32.2 -4.11,11.99 -8.57,17.13 -15.42,17.13 -2.4,0 -1.37,-6.51 2.4,-18.16 8.91,-25.69 8.22,-38.03 -2.06,-44.88 -10.96,-7.19 -11.65,-7.19 -14.04,3.77l0 0z"/>
   <path class="fil0" d="M3378.59 1921.78c-7.19,2.39 -16.79,7.53 -21.24,11.99 -6.85,6.51 -7.54,9.25 -5.14,18.16 5.82,19.53 17.81,27.06 22.27,13.36 2.4,-7.88 22.61,-14.73 37.69,-13.02l10.28 1.03 -15.42 14.39c-13.36,13.02 -50.02,33.57 -70.92,40.08 -9.25,3.09 -12.68,12.34 -9.6,28.78 5.48,31.52 31.52,40.09 70.58,22.61 18.5,-8.22 20.22,-8.56 27.75,-3.42 13.71,9.59 37.01,5.48 37.01,-6.51 0,-5.48 -11.99,-18.85 -16.45,-18.85 -2.05,0 2.4,-10.62 9.94,-23.29 22.27,-38.72 21.58,-60.31 -2.4,-68.87 -6.51,-2.4 -11.65,-5.48 -11.65,-7.2 0,-5.13 -23.3,-13.7 -36.66,-13.36 -7.19,0 -18.84,2.06 -26.04,4.11l0 0.01zm28.44 92.85c0,0.68 -2.4,2.39 -5.48,3.42 -2.75,1.03 -4.12,0.69 -3.09,-1.37 2.06,-3.43 8.57,-4.8 8.57,-2.05z"/>
   <path class="fil0" d="M3186.04 1935.48c-12.34,8.91 -16.45,14.05 -33.58,41.46 -16.44,26.72 -20.56,41.11 -15.76,58.59 9.59,35.63 37.69,42.14 87.03,20.55 20.9,-9.25 26.04,-16.44 17.81,-24.67 -5.14,-5.14 -8.56,-5.14 -39.4,-0.68 -18.5,2.74 -35.63,4.45 -37.69,3.77 -8.9,-2.74 -3.08,-10.28 10.62,-13.71 30.5,-7.88 57.22,-37 57.22,-62.35 0,-13.02 -16.1,-30.84 -28.09,-30.84 -4.46,0 -12.34,3.43 -18.16,7.88z"/>
   <path class="fil0" d="M719.52 1962.89c-17.48,19.19 -36.66,56.19 -39.06,76.06 -1.71,15.76 5.48,33.58 16.1,39.06 7.54,4.11 20.9,0.69 38.72,-9.94 11.31,-6.51 13.36,-6.85 15.07,-2.05 4.12,10.62 21.59,6.51 35.98,-7.88 11.99,-11.99 17.47,-24.33 10.96,-24.33 -1.71,0 -5.14,-1.37 -7.88,-3.42 -4.11,-2.4 -4.11,-3.77 1.03,-9.6 3.43,-3.77 6.51,-10.96 6.85,-16.44 0.69,-7.54 -1.71,-10.97 -10.28,-16.45 -6.5,-4.11 -10.96,-10.28 -11.3,-14.39 0,-9.94 -14.05,-21.93 -28.78,-24.32 -11.65,-1.72 -13.71,-0.69 -27.41,13.7l0 0z"/>
   <path class="fil0" d="M1506.86 1962.2c-26.04,12.68 -33.92,25.7 -32.55,53.8 0.34,4.11 6.85,14.73 14.39,22.95 12.33,13.36 13.36,15.42 7.19,15.42 -4.11,0 -7.88,-1.37 -8.9,-3.08 -1.03,-1.72 -5.83,-3.77 -10.62,-4.46 -7.2,-1.71 -8.57,-0.68 -8.57,6.51 0,14.39 9.94,30.49 22.61,36.32 10.28,5.14 13.36,5.14 22.96,1.03 16.79,-6.86 22.95,-14.74 22.95,-29.13 0,-8.9 -2.74,-15.76 -10.27,-24.32 -5.49,-6.51 -9.94,-13.71 -10.28,-16.11 0,-2.05 9.25,-11.3 20.21,-20.55 11.31,-8.91 20.56,-18.85 20.56,-21.93 0.34,-7.88 -13.71,-19.87 -25.36,-21.93 -6.51,-1.03 -15.41,1.03 -24.32,5.48l0 0z"/>
   <path class="fil0" d="M1966.65 2315.45c-5.48,9.93 -18.15,33.57 -28.78,52.07 -17.47,30.84 -19.52,33.24 -22.27,25.7 -5.14,-14.39 -22.27,-25.35 -40.77,-25.35 -14.73,0 -17.47,1.37 -33.58,17.13 -24.32,23.98 -38.03,52.76 -38.37,80.86 -0.34,24.66 5.83,40.77 19.53,49.68 11.99,7.88 24.33,3.76 52.42,-17.48l24.67 -18.84 6.51 13.36c4.8,9.25 10.96,14.73 19.87,18.5 11.99,4.8 14.39,4.45 30.49,-1.37 15.77,-5.82 18.51,-6.17 29.13,-1.71 14.39,5.82 38.37,2.39 70.58,-10.62 39.06,-15.77 18.84,-27.07 -32.21,-18.16 -14.73,2.39 -23.64,2.39 -27.75,0.34 -5.14,-3.08 -4.8,-3.43 2.05,-3.77 26.39,-0.34 79.49,-46.25 79.49,-68.87 0,-9.93 -16.1,-27.06 -25.01,-27.06 -27.41,0 -88.05,62.7 -88.74,92.16 -0.34,5.48 -1.37,9.94 -2.4,9.94 -1.02,-0.34 -8.22,0.68 -15.41,2.4 -11.31,2.05 -14.39,1.71 -18.16,-3.77 -6.85,-9.25 -2.74,-27.41 10.96,-45.91 13.36,-18.16 59.96,-111.36 59.96,-119.58 0,-4.45 -15.76,-17.47 -21.24,-17.47 -0.69,0 -5.83,8.22 -10.97,17.81l0 0.01zm-72.63 80.85c4.45,7.54 -3.08,29.47 -13.71,40.43 -7.53,7.2 -11.3,14.05 -10.62,19.19 0.35,5.83 -3.42,10.28 -16.1,18.85 -23.3,16.1 -27.41,15.07 -25.36,-5.14 2.06,-21.93 14.74,-46.26 32.55,-62.7 13.71,-12.68 28.78,-17.48 33.24,-10.62l0 -0.01z"/>
   <path class="fil0" d="M2297.97 2320.24c-5.83,15.08 6.51,49.34 17.81,49.34 10.28,0 13.02,-9.59 7.2,-26.04 -8.23,-24.33 -20.22,-35.63 -25.01,-23.3l0 0z"/>
   <path class="fil0" d="M2160.92 2369.58c-17.82,10.62 -22.27,20.9 -22.27,47.97 0.34,22.61 -0.34,24.32 -8.91,28.78 -10.62,5.48 -25.35,20.9 -31.18,31.52 -5.48,10.96 4.11,40.08 16.11,49.33 23.64,18.85 72.97,-8.22 72.63,-40.08 -0.34,-5.14 -2.4,-13.36 -5.14,-18.16 -2.74,-4.8 -4.79,-9.59 -5.14,-10.96 -0.34,-6.86 69.55,-13.02 73.67,-6.17 1.02,1.71 -3.43,17.81 -10.28,35.29 -12.68,34.26 -14.05,44.2 -8.57,58.93 4.8,12.33 12.68,9.94 26.73,-8.57 9.59,-12.33 11.3,-17.13 9.93,-26.38 -1.37,-6.85 0.69,-19.18 4.8,-30.83 8.91,-26.39 8.22,-33.58 -5.14,-47.97 -10.28,-11.31 -13.36,-12.68 -31.52,-14.05 -17.82,-1.03 -52.76,4.46 -70.58,11.31 -4.8,2.05 -6.17,0.68 -6.17,-6.17 0,-4.8 1.03,-11.31 2.06,-14.39 3.08,-7.54 19.19,-15.42 31.86,-15.42 8.57,0 10.28,1.72 12.34,10.28 2.39,11.65 9.93,13.36 15.41,3.77 5.83,-11.31 3.77,-19.87 -8.22,-32.55 -9.59,-10.62 -13.7,-12.33 -26.38,-12.33 -8.91,0 -19.53,2.74 -26.04,6.85l0 0zm2.4 111.69c0,4.8 -4.11,10.97 -11.31,16.45 -12.33,9.59 -22.61,11.31 -29.12,4.8 -5.48,-5.49 0.34,-14.74 17.13,-26.73 15.42,-11.31 23.3,-9.59 23.3,5.48l0 0z"/>
   <path class="fil0" d="M2519.99 2403.84c-37.35,25.36 -74.01,55.51 -77.09,63.73 -2.75,7.19 4.79,25.35 10.62,25.35 3.08,0 15.41,-9.59 27.75,-20.9 24.32,-22.95 62.36,-52.07 64.75,-49.68 0.69,0.69 -5.14,14.39 -13.02,29.81 -15.07,29.81 -17.81,47.97 -8.56,57.56 6.17,5.83 9.94,3.43 35.29,-20.21 10.96,-10.28 23.64,-21.93 28.09,-25.7l8.23 -6.85 -4.11 7.54c-4.12,7.88 -5.14,34.6 -1.72,43.85 6.51,16.45 31.52,17.13 83.26,1.72 43.17,-12.68 27.41,-26.04 -26.04,-22.27 -22.96,1.37 -31.86,1.02 -31.86,-1.72 0,-2.05 6.16,-14.39 13.7,-27.41 15.76,-26.72 19.53,-40.43 14.05,-50.71 -8.57,-15.76 -28.1,-10.27 -55.85,15.77l-9.25 8.56 2.06 -18.5c1.37,-15.76 0.68,-19.53 -5.48,-26.38 -4.12,-4.11 -9.94,-7.54 -13.37,-7.54 -3.08,0 -21.92,10.96 -41.45,23.98l0 0z"/>
   <path class="fil0" d="M2386.02 2389.79c-6.51,3.77 -18.5,12.34 -26.72,19.19 -45.23,39.06 -33.58,95.59 17.47,83.94 6.85,-1.37 12.68,-1.71 12.68,-0.34 0,3.77 -19.53,55.16 -37.01,97.99 -9.25,22.61 -20.55,51.39 -25.01,64.07 -4.45,13.02 -9.25,23.3 -10.62,23.3 -5.48,0 -2.74,-27.75 4.46,-46.6 6.85,-17.81 6.85,-19.53 1.71,-25.01 -5.48,-5.14 -6.51,-4.8 -15.76,5.48 -20.22,22.27 -21.93,55.85 -4.46,89.42 16.79,33.24 29.47,23.65 49.34,-36.31 20.22,-61.67 72.29,-186.39 81.2,-193.93 25.36,-21.92 23.3,-60.64 -4.45,-77.43 -16.11,-9.59 -29.47,-10.96 -42.83,-3.77l0 0zm44.54 24.33c0,1.71 -2.4,3.43 -5.14,3.43 -2.74,0 -5.82,3.77 -7.19,8.56 -3.43,13.02 -8.57,15.42 -22.62,9.6 -15.07,-6.17 -14.04,-9.6 5.49,-18.51 15.41,-6.85 29.46,-8.56 29.46,-3.08zm-60.3 42.83c6.51,4.8 6.17,5.14 -4.11,5.14 -10.28,0 -13.71,-3.09 -8.57,-7.88 3.09,-3.43 5.14,-2.74 12.68,2.74l0 0z"/>
   <path class="fil1 str0" d="M2058.5 1519.88l-165.89 0 -134.06 -235.65 135.39 -230.78 161.72 0.36c3.92,23.36 23.36,41.1 46.76,41.1 26.22,0 47.48,-22.29 47.48,-49.8 0,-27.5 -21.26,-49.79 -47.48,-49.79 -21.62,0 -39.87,15.15 -45.61,35.88 -0.03,0.12 -0.06,0.25 -0.1,0.37l-175.56 0.06 -149.67 253.61 146.66 257.91 180.09 1.86c5.13,21.7 23.82,37.78 46.09,37.78 26.22,0 47.48,-22.3 47.48,-49.8 0,-27.5 -21.26,-49.79 -47.48,-49.79 -21.89,0 -40.33,15.54 -45.82,36.68zm43.92 -448.07c-14.84,0 -26.86,-11.95 -26.86,-26.7 0,-14.74 12.02,-26.69 26.86,-26.69 14.83,0 26.85,11.95 26.85,26.69 0,14.75 -12.02,26.7 -26.85,26.7zm1.9 487.88c-14.83,0 -26.86,-11.95 -26.86,-26.7 0,-14.74 12.03,-26.69 26.86,-26.69 14.83,0 26.86,11.95 26.86,26.69 0,14.75 -12.03,26.7 -26.86,26.7z"/>
   <path class="fil1 str1" d="M2146.82 1300.01l165.89 0 134.06 235.65 -135.39 230.78 -161.71 -0.37c-3.92,-23.35 -23.37,-41.09 -46.76,-41.09 -26.22,0 -47.48,22.29 -47.48,49.79 0,27.5 21.26,49.8 47.48,49.8 21.62,0 39.86,-15.15 45.6,-35.88 0.04,-0.13 0.07,-0.25 0.1,-0.38l175.56 -0.06 149.67 -253.6 -146.65 -257.91 -180.1 -1.86c-5.12,-21.7 -23.81,-37.78 -46.08,-37.78 -26.22,0 -47.48,22.29 -47.48,49.79 0,27.51 21.25,49.8 47.48,49.8 21.89,0 40.32,-15.54 45.81,-36.68zm-43.91 448.07c14.83,0 26.86,11.95 26.86,26.69 0,14.75 -12.03,26.7 -26.86,26.7 -14.83,0 -26.85,-11.95 -26.86,-26.7 0.01,-14.74 12.03,-26.69 26.86,-26.69zm-1.9 -487.88c14.83,0 26.85,11.95 26.85,26.69 0,14.75 -12.02,26.7 -26.85,26.7 -14.84,0 -26.86,-11.95 -26.86,-26.7 0,-14.74 12.02,-26.69 26.86,-26.69z"/>
  </g>
 </g>
</svg>
