<?xml version="1.0" encoding="UTF-8"?>
<!DOCTYPE svg PUBLIC "-//W3C//DTD SVG 1.1//EN" "http://www.w3.org/Graphics/SVG/1.1/DTD/svg11.dtd">
<!-- Creator: CorelDRAW 2018 -->
<svg xmlns="http://www.w3.org/2000/svg" xml:space="preserve" width="60.96mm" height="60.96mm" version="1.1" style="shape-rendering:geometricPrecision; text-rendering:geometricPrecision; image-rendering:optimizeQuality; fill-rule:evenodd; clip-rule:evenodd"
viewBox="0 0 6096 6096"
 xmlns:xlink="http://www.w3.org/1999/xlink">
 <defs>
  <style type="text/css">
   <![CDATA[
    .str1 {stroke:#FEFEFE;stroke-width:8.47;stroke-miterlimit:22.9256}
    .str0 {stroke:#FEFEFE;stroke-width:7.62;stroke-miterlimit:22.9256}
    .fil0 {fill:white}
   ]]>
  </style>
 </defs>
 <g id="Layer_x0020_1">
  <metadata id="CorelCorpID_0Corel-Layer"/>
  <path class="fil0" d="M2404.8 1463.23c-539.98,0 -974.7,465.18 -974.7,1042.9l0 1170.45 297.48 0c0,0 152.76,-13.35 152.76,252.34l0 24.64c111.69,-0.38 287.32,-16.03 340.49,-106.72 -24.72,160.67 -148.73,277.93 -340.49,269.46l0 390.47 285.52 -0.02c0,0 152.76,-19.86 152.76,199.34l0 625.32 1203.51 0 0 -2825.28c0,-577.72 -434.9,-1042.9 -974.9,-1042.9l-142.43 0z"/>
  <path class="fil0 str0" d="M3990.09 1562.25l-455.62 0 -368.19 -647.21 371.84 -633.85 444.15 1.01c10.78,64.14 64.18,112.87 128.43,112.87 72.01,0 130.4,-61.23 130.4,-136.76 0,-75.54 -58.39,-136.77 -130.4,-136.77 -59.38,0 -109.48,41.62 -125.25,98.55 -0.09,0.34 -0.19,0.68 -0.28,1.02l-482.18 0.17 -411.07 696.53 402.79 708.36 494.63 5.1c14.08,59.59 65.42,103.76 126.59,103.76 72.01,0 130.4,-61.23 130.4,-136.76 0,-75.53 -58.39,-136.77 -130.4,-136.77 -60.14,0 -110.77,42.69 -125.84,100.75zm120.61 -1230.62c-40.74,0 -73.76,-32.83 -73.76,-73.32 0,-40.5 33.02,-73.33 73.76,-73.33 40.73,0 73.76,32.83 73.76,73.33 0,40.49 -33.03,73.32 -73.76,73.32zm5.23 1339.96c-40.74,0 -73.76,-32.83 -73.76,-73.32 0,-40.5 33.02,-73.32 73.76,-73.32 40.73,0 73.76,32.82 73.76,73.32 0,40.49 -33.03,73.32 -73.76,73.32z"/>
  <path class="fil0 str1" d="M4403.32 875.26l455.62 0 368.19 647.22 -371.84 633.84 -444.15 -1c-10.78,-64.14 -64.18,-112.87 -128.43,-112.87 -72.01,0 -130.4,61.23 -130.4,136.76 0,75.53 58.39,136.76 130.41,136.76 59.37,0 109.47,-41.61 125.24,-98.54 0.09,-0.35 0.19,-0.69 0.28,-1.03l482.18 -0.16 411.07 -696.54 -402.79 -708.35 -494.63 -5.11c-14.08,-59.59 -65.41,-103.76 -126.58,-103.76 -72.02,0 -130.41,61.23 -130.41,136.77 0,75.53 58.39,136.76 130.4,136.76 60.14,0 110.77,-42.69 125.84,-100.75zm-120.61 1230.63c40.74,0 73.76,32.82 73.76,73.32 0.01,40.49 -33.02,73.32 -73.76,73.32 -40.73,0 -73.75,-32.83 -73.76,-73.32 0.01,-40.5 33.03,-73.32 73.76,-73.32zm-5.23 -1339.97c40.74,0 73.77,32.83 73.76,73.33 0,40.49 -33.02,73.32 -73.76,73.32 -40.73,0 -73.75,-32.83 -73.75,-73.32 0,-40.5 33.02,-73.33 73.75,-73.33z"/>
  <g id="_633564720">
   <path class="fil0" d="M3664.04 1087.75c0,153.52 119.17,278.03 266.14,278.03 146.98,0 266.15,-124.51 266.15,-278.03 0,-153.54 -119.17,-278.03 -266.15,-278.03 -146.97,0 -266.14,124.49 -266.14,278.03z"/>
   <path class="fil0" d="M3841.41 1093.78c1.38,-0.04 2.7,0.02 4.1,0.12 5.55,0.45 11.27,2.16 16.72,5.24 10.26,5.76 16.41,15.37 20.18,25.8 3.82,-2.04 7.61,-4.16 11.74,-5.37 11.13,-3.25 23.51,-2.92 34.6,3.31 11.1,6.25 17.85,16.72 21.2,28.1 0.8,2.71 0.95,5.61 1.4,8.43 9.25,-1.07 19.31,0 29.74,6.25 26.14,15.69 34.18,45.31 24.52,70.61 -9.67,25.3 -36.65,46.38 -77.38,47.76 -25.83,0.86 -48.48,23.86 -64.48,47.88 -4.91,7.38 -9.09,14.66 -12.65,21.33 -3.91,-1.28 -7.79,-2.76 -11.62,-4.22 3.85,-7.38 8.5,-15.55 14.05,-23.88 16.91,-25.38 41.73,-52.28 74.31,-53.37 36.75,-1.23 58.6,-19.46 66.39,-39.84 7.8,-20.38 1.98,-42.84 -19.41,-55.68 -8.58,-5.14 -15.7,-5.84 -22.22,-4.97 0.04,5.04 -0.16,9.97 -0.88,14.8 -1.75,11.44 -5.47,22.01 -10.59,29.75 -2.55,3.86 -5.49,7.01 -9.2,9.19 -3.7,2.18 -8.47,3.13 -12.89,1.67 -4.34,-1.44 -7.65,-4.96 -9.32,-8.81 -1.67,-3.84 -2.04,-8.04 -1.67,-12.38 0.77,-8.68 4.49,-18.14 10.6,-26.55 5.08,-7.02 12.28,-12.67 20.69,-16.48 -0.39,-2.69 -0.41,-5.55 -1.15,-8.04 -2.68,-9.13 -7.55,-16.49 -15.45,-20.94 -7.92,-4.46 -16.45,-4.71 -25.15,-2.18 -4.18,1.22 -8.29,3.21 -12.26,5.62 1.5,8.76 2.07,17.69 1.03,25.91 -1.44,11.17 -4.61,21.02 -10.08,27.71 -2.74,3.33 -6.36,6.15 -10.99,6.64 -4.62,0.49 -9.23,-1.71 -12.77,-5.24 -7.24,-7.24 -8.12,-17.88 -5.24,-27.46 2.9,-9.59 9.17,-19.05 17.36,-27.07 2.22,-2.18 4.89,-3.93 7.4,-5.88 -0.04,-0.08 0.04,-0.19 0,-0.25 -2.9,-9.42 -8,-17.17 -15.84,-21.57 -8.1,-4.57 -15.4,-4.8 -22.48,-2.18 -7.05,2.61 -13.9,8.51 -19.27,16.84 -10.76,16.68 -15.38,42.8 -6.52,68.31l0 0.12c10.43,30.13 1.38,70.96 -9.44,104.96 -3.06,9.6 -6.13,17.97 -9.07,25.67 -3.48,-2.29 -6.97,-4.59 -10.35,-7.02 2.6,-6.89 5.15,-14.42 7.66,-22.33 10.53,-33.04 18.03,-72.79 9.58,-97.31l0 -0.12c-10.14,-29.15 -5.22,-58.74 7.79,-78.92 6.5,-10.08 15.12,-17.94 25.28,-21.7 3.81,-1.42 7.88,-2.2 12.01,-2.3l0.02 0.04zm33.08 51.58c-0.35,0.33 -0.8,0.56 -1.15,0.89 -6.96,6.8 -12.22,14.93 -14.3,21.84 -2.08,6.91 -1.29,11.74 2.18,15.2 1.81,1.81 2.45,1.7 2.82,1.66 0.35,-0.04 1.36,-0.39 2.82,-2.18 2.92,-3.55 6.17,-11.82 7.4,-21.45 0.66,-5.1 0.68,-10.53 0.25,-15.96l-0.02 0zm65.51 30.28c-4.32,2.77 -8.27,6.21 -11.38,10.47 -4.87,6.72 -7.79,14.76 -8.31,20.56 -0.24,2.9 0.08,5.08 0.64,6.38 0.56,1.29 0.91,1.71 1.91,2.04 0.93,0.3 1.55,0.3 2.94,-0.52 1.4,-0.82 3.25,-2.67 5.1,-5.49 3.73,-5.62 7.16,-14.81 8.68,-24.76 0.44,-2.84 0.25,-5.76 0.4,-8.68l0.02 0z" color="#000000"/>
   <path class="fil0" d="M3759.76 1418.25c3.39,1.11 6.75,2.53 9.96,4.47 0.3,0.18 0.57,0.43 0.88,0.63 -3.7,-1.6 -7.32,-3.31 -10.86,-5.1l0.02 0zm-52.1 21.31c18.74,19.5 46.77,34.8 78.92,42.27 -11.93,18.9 -38.23,24.12 -59.25,11.5 -19.61,-11.79 -27.69,-34.95 -19.67,-53.77z"/>
   <path class="fil0" d="M3694.44 1349.17c11.6,41.91 65.01,79.14 124.37,87.96 21.86,3.25 39,0.15 51.58,-6 2.97,20.77 -14.17,61.74 -68.82,53.62 -82.6,-12.28 -144.75,-77.27 -107.13,-135.6l0 0.02z"/>
   <path class="fil0" d="M3704.68 1295.55c7.18,47.03 71.91,91.63 136.76,101.25 24.37,3.62 42.06,1.52 54.91,-3.45 2.82,20.21 -22.56,51.97 -77.5,43.78 -84.35,-12.54 -156.85,-82.33 -114.15,-141.6l-0.02 0.02z"/>
   <path class="fil0" d="M3715.89 1252.37c47.61,67.61 123.76,111.89 209.91,113.39 -7.65,17.14 -28.3,39.39 -84.53,31.04 -84.82,-12.61 -169.62,-84.92 -125.4,-144.4l0.02 -0.03z"/>
   <path class="fil0" d="M3694.44 1349.17c11.6,41.91 65.01,79.14 124.37,87.96 21.86,3.25 39,0.15 51.58,-6 2.97,20.77 -14.17,61.74 -68.82,53.62 -82.6,-12.28 -144.75,-77.27 -107.13,-135.6l0 0.02z"/>
   <path class="fil0" d="M4027.9 1308.79c0,0 161.58,-106.93 118.82,-270.9 -42.78,-163.96 -216.25,-197.22 -240,-161.58 -23.76,35.65 92.68,49.9 137.82,104.57 45.15,54.67 111.68,156.83 -16.64,327.93l0 -0.02z"/>
   <path class="fil0" d="M4172.7 1422.86c0,0 114.07,87.93 95.04,114.07 -19,26.14 -95.04,-114.07 -95.04,-114.07z"/>
   <path class="fil0" d="M4324.8 1228.7c0,0 131.06,59.69 118.49,89.47 -12.57,29.78 -118.49,-89.47 -118.49,-89.47z"/>
   <path class="fil0" d="M4405.73 1054.9c0,0 143.17,15.66 140.54,47.86 -2.61,32.21 -140.54,-47.86 -140.54,-47.86z"/>
   <path class="fil0" d="M4381.58 819.26c0,0 115.78,-85.64 135.73,-60.2 19.93,25.44 -135.73,60.2 -135.73,60.2z"/>
   <path class="fil0" d="M4246.06 668.35c0,0 56.89,-132.31 86.92,-120.36 30.03,11.93 -86.92,120.36 -86.92,120.36z"/>
   <path class="fil0" d="M3871.4 580.06c0,0 -79.43,-112.45 -54.42,-140.83 25.01,-28.38 54.42,140.83 54.42,140.83z"/>
   <path class="fil0" d="M4054.72 575.78c0,0 -8.33,-137.41 27.85,-148.38 36.2,-10.96 -27.85,148.38 -27.85,148.38z"/>
   <path class="fil0" d="M3704.93 684.21c0,0 -100.6,-93.99 -81.86,-126.84 18.71,-32.85 81.86,126.84 81.86,126.84z"/>
   <path class="fil0" d="M3612.29 904.59c0,0 -137.66,-1.19 -146.09,-38.07 -8.44,-36.85 146.09,38.07 146.09,38.07z"/>
   <path class="fil0" d="M3589.38 1140.12c0,0 -125.42,56.76 -148.56,26.86 -23.14,-29.91 148.56,-26.86 148.56,-26.86z"/>
  </g>
  <g id="_633560424">
   <path class="fil0" d="M2298.13 1077.17c0,130.99 101.68,237.24 227.1,237.24 125.41,0 227.1,-106.25 227.1,-237.24 0,-131.02 -101.69,-237.25 -227.1,-237.25 -125.42,0 -227.1,106.23 -227.1,237.25z"/>
   <path class="fil0" d="M2449.48 1082.31c1.17,-0.04 2.3,0.02 3.49,0.1 4.74,0.39 9.62,1.85 14.27,4.48 8.76,4.91 14,13.11 17.22,22.01 3.26,-1.74 6.49,-3.55 10.02,-4.58 9.49,-2.78 20.06,-2.5 29.52,2.82 9.47,5.34 15.23,14.27 18.09,23.98 0.69,2.31 0.81,4.79 1.19,7.19 7.9,-0.91 16.48,0 25.38,5.34 22.31,13.39 29.17,38.66 20.92,60.25 -8.25,21.58 -31.27,39.57 -66.02,40.75 -22.04,0.73 -41.37,20.36 -55.02,40.85 -4.2,6.31 -7.76,12.52 -10.8,18.2 -3.33,-1.08 -6.65,-2.35 -9.91,-3.59 3.28,-6.3 7.25,-13.27 11.99,-20.38 14.42,-21.66 35.61,-44.61 63.4,-45.54 31.37,-1.06 50.01,-16.6 56.66,-34 6.65,-17.39 1.68,-36.55 -16.57,-47.51 -7.32,-4.38 -13.39,-4.98 -18.95,-4.24 0.03,4.3 -0.14,8.51 -0.76,12.63 -1.49,9.76 -4.67,18.78 -9.04,25.38 -2.17,3.3 -4.68,5.99 -7.84,7.85 -3.16,1.86 -7.23,2.66 -11.01,1.42 -3.7,-1.23 -6.53,-4.23 -7.95,-7.51 -1.42,-3.29 -1.73,-6.87 -1.42,-10.57 0.65,-7.41 3.83,-15.48 9.04,-22.66 4.33,-5.98 10.48,-10.81 17.66,-14.05 -0.34,-2.3 -0.36,-4.74 -0.99,-6.87 -2.28,-7.79 -6.44,-14.07 -13.18,-17.86 -6.75,-3.81 -14.04,-4.02 -21.46,-1.86 -3.56,1.03 -7.07,2.73 -10.46,4.79 1.28,7.47 1.77,15.09 0.88,22.11 -1.23,9.53 -3.94,17.94 -8.6,23.64 -2.34,2.84 -5.43,5.25 -9.38,5.67 -3.94,0.42 -7.88,-1.46 -10.89,-4.47 -6.18,-6.18 -6.94,-15.26 -4.48,-23.43 2.48,-8.18 7.83,-16.26 14.81,-23.1 1.9,-1.86 4.18,-3.35 6.32,-5.02 -0.03,-0.07 0.04,-0.16 0,-0.21 -2.47,-8.04 -6.83,-14.65 -13.51,-18.41 -6.92,-3.9 -13.15,-4.09 -19.19,-1.86 -6.01,2.23 -11.86,7.26 -16.44,14.37 -9.18,14.24 -13.13,36.52 -5.56,58.29l0 0.1c8.89,25.71 1.17,60.55 -8.06,89.56 -2.61,8.2 -5.23,15.34 -7.74,21.9 -2.96,-1.94 -5.95,-3.91 -8.83,-5.98 2.22,-5.88 4.39,-12.3 6.53,-19.06 8.99,-28.19 15.39,-62.11 8.18,-83.03l0 -0.11c-8.65,-24.86 -4.46,-50.12 6.65,-67.34 5.55,-8.6 12.9,-15.3 21.57,-18.51 3.25,-1.21 6.72,-1.88 10.25,-1.97l0.02 0.04zm28.22 44.01c-0.3,0.28 -0.68,0.48 -0.98,0.76 -5.94,5.81 -10.43,12.74 -12.2,18.64 -1.77,5.89 -1.11,10.02 1.86,12.97 1.54,1.54 2.09,1.45 2.4,1.42 0.3,-0.04 1.16,-0.34 2.41,-1.86 2.49,-3.04 5.26,-10.09 6.32,-18.31 0.56,-4.35 0.58,-8.98 0.21,-13.62l-0.02 0zm55.9 25.84c-3.69,2.37 -7.06,5.3 -9.71,8.93 -4.16,5.74 -6.65,12.6 -7.09,17.55 -0.21,2.48 0.07,4.34 0.55,5.44 0.47,1.11 0.77,1.46 1.63,1.74 0.79,0.26 1.31,0.26 2.51,-0.44 1.19,-0.7 2.77,-2.28 4.35,-4.69 3.18,-4.79 6.11,-12.63 7.41,-21.13 0.36,-2.42 0.21,-4.91 0.33,-7.4l0.02 0z" color="#000000"/>
   <path class="fil0" d="M2379.8 1359.18c2.9,0.95 5.76,2.16 8.5,3.81 0.26,0.16 0.49,0.37 0.75,0.54 -3.16,-1.37 -6.24,-2.82 -9.26,-4.35l0.01 0zm-44.45 18.18c15.99,16.64 39.91,29.7 67.34,36.07 -10.18,16.13 -32.63,20.59 -50.56,9.81 -16.73,-10.06 -23.63,-29.82 -16.78,-45.88z"/>
   <path class="fil0" d="M2324.06 1300.23c9.9,35.77 55.48,67.53 106.13,75.06 18.66,2.78 33.28,0.12 44.02,-5.12 2.52,17.72 -12.1,52.68 -58.73,45.75 -70.48,-10.48 -123.52,-65.94 -91.42,-115.71l0 0.02z"/>
   <path class="fil0" d="M2332.8 1254.48c6.13,40.13 61.36,78.18 116.7,86.4 20.79,3.08 35.89,1.29 46.86,-2.95 2.4,17.25 -19.26,44.35 -66.13,37.36 -71.98,-10.7 -133.84,-70.25 -97.41,-120.83l-0.02 0.02z"/>
   <path class="fil0" d="M2342.37 1217.64c40.63,57.69 105.6,95.47 179.12,96.75 -6.53,14.62 -24.15,33.61 -72.13,26.49 -72.38,-10.76 -144.74,-72.47 -107.01,-123.22l0.02 -0.02z"/>
   <path class="fil0" d="M2324.06 1300.23c9.9,35.77 55.48,67.53 106.13,75.06 18.66,2.78 33.28,0.12 44.02,-5.12 2.52,17.72 -12.1,52.68 -58.73,45.75 -70.48,-10.48 -123.52,-65.94 -91.42,-115.71l0 0.02z"/>
   <path class="fil0" d="M2608.61 1265.78c0,0 137.87,-91.25 101.38,-231.16 -36.5,-139.91 -184.52,-168.29 -204.79,-137.87 -20.27,30.41 79.08,42.58 117.61,89.22 38.52,46.65 95.29,133.83 -14.2,279.83l0 -0.02z"/>
   <path class="fil0" d="M2732.16 1363.11c0,0 97.33,75.03 81.1,97.34 -16.22,22.3 -81.1,-97.34 -81.1,-97.34z"/>
   <path class="fil0" d="M2861.95 1197.44c0,0 111.83,50.93 101.1,76.34 -10.72,25.41 -101.1,-76.34 -101.1,-76.34z"/>
   <path class="fil0" d="M2931.01 1049.14c0,0 122.16,13.35 119.92,40.84 -2.23,27.48 -119.92,-40.84 -119.92,-40.84z"/>
   <path class="fil0" d="M2910.4 848.06c0,0 98.79,-73.08 115.82,-51.37 17,21.71 -115.82,51.37 -115.82,51.37z"/>
   <path class="fil0" d="M2794.76 719.3c0,0 48.55,-112.9 74.17,-102.71 25.62,10.18 -74.17,102.71 -74.17,102.71z"/>
   <path class="fil0" d="M2475.07 643.95c0,0 -67.78,-95.94 -46.44,-120.16 21.34,-24.22 46.44,120.16 46.44,120.16z"/>
   <path class="fil0" d="M2631.49 640.3c0,0 -7.11,-117.25 23.77,-126.6 30.88,-9.36 -23.77,126.6 -23.77,126.6z"/>
   <path class="fil0" d="M2333.02 732.83c0,0 -85.84,-80.21 -69.86,-108.23 15.98,-28.03 69.86,108.23 69.86,108.23z"/>
   <path class="fil0" d="M2253.97 920.88c0,0 -117.47,-1.02 -124.66,-32.49 -7.2,-31.45 124.66,32.49 124.66,32.49z"/>
   <path class="fil0" d="M2234.42 1121.85c0,0 -107.02,48.44 -126.77,22.92 -19.74,-25.52 126.77,-22.92 126.77,-22.92z"/>
  </g>
 </g>
</svg>
