<?xml version="1.0" encoding="UTF-8"?>
<!DOCTYPE svg PUBLIC "-//W3C//DTD SVG 1.1//EN" "http://www.w3.org/Graphics/SVG/1.1/DTD/svg11.dtd">
<!-- Creator: CorelDRAW 2018 -->
<svg xmlns="http://www.w3.org/2000/svg" xml:space="preserve" width="60.96mm" height="60.96mm" version="1.1" style="shape-rendering:geometricPrecision; text-rendering:geometricPrecision; image-rendering:optimizeQuality; fill-rule:evenodd; clip-rule:evenodd"
viewBox="0 0 6096 6096"
 xmlns:xlink="http://www.w3.org/1999/xlink"
 enable-background="new 0 0 2000 2000">
 <defs>
  <style type="text/css">
   <![CDATA[
    .str1 {stroke:white;stroke-width:8.47;stroke-miterlimit:22.9256}
    .str0 {stroke:white;stroke-width:7.62;stroke-miterlimit:22.9256}
    .fil5 {fill:none}
    .fil0 {fill:white}
    .fil2 {fill:white;fill-opacity:0.039216}
    .fil4 {fill:white;fill-opacity:0.109804}
    .fil1 {fill:white;fill-opacity:0.200000}
    .fil3 {fill:white;fill-opacity:0.380392}
   ]]>
  </style>
 </defs>
 <g id="Layer_x0020_1">
  <metadata id="CorelCorpID_0Corel-Layer"/>
  <g id="_952876912">
   <polygon class="fil0" points="687.61,2181.21 146.07,3024.83 197.19,3076.25 737.15,2239.2 "/>
   <polygon class="fil0" points="157.77,3316.95 478.41,4118.39 546.59,4118.39 212.13,3278.67 "/>
   <path class="fil0" d="M546.59 4140.29l-68.17 0c-6.39,0 -12.23,-4.58 -15.16,-11.9l-320.64 -801.38c-4.2,-10.56 -1.13,-23.52 6.95,-29.22l54.35 -38.34c4.07,-2.82 8.77,-3.47 13.21,-1.72 4.4,1.72 8.06,5.69 10.17,10.94l334.46 839.75c2.7,6.8 2.46,14.91 -0.63,21.41 -3.08,6.5 -8.6,10.48 -14.55,10.48l0.01 -0.02zm-57.77 -43.83l29.9 0 -313.76 -787.76 -24.44 17.21 308.3 770.59 0 -0.04z"/>
   <path class="fil0" d="M693.65 1532.01c36.59,47.06 36.59,123.34 0,170.38 -36.61,47.04 -95.97,47.04 -132.59,0 -36.58,-47.04 -36.58,-123.32 0,-170.38 36.62,-47.04 95.97,-47.04 132.59,0z"/>
   <path class="fil0" d="M627.34 1759.59c-29.59,0 -57.42,-14.81 -78.34,-41.69 -43.18,-55.52 -43.18,-145.83 0,-201.36 20.92,-26.89 48.75,-41.7 78.34,-41.7 29.59,0 57.42,14.81 78.34,41.7 43.17,55.53 43.17,145.84 0,201.36 -20.92,26.88 -48.75,41.69 -78.34,41.69zm0 -240.95c-20.49,0 -39.75,10.25 -54.25,28.86 -29.87,38.44 -29.87,100.99 0,139.42 14.49,18.61 33.75,28.86 54.25,28.86 20.48,0 39.74,-10.25 54.23,-28.86 29.89,-38.43 29.89,-100.98 0,-139.42 -14.49,-18.61 -33.75,-28.86 -54.23,-28.86z"/>
   <rect class="fil0" transform="matrix(0.987421 -1.26912 0.987421 1.26912 488.779 1748.71)" width="244.1" height="85.43"/>
   <path class="fil0" d="M573.11 1879.23c-4.35,0 -8.72,-2.13 -12.05,-6.42l-84.36 -108.43c-6.66,-8.56 -6.66,-22.41 0,-30.97l241.04 -309.81c3.2,-4.11 7.53,-6.42 12.05,-6.42 4.53,0 8.86,2.31 12.05,6.42l84.36 108.44c6.66,8.57 6.66,22.42 0,30.98l-241.04 309.79c-3.32,4.27 -7.68,6.42 -12.05,6.42zm-60.25 -130.32l60.25 77.45 216.94 -278.81 -60.26 -77.46 -216.93 278.82z"/>
   <path class="fil0" d="M934.65 2584.99l-0.84 0c-4.79,0 -9.27,0.18 -12.33,-4.61l-445.89 -695.37c-5.59,-8.7 -5.1,-20.55 1.11,-28.53l337.45 -433.31c6.23,-7.95 16.15,-8.36 22.88,-1.22l542.34 573.21c3.72,3.93 5.98,9.73 6.22,15.89 0.22,6.21 -1.58,12.24 -4.97,16.6l-433.85 554.27c-3.2,4.13 -7.54,3.05 -12.05,3.05l-0.07 0.02zm-422.92 -710.75l424.15 663.05 407.3 -523.5 -515.87 -545.16 -315.57 405.6 -0.01 0.01z"/>
   <g>
    <polygon class="fil1" points="645.41,1640.48 753.88,1501.06 729.77,1470.08 621.31,1609.5 "/>
   </g>
   <g>
    <path class="fil1" d="M641.43 1521.72c0,0 -49.26,-17.15 -83.38,48.86 0,0 26.12,-6.26 39.19,7.93l44.19 -56.79z"/>
   </g>
   <g>
    <path class="fil1" d="M1077.74 2414.31l25.67 0.66 132.54 -170.42 12.05 -15.47 -1.02 -29.65 -167.7 215.54m-1.54 -0.66z"/>
   </g>
   <path class="fil0" d="M277.6 3161.04c0,86.01 -54.24,155.7 -121.16,155.7 -66.91,0 -121.15,-69.69 -121.15,-155.7 0,-86.03 54.24,-155.74 121.15,-155.74 66.92,0 121.16,69.71 121.16,155.74z"/>
   <path class="fil0" d="M156.42 3338.83c-76.21,0 -138.2,-79.67 -138.2,-177.59 0,-97.95 62.01,-177.64 138.2,-177.64 76.19,0 138.19,79.69 138.19,177.64 0,97.94 -62,177.59 -138.19,177.59zm0 -311.42c-57.41,0 -104.11,60.02 -104.11,133.83 0,73.76 46.71,133.78 104.11,133.78 57.39,0 104.1,-60.02 104.1,-133.78 0,-73.81 -46.71,-133.83 -104.1,-133.83z"/>
   <g>
    <path class="fil1" d="M154.59 3027.56l0 267.62c51.13,0 104.1,-59.89 104.1,-133.78 0,-73.93 -52.98,-133.82 -104.1,-133.82l0 -0.02z"/>
   </g>
   <path class="fil0" d="M881.01 4600.36l-658.11 0c-8.14,0 -15.14,-7.42 -16.73,-17.68 -4.48,-29.22 -6.74,-58.78 -6.74,-87.84 0,-249.86 158.14,-453.08 352.54,-453.08 194.4,0 352.52,203.24 352.52,453.08 0,28.93 -2.26,58.48 -6.73,87.82 -1.57,10.27 -8.58,17.7 -16.73,17.7l-0.02 0zm-643.81 -43.81l629.47 0c2.46,-20.7 3.72,-41.37 3.72,-61.69 0,-225.66 -142.86,-409.27 -318.45,-409.27 -175.6,0 -318.45,183.61 -318.45,409.27 0,20.39 1.24,41.06 3.7,61.69l0.01 0z"/>
   <g>
    <path class="fil1" d="M551.96 4063.69c-56.57,0 -109.79,18.18 -156.56,49.95 17.71,-3.7 35.78,-6.14 54.3,-6.14 185.28,0 335.48,193.05 335.48,431.19 0,13.44 -0.6,26.67 -1.57,39.79l97.4 0c4.14,-27.07 6.43,-54.98 6.43,-83.6 0,-238.14 -150.2,-431.19 -335.48,-431.19z"/>
   </g>
   <g>
    <polygon class="fil2" points="211.41,3324.06 197.92,3331.73 486.24,4052.76 501.87,4052.76 "/>
   </g>
   <path class="fil0" d="M5458.76 2384.55c-17.75,0 -34.66,-5.14 -50.29,-15.29 -29.57,-19.26 -50.64,-54.06 -59.33,-98.07 -8.48,-42.9 -4.08,-89.53 12.36,-131.31 24.51,-62.23 72.14,-102.47 121.35,-102.47 17.73,0 34.66,5.15 50.24,15.29 60.27,39.2 81.36,142.1 47.01,229.36 -24.53,62.27 -72.14,102.47 -121.35,102.47l0.01 0.02zm24.09 -303.33c-36.48,0 -72.17,30.8 -90.92,78.45 -12.74,32.33 -16.2,68.12 -9.75,100.75 6.23,31.53 21.03,56.3 41.7,69.74 10.81,7.04 22.54,10.59 34.88,10.59 36.47,0 72.17,-30.78 90.92,-78.41 25.88,-65.75 11.54,-142.22 -31.96,-170.49 -10.8,-7.02 -22.53,-10.59 -34.87,-10.59l0 -0.04z"/>
   <g>
    <path class="fil3" d="M5525.58 2072.28c-2.12,-1.38 -4.33,-2.47 -6.49,-3.64 13.71,40.58 13.08,91.54 -5.16,137.86 -28.92,73.46 -91.28,108.23 -142.21,81.14 8.98,26.57 24.07,48.73 44.62,62.09 51.99,33.83 118.55,-0.9 148.7,-77.5 30.17,-76.64 12.51,-166.13 -39.47,-199.95l0.01 0z"/>
   </g>
   <path class="fil0" d="M5294.04 2835.55c-100.04,0 -198.16,-81.93 -249.91,-208.74 -35.29,-86.4 -45.71,-183.12 -29.34,-272.36 16.56,-90.37 58.51,-162.31 118.14,-202.53 32.28,-21.77 67.47,-32.81 104.59,-32.81 100.06,0 198.16,81.93 249.94,208.72 35.27,86.4 45.7,183.14 29.34,272.36 -16.58,90.39 -58.53,162.31 -118.14,202.53 -32.29,21.77 -67.49,32.81 -104.61,32.81l-0.01 0.02zm-56.53 -672.61c-31.53,0 -61.4,9.37 -88.75,27.8 -50.74,34.23 -86.55,95.95 -100.8,173.78 -14.47,78.95 -5.12,164.89 26.36,241.94 45.94,112.55 132.19,185.28 219.72,185.28 31.54,0 61.41,-9.37 88.75,-27.8 50.74,-34.21 86.54,-95.94 100.8,-173.76 14.48,-78.97 5.12,-164.93 -26.35,-241.96 -45.96,-112.55 -132.2,-185.28 -219.73,-185.28z"/>
   <ellipse class="fil0" transform="matrix(1.32368 0.572008 -0.445045 1.70131 5072.25 3214.92)" rx="103.74" ry="70.17"/>
   <path class="fil0" d="M5990.37 2667.05c34.69,67.63 -0.24,175.91 -78.03,241.87 -77.79,65.96 -168.99,64.56 -203.69,-3.07 -34.69,-67.61 0.24,-175.93 78.01,-241.87 77.81,-65.96 168.98,-64.58 203.7,3.05l0.01 0.02z"/>
   <path class="fil0" d="M5472.37 3767.74c-216.15,0 -392,-272.69 -392,-607.89 0,-335.2 175.84,-607.88 392,-607.88 216.17,0 392.01,272.68 392.01,607.88 0,335.2 -175.85,607.89 -392.01,607.89zm0 -1171.98c-197.34,0 -357.92,253.05 -357.92,564.08 0,311.02 160.57,564.07 357.92,564.07 197.36,0 357.93,-253.05 357.93,-564.07 0,-311.03 -160.57,-564.08 -357.93,-564.08z"/>
   <g>
    <path class="fil3" d="M5472.37 2574.04c-26.29,0 -51.93,4.28 -76.69,12.32 170.3,55.31 298.27,291.1 298.27,573.64 0,282.54 -127.96,518.34 -298.27,573.64 24.76,8.04 50.4,12.31 76.69,12.31 207.1,0 374.96,-262.35 374.96,-585.95 0,-323.61 -167.86,-585.96 -374.96,-585.96z"/>
   </g>
   <path class="fil0" d="M5818.84 4600.36l-675.95 0c-62.29,0 -113.03,-64.69 -113.69,-144.56l-85.07 -801.71c-0.1,-0.97 -0.15,-1.95 -0.15,-2.96 0,-80.57 50.99,-146.08 113.68,-146.08l846.38 0c62.69,0 113.69,65.53 113.69,146.08 0,0.99 -0.06,1.99 -0.16,2.96l-85.05 801.71c-0.66,79.85 -51.41,144.56 -113.69,144.56l0.01 0zm-840.76 -950.63l85.07 801.55c0.1,0.97 0.15,1.96 0.15,2.94 0,56.4 35.71,102.29 79.59,102.29l675.95 0c43.9,0 79.6,-45.89 79.6,-102.29 0,-0.98 0.04,-1.99 0.16,-2.94l85.07 -801.55c-0.6,-55.74 -36.07,-100.87 -79.6,-100.87l-846.38 0c-43.53,0 -78.98,45.13 -79.58,100.87l-0.03 0z"/>
   <g>
    <path class="fil3" d="M5903.97 3527.04l-85.22 0c53.36,0 96.63,55.6 96.63,124.18l-85.21 803.15c0,68.58 -43.28,124.18 -96.63,124.18l85.21 -0.02c53.36,0 96.63,-55.6 96.63,-124.18l85.21 -803.15c0,-68.58 -43.27,-124.18 -96.63,-124.18l0.01 0.02z"/>
   </g>
   <path class="fil0" d="M4676.87 4425.31l-3130.24 0c-62.69,0 -113.69,-65.53 -113.69,-146.1l0 -2708.94c0,-80.57 51,-146.09 113.69,-146.09l3130.24 0c62.68,0 113.68,65.52 113.68,146.09l0 2708.94c0,80.55 -51,146.08 -113.68,146.08l0 0.02zm-3130.24 -2957.3c-43.89,0 -79.6,45.89 -79.6,102.28l0 2708.94c0,56.39 35.71,102.29 79.6,102.29l3130.24 -0.02c43.89,0 79.59,-45.9 79.59,-102.29l0 -2708.94c0,-56.39 -35.7,-102.28 -79.59,-102.28l-3130.24 0.02z"/>
   <g>
    <path class="fil1" d="M4659.84 1445.91l-31.19 0c42.35,0 76.69,44.14 76.69,98.57l0 2683.43 51.14 0 0 -2657.83c0,-68.6 -43.28,-124.19 -96.64,-124.19l0 0.02z"/>
   </g>
   <path class="fil0" d="M4472.13 4381.53l-2721.16 0c-62.69,0 -113.69,-65.53 -113.69,-146.08l0 -2424.13c0,-80.57 51,-146.08 113.69,-146.08l2721.16 0c62.69,0 113.69,65.53 113.69,146.08l0 2424.13c0,80.57 -51,146.1 -113.69,146.1l0 -0.02zm-2721.16 -2672.5c-43.89,0 -79.59,45.9 -79.59,102.27l0 2424.13c0,56.4 35.71,102.27 79.59,102.27l2721.16 0.02c43.89,0 79.59,-45.89 79.59,-102.27l0 -2424.13c0,-56.39 -35.71,-102.27 -79.59,-102.27l-2721.16 -0.02z"/>
   <path class="fil0" d="M5279.55 4600.36l-4318.9 0c-61.19,0 -112.35,-50.63 -127.32,-126 -4.24,-21.27 -14.68,-72.35 -19.72,-94.05 -9.78,-41.91 -5.67,-82.7 11.23,-111.85 15.13,-26.11 39.15,-40.49 67.64,-40.49l4455.11 0c28.49,0 52.51,14.38 67.64,40.49 16.91,29.17 21.01,69.94 11.24,111.87 -5.04,21.66 -15.5,72.76 -19.71,94.03 -14.96,75.37 -66.14,126 -127.33,126l0.12 0zm-4387 -328.58c-17.71,0 -31.64,7.9 -40.32,22.85 -10.4,17.95 -12.55,44.62 -5.9,73.14 5.25,22.59 15.68,73.53 20.09,95.77 11.24,56.5 48.26,93.02 94.3,93.02l4318.92 -0.01c46.05,0 83.07,-36.53 94.3,-93.03 4.41,-22.24 14.84,-73.19 20.09,-95.75 6.65,-28.54 4.5,-55.21 -5.9,-73.16 -8.67,-14.95 -22.61,-22.85 -40.32,-22.85l-4455.11 0.02 -0.15 0z"/>
   <g>
    <path class="fil1" d="M3403.79 4249.7l-760.7 0 0 72.98c0,68.58 43.28,124.18 96.64,124.18l744.15 -0.01c53.35,0 96.63,-55.61 96.63,-124.19l0 -72.97 -176.72 0.01z"/>
   </g>
   <g>
    <path class="fil2" d="M864.76 4490.95c20.44,40.9 55.58,65.72 96.02,65.72l4318.9 0c40.46,0 75.59,-24.82 96.02,-65.72l-4510.86 0 -0.08 0z"/>
   </g>
   <g>
    <path class="fil4" d="M4472.13 1686.83l-2721.16 0c-53.36,0 -96.64,55.6 -96.64,124.18l0 65.73c0,-68.58 43.28,-124.18 96.64,-124.18l2721.16 -0.02c53.36,0 96.64,55.6 96.64,124.18l0 -65.72c0,-68.58 -43.28,-124.19 -96.64,-124.19l0 0.02z"/>
   </g>
   <g>
    <polygon class="fil1" points="1449.88,4227.86 4705.21,4227.86 4705.21,4184.05 1449.88,4184.05 "/>
   </g>
   <ellipse class="fil0" cx="3120.31" cy="1558.16" rx="19.17" ry="24.64"/>
   <g>
    <path class="fil2" d="M4636.86 1447.01c2.83,-0.43 5.6,-1.12 8.52,-1.12l-8.52 0 0 1.12z"/>
   </g>
   <path class="fil0" d="M6358.54 4600.36l-85.21 0c-9.43,0 -17.05,-9.8 -17.05,-21.92 0,-12.11 7.62,-21.89 17.05,-21.89l85.21 0c9.43,0 17.05,9.8 17.05,21.89 0,12.1 -7.62,21.92 -17.05,21.92zm-221.56 0l-136.35 0c-9.42,0 -17.03,-9.8 -17.03,-21.92 0,-12.11 7.62,-21.89 17.03,-21.89l136.35 0c9.43,0 17.04,9.8 17.04,21.89 0,12.1 -7.63,21.92 -17.04,21.92z"/>
   <path class="fil0" d="M6000.59 4600.36l-5573.26 0c-9.43,0 -17.04,-9.8 -17.04,-21.92 0,-12.11 7.62,-21.89 17.04,-21.89l5573.26 0c9.43,0 17.04,9.8 17.04,21.89 0,12.1 -7.63,21.92 -17.04,21.92z"/>
   <path class="fil0" d="M410.39 4600.36c-9.4,0 -17.14,-9.8 -17.14,-21.92 0,-12.11 7.54,-21.89 16.97,-21.89l0.17 0c9.42,0 17.03,9.8 17.03,21.89 0,12.1 -7.62,21.92 -17.03,21.92zm-136.51 0l-136.36 0c-9.42,0 -17.03,-9.8 -17.03,-21.92 0,-12.11 7.62,-21.89 17.03,-21.89l136.36 0c9.43,0 17.04,9.8 17.04,21.89 0,12.1 -7.62,21.92 -17.04,21.92zm-272.69 0l-136.36 0c-9.43,0 -17.04,-9.8 -17.04,-21.92 0,-12.11 7.62,-21.89 17.04,-21.89l136.36 0c9.42,0 17.03,9.8 17.03,21.89 0,12.1 -7.62,21.92 -17.03,21.92z"/>
   <line class="fil5" x1="5523.88" y1="2232.9" x2="5617.09" y2= "2289.26" />
   <path class="fil0" d="M5617.09 2311.19c-2.43,0 -4.9,-0.66 -7.25,-2.1l-92.97 -56.34c-8.51,-5.15 -12.15,-18.2 -8.15,-29.16 3.98,-10.91 14.16,-15.69 22.7,-10.47l92.97 56.34c8.51,5.15 12.15,18.2 8.13,29.17 -2.89,7.91 -9.04,12.56 -15.43,12.56z"/>
   <line class="fil5" x1="5471.09" y1="2060.42" x2="5465.99" y2= "1982.56" />
   <path class="fil0" d="M5471.09 2082.35c-8.77,0 -16.23,-8.65 -16.95,-20.08l-5.06 -77.84c-0.79,-12.04 6.17,-22.63 15.56,-23.64 9.56,-1.44 17.61,7.93 18.39,19.99l5.05 77.85c0.8,12.04 -6.17,22.63 -15.55,23.63 -0.48,0.06 -0.97,0.09 -1.43,0.09l-0.01 0z"/>
   <line class="fil5" x1="5414.91" y1="2140.88" x2="5335.75" y2= "2082.35" />
   <path class="fil0" d="M5414.91 2162.78c-2.89,0 -5.81,-0.93 -8.5,-2.93l-78.94 -58.53c-8.16,-6.04 -10.95,-19.45 -6.25,-29.93 4.7,-10.47 15.09,-14.06 23.3,-8.03l78.94 58.53c8.15,6.05 10.95,19.44 6.24,29.94 -3.16,7.02 -8.88,10.95 -14.79,10.95z"/>
   <line class="fil5" x1="5579.64" y1="2140.88" x2="5617.09" y2= "2133.51" />
   <path class="fil0" d="M5579.64 2162.78c-8.29,0 -15.53,-7.75 -16.83,-18.59 -1.44,-11.96 4.96,-23.12 14.26,-24.97l37.28 -7.36c9.31,-1.87 17.97,6.37 19.43,18.34 1.43,11.96 -4.96,23.12 -14.26,24.97l-37.29 7.36c-0.86,0.16 -1.74,0.25 -2.59,0.25z"/>
   <line class="fil5" x1="5617.09" y1="2990.37" x2="5674.55" y2= "2905.56" />
   <path class="fil0" d="M5617.09 3012.25c-4,0 -8,-1.8 -11.23,-5.44 -7.08,-7.99 -7.79,-21.82 -1.58,-30.91l57.66 -84.55c6.2,-9.12 17.01,-9.96 24.05,-2.03 7.08,7.97 7.79,21.83 1.58,30.91l-57.66 84.53c-3.37,4.94 -8.09,7.47 -12.82,7.47l0 0.02z"/>
   <line class="fil5" x1="5906.95" y1="2813.67" x2="6000.59" y2= "2905.56" />
   <path class="fil0" d="M6000.59 2927.44c-3.62,0 -7.26,-1.49 -10.33,-4.5l-93.75 -92.22c-7.47,-7.36 -8.9,-21.09 -3.17,-30.71 5.72,-9.6 16.47,-11.41 23.88,-4.09l93.75 92.22c7.47,7.36 8.91,21.09 3.17,30.69 -3.34,5.65 -8.42,8.6 -13.55,8.6l0 0.01z"/>
   <line class="fil5" x1="5880.13" y1="2931.82" x2="5889.92" y2= "2968.47" />
   <path class="fil0" d="M5889.92 2990.37c-7.08,0 -13.68,-5.71 -16.11,-14.77l-9.73 -36.42c-3.06,-11.45 1.66,-23.91 10.57,-27.84 8.92,-3.94 18.6,2.18 21.66,13.59l9.73 36.42c3.06,11.45 -1.66,23.9 -10.57,27.84 -1.83,0.82 -3.72,1.2 -5.55,1.2l0 -0.02z"/>
   <line class="fil5" x1="5797.13" y1="2702.61" x2="5773.29" y2= "2592.1" />
   <path class="fil0" d="M5797.13 2724.49c-7.46,0 -14.31,-6.36 -16.41,-16.05l-23.79 -110.15c-2.52,-11.66 2.79,-23.73 11.85,-26.97 9.08,-3.22 18.46,3.59 20.99,15.25l23.81 110.15c2.51,11.67 -2.79,23.73 -11.87,26.98 -1.54,0.53 -3.07,0.79 -4.58,0.79z"/>
   <line class="fil5" x1="5898.43" y1="2606.87" x2="5915.46" y2= "2563.11" />
   <path class="fil0" d="M5898.43 2628.75c-2.56,0 -5.15,-0.75 -7.6,-2.32 -8.42,-5.4 -11.83,-18.57 -7.62,-29.39l17.03 -43.82c4.21,-10.82 14.47,-15.18 22.88,-9.8 8.42,5.41 11.82,18.58 7.62,29.4l-17.05 43.81c-2.99,7.69 -9.01,12.12 -15.26,12.12z"/>
   <line class="fil5" x1="5966.53" y1="2702.61" x2="6060.18" y2= "2672.53" />
   <path class="fil0" d="M5966.53 2724.49c-7.65,0 -14.6,-6.68 -16.53,-16.66 -2.26,-11.74 3.31,-23.62 12.45,-26.53l93.75 -29.81c9.12,-2.85 18.37,4.25 20.64,15.99 2.26,11.74 -3.31,23.62 -12.45,26.53l-93.74 29.81c-1.38,0.43 -2.75,0.65 -4.1,0.65l-0.02 0.02z"/>
   <line class="fil5" x1="6000.59" y1="2761.15" x2="6031.66" y2= "2764.42" />
   <path class="fil0" d="M6031.66 2786.32c-0.47,0 -0.98,-0.02 -1.48,-0.09l-31.24 -3.45c-9.37,-1.02 -16.33,-11.65 -15.51,-23.71 0.8,-12.02 8.95,-21.45 18.43,-19.94l31.25 3.45c9.37,1.02 16.33,11.65 15.52,23.71 -0.77,11.41 -8.21,20.03 -16.97,20.03z"/>
   <line class="fil5" x1="5199.54" y1="2190.67" x2="5216.56" y2= "2081.15" />
   <path class="fil0" d="M5199.54 2212.6c-1.12,0 -2.22,-0.12 -3.37,-0.43 -9.21,-2.37 -15.2,-13.91 -13.36,-25.77l17.04 -109.52c1.84,-11.86 10.76,-19.65 20.05,-17.18 9.22,2.37 15.21,13.91 13.36,25.78l-17.05 109.53c-1.62,10.41 -8.74,17.61 -16.69,17.61l0.02 -0.02z"/>
   <line class="fil5" x1="5127.19" y1="2181.21" x2="5085.9" y2= "2140.88" />
   <path class="fil0" d="M5127.19 2203.14c-3.6,0 -7.21,-1.45 -10.29,-4.46l-41.34 -40.35c-7.51,-7.32 -8.98,-21.05 -3.26,-30.68 5.68,-9.67 16.39,-11.5 23.86,-4.18l41.34 40.35c7.51,7.32 8.96,21.05 3.26,30.67 -3.35,5.69 -8.43,8.67 -13.57,8.67l0 -0.02z"/>
   <line class="fil5" x1="5127.19" y1="2639.7" x2="5024.17" y2= "2672.53" />
   <path class="fil0" d="M5024.17 2694.4c-7.63,0 -14.59,-6.65 -16.53,-16.62 -2.26,-11.73 3.31,-23.63 12.43,-26.54l103.04 -32.86c9.12,-2.84 18.38,4.23 20.66,15.97 2.26,11.74 -3.31,23.64 -12.43,26.55l-103.05 32.86c-1.38,0.43 -2.76,0.64 -4.13,0.64l0.01 0z"/>
   <line class="fil5" x1="5199.54" y1="2477.16" x2="5127.19" y2= "2446.25" />
   <path class="fil0" d="M5199.54 2499.11c-1.77,0 -3.6,-0.36 -5.38,-1.11l-72.3 -30.93c-8.94,-3.82 -13.76,-16.24 -10.81,-27.71 2.96,-11.49 12.63,-17.62 21.56,-13.89l72.29 30.94c8.94,3.82 13.77,16.24 10.81,27.71 -2.39,9.19 -9.04,14.99 -16.19,14.99l0.02 0z"/>
   <line class="fil5" x1="5265.52" y1="2325.75" x2="5279.14" y2= "2232.9" />
   <path class="fil0" d="M5265.52 2347.68c-1.03,0 -2.08,-0.11 -3.13,-0.36 -9.26,-2.21 -15.36,-13.64 -13.64,-25.54l13.42 -92.84c1.72,-11.9 10.61,-19.84 19.87,-17.54 9.26,2.21 15.36,13.64 13.64,25.54l-13.4 92.85c-1.52,10.55 -8.69,17.91 -16.75,17.91l-0.01 -0.02z"/>
   <line class="fil5" x1="5401.3" y1="2340.34" x2="5454.92" y2= "2232.9" />
   <path class="fil0" d="M5401.3 2362.29c-3.16,0 -6.39,-1.13 -9.22,-3.5 -7.93,-6.55 -10.19,-20.1 -5.08,-30.28l53.97 -107.45c5.11,-10.18 15.68,-13.11 23.54,-6.54 7.92,6.56 10.2,20.11 5.09,30.26l-53.98 107.46c-3.25,6.5 -8.72,10.03 -14.32,10.03l0 0.02z"/>
   <line class="fil5" x1="5443.86" y1="2446.25" x2="5540.48" y2= "2461.69" />
   <path class="fil0" d="M5540.48 2483.62c-0.7,0 -1.41,-0.03 -2.14,-0.18l-96.59 -15.47c-9.33,-1.51 -15.96,-12.44 -14.79,-24.45 1.16,-12 9.54,-20.44 19.02,-19.02l96.59 15.47c9.33,1.51 15.97,12.44 14.79,24.45 -1.06,11.09 -8.43,19.2 -16.89,19.2l0.01 0z"/>
   <line class="fil5" x1="5035.25" y1="2539.48" x2="4943.74" y2= "2508.3" />
   <path class="fil0" d="M5035.25 2561.41c-1.45,0 -2.93,-0.23 -4.39,-0.72l-91.37 -31.18c-9.09,-3.1 -14.5,-15.11 -12.1,-26.79 2.41,-11.69 11.78,-18.63 20.85,-15.56l91.36 31.17c9.1,3.11 14.51,15.12 12.11,26.8 -2.04,9.8 -8.92,16.28 -16.46,16.28z"/>
   <line class="fil5" x1="4989.28" y1="2391.49" x2="5024.17" y2= "2384.55" />
   <path class="fil0" d="M4989.28 2413.37c-8.26,0 -15.52,-7.72 -16.83,-18.54 -1.45,-11.97 4.93,-23.15 14.23,-25.02l34.63 -6.91c9.39,-1.79 18.03,6.34 19.45,18.29 1.46,11.95 -4.93,23.15 -14.23,25l-34.63 6.91c-0.88,0.16 -1.76,0.25 -2.62,0.25l0 0.02z"/>
   <line class="fil5" x1="5318.72" y1="2523.88" x2="5335.75" y2= "2461.69" />
   <line class="fil5" x1="5097.39" y1="2289.26" x2="5052.27" y2= "2232.9" />
   <path class="fil0" d="M5097.39 2311.19c-4.3,0 -8.59,-2.08 -11.91,-6.23l-44.98 -56.33c-6.75,-8.44 -6.87,-22.31 -0.29,-30.98 6.57,-8.67 17.37,-8.8 24.1,-0.38l44.99 56.34c6.75,8.44 6.87,22.31 0.29,30.98 -3.32,4.4 -7.77,6.6 -12.2,6.6z"/>
   <line class="fil5" x1="5208.06" y1="2592.1" x2="5236.57" y2= "2606.87" />
   <path class="fil0" d="M5236.57 2628.75c-2.11,0 -4.26,-0.48 -6.34,-1.56l-28.4 -14.61c-8.74,-4.51 -12.99,-17.27 -9.48,-28.5 3.5,-11.24 13.44,-16.66 22.16,-12.19l28.4 14.61c8.74,4.5 12.99,17.27 9.48,28.48 -2.68,8.57 -9.07,13.77 -15.82,13.77z"/>
   <line class="fil5" x1="5052.27" y1="3128.77" x2="4989.28" y2= "3023.18" />
   <path class="fil0" d="M5052.27 3150.65c-5.14,0 -10.22,-2.98 -13.57,-8.64l-62.73 -105.87c-5.7,-9.62 -4.25,-23.35 3.25,-30.69 7.49,-7.34 18.18,-5.48 23.9,4.18l62.72 105.86c5.7,9.62 4.25,23.37 -3.25,30.69 -3.09,3.03 -6.7,4.47 -10.31,4.47l-0.01 0z"/>
   <line class="fil5" x1="4960.76" y1="3110.17" x2="4930.96" y2= "3076.25" />
   <path class="fil0" d="M4960.76 3132.05c-4.02,0 -8.07,-1.81 -11.31,-5.53l-30.05 -34.28c-7.04,-8.02 -7.68,-21.86 -1.42,-30.92 6.24,-9.05 17.03,-9.87 24.06,-1.85l30.06 34.28c7.04,8.02 7.68,21.86 1.44,30.93 -3.37,4.88 -8.06,7.35 -12.75,7.35l-0.03 0.02z"/>
   <line class="fil5" x1="4989.28" y1="3214.65" x2="4912.67" y2= "3252.95" />
   <path class="fil0" d="M4912.67 3274.83c-6.83,0 -13.27,-5.31 -15.89,-14 -3.4,-11.27 0.96,-23.96 9.73,-28.34l76.93 -38.34c8.73,-4.34 18.63,1.22 22.05,12.51 3.39,11.27 -0.96,23.96 -9.73,28.34l-76.93 38.34c-2.01,1.01 -4.12,1.49 -6.16,1.49z"/>
   <line class="fil5" x1="4989.28" y1="3301.65" x2="4960.76" y2= "3348.15" />
   <path class="fil0" d="M4960.76 3370.03c-3.7,0 -7.44,-1.55 -10.57,-4.76 -7.37,-7.5 -8.62,-21.29 -2.76,-30.76l28.62 -46.38c5.84,-9.48 16.56,-11.09 23.94,-3.55 7.37,7.5 8.61,21.28 2.76,30.76l-28.62 46.38c-3.37,5.45 -8.34,8.29 -13.37,8.29l0 0.02z"/>
   <line class="fil5" x1="5052.27" y1="3263.9" x2="5035.25" y2= "3370.03" />
   <path class="fil0" d="M5035.25 3391.91c-1.15,0 -2.29,-0.15 -3.47,-0.45 -9.23,-2.46 -15.15,-14.06 -13.25,-25.88l17.04 -105.88c1.9,-11.86 10.89,-19.42 20.14,-17.03 9.21,2.46 15.15,14.05 13.25,25.88l-17.05 105.87c-1.66,10.36 -8.77,17.49 -16.68,17.49l0.02 0z"/>
   <line class="fil5" x1="5628.58" y1="2702.61" x2="5662.63" y2= "2574.04" />
   <path class="fil0" d="M5628.58 2724.49c-1.83,0 -3.67,-0.36 -5.5,-1.19 -8.91,-3.91 -13.67,-16.35 -10.61,-27.8l34.08 -128.4c3.03,-11.45 12.74,-17.61 21.65,-13.64 8.91,3.91 13.65,16.33 10.61,27.8l-34.09 128.4c-2.41,9.1 -9.03,14.83 -16.13,14.83l-0.01 0z"/>
   <line class="fil5" x1="5565.17" y1="2592.1" x2="5570.7" y2= "2539.48" />
   <path class="fil0" d="M5565.17 2613.98c-0.71,0 -1.43,-0.07 -2.17,-0.16 -9.34,-1.51 -15.94,-12.49 -14.76,-24.5l5.21 -52.81c1.2,-12 9.62,-20.28 19.06,-18.97 9.33,1.53 15.95,12.5 14.76,24.5l-5.2 52.81c-1.11,11.05 -8.44,19.15 -16.9,19.15l0 -0.02z"/>
   <line class="fil5" x1="5265.52" y1="2764.42" x2="5179.54" y2= "2687.3" />
   <path class="fil0" d="M5265.52 2786.32c-3.36,0 -6.74,-1.26 -9.72,-3.92l-85.99 -76.87c-7.72,-6.91 -9.64,-20.55 -4.26,-30.49 5.35,-9.94 15.96,-12.42 23.73,-5.48l85.99 76.86c7.72,6.91 9.63,20.57 4.26,30.51 -3.31,6.12 -8.62,9.39 -14.01,9.39z"/>
   <line class="fil5" x1="4461.93" y1="-495.65" x2="4474.12" y2= "2515.72" />
   <path class="fil0" d="M5403.85 2606.87c-1.77,0 -3.59,-0.36 -5.39,-1.13 -8.92,-3.8 -13.74,-16.21 -10.77,-27.69l17.06 -65.73c2.97,-11.47 12.56,-17.71 21.56,-13.84 8.92,3.81 13.74,16.21 10.76,27.71l-17.05 65.73c-2.37,9.17 -9.02,14.97 -16.15,14.97l-0.02 -0.02z"/>
   <line class="fil5" x1="5375.32" y1="2687.3" x2="5401.3" y2= "2726.14" />
   <path class="fil0" d="M5401.3 2748.02c-4.78,0 -9.53,-2.57 -12.89,-7.58l-25.85 -38.44c-6.16,-9.16 -5.36,-23 1.74,-30.91 7.11,-7.9 17.86,-6.91 24.05,2.24l25.85 38.45c6.16,9.15 5.36,22.99 -1.75,30.91 -3.22,3.57 -7.19,5.33 -11.15,5.33z"/>
   <line class="fil5" x1="5477.05" y1="2672.53" x2="5465.99" y2= "2786.32" />
   <path class="fil0" d="M5465.99 2808.2c-0.7,0 -1.41,-0.08 -2.15,-0.17 -9.34,-1.5 -15.94,-12.43 -14.79,-24.48l11.11 -113.68c1.16,-11.95 9.48,-20.32 19.04,-18.99 9.35,1.49 15.95,12.44 14.78,24.46l-11.1 113.69c-1.08,11.05 -8.42,19.17 -16.9,19.17l0.01 0z"/>
   <line class="fil5" x1="5778.84" y1="2891.89" x2="5829.9" y2= "2891.89" />
   <line class="fil5" x1="5071.85" y1="2990.37" x2="5139.95" y2= "3059.85" />
   <path class="fil0" d="M5139.95 3081.73c-3.7,0 -7.43,-1.55 -10.57,-4.72l-68.17 -69.36c-7.38,-7.5 -8.62,-21.28 -2.78,-30.78 5.82,-9.47 16.5,-11.11 23.95,-3.57l68.17 69.35c7.38,7.51 8.62,21.29 2.78,30.78 -3.36,5.46 -8.36,8.3 -13.38,8.3z"/>
   <line class="fil5" x1="5127.19" y1="2930.19" x2="5102.92" y2= "2924.72" />
   <path class="fil0" d="M5127.19 2952.07c-1.02,0 -2.04,-0.11 -3.07,-0.34l-24.29 -5.67c-9.26,-2.18 -15.4,-13.59 -13.72,-25.47 1.67,-11.92 10.51,-19.73 19.81,-17.65l24.29 5.68c9.25,2.17 15.41,13.58 13.74,25.46 -1.5,10.59 -8.68,18.01 -16.76,18.01l0 -0.02z"/>
   <line class="fil5" x1="5208.06" y1="2859.62" x2="5272.32" y2= "2924.72" />
   <path class="fil0" d="M5272.32 2946.59c-3.69,0 -7.39,-1.5 -10.51,-4.68l-64.3 -64.95c-7.38,-7.47 -8.68,-21.26 -2.86,-30.77 5.81,-9.49 16.51,-11.22 23.94,-3.68l64.29 64.96c7.39,7.46 8.68,21.25 2.86,30.76 -3.36,5.49 -8.35,8.36 -13.4,8.36l-0.02 0z"/>
   <line class="fil5" x1="5335.75" y1="2877.12" x2="5362.14" y2= "2931.82" />
   <path class="fil0" d="M5362.14 2953.72c-5.73,0 -11.3,-3.7 -14.54,-10.39l-26.33 -54.87c-4.93,-10.32 -2.45,-23.82 5.55,-30.17 8.03,-6.35 18.52,-3.12 23.48,7.14l26.34 54.87c4.92,10.32 2.44,23.82 -5.56,30.17 -2.81,2.21 -5.9,3.25 -8.94,3.25z"/>
   <line class="fil5" x1="5646.04" y1="3198.25" x2="5695.4" y2= "3128.77" />
   <path class="fil0" d="M5646.04 3220.12c-4.14,0 -8.26,-1.9 -11.52,-5.76 -6.95,-8.2 -7.41,-22.02 -1.05,-30.96l49.5 -69.37c6.36,-8.92 17.16,-9.51 24.08,-1.34 6.94,8.18 7.4,22.02 1.04,30.96l-49.5 69.37c-3.37,4.7 -7.96,7.1 -12.57,7.1l0.02 0z"/>
   <line class="fil5" x1="5736.27" y1="3233.8" x2="5770.32" y2= "3220.12" />
   <path class="fil0" d="M5736.27 3255.68c-7.26,0 -13.97,-5.99 -16.25,-15.38 -2.81,-11.54 2.21,-23.84 11.18,-27.43l34.09 -13.69c8.95,-3.68 18.53,2.8 21.34,14.38 2.81,11.52 -2.21,23.83 -11.19,27.42l-34.08 13.69c-1.68,0.69 -3.4,1.01 -5.09,1.01z"/>
   <line class="fil5" x1="5785.22" y1="3093.21" x2="5884.81" y2= "3076.25" />
   <path class="fil0" d="M5785.22 3115.09c-8.42,0 -15.73,-8 -16.88,-19.01 -1.25,-11.98 5.3,-23 14.63,-24.62l99.72 -17.14c9.44,-1.47 17.9,6.84 19.16,18.81 1.26,12.01 -5.31,23.01 -14.64,24.62l-99.72 17.14c-0.76,0.13 -1.52,0.2 -2.27,0.2z"/>
   <line class="fil5" x1="5849.48" y1="3198.25" x2="5872.9" y2= "3185.66" />
   <path class="fil0" d="M5849.48 3220.12c-6.59,0 -12.86,-4.93 -15.64,-13.21 -3.73,-11.11 0.25,-23.99 8.9,-28.78l23.04 -12.8c8.67,-4.79 18.7,0.34 22.4,11.43 3.73,11.09 -0.25,24 -8.88,28.79l-23.06 12.8c-2.2,1.22 -4.49,1.79 -6.76,1.79l0 -0.02z"/>
   <line class="fil5" x1="5163.36" y1="3370.03" x2="5097.39" y2= "3439.51" />
   <path class="fil0" d="M5097.39 3461.38c-4.94,0 -9.85,-2.72 -13.21,-8.04 -5.95,-9.37 -4.87,-23.19 2.42,-30.83l66.1 -69.37c7.33,-7.67 18.04,-6.27 23.99,3.1 5.97,9.37 4.88,23.19 -2.41,30.82l-66.11 69.37c-3.18,3.32 -7,4.95 -10.78,4.95z"/>
   <line class="fil5" x1="5199.54" y1="3263.9" x2="5265.52" y2= "3278.67" />
   <path class="fil0" d="M5265.52 3300.55c-0.95,0 -1.93,-0.11 -2.9,-0.32l-66.11 -14.59c-9.29,-2.03 -15.52,-13.38 -13.92,-25.28 1.57,-11.91 10.39,-19.9 19.67,-17.89l66.11 14.59c9.29,2.03 15.51,13.37 13.91,25.29 -1.41,10.68 -8.62,18.2 -16.77,18.2l0.01 0z"/>
   <line class="fil5" x1="5239.98" y1="3424.73" x2="5304.68" y2= "3370.03" />
   <path class="fil0" d="M5239.98 3446.61c-5.53,0 -10.95,-3.44 -14.23,-9.82 -5.19,-10.08 -3.04,-23.67 4.82,-30.35l64.42 -54.76c7.83,-6.69 18.4,-3.93 23.61,6.2 5.19,10.1 3.04,23.67 -4.8,30.35l-64.42 54.76c-2.91,2.46 -6.16,3.64 -9.39,3.64l-0.01 -0.02z"/>
   <line class="fil5" x1="5428.11" y1="3316.95" x2="5401.3" y2= "3404.49" />
   <path class="fil0" d="M5401.3 3426.37c-2.1,0 -4.21,-0.49 -6.27,-1.55 -8.76,-4.45 -13.03,-17.17 -9.57,-28.43l26.98 -87.62c3.48,-11.25 13.43,-16.73 22.12,-12.29 8.75,4.45 13.04,17.17 9.56,28.43l-26.97 87.62c-2.64,8.6 -9.08,13.84 -15.85,13.84z"/>
   <line class="fil5" x1="5491.95" y1="3397.38" x2="5506.85" y2= "3439.51" />
   <path class="fil0" d="M5506.85 3461.38c-6.46,0 -12.65,-4.72 -15.51,-12.76l-14.99 -42c-3.92,-10.98 -0.16,-23.99 8.4,-29.04 8.68,-5 18.71,-0.19 22.61,10.79l14.98 42c3.92,11 0.17,24 -8.39,29.06 -2.32,1.34 -4.74,1.99 -7.1,1.99l0 -0.04z"/>
   <line class="fil5" x1="5327.23" y1="3110.17" x2="5239.98" y2= "3076.25" />
   <path class="fil0" d="M5327.23 3132.05c-1.65,0 -3.32,-0.3 -5,-0.97l-87.15 -34.28c-8.98,-3.53 -14.06,-15.79 -11.3,-27.35 2.75,-11.58 12.23,-18.13 21.3,-14.52l87.15 34.28c8.98,3.54 14.06,15.79 11.3,27.37 -2.25,9.42 -8.98,15.49 -16.3,15.49l0 -0.02z"/>
   <line class="fil5" x1="5540.48" y1="3227.25" x2="5554.53" y2= "3185.66" />
   <path class="fil0" d="M5540.48 3249.13c-2.28,0 -4.61,-0.59 -6.84,-1.83 -8.63,-4.88 -12.53,-17.81 -8.76,-28.88l14.2 -41.55c3.8,-11.07 13.8,-16.06 22.47,-11.25 8.62,4.88 12.53,17.8 8.76,28.87l-14.2 41.55c-2.81,8.22 -9.08,13.09 -15.63,13.09z"/>
   <line class="fil5" x1="5645.6" y1="3360.73" x2="5699.24" y2= "3375.5" />
   <path class="fil0" d="M5699.24 3397.38c-1.16,0 -2.35,-0.14 -3.53,-0.47l-53.98 -14.61c-9.2,-2.51 -15.12,-14.12 -13.16,-25.95 1.94,-11.83 11.04,-19.44 20.19,-16.91l53.97 14.61c9.2,2.52 15.11,14.13 13.17,25.96 -1.7,10.32 -8.77,17.39 -16.66,17.39l0 -0.02z"/>
   <line class="fil5" x1="4977.78" y1="3789.62" x2="5983.55" y2= "3789.62" />
   <path class="fil0" d="M5983.55 3811.5l-1005.56 0c-9.42,0 -17.05,-9.8 -17.05,-21.92 0,-12.11 7.63,-21.89 17.05,-21.89l1005.56 0c9.43,0 17.04,9.8 17.04,21.89 0,12.12 -7.62,21.92 -17.04,21.92z"/>
   <path class="fil0" d="M1165.76 4600.36l-386.2 0c-62.68,0 -113.68,-65.53 -113.68,-146.1l0 -671.68c0,-80.56 51,-146.08 113.68,-146.08l386.2 0c62.69,0 113.69,65.53 113.69,146.08l0 19.17c129.91,12.28 232.94,152.49 232.94,322.21 0,169.72 -103.03,309.93 -232.94,322.2l0 8.08c0,80.57 -51,146.1 -113.69,146.1l0 0.02zm-386.2 -920.04c-43.89,0 -79.59,45.89 -79.59,102.28l0 671.68c0,56.39 35.7,102.28 79.59,102.28l386.2 -0.01c43.89,0 79.6,-45.9 79.6,-102.29l0 -29.13c0,-12.04 7.57,-21.83 16.94,-21.9 119.09,-0.93 215.98,-126.21 215.98,-279.25 0,-153.05 -96.89,-278.33 -215.98,-279.26 -9.37,-0.09 -16.94,-9.87 -16.94,-21.9l0 -40.22c0,-56.39 -35.71,-102.28 -79.6,-102.28l-386.2 0zm482.83 635.29c-4.49,0 -8.78,-2.26 -11.98,-6.34 -3.24,-4.11 -5.05,-9.71 -5.05,-15.58l0 -339.45c0,-5.85 1.81,-11.47 5.05,-15.58 3.26,-4.13 7.82,-6.73 12.17,-6.33 81.35,1.13 147.53,87.08 147.53,191.63 0,104.55 -66.18,190.5 -147.53,191.63 -0.07,0 -0.12,0 -0.19,0l0 0.02zm17.06 -337.53l0 291.83c54.61,-11.47 96.59,-72.79 96.59,-145.92 0,-73.12 -41.98,-134.45 -96.59,-145.91z"/>
   <g>
    <path class="fil2" d="M1262.42 3822.99l0 -40.23c0,-68.58 -43.27,-124.18 -96.63,-124.18l-124.93 0.02 0 920.04 124.93 0c53.36,0 96.63,-55.6 96.63,-124.18l0 -29.13c128.77,-1.03 232.94,-135.42 232.94,-301.17 0,-165.76 -104.17,-300.15 -232.94,-301.17zm0 470.88l0 -339.45c72.31,1.01 130.68,76.57 130.68,169.72 0,93.15 -58.37,168.73 -130.68,169.73z"/>
   </g>
   <line class="fil5" x1="785.2" y1="3745.86" x2="1160.15" y2= "3745.86" />
   <path class="fil0" d="M1160.15 3767.74l-374.96 0c-9.43,0 -17.04,-9.8 -17.04,-21.91 0,-12.12 7.63,-21.9 17.04,-21.9l374.96 0c9.42,0 17.05,9.8 17.05,21.9 0,12.11 -7.63,21.91 -17.05,21.91z"/>
   <path class="fil5" d="M2837.97 3566.67l601.41 -1019.05m-108.79 4.06l-544.02 927.34"/>
   <path class="fil5" d="M3330.59 2551.68l-544.02 927.34 -592 0m0 87.65l643.4 0 601.41 -1019.05"/>
   <path class="fil5" d="M3366.95 3053.46l-468.2 0m0 69.33l508.85 0"/>
   <path class="fil0 str0" d="M2986.62 3237.26l-396.33 0 -320.29 -562.99 323.46 -551.37 386.36 0.87c9.38,55.8 55.83,98.19 111.71,98.19 62.65,0 113.44,-53.27 113.44,-118.97 0,-65.71 -50.79,-118.97 -113.44,-118.97 -51.64,0 -95.23,36.2 -108.95,85.72 -0.08,0.3 -0.16,0.6 -0.24,0.89l-419.44 0.15 -357.58 605.9 350.38 616.18 430.27 4.44c12.25,51.84 56.9,90.26 110.11,90.26 62.65,0 113.44,-53.26 113.44,-118.97 0,-65.7 -50.79,-118.96 -113.44,-118.96 -52.31,0 -96.35,37.13 -109.46,87.63zm104.91 -1070.49c-35.43,0 -64.16,-28.56 -64.16,-63.78 0,-35.23 28.73,-63.78 64.16,-63.78 35.44,0 64.17,28.55 64.17,63.78 0,35.22 -28.73,63.78 -64.17,63.78zm4.55 1165.61c-35.43,0 -64.16,-28.56 -64.16,-63.79 0,-35.22 28.73,-63.78 64.16,-63.78 35.44,0 64.16,28.56 64.16,63.78 0,35.23 -28.72,63.79 -64.16,63.79z"/>
   <path class="fil0 str1" d="M3197.63 2711.96l396.33 0 320.28 563 -323.45 551.37 -386.36 -0.87c-9.38,-55.8 -55.83,-98.19 -111.71,-98.19 -62.65,0 -113.44,53.26 -113.44,118.97 0,65.7 50.79,118.97 113.44,118.97 51.65,0 95.23,-36.2 108.94,-85.73 0.09,-0.3 0.17,-0.59 0.25,-0.89l419.43 -0.14 357.59 -605.9 -350.38 -616.19 -430.27 -4.44c-12.25,-51.84 -56.9,-90.26 -110.11,-90.26 -62.65,0 -113.44,53.26 -113.44,118.97 0,65.71 50.79,118.97 113.44,118.97 52.3,0 96.35,-37.13 109.46,-87.64zm-104.91 1070.5c35.43,0 64.16,28.55 64.16,63.78 0,35.22 -28.73,63.78 -64.16,63.78 -35.44,0 -64.16,-28.56 -64.17,-63.78 0.01,-35.23 28.73,-63.78 64.17,-63.78zm-4.55 -1165.61c35.43,0 64.16,28.56 64.15,63.78 0.01,35.23 -28.72,63.78 -64.15,63.78 -35.44,0 -64.17,-28.55 -64.17,-63.78 0.01,-35.23 28.73,-63.78 64.17,-63.78z"/>
  </g>
 </g>
</svg>
