<?xml version="1.0" encoding="UTF-8"?>
<!DOCTYPE svg PUBLIC "-//W3C//DTD SVG 1.1//EN" "http://www.w3.org/Graphics/SVG/1.1/DTD/svg11.dtd">
<!-- Creator: CorelDRAW -->
<svg xmlns="http://www.w3.org/2000/svg" xml:space="preserve" width="43.3492mm" height="30.48mm" version="1.1" style="shape-rendering:geometricPrecision; text-rendering:geometricPrecision; image-rendering:optimizeQuality; fill-rule:evenodd; clip-rule:evenodd"
viewBox="0 0 4334.92 3048"
 xmlns:xlink="http://www.w3.org/1999/xlink"
 xmlns:xodm="http://www.corel.com/coreldraw/odm/2003">
 <defs>
  <style type="text/css">
   <![CDATA[
    .str1 {stroke:#FEFEFE;stroke-width:8.47;stroke-miterlimit:28.6537}
    .str0 {stroke:#FEFEFE;stroke-width:7.62;stroke-miterlimit:28.6537}
    .fil1 {fill:#FEFEFE}
    .fil0 {fill:#FEFEFE;fill-rule:nonzero}
   ]]>
  </style>
 </defs>
 <g id="Capa_x0020_1">
  <metadata id="CorelCorpID_0Corel-Layer"/>
  <path class="fil0" d="M3125.97 2238.13c13.4,0 24.56,9.24 27.96,21.94l67.05 0 1.9 2.01 66.14 66.02c-2.23,-34.62 -14.62,-71.99 -27.8,-109.92l-182.26 0 -33.87 33.88c3.72,5.05 6.01,11.39 6.01,18.23 0,16.63 -13.16,30.07 -29.26,30.07 -16.1,0 -29.26,-13.44 -29.26,-30.07 0,-15.58 11.65,-28.62 26.35,-30.16 0.98,-0.11 1.9,0 2.91,0 5.05,0 9.79,1.68 13.93,4.01l36.38 -36.48 1.71 -1.71 183.1 0c-1.03,-2.93 -2.05,-5.87 -3.06,-8.81l-239.18 0 0.01 -0.01 -67.35 67.34 0 132.29 -1 1.4 -14.33 25.16 0 99.93c4.64,-0.04 9.28,-0.08 13.92,-0.12l0 -105.42 2.01 -1.81 18.04 -18.24 0 -63.23 3 -1.71 29.67 -17.13 1.4 -0.9 192.92 0 1.8 1.9 26.56 26.76c3.9,-2 8.27,-3.31 12.93,-3.31 16.1,0 29.06,13.45 29.06,30.07 0,16.62 -12.96,29.96 -29.06,29.96 -16.11,0 -29.27,-13.34 -29.27,-29.96 0,-7.3 2.74,-13.94 6.92,-19.14l-24.05 -24.06 -184.41 0 -25.25 14.63 0 61.34 -1.71 1.7 -18.24 18.24 0 100.2c11.7,-0.1 23.4,-0.19 35.09,-0.28l-18.25 -18.24 -1.9 -2 0 -67.85 1.9 -1.7 39.29 -39.29c-6.84,-5.5 -11.33,-13.9 -11.33,-23.55 0,-16.62 13.06,-30.07 29.16,-30.07 16.11,0 29.07,13.45 29.07,30.07 0,16.62 -12.96,29.96 -29.07,29.96 -2.16,0 -4.18,-0.23 -6.21,-0.7l-40.58 40.39 0 57.63 24.65 24.45 36.98 0 0.62 0.62c2.09,-0.01 4.18,-0.01 6.26,-0.02l-16.4 -16.43c-1.72,0.32 -3.49,0.5 -5.31,0.5 -16.1,0 -29.16,-13.45 -29.16,-30.07 0,-15.58 11.35,-28.52 26.06,-30.06 0.97,-0.11 2.1,0 3.1,0 16.1,0 29.06,13.44 29.06,30.06 0,9.94 -4.53,18.78 -11.72,24.25l21.66 21.71c6.51,-0.01 13.02,-0.04 19.53,-0.04 3.46,-0.7 6.86,-1.45 10.23,-2.22l-26.07 -26.06 -1.6 -1.71 0 -2.2 -1.8 -75.46 0 -3.11 2.5 -2 32.77 -24.96c-2.34,-4.33 -3.81,-9.21 -3.81,-14.53 0,-16.62 12.97,-30.07 29.07,-30.07 16.1,0 29.36,13.45 29.36,30.07 0,16.62 -13.26,29.96 -29.36,29.96 -6.57,0 -12.57,-2.33 -17.44,-6.11l-30.87 23.75 1.81 69.75 29.25 29.26c23.12,-6.21 43.85,-14.25 62.56,-24.24l-9.83 -9.83 -6.72 0c-2.75,13.72 -14.67,23.86 -28.76,23.86 -16.1,0 -29.06,-13.45 -29.06,-30.07 0,-15.58 11.45,-28.52 26.16,-30.06 0.98,-0.11 1.9,0 2.9,0 14.09,0 26.01,10.24 28.76,23.95l11.93 0 1.6 1.7 14.15 14.15c5.72,-3.44 11.24,-7.09 16.57,-10.94 0.58,-15.04 11.79,-27.36 26.11,-28.87 0.98,-0.1 2.1,0 3.1,0 1.19,0 2.35,0.09 3.5,0.23 13.41,-14.09 25.4,-30.03 36.24,-47.95 9.81,-16.42 14.32,-34.2 15.18,-52.94l-73.35 -73.41 -61.14 -0.01c-1.98,14.63 -14.04,25.96 -28.76,25.96 -16.11,0 -29.07,-13.44 -29.07,-30.06 0,-16.62 12.96,-30.06 29.07,-30.06l0 0z"/>
  <path class="fil0" d="M3237.16 2119.36l-269.76 0 -1.9 -1.9 -28.47 -28.47c-5.3,5.8 -13.1,9.52 -21.44,9.52 -16.11,0 -29.07,-13.44 -29.07,-30.06 0,-15.58 11.56,-28.62 26.26,-30.17 0.98,-0.1 1.8,0 2.81,0 16.1,0 29.26,13.55 29.26,30.17 0,3.29 -0.56,6.36 -1.5,9.32l28.96 29.36 267.56 0c1.83,-6.18 4.31,-12.22 7.28,-18.13l-263.1 0 -1.9 -1.71 -16.04 -15.93 -1.7 -1.91 0 -33.87 -21.05 -12.23 -52.01 0 -20.55 20.35 0 69.95 -1.8 1.9 -80.08 79.87 0 312.98 16.12 16.11c7.6,-0.06 15.2,-0.12 22.8,-0.19l-27.39 -27.35 -1.71 -2 0 -242.82 1.71 -1.81 46.7 -46.7c-4.02,-5.16 -6.41,-11.49 -6.41,-18.64 0,-16.62 12.96,-30.06 29.06,-30.06 16.1,0 29.26,13.44 29.26,30.06 0,16.62 -13.16,30.07 -29.26,30.07 -4.81,0 -9.13,-1.38 -13.13,-3.51l-45.7 45.4 0 233.11 34.16 34.11c9.57,-0.09 19.14,-0.18 28.71,-0.28l-40.62 -40.65 -1.7 -1.7 0 -200.64 1.7 -1.9 145.62 -145.72 2 -1.6 255.53 0c-0.06,-4.17 0.21,-8.28 0.79,-12.32l0 -0.01z"/>
  <path class="fil0" d="M2884.39 2338.74l0 -64.94 1.9 -1.7 111.64 -111.54 1.6 -1.71 241.79 0.01c-0.5,-1.63 -0.98,-3.26 -1.46,-4.88 -1.05,-3.39 -1.86,-6.74 -2.44,-10.06l-251.95 0 0.02 0.01 -141.81 141.91 0 190.71 47.19 47.2c9.66,-0.1 19.31,-0.19 28.97,-0.28l0 -103.44 0.7 -1.31 14.63 -25.35 0 -133.49 1.81 -1.9 71.15 -71.36 2.01 -1.6 239.59 0c-1.56,-4.65 -3.1,-9.29 -4.6,-13.93l-240.58 0 -107.93 107.93 0 59.53c13.28,2.84 23.25,15.32 23.25,29.86 0,16.62 -13.06,30.07 -29.17,30.07 -16.1,0 -29.06,-13.45 -29.06,-30.07 0,-14.39 9.68,-26.65 22.75,-29.66l0 -0.01z"/>
  <path class="fil0" d="M1603.74 2926.85l1.96 -1.86 26.17 -26.27c-2.53,-4.74 -4.03,-10.28 -4.03,-16.03 0,-18.67 15.14,-33.82 33.81,-33.82 18.68,0 33.92,15.15 33.92,33.82 0,18.68 -15.24,33.82 -33.92,33.82 -8.27,0 -15.84,-2.92 -21.71,-7.86l-23.48 23.48 0 36.55 23.43 0 68.82 -68.82 0 -81.08 1.76 -1.76 29.99 -29.78c-1.89,-4.21 -3.1,-9.05 -3.1,-13.96 0,-18.68 15.24,-33.71 33.92,-33.71 18.67,0 33.82,15.04 33.82,33.71 0,18.67 -15.15,33.82 -33.82,33.82 -9.14,0 -17.5,-3.52 -23.58,-9.41l-26.37 26.27 0 81.28 -1.87 1.76 -61.5 61.68 35.58 0 58.29 -58.06c-8.79,-6.11 -14.47,-16.41 -14.47,-27.92 0,-18.68 15.24,-33.82 33.92,-33.82 18.67,0 33.81,15.14 33.81,33.82 0,18.67 -15.14,33.81 -33.81,33.81 -2.34,0 -4.53,-0.16 -6.73,-0.62l-0.31 0 -52.59 52.79 34.46 0c6.22,-6.87 15.19,-11.22 25.17,-11.22 9.97,0 18.91,4.35 25.1,11.22l34.05 0 0 -397.59 4.66 -4.55 65.67 -65.67 4.55 -4.55 173.53 0 4.76 4.55 21.51 21.2 551.73 0 68.77 -68.46c-0.72,-2.74 -1.24,-5.63 -1.24,-8.58 0,-18.68 15.25,-33.82 33.92,-33.82 18.67,0 33.71,15.14 33.71,33.82 0,18.67 -15.04,33.92 -33.71,33.92 -3.94,0 -7.86,-0.83 -11.38,-2.07l-72.18 72.49 -4.65 4.45 -578.4 0 -4.44 -4.45 -21.31 -21.41 -147.57 0 -56.16 56.16 0 384.55 14.27 0 0 -365.2 1.96 -1.76 51.3 -51.4 1.86 -1.76 138.06 0 2.07 1.76 47.77 47.88 1.76 1.87 0 26.78c14.66,2.93 25.75,15.95 25.75,31.44 0,17.62 -14.43,31.85 -32.06,31.85 -17.62,0 -31.85,-14.23 -31.85,-31.85 0,-15.49 10.93,-28.51 25.54,-31.44l0 -21.61 -44.16 -44.06 -127.72 0 -47.67 47.58 0 359.93 24.2 0 0 -357.37 4.55 -4.65 17.16 -16.86 4.55 -4.76 103.94 0c1.86,-0.01 3.72,0.3 5.48,0.93 0.1,0 0.21,0 0.31,0 17.43,0.22 31.54,14.37 31.54,31.86 0,17.62 -14.23,31.85 -31.85,31.85 -17.63,0 -31.85,-14.23 -31.85,-31.85 0,-0.4 0.1,-0.74 0.1,-1.14l-64.43 0 -7.86 7.96 0 344.02 24.41 0c5.21,-6.51 12.88,-10.97 21.61,-11.86 1.07,-0.11 2.1,0 3.21,0 10.04,0 19.03,4.63 24.92,11.86l19.75 0 0 -27.48 -31.23 -31.23c-4.32,2.17 -9.13,3.52 -14.27,3.52 -17.63,0 -31.75,-14.34 -31.75,-31.96 0,-17.62 14.12,-31.75 31.75,-31.75 17.62,0 31.95,14.13 31.95,31.75 0,7.91 -3.07,14.87 -7.86,20.48l32.06 32.16 1.97 1.76 0 32.75 21.37 0c5.87,-7.64 15.11,-12.59 25.48,-12.59 10.36,0 19.49,4.95 25.27,12.59l25.4 0 0 -38.85 -27.93 -28.03c-5.82,6.52 -14.05,10.96 -23.47,10.96 -17.63,0 -32.06,-14.43 -32.06,-32.06 0,-17.62 14.43,-31.85 32.06,-31.85 17.62,0 31.75,14.23 31.75,31.85 0,3.46 -0.75,6.91 -1.76,10.03l32.06 31.86 1.96 1.96 0 44.13 30.89 0c5.78,-5.96 13.84,-9.69 22.79,-9.69 8.94,0 17.03,3.73 22.83,9.69l17.27 0 -139.9 -139.99 -74.46 0 -2.07 -1.87 -27.82 -28.02c-5.2,3.71 -11.5,5.89 -18.4,5.89 -17.63,0 -32.06,-14.12 -32.06,-31.75 0,-17.62 14.43,-32.05 32.06,-32.05 17.62,0 31.85,14.43 31.85,32.05 0,6.19 -1.83,11.88 -4.86,16.76l26.58 26.26 74.46 0 1.65 1.97 147.16 146.75 1.76 2.07 0 1.93 15.1 0 0 -12.48 -154.3 -154.2 -25.02 0c-3.29,1.15 -6.67,2.07 -10.35,2.07 -17.62,0 -31.85,-14.23 -31.85,-31.85 0,-16.53 12.56,-30.22 28.65,-31.86 1.07,-0.11 2.1,0 3.2,0 17.63,0 31.86,14.23 31.86,31.86 0,6.35 -1.88,12.1 -5.07,17.06l13.65 0 2.07 1.86 158.02 158.12 1.86 1.87 0 17.55 13.86 0 0 -26.65 -163.71 -163.92 -1.97 -1.86 0 -25.85 -26.27 -26.27 -93.07 0 -1.76 -1.76 -23.99 -23.99c-3.66,1.47 -7.7,2.37 -11.89,2.37 -17.63,0 -31.86,-14.43 -31.86,-32.05 0,-17.63 14.23,-31.86 31.86,-31.86 17.62,0 31.85,14.23 31.85,31.86 0,8.81 -3.55,16.84 -9.31,22.64l20.27 19.96 93.18 0 1.86 2.07 29.99 29.78 1.86 2.07 0 25.75 163.71 163.92 1.97 1.86 0 31.93 12.61 0 0 -35.03 -125.54 -125.55 -1.14 -1.35 -0.42 -1.65 -1.24 -4.65c-14.79,-2.75 -25.75,-15.62 -25.75,-31.24 0,-17.62 14.13,-32.16 31.75,-32.16 17.63,0 32.06,14.54 32.06,32.16 0,15.27 -10.78,27.9 -25.13,31.03l126.27 126.06 1.76 2.07 0 40.31 12.2 0 0 -40.51 -97.93 -98.15 -1.97 -1.76 0 -111.27 -31.54 -31.44c-5.41,4.27 -12.03,6.93 -19.44,6.93 -17.63,0 -31.86,-14.33 -31.86,-31.96 0,-17.62 14.23,-31.85 31.86,-31.85 17.62,0 31.85,14.23 31.85,31.85 0,5.57 -1.74,10.52 -4.24,15.1l34.23 34.23 1.76 1.97 0 111.17 98.04 98.04 1.76 1.96 0 45.68 31.78 0.01c5.73,-5.49 13.5,-8.87 22.1,-8.87 8.59,0 16.37,3.38 22.09,8.87l26.3 0 0 -4.73 -25.95 -25.96 -31.13 0 -1.76 -1.86 -103.52 -103.32 -1.76 -1.76 0 -32.36c-13.42,-3.11 -23.27,-15.08 -23.27,-29.48 0,-16.78 13.52,-30.51 30.3,-30.51 16.79,0 30.31,13.73 30.31,30.51 0,14.82 -10.67,26.92 -24.72,29.58l0 27.2 99.79 99.38 31.03 0 1.86 1.76 29.58 29.68 1.97 1.86 0 10.01 13.65 0 0 -15.8 -126.07 -126.06 -1.76 -1.87 0 -98.34 -40.13 -40.13c-5.46,3.26 -11.71,5.17 -18.51,5.17 -20.14,0 -36.4,-16.57 -36.4,-36.71 0,-20.15 16.26,-36.3 36.4,-36.3 20.14,0 36.61,16.15 36.61,36.3 0,8.75 -3.21,16.96 -8.38,23.27l0 0.31 41.16 40.85 1.87 1.96 0 98.45 126.06 125.76 1.76 1.96 0 21.18 15.83 0 0 -51.48c-14.92,-4.58 -25.75,-18.42 -25.75,-34.85 0,-20.14 16.36,-36.4 36.5,-36.4 20.14,0 36.5,16.26 36.5,36.4 0,19.48 -15.31,35.27 -34.54,36.3l0 50.03 31.98 0c3.23,-0.89 6.47,-1.76 9.7,-2.66l0 -107.87 -29.89 -29.88 -58.94 0 -1.87 -1.97 -69.18 -69.18 -2.07 -1.97 0 -61.94c-17,-3.07 -29.78,-17.88 -29.78,-35.78 0,-20.15 16.16,-36.51 36.3,-36.51 20.14,0 36.5,16.36 36.5,36.51 0,18.04 -13.17,32.87 -30.4,35.78l0 56.77 65.98 65.67 58.53 0 1.87 1.76 33.81 33.92 1.87 1.66 0 109.41c9.92,-2.84 19.77,-5.77 29.58,-8.77 2.03,-13.44 4.11,-26.61 6.23,-39.5l-14.61 -14.6 -1.76 -1.76 0 -43.23 -58.43 -58.53c-5.66,3.66 -12.4,5.79 -19.65,5.79 -20.14,0 -36.61,-16.47 -36.61,-36.61 0,-20.14 16.47,-36.4 36.61,-36.4 20.15,0 36.3,16.26 36.3,36.4 0,8.32 -2.66,16.07 -7.34,22.23l59.98 60.09 1.97 1.76 0 43.12 6.14 6.16c2.48,-14.56 5.01,-28.74 7.61,-42.5l0 -50.94c-16.57,-2.18 -29.37,-16.14 -29.37,-33.3 0,-18.67 15.04,-33.92 33.71,-33.92 7.78,0 14.93,2.68 20.65,7.12 1.66,-6.09 3.34,-12.02 5.05,-17.8l-8.94 -8.86 -76.74 0 -1.86 -1.76 -25.54 -25.75c-5.8,3.86 -12.71,6.1 -20.17,6.1 -20.14,0 -36.3,-16.26 -36.3,-36.4 0,-20.15 16.16,-36.51 36.3,-36.51 20.15,0 36.61,16.36 36.61,36.51 0,8.15 -2.8,15.62 -7.34,21.71l23.68 23.48 76.63 0 1.86 1.76 6.02 6.01c15.8,-49.84 33.6,-86.53 53.96,-106.43l-31.43 0 -27.51 27.4c4.99,5.9 8.07,13.4 8.07,21.72 0,18.67 -15.25,33.92 -33.92,33.92 -18.67,0 -33.61,-15.25 -33.61,-33.92 0,-18.67 14.94,-33.71 33.61,-33.71 5.68,0 11.22,1.45 15.92,3.93l30.31 -30.1 1.96 -1.96 80.87 0 1.86 1.96 7.41 7.41c8.7,-0.04 17.4,-0.1 26.1,-0.14l-2.69 -2.72 -1.86 -1.65 -0.21 -2.59 -5.06 -342.51 -0.21 -2.79 1.96 -2.07 84.8 -84.59 0 -76.63 1.97 -1.76 40.13 -40.44 1.75 -1.76 109.94 0 1.86 1.76 32.47 32.37c3.81,-1.8 7.95,-2.69 12.41,-2.69 16.62,0 30.2,13.87 30.2,31.03 0,17.15 -13.58,31.02 -30.2,31.02 -16.61,0 -30.09,-13.87 -30.09,-31.02 0,-7.84 2.91,-14.81 7.55,-20.27l-29.48 -29.48 -99.38 0 -36.5 36.51 0 76.53 -1.86 1.76 -84.7 84.91 5.06 337.34 9.55 9.63c5.51,-0.03 11.02,-0.06 16.53,-0.1l-9.83 -9.84 -1.97 -1.65 0 -333.62 1.97 -1.76 82.52 -82.73 0 -71.88 1.86 -1.86 24.62 -24.72 1.96 -1.96 62.26 -0.01 1.65 0.94 26.27 14.99 3.21 1.76 0 37.23 12.62 12.93 273.68 0c15.03,-23.98 36.63,-45.83 54.19,-66.11 13.59,-16.46 5.27,-33.48 -7.92,-49.51l-142.4 0 -1.75 -1.86 -34.44 -34.44 -94.83 0 -1.86 -2.07 -73.84 -73.83 -2.07 -1.76 0 -44.06 -50.26 -50.37 -1.97 -1.86 0 -227.4c-11.62,-4.29 -19.95,-15.78 -19.95,-29.27 0,-17.15 13.37,-31.03 29.99,-31.03 16.61,0 30.09,13.88 30.09,31.03 0,16.28 -11.96,29.5 -27.4,30.82l0 220.69 50.36 50.27 1.76 1.96 0 43.95 70.42 70.32 94.73 0 2.07 1.76 34.13 34.34 125.73 0c-5.81,-6.12 -11.64,-12.02 -16.45,-17.58l-98.42 0 -2.69 -2.69 -37.54 -37.23 -71.77 0 -2.69 -2.69 -32.89 -32.89c-4.7,3.14 -10.12,5.07 -16.13,5.07 -16.62,0 -30.1,-13.87 -30.1,-31.03 0,-17.15 13.48,-31.02 30.1,-31.02 16.61,0 29.99,13.87 29.99,31.02 0,3.85 -0.73,7.57 -1.97,10.97l31.54 31.64 71.88 0 2.79 2.69 37.23 37.34 79.68 0c-0.6,-4.33 0.83,-8.26 5.23,-11.73 7.57,-6.1 15.33,-11.62 22.74,-17.13l-89.65 0 -2.8 -2.69 -42.92 -43.02c-4.59,11.06 -15.31,18.93 -27.71,18.93 -16.62,0 -30.2,-13.88 -30.2,-31.03 0,-17.15 13.58,-31.33 30.2,-31.33 12,0 22.38,7.44 27.19,17.99l1.04 -0.93 53.05 53.16 104.23 0c7.2,-7.48 12.99,-15.9 16.43,-26.27l-67.29 0c-4.71,10.79 -14.99,18.41 -27.2,18.41 -16.62,0 -30.2,-13.88 -30.2,-31.03 0,-17.15 13.58,-31.33 30.2,-31.33 14.53,0 26.67,10.84 29.47,25.02l67.99 0c-0.49,-11.18 -5.03,-21.04 -11.21,-30.51l-28.34 0 0 -2.79 -9.3 -5.27 -295.06 0 -2.79 -2.59 -32.16 -31.33 -3 -2.9 0 -406.55 -33.61 -33.72c-1.5,0.26 -2.98,0.42 -4.55,0.42 -15.31,0 -27.72,-12.5 -27.72,-27.82 0,-15.32 12.4,-27.72 27.72,-27.72 15.32,0 27.61,12.4 27.61,27.72 0,6.59 -2.47,12.58 -6.3,17.37l33.09 32.99 2.69 2.79 0 406.56 26.58 25.75 292.66 0 2.07 1.45 12 6.62 4.34 0c-5.53,-7.13 -11.03,-14.41 -15.45,-22.24l-21.98 0 -2.69 -3.1 -9.41 -9.1c-5.4,8.26 -14.44,13.75 -24.82,13.75 -16.62,0 -30.1,-13.87 -30.1,-31.02 0,-17.16 13.48,-31.24 30.1,-31.24 15.06,0 27.37,11.47 29.57,26.38l15.21 15.3 6.39 0c-0.97,-4.02 -1.55,-8.22 -1.63,-12.64 -2.17,-11.18 -7.35,-23.95 -11.65,-36.69l-13.79 -13.75 -43.02 0 -66.71 67.01 -2.06 -2.07c-5.08,9.72 -14.82,16.45 -26.27,16.45 -16.62,0 -30.1,-13.88 -30.1,-31.03 0,-17.15 13.48,-30.92 30.1,-30.92 13.11,0 24.22,8.61 28.33,20.68l56.37 -56.36 2.68 -2.69 57.79 0c0.16,-5.95 1.5,-11.5 4.54,-16.44l-74.12 0 -38.16 38.37 -2.06 1.76 -84.08 0 -31.13 31.13c1.63,3.82 2.48,7.86 2.48,12.3 0,17.16 -13.37,31.13 -29.99,31.13 -16.61,0 -30.09,-13.97 -30.09,-31.13 0,-17.15 13.48,-31.02 30.09,-31.02 7.77,0 14.84,3.08 20.17,8.06l31.13 -31.23 1.76 -1.96 84.59 0 38.37 -38.37 1.76 -1.76 91.54 0c11.68,-8.74 25.58,-12.3 40.42,-14.67 1.73,-15.45 14.35,-27.42 29.78,-27.42 5.92,0 11.38,1.92 16.03,4.96l115.75 -115.82c-1.52,-5.71 -3.49,-11.68 -5.88,-17.89l-76.26 76.32 -2.79 2.79 -46.02 0 -62.88 62.77 -2.79 2.9 -129.06 0c0.41,2.08 0.41,4.3 0.41,6.52 0,17.15 -13.37,31.02 -29.99,31.02 -16.62,0 -30.2,-13.87 -30.2,-31.02 0,-16.08 11.93,-29.54 27.1,-31.13 1.01,-0.11 2.07,0 3.1,0 6.33,0 12.23,2.14 17.07,5.58l133.61 0 62.98 -62.88 2.79 -2.89 46.02 0 78.82 -78.63c-2.78,-5.81 -5.84,-11.79 -9.19,-17.94l-70.87 70.82 -1.86 1.76 -53.78 0 -72.29 72.18 -1.76 1.96 -69.49 0 -1.87 -1.96 -25.33 -25.34 -118.62 0 -1.86 -1.76 -15.62 -15.41c-5.43,5.62 -12.99,9.1 -21.3,9.1 -16.62,0 -30.1,-13.97 -30.1,-31.12 0,-17.16 13.48,-31.03 30.1,-31.03 16.62,0 29.99,13.87 29.99,31.03 0,3.77 -0.78,7.41 -1.97,10.75l15.83 15.72 118.82 0 1.76 2.07 25.54 25.34 58.74 0 72.18 -72.19 1.97 -1.96 53.98 0 71.38 -71.38c-3.14,-5.43 -6.46,-10.95 -9.97,-16.58l-74.95 75.13 -2.07 1.66 -95.25 0 -16.13 16.03c7.64,5.81 12.62,14.98 12.62,25.34 0,17.61 -14.14,31.95 -31.75,31.95 -17.61,0 -31.85,-14.34 -31.85,-31.95 0,-17.62 14.24,-31.86 31.85,-31.86 2.48,0 4.92,0.3 7.24,0.83l20.89 -20.89 1.86 -2.07 95.45 0 75.13 -75.12c-3.61,-5.57 -7.36,-11.23 -11.26,-16.97l-73.69 73.69 -2.9 2.79 -117.68 0 -61.02 61.12 -2.89 3 -70.22 0 -2.69 -3 -79.11 -78.91c-12.33,-2.8 -21.51,-13.7 -21.51,-26.89 0,-15.31 12.4,-27.71 27.71,-27.71 15.32,0 27.82,12.4 27.82,27.71 0,9.28 -4.55,17.42 -11.58,22.44l67.43 67.33 54.29 0 61.12 -61.33 2.79 -2.79 117.59 0 73.45 -73.46c-4.25,-6.04 -8.64,-12.15 -13.15,-18.34l-65.79 65.84 -1.86 1.97 -120.99 0 -58.64 58.43 -1.86 1.76 -56.37 0 -1.65 -1.76 -29.78 -29.37 -1.76 -2.07 0 -109.51 -15.93 -16.03c-4.49,9.35 -14.06,15.82 -25.13,15.82 -15.31,0 -27.71,-12.3 -27.71,-27.61 0,-15.32 12.4,-27.82 27.71,-27.82 14.09,0 25.61,10.6 27.41,24.2l24.4 24.3 1.86 2.07 0 109.41 25.76 25.75 46.12 0 58.23 -58.53 2.06 -1.86 121 0 65.34 -65.29c-3.13,-4.23 -6.33,-8.5 -9.56,-12.78l-54.23 54.28 -3.52 3.52 -146.85 0 -19.03 18.92c1.66,3.56 2.8,7.5 2.8,11.69 0,15.32 -12.51,27.71 -27.82,27.71 -15.32,0 -27.51,-12.39 -27.51,-27.71 0,-15.32 12.19,-27.61 27.51,-27.61 1.57,0 3.15,0.27 4.65,0.51l25.23 -25.02 3.62 -3.73 146.96 0 52.75 -52.8c-3.36,-4.36 -6.77,-8.75 -10.21,-13.15l-45.75 45.79 -3.82 3.72 -170.85 0c-3.93,-0.01 -7.64,-1.84 -10.03,-4.96 -11.63,-3.33 -20.06,-14.1 -20.06,-26.79 0,-15.32 12.19,-27.61 27.5,-27.61 15.32,0 27.82,12.29 27.82,27.61 0,2.2 -0.24,4.36 -0.72,6.41l135.99 0 44.15 -44.22c-3.85,-4.85 -7.73,-9.73 -11.64,-14.62l-41.39 41.37 -1.76 1.86 -100.52 0 -1.76 -1.86 -72.81 -72.71 -147.78 0 -21.51 21.72 -1.96 1.86 -72.19 0 -1.75 -1.86 -21.21 -21.1 -1.96 -2.06 0 -81.91 1.96 -1.86 40.23 -40.23c-5.24,-5.03 -8.58,-12.1 -8.58,-19.96 0,-15.31 12.5,-27.61 27.82,-27.61 15.31,0 27.51,12.3 27.51,27.61 0,15.32 -12.19,27.72 -27.51,27.72 -2.69,0 -5.4,-0.53 -7.86,-1.24l-40.85 40.95 0 71.26 17.27 17.58 62.05 0 21.72 -21.72 1.96 -1.76 157.82 0 1.65 1.76 72.91 72.8 90.07 0 40.49 -40.52c-3.44,-4.3 -6.91,-8.6 -10.38,-12.92l-37.76 37.83 -1.96 1.76 -72.29 0 -1.76 -1.76 -76.53 -76.53 -192.96 0c-3.65,11.02 -13.8,18.92 -26.07,18.92 -15.31,0 -27.71,-12.4 -27.71,-27.71 0,-15.32 12.4,-27.72 27.71,-27.72 13.96,0 25.26,10.39 27.2,23.79l197.23 0 1.86 1.76 76.32 76.53 61.95 0 36.8 -36.74c-2.32,-2.87 -4.65,-5.74 -6.97,-8.62l-34.38 34.29 -1.76 1.97 -48.82 0 -1.65 -1.97 -33.72 -33.61 -1.96 -1.76 0 -53.56 -21.93 -21.93 -80.97 0 -1.66 -1.86 -37.43 -37.33c-4.65,3.52 -10.25,5.79 -16.55,5.79 -15.32,0 -27.71,-12.4 -27.71,-27.72 0,-15.31 12.39,-27.82 27.71,-27.82 15.32,0 27.61,12.51 27.61,27.82 0,4.35 -1.22,8.34 -3,12l36.41 36.4 80.76 0 1.97 1.76 25.65 25.85 1.86 1.86 0 53.47 29.99 29.99 38.16 0 33.46 -33.46c-7.82,-9.65 -15.67,-19.3 -23.49,-28.94l-0.66 0.66c0.98,2.84 1.55,5.91 1.55,9.1 0,15.31 -12.29,27.71 -27.61,27.71 -15.32,0 -27.92,-12.4 -27.92,-27.71 0,-15.32 12.6,-27.72 27.92,-27.72 6.39,0 12.23,2.2 16.9,5.84 -6.53,-8.07 -13.03,-16.12 -19.48,-24.14l-22.24 0 -1.97 -1.76 -54.6 -54.61 -5.69 0c-2.58,12.63 -13.59,22.14 -26.99,22.14 -15.32,0 -27.72,-12.4 -27.72,-27.72 0,-15.32 12.4,-27.61 27.72,-27.61 12.84,0 23.43,8.64 26.58,20.47l11.47 0 1.97 2.07 54.29 54.3 6.98 0c-29.5,-36.91 -57.54,-72.97 -81.53,-106.73l-227.64 0 -4.76 -4.76 -108.69 -108.58 -38.06 0 -99.59 99.79 0 122.65 41.99 0 0 121.72 -41.99 0.01 0 143.23 1.14 0c5.07,-5.78 12.47,-9.41 20.79,-9.41 15.31,0 27.61,12.29 27.61,27.61 0,15.32 -12.3,27.71 -27.61,27.71 -10.42,0 -19.48,-5.79 -24.2,-14.27l-29.48 0 0 -174.87 -85.01 0 0 203.42 49.54 49.54 205.59 0 30.82 30.71 0 226.68 -30.3 0 0 42.2 54.81 37.64c5.37,-5.21 12.61,-8.58 20.58,-8.58 16.61,0 30.09,13.87 30.09,31.02 0,17.15 -13.48,31.13 -30.09,31.13 -16.62,0 -29.99,-13.97 -29.99,-31.13 0,-4.28 0.86,-8.28 2.38,-11.99l-57.5 -39.51 -2.8 -2.07 0 -48.71 -31.85 0 0 -107.45 -48.3 -12.82 -47.26 47.26 0 274.05 -66.18 66.29 0 58.84 -41.16 0 0 -76.73 41.16 -41.27 -38.16 0 0 -112 -29.79 -8.07 -60.6 61.02 0 138.17 -27.4 27.3 -869.43 0 0 -215.21 -47.26 -47.26 -316.56 0 0 -231.55 11.89 0 0 -41.68c-2.6,-5.08 -4.03,-10.76 -4.03,-16.86 0,-20.53 16.59,-37.23 37.12,-37.23 20.54,0 37.23,16.7 37.23,37.23 0,1.43 -0.05,2.76 -0.2,4.14l2.89 0 0 54.4 19.03 0 3.42 157.19 84.07 -83.87 0 -392.35 68.36 -68.26 0 -40.43 -125.14 -0.01 0 -40.12 -82.83 0 0 -0.31c-2.24,0.58 -4.41,0.72 -6.83,0.72 -15.31,0 -27.82,-12.4 -27.82,-27.71 0,-15.32 12.5,-27.62 27.82,-27.62 4.3,0 8.27,0.95 11.9,2.69l60.91 0 26.37 -26.27 489.05 0 4.86 -18.61 -35.47 -20.58c-1.13,0.14 -2.04,0.41 -3.21,0.41 -15.31,0 -28.02,-12.5 -28.02,-27.82 0,-15.31 12.71,-27.71 28.02,-27.71 1.3,0 2.47,0.24 3.73,0.41l49.01 0 44.78 44.78 0 47.26 23.58 0 0 126.37 -122.13 0 8.89 15.52 140.75 0 0 -159.88 38.78 38.99 308.91 0 52.54 -30.41 -151.2 0 0 -28.23 -75.6 0 0 -53.26 58.01 0 31.86 -31.85 1.86 0 0 -61.95 5.69 -5.58 62.15 -62.37 0 -49.12 -69.29 -69.39 -5.48 -5.48 0 -627.46c-14.45,-1.41 -29.07,-2.61 -43.85,-3.6l0 265.37 26.27 45.82 1.76 2.89 0 253.27 -3.73 3.72 -35.88 35.68c1.71,3.61 2.89,7.55 2.89,11.79 0,15.32 -12.6,27.82 -27.92,27.82 -15.32,0 -27.72,-12.5 -27.72,-27.82 0,-15.32 12.4,-27.82 27.72,-27.82 1.71,0 3.33,0.32 4.96,0.62l34.44 -34.64 0 -235.79 -26.27 -45.71 -1.86 -2.9 0 -273.79c-9.41,-0.47 -18.9,-0.84 -28.44,-1.13l0 324.58 17.37 29.99 0.83 1.66 0 19.96c14.85,0.54 26.89,12.54 26.89,27.51 0,15.31 -12.61,27.71 -27.92,27.71 -15.32,0 -27.72,-12.4 -27.72,-27.71 0,-11.17 6.64,-20.75 16.13,-25.13l0 -19.34 -17.47 -29.99 -0.73 -1.45 0 -328.11c-7.37,-0.16 -14.78,-0.29 -22.23,-0.35l0 425.28 60.08 60.19c0.98,0.95 1.63,2.18 1.86,3.52 11.68,3.29 20.48,13.89 20.48,26.58 0,15.32 -12.71,27.61 -28.02,27.61 -15.32,0 -27.62,-12.29 -27.62,-27.61 0,-12.35 7.99,-22.79 19.13,-26.37l-56.77 -56.67 -1.76 -1.97 0 -430.61c-8.64,0 -17.32,0.06 -26.06,0.19l0 331.26 -1.86 1.76 -17.17 17.37 6.52 24.51c10.03,4.16 16.96,14 16.96,25.55 0,15.31 -12.3,27.51 -27.61,27.51 -15.32,0 -27.72,-12.2 -27.72,-27.51 0,-14.29 10.73,-25.9 24.61,-27.41l-6 -22.96 -1.03 -3.51 2.59 -2.49 18.09 -18.09 0 -325.75c-8.02,0.19 -16.09,0.45 -24.2,0.76l0 335.33 -3.1 1.97 -35.57 20.47 0 56.06 29.78 29.78 58.12 0 1.76 2.07 26.89 26.78 1.96 1.76 0 92.56 -1.96 1.96 -38.27 38.37c1.08,2.96 1.66,6.28 1.66,9.62 0,15.31 -12.3,27.71 -27.62,27.71 -15.31,0 -27.71,-12.4 -27.71,-27.71 0,-15.32 12.4,-27.72 27.71,-27.72 7.31,0 13.68,2.95 18.62,7.55l34.95 -34.85 0 -82.22 -23.37 -23.26 -57.92 0 -1.75 -1.66 -33.82 -33.92 -1.76 -1.76 0 -68.36 3.1 -2.07 35.58 -20.47 0 -327.46c-12.28,0.56 -24.66,1.27 -37.13,2.11l0 301.29 -1.76 1.96 -22.44 22.24 0 97.52 68.05 68.25c5.05,-6.65 13.01,-11.16 22.03,-11.16 15.31,0 27.61,12.29 27.61,27.61 0,15.31 -12.3,27.71 -27.61,27.71 -15.32,0 -27.72,-12.4 -27.72,-27.71 0,-1.44 0.1,-2.76 0.32,-4.14l-73.54 -73.53 -1.75 -1.76 0 -108.07 1.75 -1.65 22.45 -22.44 0 -295.24c-5.26,0.39 -10.54,0.82 -15.83,1.26l0 258.92 -1.86 1.76 -17.58 17.48 0 151.09 56.26 56.25 1.76 1.87 0 186.45 39.5 22.76c4.08,-2.37 8.8,-3.63 13.86,-3.63 15.32,0 27.61,12.3 27.61,27.62 0,15.31 -12.29,27.71 -27.61,27.71 -15.32,0 -27.71,-12.4 -27.71,-27.71 0,-5.49 1.7,-10.6 4.44,-14.9l-39.61 -22.75 -3.2 -1.76 0 -188.84 -56.06 -55.84 -1.86 -1.97 0 -161.63 1.86 -1.87 17.48 -17.37 0 -252.52c-8.36,0.76 -16.75,1.55 -25.2,2.44 -3.8,0.39 -7.57,0.83 -11.36,1.25 0.33,45.15 0.73,100.74 0.98,156.79 0.31,64.99 0.43,130.45 0.21,180.88 -0.11,25.21 -0.2,46.74 -0.52,62.46 -0.16,7.87 -0.49,14.22 -0.72,19.03 -0.23,4.82 -0.12,7.33 -0.93,10.34 -0.25,0.92 0.57,4.81 4.65,9.83 4.09,5.02 10.45,10.67 16.96,15.82 13.03,10.31 26.89,18.51 26.89,18.51 1.15,0.77 2.03,1.9 2.48,3.21 7.63,4.94 12.62,13.44 12.62,23.16 0,15.32 -12.5,27.72 -27.82,27.72 -15.32,0 -27.72,-12.4 -27.72,-27.72 0,-11.91 7.56,-21.94 18.1,-25.85 -3.89,-2.73 -8.18,-5.75 -12.41,-9.1 -6.92,-5.48 -13.72,-11.62 -18.82,-17.89 -5.1,-6.27 -9.36,-13.18 -7.24,-21.1 -0.22,0.8 0.3,-2.93 0.52,-7.55 0.22,-4.61 0.56,-10.92 0.72,-18.72 0.32,-15.59 0.41,-36.97 0.52,-62.15 0.22,-50.35 0.09,-115.8 -0.21,-180.77 -0.26,-56.57 -0.64,-110.98 -0.97,-155.45 -10.19,1.2 -20.31,2.5 -30.36,3.87l0 206.08 21.51 37.64 0.93 1.45 0 268.46 61.02 60.71c11.53,3.39 19.85,14.06 19.85,26.68 0,15.32 -12.29,27.82 -27.61,27.82 -15.31,0 -27.92,-12.5 -27.92,-27.82 0,-11.91 7.61,-22.09 18.2,-26.06l-54.29 -54.39 -1.86 -1.87 0 -269.92 -21.72 -37.64 -0.72 -1.35 0 -208.04c-13.08,1.89 -26.05,3.91 -38.89,6.08l0 233.6c3.9,-2.08 8.4,-3.51 13.13,-3.51 15.32,0 27.62,12.5 27.62,27.82 0,15.31 -12.3,27.71 -27.62,27.71 -15.31,0 -27.71,-12.4 -27.71,-27.71 0,-3.77 0.82,-7.39 2.17,-10.65 -0.16,-0.61 -0.23,-1.24 -0.21,-1.87l0 -243.24c-38.15,6.74 -75.24,14.71 -111.24,23.86l17.13 17.1 3.73 3.72 0 160.82 152.74 152.64 3.62 3.72 0 156.37 20.79 35.88 1.86 3 0 79.63 38.37 38.58c3.87,-2.02 8.18,-3.42 12.82,-3.42 15.32,0 27.72,12.4 27.72,27.72 0,15.32 -12.4,27.92 -27.72,27.92 -15.31,0 -27.92,-12.6 -27.92,-27.92 0,-1.16 0.27,-2.18 0.41,-3.31l-45.4 -45.3 -3.62 -3.72 0 -83.35 -20.89 -36.09 -1.75 -3.1 0 -152.34 -152.55 -152.64 -3.82 -3.72 0 -160.92 -23.76 -23.76c-12.21,3.37 -24.29,6.87 -36.23,10.51l33.21 33.21 3.72 3.72 0 153.17 152.23 152.33 3.72 3.72 0 155.23 24.3 24.3c0.8,0.74 1.49,1.57 2.07,2.48 7.7,4.97 12.82,13.65 12.82,23.48 0,15.32 -12.29,27.61 -27.61,27.61 -15.31,0 -27.82,-12.29 -27.82,-27.61 0,-8.37 3.88,-15.87 9.72,-20.99l-15.2 -15.21 -3.62 -3.62 0 -155.12 -152.22 -152.33 -3.73 -3.72 0 -153.27 -38.74 -38.8c-16.39,5.37 -32.52,11 -48.39,16.89l74.93 74.86 1.76 1.87 0 105.48 69.18 69.29 1.86 1.86 0 29.58c2.68,-0.86 5.51,-1.35 8.48,-1.35 15.32,0 27.62,12.19 27.62,27.51 0,15.32 -12.3,27.82 -27.62,27.82 -15.31,0 -27.71,-12.5 -27.71,-27.82 0,-6.75 2.51,-12.57 6.51,-17.37l0 -32.89 -69.18 -69.19 -1.86 -2.06 0 -105.59 -77.05 -77.05c-4.98,1.91 -9.94,3.85 -14.87,5.82l79.09 79.08 2.07 1.76 0 96.39 64.84 65.04 1.86 1.76 0 83.98 27.82 15.92 45.4 0 1.76 1.66 35.37 35.68 2.07 1.86 0 267.54 24.92 24.61 405.79 0 35.47 -35.57c-2.82,-4.34 -4.55,-9.31 -4.55,-14.89 0,-15.32 12.4,-27.82 27.72,-27.82 15.32,0 27.72,12.5 27.72,27.82 0,15.31 -12.4,27.5 -27.72,27.5 -5.16,0 -10.04,-1.48 -14.17,-3.93l-37.64 37.85 -1.76 1.76 -416.14 0 -1.86 -1.76 -28.75 -28.75 -1.76 -1.76 0 -267.33 -31.65 -31.86 -43.84 0 -1.45 -0.82 -32.27 -18.52 -3.1 -1.96 0 -86.04 -65.05 -65.05 -1.75 -1.76 0 -96.28 -81.07 -81c-2.72,1.12 -5.46,2.22 -8.16,3.36l71.44 71.44 1.66 1.76 0 111.38 63.6 63.5 1.86 1.86 0 65.98 66.5 63.19c4.3,-2.74 9.41,-4.24 14.89,-4.24 15.32,0 27.72,12.29 27.72,27.61 0,15.31 -12.4,27.61 -27.72,27.61 -15.31,0 -27.71,-12.3 -27.71,-27.61 0,-5.22 1.42,-10.11 3.93,-14.27l-68.26 -65.26 -1.96 -1.76 0 -66.08 -63.4 -63.39 -2.06 -1.86 0 -111.49 -73.07 -73c-3.88,1.68 -7.75,3.38 -11.59,5.09l75.25 75.25 1.76 1.97 0 108.48 64.73 64.74 1.66 1.96 0 66.4 52.63 52.64 1.87 1.75 0 178.19 29.78 29.89c4.61,-3.43 10.25,-5.48 16.44,-5.48 15.32,0 27.72,12.29 27.72,27.61 0,15.32 -12.4,27.72 -27.72,27.72 -15.31,0 -27.71,-12.4 -27.71,-27.72 0,-4.51 1.3,-8.65 3.2,-12.41l-32.47 -32.37 -1.97 -1.96 0 -178.19 -52.43 -52.54 -1.96 -1.96 0 -66.5 -64.44 -64.43 -2.06 -1.96 0 -108.8 -76.69 -76.69c-8.21,3.76 -16.35,7.58 -24.4,11.49l70.89 70.89 1.96 1.86 0 118.41 67.33 67.12 1.86 2.07 0 105.9 3.83 0c3.46,-11.41 13.83,-19.75 26.37,-19.75 15.31,0 27.82,12.29 27.82,27.61 0,15.31 -12.5,27.71 -27.82,27.71 -13.67,0 -24.89,-9.94 -27.2,-22.95l-15.51 0 0 -113.24 -67.53 -67.53 -1.76 -1.66 0 -118.3 -72.21 -72.22c-3.61,1.81 -7.2,3.63 -10.78,5.46l75.44 75.44 1.76 1.76 0 144.37c0.87,-0.08 1.7,-0.2 2.59,-0.2 15.31,0 27.82,12.4 27.82,27.71 0,15.32 -12.5,27.92 -27.82,27.92 -15.32,0 -27.61,-12.6 -27.61,-27.92 0,-9.67 4.91,-18.11 12.41,-23.06l0 -143.54 -76.37 -76.37c-5.08,2.68 -10.12,5.39 -15.14,8.14l52.93 52.92 1.76 1.66 0 191.95 30.71 30.61 90.7 0 0 119.03 31.44 31.43c4.22,-2.57 9.1,-4.13 14.37,-4.13 15.31,0 27.82,12.5 27.82,27.82 0,15.31 -12.5,27.82 -27.82,27.82 -15.32,0 -27.82,-12.51 -27.82,-27.82 0,-5.43 1.62,-10.39 4.34,-14.69l-33.09 -33.3 -1.86 -2.07 0 -111.38 -83.46 0 -1.97 -2.06 -34.02 -33.92 -2.07 -2.07 0 -191.95 -53.45 -53.5c-3.74,2.1 -7.45,4.23 -11.16,6.37l49.72 49.72 1.96 1.65 0 192.15 81.7 81.49 1.66 1.86 0 193.08c13.4,1.94 23.78,13.25 23.78,27.2 0,15.32 -12.4,27.92 -27.71,27.92 -15.32,0 -27.61,-12.6 -27.61,-27.92 0,-12.26 7.9,-22.31 18.92,-25.96l0 -189.04 -81.59 -81.8 -1.76 -1.76 0 -191.73 -50.31 -50.26c-5.88,3.49 -11.72,7.01 -17.5,10.59l45.37 45.36 1.96 2.07 0 194 48.09 48.09 1.97 2.07 0 271.26 40.02 23.17 78.6 0 37.02 -36.82c-4.71,-5 -7.55,-11.87 -7.55,-19.23 0,-15.32 12.5,-27.72 27.82,-27.72 15.32,0 27.82,12.4 27.82,27.72 0,15.31 -12.5,27.92 -27.82,27.92 -3.33,0 -6.33,-0.77 -9.31,-1.86l-40.74 40.85 -1.86 1.86 -87.59 0 -1.45 -0.93 -44.47 -25.65 -3.1 -1.76 0 -273.54 -48.19 -48.29 -1.87 -1.87 0 -194.22 -45.64 -45.64c-1.64,1.05 -3.3,2.08 -4.94,3.13l41.28 41.27 2.06 1.76 0 198.04 38.06 37.96c2.31,2.33 2.49,6.03 0.41,8.58 6.71,5.05 10.97,13.17 10.97,22.24 0,15.31 -12.19,27.61 -27.51,27.61 -15.32,0 -27.82,-12.3 -27.82,-27.61 0,-15.32 12.5,-27.72 27.82,-27.72 0.48,0 0.87,0.1 1.34,0.1l-34.23 -34.33 -1.76 -1.76 0 -197.84 -41.34 -41.3c-7.3,4.81 -14.51,9.7 -21.63,14.66l40.74 40.7 1.86 1.86 0 291.85 36.81 36.82c4.87,-4.32 11.2,-7.03 18.21,-7.03 15.31,0 27.51,12.71 27.51,28.03 0,15.31 -12.2,27.61 -27.51,27.61 -15.32,0 -27.82,-12.3 -27.82,-27.61 0,-3.62 0.81,-7.17 2.06,-10.35l-40.22 -40.12 -1.66 -2.07 0 -291.74 -40.52 -40.53c-3.42,2.44 -6.82,4.89 -10.2,7.37l14.32 14.34 1.97 1.86 0 117.17c9.35,4.44 15.72,13.96 15.72,25.03 0,15.31 -12.3,27.5 -27.62,27.5 -15.31,0 -27.82,-12.19 -27.82,-27.5 0,-15.05 12.05,-27.4 27,-27.82l0 -109.11 -13.83 -13.83c-10.85,8.16 -21.47,16.49 -31.88,24.99l0 150.48 67.53 67.53c0.76,0.81 1.29,1.81 1.55,2.89 3.17,4.51 5.07,9.88 5.07,15.83 0,15.31 -12.3,27.71 -27.61,27.71 -15.32,0 -27.82,-12.4 -27.82,-27.71 0,-13.41 9.56,-24.52 22.23,-27.1l-51.5 -51.92 -1.97 -1.86 0 -145.46c-14.28,12.06 -28.15,24.44 -41.57,37.14l0 51.03c11.32,3.47 19.55,13.79 19.55,26.27 0,15.32 -12.4,27.92 -27.72,27.92 -15.32,0 -27.61,-12.6 -27.61,-27.92 0,-13.75 9.94,-25.12 23.06,-27.3l0 -37.75c-15.2,14.92 -29.81,30.27 -43.85,46.02l0 51.5 14.48 14.69 71.05 0 1.65 3 21 36.3 0.82 1.45 0 73.11 35.17 35.27c3.9,-2.07 8.32,-3.42 13.03,-3.42 15.31,0 27.61,12.4 27.61,27.72 0,15.32 -12.3,27.72 -27.61,27.72 -15.32,0 -27.82,-12.4 -27.82,-27.72 0,-6 1.8,-11.5 5.06,-16.03l-36.09 -36.3 -2.06 -1.86 0 -74.98 -18.21 -31.65 -68.66 0 -1.97 -1.86 -18.3 -18.3 -1.76 -2.07 0 -42.1c-3.13,3.67 -6.24,7.35 -9.31,11.06l0 70.85 28.54 28.65 14.79 0c2.43,-12.82 13.46,-22.54 26.99,-22.54 15.32,0 27.72,12.4 27.72,27.71 0,15.32 -12.4,27.72 -27.72,27.72 -10.25,0 -19.1,-5.6 -23.89,-13.86l-25.85 0 -2.79 -2.79 -34.02 -34.13 -2.69 -2.79 0 -55.23c-4.21,5.42 -8.34,10.88 -12.42,16.38l0 65.11 85.63 85.84c4.55,-3.31 9.99,-5.48 16.03,-5.48 15.32,0 27.72,12.71 27.72,28.03 0,15.31 -12.4,27.61 -27.72,27.61 -15.31,0 -27.61,-12.3 -27.61,-27.61 0,-2.28 0.52,-4.39 1.04,-6.52l-91.22 -91.21 -2.79 -2.69 0 -46.57c-11.27,16.39 -21.99,33.12 -32.17,50.18l0 36.61 32.89 33.2c2.13,-0.53 4.34,-1.03 6.62,-1.03 15.31,0 27.72,12.71 27.72,28.02 0,15.32 -12.4,27.62 -27.72,27.62 -15.32,0 -27.92,-12.3 -27.92,-27.62 0,-6.04 2.06,-11.65 5.37,-16.23l-33.3 -33.3 -2.79 -2.79 0 -10.82c-12.13,22.41 -23.33,45.34 -33.61,68.77l54.6 54.56 85.12 0c4.57,-3.33 10.14,-5.27 16.23,-5.27 15.32,0 27.82,12.4 27.82,27.71 0,15.32 -12.5,27.61 -27.82,27.61 -9.47,0 -17.86,-4.76 -22.85,-11.99l-94.32 0 -5.48 -5.48 -49.04 -49.09c-14.86,38.32 -27.33,77.85 -37.35,118.48l92.71 0 1.75 1.76 37.96 37.95c5.06,-5.66 12.31,-9.31 20.48,-9.31 15.31,0 27.61,12.51 27.61,27.82 0,15.32 -12.3,27.72 -27.61,27.72 -15.32,0 -27.82,-12.4 -27.82,-27.72 0,-2.47 0.43,-4.74 1.03,-7.03l-38.57 -38.47 -90.57 0c-7.76,33.36 -13.88,67.44 -18.34,102.18l42.3 -42.3c-2.85,-4.36 -4.55,-9.52 -4.55,-15.1 0,-15.32 12.39,-27.72 27.71,-27.72 15.32,0 27.93,12.4 27.93,27.72 0,15.31 -12.61,27.71 -27.93,27.71 -5.18,0 -9.91,-1.56 -14.06,-4.03l-53.82 54.04c-1.87,17.07 -3.35,34.29 -4.41,51.65l58.54 -58.74 2.07 -1.76 46.95 0 0 122.86 -1.86 1.76 -15.31 15.31c3.23,4.53 5.27,10.03 5.27,16.02 0,15.32 -12.71,27.72 -28.02,27.72 -15.32,0 -27.51,-12.4 -27.51,-27.72 0,-15.31 12.19,-27.61 27.51,-27.61 4.77,0 9.42,1.19 13.34,3.31l13.96 -13.86 0 -105.17 -29.06 0 -60.39 60.29 -2.07 1.97 -4.2 0c-2.37,49.07 -1.57,99.28 2.49,150.45l2.77 -2.67 20.27 -20.27 2.69 -2.69 89.55 0 39.82 -39.71c-0.13,-1.06 -0.41,-2.21 -0.41,-3.31 0,-15.31 12.29,-27.5 27.61,-27.5 15.31,0 27.71,12.19 27.71,27.5 0,15.32 -12.4,27.82 -27.71,27.82 -6.95,0 -13.13,-2.81 -18,-7.03l-38.47 38.47 -2.58 2.69 -89.67 0 -14.58 14.58 0 133.1c3.41,18.02 7.2,36.13 11.39,54.32l18.61 -18.64 0 -7.76c-5.97,-5.07 -9.93,-12.42 -9.93,-20.89 0,-15.31 12.4,-27.71 27.72,-27.71 15.31,0 27.71,12.4 27.71,27.71 0,14.91 -11.73,26.77 -26.47,27.41l0 9.1 -2.79 2.79 -29.67 29.66c2.72,11.05 5.58,22.13 8.58,33.23 4.12,-10.28 14.22,-17.6 25.94,-17.6 15.31,0 27.61,12.61 27.61,27.93 0,15.31 -12.3,27.61 -27.61,27.61 -6.2,0 -12.11,-2.16 -16.76,-5.59l-0.03 0.02c2.15,7.33 4.38,14.66 6.65,22.01l33.4 0 21.31 -21.2 0 -186.88 -33.82 -33.81c-4.28,2.69 -9.46,4.34 -14.89,4.34 -15.32,0 -27.51,-12.3 -27.51,-27.61 0,-15.32 12.19,-27.92 27.51,-27.92 15.31,0 28.02,12.6 28.02,27.92 0,2.87 -0.64,5.46 -1.44,8.06l38.37 38.37 2.68 2.69 0 202.59 -2.68 2.79 -26.89 26.89 -2.69 2.69 -35.36 0c1.67,5.14 3.35,10.28 5.07,15.43 0.1,-0.01 0.2,-0.02 0.29,-0.02 15.32,0 27.72,12.71 27.72,28.03 0,8.8 -4.1,16.55 -10.49,21.56 3.57,9.62 7.24,19.25 11.02,28.9l29.97 0 1.76 1.86 34.34 34.23c4.48,-3.13 9.92,-4.96 15.82,-4.96 15.31,0 28.02,12.3 28.02,27.61 0,15.32 -12.7,27.72 -28.02,27.72 -15.32,0 -27.61,-12.4 -27.61,-27.72 0,-4.73 1.22,-9.03 3.3,-12.93l-32.78 -33.09 -19.78 0c17.59,43.86 43.47,86.98 72.64,130.67 14.84,0.57 26.88,13.01 26.88,27.98 0,3.18 -0.58,6.23 -1.58,9.07 6.39,9.19 12.85,18.42 19.35,27.7l19.67 -19.4 0 -46.75c-12.33,-2.82 -21.62,-13.81 -21.62,-26.99 0,-15.31 12.61,-27.71 27.93,-27.71 15.31,0 27.5,12.4 27.5,27.71 0,13.12 -9.07,24.11 -21.3,26.99l0 51.71 -1.76 1.86 -23.02 23.16c10.36,14.8 20.77,29.74 31.05,44.88l381.97 0 2.69 2.79 31.13 31.13 2.79 2.69 0 221.62 11.07 19.24 873.86 0 2.69 2.79 24.51 24.51 197 0 66.29 -66.08 0 -71.46 2.69 -2.8 71.56 -71.66 2.8 -2.8 187.49 0.01 2.79 2.79 38.89 38.78 82.01 0 3.1 2.9 28.75 28.75 63.29 0 2.79 2.79 32.89 32.89c2.82,-0.9 5.79,-1.45 8.89,-1.45 16.62,0 29.99,13.87 29.99,31.03 0,17.15 -13.37,31.02 -29.99,31.02 -16.61,0 -30.2,-13.87 -30.2,-31.02 0,-6.8 2.32,-13.09 5.9,-18.21l-27.92 -28.02 -63.61 0 -2.58 -2.8 -29.06 -28.85 -82.11 0 -2.79 -2.79 -38.79 -38.78 -172.18 0 -65.68 65.87 0 71.57 -2.99 2.89 -71.57 71.56 -2.79 2.9 -212.73 0 -2.69 -2.89 -24.62 -24.51 -876.86 0 -2.69 -4.55 -15.31 -26.37 -1.03 -2.28 0 -218.73 -25.54 -25.55 -361.39 0c11.02,16.63 21.8,33.5 32.11,50.69l1.12 -1.13 2.69 -2.8 289.06 0 2.89 2.8 19.24 19.23 2.69 2.69 0 191.33 60.19 60.09 865.82 -0.01 2.28 1.14 30.19 17.38 229.59 0 96.7 -96.7 0 -70.12 2.89 -2.69 58.43 -58.43 2.9 -2.79 147.78 0 2.79 2.79 35.89 35.89 68.88 0 2.89 3 32.37 32.47c3.23,-1.22 6.7,-1.96 10.34,-1.96 16.62,0 29.99,13.77 29.99,30.92 0,17.15 -13.37,31.13 -29.99,31.13 -16.61,0 -30.2,-13.98 -30.2,-31.13 0,-6.28 1.87,-12.08 4.97,-16.96l-28.34 -28.44 -68.56 0 -2.8 -2.79 -36.09 -35.89 -132.06 0 -53.05 52.75 0 70.21 -2.79 2.8 -102.18 102.17 -2.79 2.79 -242.81 0 -2.28 -1.13 -29.78 -17.38 -868.83 0 -2.79 -2.9 -65.77 -65.56 -2.69 -2.79 0 -191.33 -13.76 -13.55 -273.23 0 -1.82 1.83c24.05,41.93 44.91,85.77 59.36,132.35 6.19,-6.82 15.09,-11.13 25.02,-11.13 18.68,0 33.82,15.15 33.82,33.82 0,18.67 -15.14,33.92 -33.82,33.92 -4.87,0 -9.49,-1.06 -13.68,-2.92 1.69,18.25 2.24,40.26 1.81,65.3l191.25 0 65.16 64.94 837.55 0 44.36 25.75 210.86 0 0 164.44 -356.77 0 -25.02 -14.38 0 -96.59 -244.38 0 0 110.96 -163.08 0 -82.63 -82.52 -474.98 0 -16.44 16.43c-1.04,9.34 -2.13,18.79 -3.27,28.33 4.92,-12.49 17.06,-21.3 31.34,-21.3 18.67,0 33.82,15.04 33.82,33.71 0,18.68 -15.15,33.82 -33.82,33.82 -17.16,0 -31.22,-12.8 -33.39,-29.36 -5.83,47.27 -12.71,96.7 -20.28,146.65 11.28,5.48 19.09,17.01 19.09,30.4 0,15.23 -10.04,27.93 -23.89,32.16l0 111.9 -2.8 2.79 -26.47 26.47c-2.61,14.31 -5.24,28.47 -7.87,42.44 22.94,11.55 46.23,22.63 69.81,33.26 4.71,-12.96 17.13,-22.13 31.75,-22.13 18.68,0 33.82,14.94 33.82,33.61 0,5.43 -1.23,10.66 -3.51,15.2 5.37,2.19 10.83,4.28 16.23,6.42l0 -76.32 -33.61 -33.51c-4.51,2.23 -9.72,3.52 -15.1,3.52 -18.67,0 -33.92,-15.15 -33.92,-33.82 0,-18.68 15.25,-33.82 33.92,-33.82 18.68,0 33.82,15.14 33.82,33.82 0,8.67 -3.31,16.56 -8.68,22.54l34.12 34.13 2.07 1.76 0 86.66c5.63,2.18 11.3,4.29 16.96,6.41l0 -165.98 -59.26 -59.36c-5.22,3.3 -11.66,5.06 -18.3,5.06 -18.68,0 -33.71,-15.04 -33.71,-33.71 0,-18.68 15.04,-33.72 33.71,-33.72 18.67,0.01 33.92,15.04 33.92,33.72 0,7.4 -2.58,14.28 -6.62,19.85l61.12 60.92 1.76 2.06 0 175.91c4.21,1.55 8.49,3.04 12.72,4.55l0 -103.72 1.76 -1.97 58.53 -58.32 1.76 -1.86 26.68 0c4.87,-11.26 15.65,-19.31 28.44,-20.27 0.86,-0.09 1.93,0 2.8,0 18.67,0 33.71,15.04 33.71,33.71 0,18.68 -15.04,33.82 -33.71,33.82 -18.68,0 -33.92,-15.14 -33.92,-33.82l0 -0.72 -18.83 0 -54.5 54.81 0 102.9c5.38,1.88 10.73,3.75 16.13,5.58l0 -65.04 1.86 -2.07 47.78 -47.57 1.87 -1.66 87.07 0 29.79 -29.88 0 -0.31c-2.56,-4.76 -4.24,-10.26 -4.24,-16.03 0,-18.68 15.14,-33.72 33.81,-33.72 18.68,0 33.92,15.04 33.92,33.72 0,18.67 -15.24,33.82 -33.92,33.82 -8.22,0 -15.65,-2.99 -21.51,-7.86l-30.81 30.82 -1.97 2.06 -86.97 0 -44.06 43.95 0 64.02c3.01,1 6.09,1.91 9.11,2.89l0 -6.2 2.06 -1.86 36.92 -36.92c-2.28,-4.55 -3.51,-9.87 -3.51,-15.31 0,-18.67 15.24,-33.81 33.92,-33.81 18.67,0 33.71,15.14 33.71,33.81 0,18.68 -15.04,33.82 -33.71,33.82 -8.63,0 -16.57,-3.37 -22.55,-8.68l-34.13 34.23 0 4.96c13,4.13 26.06,8.25 39.2,12.1 4.68,-2.47 10.05,-3.93 15.72,-3.93 11.03,0 20.76,5.32 26.94,13.5l23.74 -0.01 0 -41.83 -0.05 0.03zm1381.83 -1505.35c15.31,0 27.61,12.3 27.61,27.61 0,15.32 -12.3,27.72 -27.61,27.72 -15.32,0 -27.72,-12.4 -27.72,-27.72 0,-15.31 12.4,-27.61 27.72,-27.61zm-113.45 55.33c-15.31,0 -27.71,-12.4 -27.71,-27.72 0,-15.31 12.39,-27.61 27.71,-27.61 15.32,0 27.72,12.3 27.72,27.61 0,15.32 -12.4,27.72 -27.72,27.72zm0.02 -226.79c-15.32,0 -27.72,-12.4 -27.72,-27.72 0,-15.31 12.4,-27.71 27.72,-27.71 15.32,0 27.72,12.4 27.72,27.71 -0.01,15.32 -12.41,27.72 -27.72,27.72zm2.28 -106.42c-15.31,0 -27.71,-12.4 -27.71,-27.71 0,-15.32 12.4,-27.62 27.71,-27.62 15.32,0 27.82,12.3 27.82,27.62 0,15.31 -12.5,27.71 -27.82,27.71zm-1001.8 -330.62c-15.31,0 -27.51,-12.6 -27.51,-27.92 0,-15.31 12.2,-27.71 27.51,-27.71 15.31,0 27.82,12.4 27.82,27.71 0,15.32 -12.5,27.92 -27.82,27.92zm336 0c-15.31,0 -27.71,-12.6 -27.71,-27.92 0,-15.31 12.39,-27.71 27.71,-27.71 15.32,0 27.92,12.4 27.92,27.71 0,15.32 -12.6,27.92 -27.92,27.92zm-446.45 166.5c15.32,0 27.61,12.61 27.61,27.93 0,15.31 -12.29,27.61 -27.61,27.61 -15.31,0 -27.72,-12.3 -27.72,-27.61 0,-15.32 12.4,-27.93 27.72,-27.93zm-113.86 0.73c15.32,0 27.51,12.4 27.51,27.71 0,15.32 -12.19,27.82 -27.51,27.82 -15.31,0 -27.92,-12.5 -27.92,-27.82 0,-15.31 12.61,-27.71 27.92,-27.71zm-108.9 -0.73c15.32,0 27.72,12.61 27.72,27.93 0,15.31 -12.4,27.61 -27.72,27.61 -15.31,0 -27.61,-12.3 -27.61,-27.61 0,-15.32 12.3,-27.93 27.61,-27.93zm-113.24 0c15.31,0 27.72,12.61 27.72,27.93 0,15.31 -12.4,27.61 -27.72,27.61 -15.31,0 -27.92,-12.3 -27.92,-27.61 0,-15.32 12.61,-27.93 27.92,-27.93zm-98.37 219.56c15.32,0 27.82,12.4 27.82,27.71 0,15.32 -12.5,27.82 -27.82,27.82 -15.31,0 -27.82,-12.5 -27.82,-27.82 0,-15.31 12.51,-27.71 27.82,-27.71zm0 118.2c15.32,0 27.82,12.4 27.82,27.72 0,15.31 -12.5,27.71 -27.82,27.71 -15.31,0 -27.82,-12.4 -27.82,-27.71 0,-15.32 12.51,-27.72 27.82,-27.72zm-220.48 273.12c-15.31,0 -27.61,-12.5 -27.61,-27.82 0,-15.31 12.3,-27.51 27.61,-27.51 15.32,0 28.03,12.2 28.03,27.51 0,15.32 -12.71,27.82 -28.03,27.82zm82.54 -580.06c0,-15.32 12.3,-27.93 27.61,-27.93 15.32,0 28.03,12.61 28.03,27.93 0,15.31 -12.71,27.71 -28.03,27.71 -15.31,0 -27.61,-12.4 -27.61,-27.71zm32.46 362.98c-15.32,0 -27.92,-12.19 -27.92,-27.51 0,-15.31 12.6,-27.82 27.92,-27.82 15.32,0 27.61,12.51 27.61,27.82 0,15.32 -12.3,27.51 -27.61,27.51zm0 -117.99c-15.32,0 -27.92,-12.3 -27.92,-27.62 0,-15.31 12.6,-27.92 27.92,-27.92 15.32,0 27.61,12.61 27.61,27.92 0,15.32 -12.3,27.62 -27.61,27.62zm0.02 -103.32c-15.32,0 -27.93,-12.5 -27.93,-27.82 0,-15.32 12.61,-27.51 27.93,-27.51 15.31,0 27.61,12.19 27.61,27.51 0,15.32 -12.3,27.82 -27.61,27.82zm1538.86 1147.62c18.68,0 33.72,15.15 33.72,33.82 0,18.68 -15.04,33.82 -33.72,33.82 -18.67,0 -33.92,-15.15 -33.92,-33.82 0,-18.67 15.25,-33.82 33.92,-33.82zm-1435.85 -262.77c-18.68,0 -33.82,-15.25 -33.82,-33.92 0,-18.68 15.15,-33.72 33.82,-33.72 18.67,0 33.82,15.04 33.82,33.72 0,18.67 -15.15,33.92 -33.82,33.92zm143.03 -67.64c18.67,0 33.71,15.04 33.71,33.71 0,18.68 -15.04,33.92 -33.71,33.92 -18.68,0 -33.92,-15.24 -33.92,-33.92 0,-18.67 15.24,-33.71 33.92,-33.71zm0 180.05c-18.67,0 -33.92,-15.25 -33.92,-33.92 0,-18.68 15.25,-33.82 33.92,-33.82 18.68,0 33.72,15.15 33.72,33.82 0,18.67 -15.05,33.92 -33.72,33.92zm741.81 253.68c18.68,0 33.92,15.15 33.92,33.82 0,18.68 -15.24,33.72 -33.92,33.72 -18.67,0 -33.82,-15.04 -33.82,-33.72 0,-18.67 15.15,-33.82 33.82,-33.82zm-118.21 4.76c18.68,0 33.82,15.04 33.82,33.71 0,18.68 -15.14,33.82 -33.82,33.82 -18.67,0 -33.81,-15.14 -33.81,-33.82 0,-18.67 15.14,-33.71 33.81,-33.71zm-322.34 287.81c-18.68,0 -33.82,-15.14 -33.82,-33.81 0,-18.68 15.15,-33.82 33.82,-33.82 18.67,0 33.82,15.14 33.82,33.82 0,18.67 -15.15,33.81 -33.82,33.81zm-5.38 -287.81c18.67,0 33.92,15.04 33.92,33.71 0,18.68 -15.25,33.82 -33.92,33.82 -18.68,0 -33.82,-15.14 -33.82,-33.82 0,-18.67 15.15,-33.71 33.82,-33.71zm-436.83 179.12c-18.68,0 -33.72,-15.25 -33.72,-33.92 0,-18.68 15.04,-33.71 33.72,-33.71 18.67,0 33.82,15.04 33.82,33.71 0,18.67 -15.15,33.92 -33.82,33.92zm116.44 -179.12c18.67,0 33.61,15.04 33.61,33.71 0,18.68 -14.94,33.82 -33.61,33.82 -18.67,0 -33.92,-15.14 -33.92,-33.82 0,-18.67 15.25,-33.71 33.92,-33.71zm0 179.12c-18.67,0 -33.92,-15.25 -33.92,-33.92 0,-18.68 15.25,-33.71 33.92,-33.71 18.68,0 33.61,15.04 33.61,33.71 0,18.67 -14.93,33.92 -33.61,33.92zm106.11 -179.12c18.67,0 33.81,15.04 33.81,33.71 0,18.68 -15.14,33.82 -33.81,33.82 -18.68,0 -33.72,-15.14 -33.72,-33.82 0,-18.67 15.04,-33.71 33.72,-33.71zm0 179.12c-18.68,0 -33.72,-15.25 -33.72,-33.92 0,-18.68 15.05,-33.71 33.72,-33.71 18.67,0 33.82,15.04 33.82,33.71 0,18.67 -15.15,33.92 -33.82,33.92zm110.96 -179.12c18.67,0 33.82,15.04 33.82,33.71 0,18.68 -15.15,33.82 -33.82,33.82 -18.67,0 -33.92,-15.14 -33.92,-33.82 0,-18.67 15.25,-33.71 33.92,-33.71zm0 179.12c-18.67,0 -33.92,-15.25 -33.92,-33.92 0,-18.68 15.25,-33.71 33.92,-33.71 18.68,0 33.82,15.04 33.82,33.71 0,18.67 -15.14,33.92 -33.82,33.92z"/>
  <path class="fil0" d="M1239.79 2655.93c-1.39,7.99 -2.79,15.96 -4.2,23.89l4.2 -4.21 0 -19.68z"/>
  <path class="fil0" d="M1218.1 2774.34c-7.06,36.67 -14.14,71.71 -21.06,104.24l276.63 0c-88.97,-28.43 -174.41,-63.39 -255.56,-104.24l-0.01 0z"/>
  <path class="fil0" d="M2652.14 1131.65l0 -131.58 4.31 -4.41 105.83 -105.73 4.41 -4.51 62.43 0 4.51 4.51 105.13 105.33 187.19 0c-1.81,-2.75 -3.59,-5.49 -5.33,-8.2 3.39,-7.46 6.36,-14.88 9.01,-22.27l-148.45 0 -3.71 -3.5 -69.04 -69.15c-12.9,-1.96 -22.85,-13 -22.85,-26.46 0,-14.84 12.01,-26.76 26.85,-26.76 14.85,0 26.86,11.92 26.86,26.76 0,6.3 -2.29,11.97 -5.91,16.54l58.03 58.03 145.75 0c3.8,-15.04 6.13,-29.96 7.09,-44.81l-4.87 -4.9c-3.53,1.7 -7.45,2.8 -11.63,2.8 -14.84,0 -26.86,-12.01 -26.86,-26.85 0,-14.85 12.02,-26.86 26.86,-26.86 5.38,0 10.36,1.59 14.54,4.31 -1.18,-8.66 -2.49,-17.31 -3.95,-25.96l-48.17 0 -41.59 41.79c0.43,1.93 0.7,3.85 0.7,5.91 0,14.85 -11.91,26.86 -26.75,26.86 -14.85,0 -26.86,-12.01 -26.86,-26.86 0,-14.84 12.01,-26.75 26.86,-26.75 8.15,0 15.33,3.6 20.24,9.32l40.59 -40.89 1.9 -1.61 50.94 0c-1.13,-6.13 -2.34,-12.25 -3.61,-18.37 -1.56,0.28 -3.18,0.44 -4.83,0.44 -14.84,0 -26.86,-11.92 -26.86,-26.76 0,-12.16 8.07,-22.41 19.14,-25.72 -1.35,-4.9 -2.75,-9.79 -4.19,-14.67l-33.48 0 -33.58 33.47c-0.06,0.03 -0.13,0.07 -0.2,0.1 0.43,1.93 0.7,4.05 0.7,6.11 0,14.84 -11.91,26.96 -26.75,26.96 -14.85,0 -26.86,-12.12 -26.86,-26.96 0,-14.84 12.01,-26.86 26.86,-26.86 5.91,0 11.2,1.89 15.63,5.11l33.77 -33.67 2.71 -2.7 35.53 0c-6.93,-21.65 -14.78,-43.11 -23.53,-64.34l-22.93 0 -122.36 122.26c0.07,0.84 0.2,1.55 0.2,2.41 0,14.84 -11.92,27.06 -26.76,27.06 -14.85,0 -26.86,-12.22 -26.86,-27.06 0,-14.84 12.01,-26.86 26.86,-26.86 6.92,0 12.98,2.82 17.73,7.12l120.87 -120.67 2.6 -2.7 22.8 0c-10.47,-23.8 -22.08,-47.28 -34.85,-70.33 -0.34,14.55 -12.2,26.24 -26.83,26.24 -14.84,0 -26.96,-12.02 -26.96,-26.86 0,-5.16 1.47,-9.85 4.01,-13.93l-39.59 -39.59 -2.5 -2.5 0 -77.69c-7.35,-8.86 -14.9,-17.6 -22.65,-26.23l0 80.47 -2.81 2.6 -51.31 51.72 0 78.87 -2.6 2.7 -149.93 149.83c1.26,3.11 1.81,6.55 1.81,10.12 0,14.84 -11.82,26.86 -26.66,26.86 -14.84,0 -27.06,-12.02 -27.06,-26.86 0,-14.84 12.22,-26.86 27.06,-26.86 4.53,0 8.69,1.33 12.42,3.31l146.52 -146.72 0 -78.97 2.71 -2.71 51.41 -51.51 0 -92.73c-6.88,-7.19 -13.88,-14.31 -21.05,-21.32l0 108.43 -2.7 2.91 -64.64 64.64 0 15.73c7.13,4.82 11.92,12.87 11.92,22.15 0,14.84 -12.01,26.76 -26.86,26.76 -14.84,0 -26.75,-11.92 -26.75,-26.76 0,-13.65 10.17,-24.84 23.35,-26.56l0 -19.04 2.7 -2.71 64.54 -64.53 0 -118.56c-3.6,-3.33 -7.25,-6.64 -10.92,-9.94l0 86.2 -2.71 2.81 -30.06 30.06c2.74,4.21 4.31,9.23 4.31,14.64 0,14.84 -11.82,26.65 -26.66,26.65 -14.84,0 -26.96,-11.81 -26.96,-26.65 0,-14.85 12.11,-26.96 26.96,-26.96 2.61,0 5.03,0.51 7.42,1.2l29.26 -29.37 0 -94.65c-22.36,-18.96 -45.91,-37.09 -70.66,-54.29l-11.82 11.84 0 244.34 -2.81 2.61 -35.98 36.08c3.78,4.62 6.12,10.39 6.12,16.83 0,14.85 -11.92,26.76 -26.76,26.76 -14.84,0 -27.06,-11.91 -27.06,-26.76 0,-14.84 12.21,-26.86 27.06,-26.86 1.45,0 2.72,0.08 4.11,0.31l36.88 -36.68 0 -244.43 2.7 -2.7 11.95 -11.95c-8.27,-5.5 -16.67,-10.9 -25.2,-16.19l-28.13 28.14 0 174.78c-0.06,0.51 -0.16,1.01 -0.3,1.5 12.7,2.13 22.34,13.14 22.34,26.46 0,14.84 -11.81,26.65 -26.65,26.65 -14.85,0 -27.16,-11.81 -27.16,-26.65 0,-10.28 6.01,-19.15 14.53,-23.66 -0.75,-1.31 -1.16,-2.79 -1.2,-4.31l0 -182.39 2.6 -2.61 27.81 -27.75c-8.6,-5.12 -17.33,-10.11 -26.18,-15.01l-35.5 35.44 0 373.1 33.47 33.47c3.5,-1.64 7.52,-2.6 11.63,-2.6 14.84,0 26.65,12.01 26.65,26.86 0,14.84 -11.81,26.95 -26.65,26.95 -14.84,0 -27.16,-12.11 -27.16,-26.95 0,-4.03 1,-7.81 2.6,-11.23l-36.17 -36.38 -2.71 -2.6 0 -388.08 2.71 -2.71 34.32 -34.38c-15.39,-8.13 -31.16,-15.94 -47.28,-23.41l-24.02 24.02 0 236.92c8.3,4.56 13.93,13.19 13.93,23.35 0,14.84 -12.02,26.86 -26.86,26.86 -14.84,0 -26.76,-12.02 -26.76,-26.86 0,-12.92 9,-23.69 21.15,-26.26l0 -241.73 2.7 -2.6 21.83 -21.83c-13.94,-6.13 -28.14,-12.01 -42.6,-17.63l-23.32 23.32 0 304.57 68.85 68.85c1.57,1.62 2.5,3.75 2.6,6.01 2.83,4.29 4.71,9.53 4.71,15.03 0,14.85 -12.01,26.76 -26.86,26.76 -14.84,0 -26.75,-11.91 -26.75,-26.76 0,-11.13 6.7,-20.93 16.33,-25.05l-54.72 -54.72 -2.7 -2.7 0 -319.39 2.7 -2.7 20.33 -20.33c-12.47,-4.57 -25.12,-8.96 -37.97,-13.14l0 367.7 34.18 34.68 2.6 2.6 0 87.19 38.79 22.45c1.63,-0.3 3.18,-0.5 4.91,-0.5 14.84,0 26.86,12.02 26.86,26.86 0,14.84 -12.02,26.86 -26.86,26.86 -14.84,0 -26.76,-12.02 -26.76,-26.86 0,-5.62 1.57,-10.93 4.51,-15.24l-35.27 -20.34 -4.51 -2.6 0 -90.3 -34.18 -34.28 -2.7 -2.7 0 -381.35c-7.63,-2.33 -15.3,-4.61 -23.05,-6.81l0 382.33 26.75 46.3 1.2 2 0 108.54 93.11 93.1c0.33,0 0.56,-0.2 0.9,-0.2 14.84,0 26.86,12.12 26.86,26.96 0,14.84 -12.02,26.66 -26.86,26.66 -14.84,0 -26.76,-11.82 -26.76,-26.66 0,-7.33 2.88,-14.11 7.62,-18.94l-90.6 -90.6 -2.71 -2.6 0 -111.45 -26.45 -45.79 -1.41 -2.11 0 -392.56c-2.67,-0.71 -5.33,-1.43 -8.01,-2.12l0 514.36 -2.71 2.61 -32.67 32.97c1.42,3.28 2.2,7.02 2.2,10.82 0,14.84 -12.01,26.86 -26.86,26.86 -14.84,0 -26.75,-12.01 -26.75,-26.86 0,-14.84 11.91,-26.86 26.75,-26.86 4.28,0 8.34,1.04 11.93,2.81l29.66 -29.66 0 -511.64c-7.3,-1.76 -14.64,-3.47 -22.05,-5.11l0 338.77c0,0.9 -0.06,1.81 -0.2,2.7 4.57,4.81 7.52,11.17 7.52,18.34 0,14.85 -12.01,26.86 -26.86,26.86 -14.84,0 -26.76,-12.01 -26.76,-26.86 0,-8.2 3.84,-15.42 9.62,-20.34 0,-0.24 0,-0.47 0,-0.7l0 -346.28c-8.74,-1.65 -17.56,-3.22 -26.45,-4.71l0 414.85 39.08 39.08c2.23,-0.61 4.5,-1.2 6.92,-1.2 14.84,0 26.76,12.22 26.76,27.06 0,14.84 -11.92,26.76 -26.76,26.76 -14.85,0 -26.86,-11.92 -26.86,-26.76 0,-3.3 0.62,-6.59 1.7,-9.52l-41.79 -41.69 -3.6 -3.71 0 -428.73c-9.05,-1.33 -18.16,-2.58 -27.35,-3.73l0 588.87 67.24 67.15 5.31 5.21 0 78.27 -5.31 5.31 -60.53 60.33 0 44.9 238.42 0 41.19 41.19 0 170.36 82.38 0 0 0.01zm57.01 -292.71c14.84,0 27.06,11.92 27.06,26.76 0,14.84 -12.22,26.86 -27.06,26.86 -14.84,0 -26.86,-12.02 -26.86,-26.86 0,-14.84 12.02,-26.76 26.86,-26.76zm-325.61 53.62c-14.84,0 -26.65,-12.02 -26.65,-26.86 0,-14.84 11.81,-26.76 26.65,-26.76 14.84,0 26.96,11.92 26.96,26.76 0,14.84 -12.11,26.86 -26.96,26.86zm110.04 0c-14.84,0 -27.06,-12.02 -27.06,-26.86 0,-14.84 12.22,-26.76 27.06,-26.76 14.84,0 26.86,11.92 26.86,26.76 0,14.84 -12.02,26.86 -26.86,26.86zm105.23 -52.91c14.84,0 26.76,12.01 26.76,26.85 0,14.85 -11.92,26.86 -26.76,26.86 -14.84,0 -26.86,-12.01 -26.86,-26.86 0,-14.84 12.02,-26.85 26.86,-26.85z"/>
  <path class="fil0" d="M3477.87 1505.54l-94.54 94.6c37.87,-20.07 94.9,-43.2 94.54,-94.6z"/>
  <path class="fil0" d="M3008.79 523.35c2.67,-0.88 5.46,-1.61 8.42,-1.61 4.7,0 9.12,1.21 12.96,3.31 -17.9,-29.99 -37.79,-59.19 -59.66,-87.4l0 47.31 38.28 38.39z"/>
  <path class="fil1 str0" d="M2039.67 1757.14l-177.84 0 -143.72 -252.63 145.15 -247.41 173.36 0.39c4.21,25.04 25.05,44.06 50.13,44.06 28.11,0 50.9,-23.9 50.9,-53.39 0,-29.48 -22.79,-53.38 -50.9,-53.38 -23.18,0 -42.73,16.24 -48.89,38.47 -0.03,0.13 -0.07,0.26 -0.11,0.4l-188.21 0.06 -160.45 271.88 157.22 276.49 193.07 2c5.5,23.26 25.54,40.5 49.41,40.5 28.11,0 50.9,-23.9 50.9,-53.39 0,-29.48 -22.79,-53.38 -50.9,-53.38 -23.47,0 -43.23,16.66 -49.12,39.33zm47.08 -480.36c-15.9,0 -28.79,-12.81 -28.79,-28.62 0,-15.8 12.89,-28.62 28.79,-28.62 15.9,0 28.79,12.82 28.79,28.62 0,15.81 -12.89,28.62 -28.79,28.62zm2.04 523.03c-15.9,0 -28.79,-12.81 -28.79,-28.62 0,-15.8 12.89,-28.62 28.79,-28.62 15.9,0 28.79,12.82 28.79,28.62 0,15.81 -12.89,28.62 -28.79,28.62z"/>
  <path class="fil1 str1" d="M2134.36 1521.42l177.84 0 143.72 252.63 -145.15 247.41 -173.36 -0.39c-4.21,-25.04 -25.05,-44.06 -50.13,-44.06 -28.11,0 -50.9,23.9 -50.9,53.38 0,29.49 22.79,53.39 50.9,53.39 23.18,0 42.73,-16.25 48.89,-38.47 0.03,-0.13 0.07,-0.26 0.11,-0.4l188.21 -0.06 160.45 -271.88 -157.22 -276.5 -193.07 -1.99c-5.5,-23.26 -25.53,-40.5 -49.41,-40.5 -28.11,0 -50.9,23.9 -50.9,53.38 0,29.49 22.79,53.39 50.9,53.39 23.47,0 43.23,-16.67 49.12,-39.33zm-47.08 480.35c15.9,0 28.79,12.82 28.79,28.62 0,15.81 -12.89,28.62 -28.79,28.62 -15.9,0 -28.79,-12.81 -28.79,-28.62 0,-15.8 12.89,-28.62 28.79,-28.62zm-2.04 -523.03c15.9,0 28.79,12.82 28.79,28.62 0,15.81 -12.89,28.62 -28.79,28.62 -15.9,0 -28.79,-12.81 -28.79,-28.62 0,-15.8 12.89,-28.62 28.79,-28.62z"/>
 </g>
</svg>
