<?xml version="1.0" encoding="UTF-8"?>
<!DOCTYPE svg PUBLIC "-//W3C//DTD SVG 1.1//EN" "http://www.w3.org/Graphics/SVG/1.1/DTD/svg11.dtd">
<!-- Creator: CorelDRAW -->
<svg xmlns="http://www.w3.org/2000/svg" xml:space="preserve" width="43.3492mm" height="30.48mm" version="1.1" style="shape-rendering:geometricPrecision; text-rendering:geometricPrecision; image-rendering:optimizeQuality; fill-rule:evenodd; clip-rule:evenodd"
viewBox="0 0 4334.92 3048"
 xmlns:xlink="http://www.w3.org/1999/xlink"
 xmlns:xodm="http://www.corel.com/coreldraw/odm/2003">
 <defs>
  <style type="text/css">
   <![CDATA[
    .str3 {stroke:#FEFEFE;stroke-width:8.47;stroke-miterlimit:22.9256}
    .str1 {stroke:#FEFEFE;stroke-width:16.93;stroke-miterlimit:22.9256}
    .str0 {stroke:#FEFEFE;stroke-width:25.4;stroke-miterlimit:22.9256}
    .str2 {stroke:#FEFEFE;stroke-width:7.62;stroke-miterlimit:22.9256}
    .fil1 {fill:none}
    .fil0 {fill:#FEFEFE}
   ]]>
  </style>
 </defs>
 <g id="Capa_x0020_1">
  <metadata id="CorelCorpID_0Corel-Layer"/>
  <path class="fil0 str0" d="M3215.72 2641.52c24.96,0 42.73,2.08 68.34,2.08 64.43,0 37.8,-2.03 49.71,22.79l-118.05 0 0 -24.87zm-2050.27 -4.14c19.85,0 31.63,2.08 51.78,2.08l62.13 0c0,12.1 2.07,14.47 2.07,24.86 -16.35,0 -24.41,-2.2 -39.29,-2.12l-83.06 -0.05c-10.55,-1.98 -2.82,-7.39 6.37,-24.77zm797.32 -57.96l269.23 2.07 0 -45.56 31.08 0 0 45.56 265.08 0 -8.29 -45.56 33.13 0 8.29 49.71c-100.93,0 -195.19,-2.08 -296.14,-2.08l-329.29 0c0,-10.78 4.1,-26.18 5.45,-35.97 2.01,-14.3 -2.28,-11.66 29.75,-11.66l-8.29 43.49zm12.43 -227.79l211.24 0c24.96,0 42.74,-2.07 68.35,-2.07l246.46 0.03c14.5,0.07 19.69,-2.1 33.12,-2.1 6.02,12.56 36.73,160.21 39.35,165.65 -213.46,0 -421.68,-2.07 -633.72,-2.07 2.42,-5.04 3,-12.13 4.3,-18.47l13.13 -61.41c5.89,-26.76 11.78,-53.85 17.77,-79.56zm-1068.62 -60.06c1.9,-7.11 12.32,-20.52 16.58,-26.91l68.75 -105.2c5.99,-9.58 10.96,-17.02 16.8,-26.68 5.62,-9.36 11.66,-16.63 17.6,-25.89 6.41,-10 11.08,-17.75 17.8,-27.76 3.36,-5.04 4.94,-7.41 8.08,-12.63 3.85,-6.34 5.25,-7.34 9.09,-13.7l69.37 -106.62c6.99,-7.66 20.12,-4.57 38.94,-4.57 30.46,0 55.27,2.07 87,2.07 234,0 468.04,0 702.04,0 237.05,0 458.37,2.08 695.84,2.08 234.73,0 469.43,0 704.14,0l178.95 255.94c20.25,29.26 39.8,56.77 59.22,85.75l-2017.12 2.05c-226.68,0 -447.46,2.07 -673.08,2.07zm-434.9 422.45c0,68.92 -7.92,115.28 44.01,167.2l30.11 23.77c5.09,3.07 7.68,3.39 12.7,5.92 16.58,8.28 39.04,14.32 58.14,14.32l3245.22 0c77.76,0 147.03,-68.7 147.03,-138.74 0,-35.75 3.72,-24.47 -18.62,-55.92l-19.5 -28.13c-3.59,-5.19 -5.69,-8.64 -9.09,-13.71l-19.71 -27.91c-25.64,-41.01 -78.39,-111.9 -108.27,-156.79 -6.87,-10.31 -12.78,-18.62 -19.49,-28.14l-353.81 -511.81c-6.99,-9.41 -13.08,-17.72 -19.79,-27.84l-28.56 -41.83c-3.62,-5.47 -6.89,-9.49 -10.31,-14.56 -3.02,-4.47 -5.71,-12 -7.86,-16.97 -3.5,-8.11 -3.65,-9.51 -8.34,-16.5l-420.4 -2.07c-49.3,0 -93.29,-2.07 -140.84,-2.07 -190.77,0 -374.95,-2.08 -565.37,-2.08 -48,0 -89.94,-2.07 -138.77,-2.07 -46.92,0 -93.88,0 -140.81,0 -25.26,0 -42.87,-2.07 -68.36,-2.07l-213.3 0c-23.49,0.05 -42.91,-2.07 -68.32,-2.07l-213.31 0c-48.58,0 -90.12,-2.08 -138.77,-2.08 -47.64,0 -95.26,0 -142.89,0 -5.3,9.96 -9.09,23.99 -14.81,32.83l-272.2 355.28c-14.77,18.92 -27.23,36.86 -42.01,55.32l-292.59 382.5c-3.91,5.24 -41.11,50.98 -41.11,56.22z"/>
  <path class="fil0 str0" d="M3269.56 1618.59l-2054.41 0c-18.69,0 -33.12,-14.43 -33.12,-33.13l0 -1252.79c0,-10.73 4.96,-18.97 10.85,-24.34 6.65,-6.07 14.38,-8.81 26.42,-8.81l2050.26 0c19.9,0 35.2,15.1 35.2,35.2l0 1248.68c0,20.36 -14.83,35.19 -35.2,35.19zm-2180.72 -1395.68l0 1457.79c0,37.97 39.14,76.64 76.61,76.64l2164.17 0c40.54,0 78.69,-40.59 78.69,-78.69l0 -1455.74c0,-22.89 -13.36,-43.46 -25.32,-55.42 -13.58,-13.58 -37.62,-25.34 -55.44,-25.34l-2155.88 0c-22.95,0 -44.51,12.31 -57.42,23.34 -6.96,5.95 -13,15.98 -17.18,24.24 -5.31,10.56 -8.23,17.05 -8.23,33.18z"/>
  <path class="fil0 str1" d="M1619.01 2252.23c0,-5.29 3.26,-0.33 1.21,0 -0.02,0 -1.21,5.79 -1.21,0zm-149.11 -2.08c0,-5.29 3.27,-0.32 1.22,0 -0.02,0.03 -1.22,5.8 -1.22,0zm302.35 -4.13c-3.84,16.5 -1.74,22.78 20.72,22.78l710.33 0c11.6,0 22.09,-0.5 24.86,-12.43 8.29,6.1 -0.25,3.77 9.98,8.64 12.59,6.01 111.99,6.01 126.91,1.95 7.99,-2.17 8.27,-1.5 10.14,-8.52 9.24,2.48 3.57,4.22 15.3,7.49 23.5,6.57 80.66,2.87 106.9,2.87 12.88,0 21.67,-2.52 26.91,-10.36 7.56,5.07 4.19,5.32 14.9,7.89 23.04,5.52 112.73,3.34 140.61,0.68 10.51,-1.01 14.01,0.32 16.38,-8.57 9.54,2.55 7.34,8.29 22.79,8.29l111.84 0c8.39,0 10.71,-1.92 12.4,-8.29 9.56,2.55 7.34,8.29 22.8,8.29l111.83 0c8.39,0 10.71,-1.92 12.43,-8.29 7.19,3.82 11.58,8.29 22.77,8.29l113.9 0c20.9,0 -4.69,-29.58 -9.13,-36.42 -9.24,-14.2 -7.07,-17.12 -26.06,-21.57 4.01,-6.01 4.19,-2.77 6.21,-10.33 -15.78,-23.54 -23.49,-43.91 -43.51,-45.56 0.38,-0.32 1,-1.27 1.18,-0.93l5.04 -5.29c0,-8.28 -10.49,-20.87 -14.48,-26.93 -6.29,-9.46 -8.36,-17.42 -22.79,-18.63 4.19,-15.72 9.43,-2.39 -8.29,-29 -2.8,-4.19 -5.69,-9.44 -9.01,-13.76 -4.17,-5.39 -7.14,-6.74 -15.83,-6.93l6.56 -7.97c-10.65,-15.5 -15.75,-35.04 -35.56,-39.67 5.46,-8.16 5.68,-7.26 -0.23,-16.19 -15.62,-23.57 -23.32,-21.07 -55.7,-21.07 -21.76,0 -46.1,-2.48 -66.55,3.96 -8.75,2.78 -9.5,-0.45 -21.84,-2.56 -15.97,-2.73 -76.16,-3.98 -89.76,0.72 -21.52,7.38 -11.46,-2.12 -39.3,-2.12 -18.42,0 -61.21,-3.12 -77.18,1.59 -7.11,2.1 -6.47,3.32 -9.89,3.47 -3.34,0.13 -13.48,-5.06 -24.76,-5.06 -17.63,0 -71.57,-3.15 -85.25,1.89 -10.61,3.92 -6.57,3.02 -17.7,-0.3 -11.85,-3.52 -89.91,-3.44 -100.37,0.33 -15,5.39 -8.77,-1.92 -26.54,-1.92l-80.78 0c-10.09,0 -13.46,4.16 -17.17,4.64 -6.12,0.75 -6.25,-4.64 -15.96,-4.64l-89.07 0c-9.21,0 -8.05,4.91 -13.97,4.52 -2.45,-0.15 -7.67,-4.52 -17.08,-4.52l-86.97 0c-9.11,0 -6.59,3.64 -14.25,3.41 -5.25,-0.17 -7.66,-3.41 -16.83,-3.41l-89.04 0c-10.39,0 -5.72,4.62 -15.1,2.61 -21.57,-4.59 -78.84,-8.16 -101.9,-3.62 -0.58,0.11 -5.74,1.48 -6.67,1.78 -15.18,5.07 -14.48,-2.85 -31.65,-2.85 -19.7,0 -66.45,-2.99 -83.41,1.58 -27.63,7.39 -11,-1.58 -32.57,-1.58 -20.65,0 -68.1,-2.89 -85.88,1.15 -5.16,1.15 -8.43,3.15 -10.8,3.62 -7.54,1.52 -7.87,-4.77 -21.37,-4.77l-80.76 0c-10.48,0 -11.41,3.4 -17.79,4.62 -7.97,1.5 -6.74,-4.62 -17.43,-4.62l-89.04 0c-13.36,0 -8.76,7.49 -20.75,2.35 -5.36,-2.27 2.03,-2.35 -8.26,-2.35 -19.3,0 -83.95,-3.02 -98.23,1.38l-7.89 3.14c-8.39,0.58 -4.31,-4.52 -13.97,-4.52l-89.07 0c-10.19,0 -7.67,2.28 -15.33,3.25 -8.99,1.17 -6.12,-3.25 -15.73,-3.25l-93.19 0c-12.13,0 -26.93,18.38 -26.93,26.92 0,4.64 1.64,4.54 4.15,8.28 -14.23,6.82 -10.87,0.63 -19.58,15.66 -19.12,33 -14.03,16.82 -9.41,34.04 -8.58,0.2 -11.86,1.45 -15.8,6.99l-17.55 28.36c-4.22,9.29 -0.62,6.92 4.34,14.36 -20.69,1.72 -29.23,28.35 -39.34,43.48 1.67,6.24 -0.02,4.55 6.22,6.22l0 4.14c-20.4,0.45 -24.39,21.02 -33.61,34.73 -4.23,6.31 -5.73,6.69 -5.73,17.02 5.68,1.34 4.64,1 8.26,4.14 -22,1.85 -28.26,20.67 -37.95,36.6 -4.16,6.89 -7.39,9.13 -7.61,19.32 7.42,1.72 9.74,4.14 18.65,4.14l211.24 0c17.47,0 19.17,-3.77 28.97,-10.36 4.35,8.19 6.25,10.36 18.65,10.36l107.7 0c14.03,0 16.97,-5.09 24.86,-10.36 3.6,6.79 7.86,10.36 16.55,10.36l105.62 0c12.73,0 24.18,-2.12 26.93,-12.43 3.4,4.92 1.1,5.47 7.52,9.07 12.58,7.03 97.65,3.36 116.73,3.36 33.42,0 23.66,-19.42 31.07,-22.78zm1194.96 -37.28l22.77 0 -6.22 8.29 -16.55 -8.29zm-167.75 0l20.69 0c-4.81,6.62 -3.44,1.7 -8.26,8.29 -2.37,-1.57 -4.02,-2.54 -6.34,-4.04 -0.35,-0.23 -0.9,-0.55 -1.28,-0.8 -0.34,-0.23 -0.89,-0.57 -1.24,-0.8 -4.29,-2.95 -1.22,-0.57 -3.57,-2.65zm-142.92 0l20.73 0c-3.35,2.92 -6.62,5.8 -10.36,8.29 -3.75,-2.49 -7.02,-5.37 -10.37,-8.29zm-144.95 0l20.71 0c-3.34,2.92 -6.61,5.8 -10.36,8.29 -3.74,-2.49 -7.01,-5.37 -10.35,-8.29zm-743.48 0l20.72 0c-3.34,2.92 -6.62,5.8 -10.36,8.29 -3.75,-2.49 -7.02,-5.37 -10.36,-8.29zm-147.03 0l22.76 0c-0.37,0.32 -0.99,0.27 -1.17,0.9 -0.18,0.63 -0.95,0.7 -1.2,0.87 -2.19,1.52 -1.67,1.15 -3.72,2.48 -2.32,1.5 -3.97,2.47 -6.32,4.04 -3.77,-2.49 -7.03,-5.37 -10.35,-8.29zm-145.44 0.48l21.17 -0.48c-0.38,0.32 -1,0.27 -1.17,0.9 -0.18,0.63 -0.95,0.7 -1.2,0.87 -2.22,1.52 -1.68,1.15 -3.74,2.48 -2.3,1.5 -3.95,2.47 -6.32,4.04l-8.74 -7.81zm-148.65 -0.48l20.72 0c-0.38,0.32 -1,0.27 -1.18,0.9l-11.26 7.39 -4.86 -5.46c-0.31,-0.29 -0.85,-0.73 -1.13,-0.98l-2.29 -1.85zm1928.07 -10.33c6.26,4.17 10.26,8.04 20.72,8.26l0 4.15c-7.24,1.94 -4.65,0.8 -8.29,6.21 -7.32,-4.89 -8.53,-5.94 -18.65,-8.29 4.05,-6.01 4.2,-2.77 6.22,-10.33zm-142.89 -2.08c8.61,5.75 6.49,10.04 20.72,10.34l0 4.15c-6.24,1.67 -4.57,-0.03 -6.22,6.21 -7.46,-1.98 -9.93,-5.77 -20.71,-8.29 4.54,-6.76 5.41,-2.87 6.21,-12.41zm-244.39 0l16.58 12.41 -24.84 0c6.14,-8.38 7.24,-0.12 8.26,-12.41zm-140.81 0c2.82,10.54 4.64,4.63 10.36,12.41l-20.73 0c2.45,-3.64 6.99,-9.93 10.37,-12.41zm-304.43 -43.48l18.63 0c-10.44,9.09 -7.75,11.13 -5.87,28.63 0.24,2.38 2.02,15.13 3.09,17.63 2.15,4.87 1.77,3.37 7.37,7.14l2.47 1.65c0.25,0.17 0.84,0.52 1.22,0.84l-19.92 -3.34c3.87,-3.15 2.25,1.12 4.69,-5.79 2.27,-6.4 -0.3,-13.33 -0.92,-18.15 -2.49,-19.08 0.77,-18.6 -10.76,-28.61zm-420.4 39.34c0.27,12.59 2.62,8.14 8.26,16.55l-20.7 0c5.92,-8.06 5.25,-0.27 11.21,-13.63l1.23 -2.92zm-147.06 -39.34l16.58 0c-6.47,5.62 -8.19,8.74 -10.26,18.72 -1.75,8.49 -4.25,17.48 -4.25,26.84 0,8.79 -0.25,0.22 2.92,5.34 4.35,6.97 -0.1,-4.4 3.3,4.99l-18.62 0c1.74,-4.82 0.45,-1.52 3.47,-4.79 8.11,-8.69 6.11,-4.75 8.93,-22.14 4.34,-27.01 7.69,-14.4 -2.07,-28.96zm-147.03 41.42c0.27,0.44 0.5,0.69 0.59,1.44 0.73,5.17 7.85,10.41 9.76,13.03l-22.78 0c7.11,-9.68 9.16,-0.48 12.43,-14.47zm-134.6 -35.23c0,-2.79 -2.25,-1.15 -4.15,-8.26l16.55 0c-1.97,5.47 -3.56,3.82 -7.64,8.91 -2.97,3.69 -4.21,7.84 -5.99,12.63 -3.41,9.14 -7.06,19.2 -9.13,28.16l8.28 8.26 -22.78 0c4.04,-5.51 6.01,-3.79 10.28,-8.36 3.8,-4.07 3.67,-6.81 5.76,-12.85 2.32,-6.64 8.82,-21.7 8.82,-28.49zm-149.13 -8.26l18.65 0c-8.29,11.31 -4.8,-4.92 -17.75,27.81 -11.58,29.33 -12.61,15.75 -2.98,30.15l-20.69 0c8.39,-11.43 7.44,3.37 26.46,-42.08 4.07,-9.76 -1.05,-5.99 -3.69,-15.88zm-155.32 45.55c0.8,9.54 1.67,5.65 6.21,12.41l-22.76 0 16.55 -12.41zm1841.1 -4.14l0.62 0.6c-0.05,-0.02 -0.82,-0.4 -0.62,-0.6zm-244.39 0c0,-5.29 3.29,-0.35 1.25,0 -0.02,0 -1.25,5.77 -1.25,0zm-1596.71 0l0.62 0.6c-0.05,-0.02 -0.82,-0.4 -0.62,-0.6zm1981.91 -2.07l0.63 0.6c-0.05,-0.02 -0.82,-0.4 -0.63,-0.6zm-1540.79 0c-0.75,-3.92 2.62,-7.37 1.32,-1.33 -0.05,0.16 0.05,8.55 -1.32,1.33zm1397.9 -2.08l0.63 0.63c-0.05,-0.05 -0.82,-0.42 -0.63,-0.63zm-403.82 -35.19l18.62 0c-1.55,2.29 -6.22,6.97 -6.22,8.26 0,8.89 5.95,16.78 6.22,29.01 -0.27,-0.45 -0.57,-1.7 -0.67,-1.4l-2.8 -7.56c-4.17,-13.41 -2.84,-17.62 -15.15,-28.31zm-702.06 26.91l2.07 0 0 10.36 -2.07 0 0 -10.36zm-731.07 8.28l0.62 0.63c-0.05,-0.05 -0.82,-0.42 -0.62,-0.63zm1592.59 -2.06c0,-5.3 3.28,-0.33 1.23,0 -0.03,0 -1.23,5.76 -1.23,0zm242.3 -2.07l0.62 0.62c-0.05,-0.05 -0.83,-0.43 -0.62,-0.62zm-1832.82 0l0.63 0.62c-0.05,-0.05 -0.83,-0.43 -0.63,-0.62zm439.05 -2.08c0,-5.29 3.27,-0.32 1.23,0 -0.03,0 -1.23,5.77 -1.23,0zm1532.51 -2.07l0.62 0.62c-0.02,-0.05 -0.82,-0.42 -0.62,-0.62zm-140.82 0l0.63 0.62c-0.05,-0.05 -0.83,-0.42 -0.63,-0.62zm-242.29 0c0,-5.29 3.27,-0.32 1.22,0 -0.02,0 -1.22,5.79 -1.22,0zm-1586.38 0l0.63 0.62c-0.05,-0.05 -0.82,-0.42 -0.63,-0.62zm1826.6 -4.14l0.63 0.62c-0.05,-0.05 -0.83,-0.42 -0.63,-0.62zm-1383.41 -10.36l-4.13 12.43c0.49,-5.94 -0.33,-2.15 1.32,-6.97 2.52,-7.34 1.1,-2.99 2.81,-5.46zm-441.47 10.7l6.57 -8.63c-1.27,5.44 -1.87,6.09 -4.14,10.36l-2.43 -1.73zm1582.59 -2.42c0.2,-0.19 0.6,0.33 0.6,0.63l-0.6 -0.63zm-855.31 -8.28c0,-7.57 -1.2,-8.46 -8.28,-10.34 0,-0.02 0.64,-7.83 14.42,-3.04 3.82,1.35 -0.12,-2.88 4.19,3.04 -13.35,3.55 -3.54,10.48 -12.4,20.7 1.07,-4.65 2.07,-4.77 2.07,-10.36zm1095.53 6.21l0.62 0.63c-0.05,-0.05 -0.82,-0.43 -0.62,-0.63zm-242.29 -2.07c0,-5.29 3.26,-0.32 1.22,0 -0.02,0 -1.22,5.79 -1.22,0zm240.22 -2.07l0.62 0.62c-0.05,-0.05 -0.83,-0.4 -0.62,-0.62zm-8.29 -12.41l8.29 0c-0.8,9.61 2.22,3.62 -4.15,8.26 -1.62,-6.11 -0.85,-3.34 -4.14,-8.26zm153.25 -4.14l0 4.14c-7.47,1.98 -5.52,0.17 -6.19,8.26 -7.37,-4.91 -4.52,-7.44 -14.51,-8.26 3.9,-14.6 7.29,-4.44 20.7,-4.14zm-397.62 2.07l16.58 0 -6.22 12.41c-1.62,-6.09 -0.29,-4.4 -9.21,-11.51 -0.22,-0.18 -0.77,-0.57 -1.15,-0.9zm-281.65 0l18.65 0c-3.2,4.57 -0.36,2.57 -6.22,4.14 0,11.09 2.24,21.17 4.49,30.71 4.87,20.52 5.72,13.73 14.15,21.04l-22.39 -1.67c4.05,-2.87 6.64,-3.92 7.47,-8.96 0.6,-3.77 -2.5,-13.58 -3.2,-16.78 -3.89,-17.64 -1.32,-18.39 -12.95,-28.48zm-281.66 0l16.57 0c-8.31,12.38 -6.21,1.65 -6.21,35.19 0,12.37 3.12,14.26 7.44,17.41l-19.87 3.29c0.38,-0.32 1.07,-1.2 1.25,-0.82l5.91 -4.44c5.35,-6.29 3.2,-20.32 3.2,-34.08 0,-9.41 -4.42,-10.78 -8.29,-16.55zm-124.24 2.07c-12.26,3.27 -8.29,10.16 -8.29,43.49 0,7.16 3.52,3.84 8.29,10.33l-22.79 0c3.19,-4.37 5.86,-5.26 10.36,-8.26 0,-9.44 2.09,-36.65 0.59,-40.07 -2.37,-5.39 -16.6,-10.58 4.73,-8.78 7.78,0.67 1.91,-3.77 7.11,3.29zm-445.27 -2.07c5.34,-2.47 1.72,-0.85 6.54,-1.4 1.48,-0.15 5.42,-0.57 10.04,-0.67l0 4.14c-7.16,1.9 -6.39,1.13 -8.29,8.26 -4.37,-3.19 -5.29,-5.87 -8.29,-10.33zm1066.79 -8.22c8.19,0.63 8.19,0.98 10.12,8.22l-12.44 0 2.32 -8.22zm-135.31 -0.54l9.2 8.29 -17.02 0.47 7.82 -8.76zm-138.31 0.47l8.29 8.29 -16.57 0c1.8,-4.94 2.65,-4.52 8.28,-8.29zm-138.74 -2.07c2.87,10.78 1.98,1.75 8.29,10.36l-16.58 0c1.83,-6.82 3,-6.84 8.29,-10.36zm-1087.26 8.29l18.64 0c-3.22,8.86 -1.57,-0.08 -12.42,12.4 -1.48,-6.31 -3.22,-7.93 -6.22,-12.4zm1636.07 2.07c2.95,-12.71 3.83,-6.44 12.41,-4.14 -4.37,5.99 -1.67,4.14 -12.41,4.14zm-697.91 -4.14c6.11,-1.65 3.35,-0.85 8.26,-4.15 5.07,3.4 6.49,3.28 8.29,8.29 -11.03,0 -11.83,2.29 -16.55,-4.14zm-124.27 2.07l-14.5 0c5.99,-8.96 8.51,-8.96 14.5,0zm-155.32 2.07c1.93,-7.24 0.77,-4.67 6.22,-8.29 7.24,1.93 4.64,0.77 8.29,6.22 -7.12,0.15 -8.06,1.4 -14.51,2.07zm-126.33 -2.07l-14.51 0c5.62,-7.64 9.41,-7.62 14.51,0zm-140.82 0l-14.51 0c5.6,-7.64 9.39,-7.62 14.51,0zm-147.03 -8.29l6.56 7.96 -16.92 0.33c3.31,-2.92 6.59,-5.79 10.36,-8.29zm1373.04 -43.48l12.43 0 -2.32 8.18c-7.44,-1.94 -2.42,-1.99 -10.11,-4.04l0 -4.14zm-134.63 0l12.43 0c-1.62,6.11 -0.85,3.34 -4.14,8.28 -4.92,-3.32 -2.15,-2.52 -8.29,-4.14l0 -4.14zm436.98 -4.15c4.84,2.57 5.39,3.55 12.43,4.15l-7.81 8.73c-2.92,-9.64 -3.24,-2.27 -4.62,-12.88zm-169.83 4.15l14.51 0 19.3 40.74c4.07,7.31 5.76,6.09 7.64,13.1l-18.65 0c3.6,-13.48 9.59,0.47 -4.85,-28.31 -15.75,-31.47 -9.55,-14.1 -17.95,-25.53zm-403.82 0l14.5 0c-1.64,6.11 -0.84,3.34 -4.14,8.28 -6.94,-3.66 -5.84,-1.54 -10.36,-8.28zm-136.67 0l16.54 0 -6.56 7.96c-4.14,-2.7 -6.79,-3.6 -9.98,-7.96zm-134.98 0.32l16.93 -0.32c-3.22,4.36 -5.87,5.26 -10.36,8.28l-6.57 -7.96zm-136.32 -0.32l16.55 0c-5.89,8.05 -3.25,0.12 -6.22,8.28 -6.79,-1.82 -6.81,-3.02 -10.33,-8.28zm-136.7 0l16.58 0c-7.71,6.68 -9.62,10.38 -16.58,0zm-137.02 0.32l16.9 -0.32c-3.32,2.89 -6.59,5.76 -10.33,8.28l-6.57 -7.96zm-136.35 -0.32l14.5 0c-5.59,7.64 -9.38,7.61 -14.5,0zm-138.74 0l14.5 0c-6.02,8.93 -8.51,8.93 -14.5,0zm-136.7 0l14.5 0c-7.51,6.53 -8.04,9.63 -14.5,0zm-149.1 0l22.78 0c1.43,3.99 2,-1.42 -1.49,2.84 -5.8,7.17 -21.29,33.2 -21.29,40.64 0,8.27 -0.36,1.02 1.99,4.22 0.23,0.27 0.65,0.84 0.9,1.15l-25.67 2.92c8.42,-7.31 5.85,1.19 15.91,-19.3 14.13,-28.86 12.43,-24.16 6.87,-32.47zm1451.87 -8.24l8.61 7.76 -12.88 0.48 4.27 -8.24zm-134.73 -0.05l8.74 7.81 -12.88 0.48c3.22,-4.82 2.7,-2.25 4.14,-8.29zm-134.27 0.32c3.39,2.2 6.67,5.07 10.01,7.97l-16.58 0 6.57 -7.97zm-134.61 0c3.4,2.2 6.67,5.07 10,7.97l-16.56 0 6.56 -7.97zm-132.9 -0.32l6.57 7.96 -16.93 0.33c3.35,-2.9 6.62,-5.77 10.36,-8.29zm-138.39 0.32c4.14,2.67 6.79,3.6 9.99,7.97l-16.55 0 6.56 -7.97zm-135.42 -0.77l9.18 8.26 -17.03 0.48 7.85 -8.74zm-142.44 8.74c2.94,-8.16 0.29,-0.23 6.21,-8.29 4.92,3.29 2.15,2.5 8.29,4.14 -4.62,6.29 -3.6,4.15 -14.5,4.15zm-136.7 0c2.97,-8.16 0.33,-0.23 6.22,-8.29 4.94,3.29 2.16,2.5 8.28,4.14 -4.59,6.29 -3.57,4.15 -14.5,4.15zm-136.67 0c2.89,-10.82 7.81,-8.97 12.43,-2.08 -5.77,2.77 -4.02,2.08 -12.43,2.08zm-124.27 -2.08l-14.48 0c7.52,-6.54 8.04,-9.63 14.48,0zm-136.67 -2.07c-7.05,6.11 -3.75,4.09 -12.44,2.07 2.08,-1.44 -1.67,-1.2 5.17,-2.62 5.82,-1.22 -0.45,-1.07 7.27,0.55zm1598.78 -45.56l20.72 0c-2.14,9.19 -4.22,5.07 -2.17,12.56 6.36,23.51 20.99,34.6 22.86,37.15l-24.83 0c6.28,-9.07 5.99,-5.67 -4.07,-29.06 -6.22,-14.46 -4.12,-9.71 -12.51,-20.65zm-130.48 0l10.36 0c-0.95,11.61 -3.18,6.07 -10.36,4.15l0 -4.15zm-130.46 0l10.36 0c-1.27,4.72 0.55,4.85 -4.57,5.7 -6.61,1.11 -3.77,-1.83 -5.79,-5.7zm480.47 -6.21c8.88,2.37 5.09,5.26 16.57,6.21l-6.57 7.97c-5.34,-3.5 -7.16,-5.15 -16.22,-5.89 5.89,-8.07 3.27,-0.13 6.22,-8.29zm-613.02 6.21l12.43 0c-5.79,8.67 -6.61,8.67 -12.43,0zm-132.53 0l12.43 0c-4.99,9.39 -6.39,9.01 -12.43,0zm-132.56 0l14.51 0c-5.99,8.96 -8.52,8.96 -14.51,0zm-132.53 0l14.49 0c-7.52,6.54 -8.02,9.64 -14.49,0zm-132.55 0l14.51 0c-7.52,6.54 -8.04,9.64 -14.51,0zm-134.6 0l14.48 0c-6.44,9.64 -6.96,6.54 -14.48,0zm-132.55 0l14.5 0c-7.51,6.54 -8.03,9.64 -14.5,0zm-132.53 0c8.96,-2.1 7.19,-5.07 12.41,2.08 -8.72,2.32 -6.64,6.54 -12.41,-2.08zm-134.62 0c5.76,-2.77 4.01,-2.07 12.42,-2.07 -2.89,10.81 -7.81,8.96 -12.42,2.07zm-122.2 -2.07l0 4.15 -8.26 0c4.67,-6.4 -1.35,-3.32 8.26,-4.15zm1547.04 2.07l-12.44 0c5.8,-8.66 6.62,-8.66 12.44,0zm-130.49 0l-12.43 0c5.79,-8.66 6.64,-8.66 12.43,0zm-130.48 0l-12.41 0c5.8,-8.66 6.62,-8.66 12.41,0zm-130.46 0l-12.43 0c5.8,-8.66 6.65,-8.66 12.43,0zm-130.48 0l-14.48 0c5.99,-8.96 8.49,-8.96 14.48,0zm-132.53 -4.14l0 4.14 -12.43 0c2.67,-9.96 3.55,-6.21 12.43,-4.14zm-132.55 4.14l-12.41 0c3.92,-5.87 9.21,-11.98 12.41,0zm-137.14 -8.73c3.76,5.39 2.97,2.62 4.61,8.73l-12.43 0 7.82 -8.73zm-134.16 0.44l8.29 6.22c-9.49,2.22 -5.02,2.22 -14.51,0 0.38,-0.32 1.03,-1.24 1.18,-0.92l5.04 -5.3zm-126.31 6.22l-12.43 0c7.09,-6.14 6.71,-8.54 12.43,0zm-132.56 0l-12.43 0c5.35,-7.26 7.74,-6.99 12.43,0zm-132.52 0l-14.51 0c7.51,-6.54 8.04,-9.63 14.51,0zm-134.63 0l-12.44 0c5.82,-8.66 6.65,-8.66 12.44,0zm1557.37 -43.49l10.36 0c-3.05,11.37 -6.39,5.94 -10.36,0zm-126.34 0l10.36 0c-5.49,8.24 -4.84,8.24 -10.36,0zm-128.38 0l10.36 0c-4.8,6.52 -5.6,6.52 -10.36,0zm-128.41 -2.06l10.35 0c-1.24,4.71 0.55,4.84 -4.57,5.68 -6.58,1.13 -3.74,-1.82 -5.78,-5.68zm-128.39 0l10.34 0c-1.26,4.71 0.57,4.84 -4.55,5.68 -6.61,1.13 -3.77,-1.82 -5.79,-5.68zm-128.41 0l10.36 0c-2.47,9.25 -2.5,5.96 -10.36,4.14l0 -4.14zm900.87 8.28c-3.17,-4.56 -0.33,-2.57 -6.22,-4.14l0 -4.14c6.07,-1.45 3,0.27 6.22,-4.15 4.27,2.27 4.91,2.87 10.36,4.15 -3.2,4.36 -5.87,5.26 -10.36,8.28zm-1029.28 -8.28l10.36 0c-3.97,5.94 -7.31,11.35 -10.36,0zm-130.45 0l12.42 0c-5.81,8.65 -6.64,8.65 -12.42,0zm-128.42 0l10.36 0c-5.51,8.23 -4.84,8.23 -10.36,0zm-130.45 0l10.36 0c-5.52,8.23 -4.87,8.23 -10.36,0zm-130.49 0l12.44 0c-7.09,6.16 -6.71,8.53 -12.44,0zm1428.97 -4.15c9.63,0.8 3.64,-2.22 8.29,4.15 -9.94,4.59 -5.3,1.52 -8.29,-4.15zm-111.82 4.15c-5.06,2.09 -1.67,1.39 -8.29,0 4.5,-6.15 3.78,-6.15 8.29,0zm-118.04 0l-10.36 0c4.79,-6.52 5.56,-6.52 10.36,0zm-128.41 -4.15c9.6,0.8 3.61,-2.22 8.29,4.15l-8.29 0 0 -4.15zm-115.98 0c5.84,0 3.84,0.89 6.21,4.15l-12.43 0c2.45,-3.5 0.3,-4.15 6.22,-4.15zm-113.91 4.15l-12.41 0c5.8,-8.67 6.62,-8.67 12.41,0zm-120.09 0l-12.44 0c5.32,-7.27 7.74,-7 12.44,0zm-122.2 0l-8.29 0c2.45,-9.14 5.84,-9.14 8.29,0zm-863.6 -4.15c14.51,-3.37 5.79,-0.92 18.65,2.07 -3.72,5.07 -2.82,4.47 -10.36,6.22 -4.92,-3.3 -2.14,-2.5 -8.29,-4.14l0 -4.15zm743.47 0c-4.18,5.74 -2.91,5.64 -10.35,2.07 4.22,-5.72 2.92,-5.64 10.35,-2.07zm-122.17 2.07l-8.28 0c4.49,-6.14 3.77,-6.14 8.28,0zm-120.11 0l-10.37 0c4.78,-6.52 5.58,-6.52 10.37,0zm-122.2 0l-10.36 0c4.8,-6.52 5.57,-6.52 10.36,0zm-120.12 -2.07c-2.45,1.57 0.05,0.92 -4.49,1.72 -2.92,0.5 -5,0.35 -7.92,0.35 5.22,-7.14 3.45,-4.15 12.41,-2.07zm-128.38 -2.08c9.13,0 -0.5,-0.14 4.46,1.76l3 1.12c11.1,4.44 3.64,-2.02 9.09,5.41 -17,3.98 -2.75,0.53 -22.77,-4.14 2.42,-3.5 0.3,-4.15 6.22,-4.15z"/>
  <path class="fil0 str1" d="M2004.21 2359.92l-31.08 142.88c32.93,0 59.96,2.08 91.12,2.05 55.76,0 353.3,-2.07 374.54,0.33 14.41,1.6 77.88,4.82 93.61,1.7 10.86,-2.15 3.15,-11.14 -1,-32.18 -2.97,-15.1 -5.69,-26.21 -9.06,-38.57 -3.49,-12.78 -5.64,-26.46 -8.71,-38.92l-8.27 -39.36c-83.52,0 -167.05,0 -250.57,0 -85.7,0 -166.68,2.07 -250.58,2.07z"/>
  <path class="fil1" d="M2107.65 1259.08l324.38 -549.65m-58.68 2.19l-293.42 500.18"/>
  <path class="fil1" d="M2373.35 711.62l-293.42 500.18 -319.31 0m0 47.28l347.03 0 324.38 -549.65"/>
  <path class="fil1" d="M2392.96 982.26l-252.53 0m0 37.39l274.46 0"/>
  <path class="fil0 str2" d="M2187.82 1081.4l-213.77 0 -172.75 -303.66 174.47 -297.39 208.39 0.47c5.05,30.09 30.11,52.96 60.25,52.96 33.79,0 61.19,-28.73 61.19,-64.17 0,-35.44 -27.4,-64.17 -61.19,-64.17 -27.85,0 -51.36,19.53 -58.76,46.23 -0.05,0.17 -0.09,0.33 -0.13,0.49l-226.24 0.08 -192.86 326.8 188.98 332.35 232.08 2.39c6.6,27.96 30.68,48.69 59.39,48.69 33.78,0 61.18,-28.73 61.18,-64.17 0,-35.44 -27.4,-64.17 -61.18,-64.17 -28.22,0 -51.98,20.03 -59.05,47.27zm56.59 -577.39c-19.11,0 -34.6,-15.4 -34.6,-34.4 0,-19 15.49,-34.41 34.6,-34.41 19.12,0 34.61,15.41 34.61,34.41 0,19 -15.49,34.4 -34.61,34.4zm2.46 628.7c-19.12,0 -34.61,-15.41 -34.61,-34.41 0,-19 15.49,-34.4 34.61,-34.4 19.11,0 34.61,15.4 34.61,34.4 0,19 -15.5,34.41 -34.61,34.41z"/>
  <path class="fil0 str3" d="M2301.64 798.07l213.77 0 172.75 303.66 -174.47 297.39 -208.39 -0.46c-5.05,-30.1 -30.1,-52.97 -60.25,-52.97 -33.79,0 -61.18,28.73 -61.18,64.17 0,35.44 27.39,64.17 61.18,64.17 27.85,0 51.36,-19.52 58.76,-46.24 0.05,-0.16 0.09,-0.31 0.13,-0.47l226.24 -0.08 192.86 -326.81 -188.98 -332.35 -232.08 -2.4c-6.6,-27.95 -30.68,-48.68 -59.39,-48.68 -33.78,0 -61.18,28.73 -61.18,64.17 0,35.44 27.4,64.17 61.18,64.17 28.22,0 51.98,-20.03 59.05,-47.27zm-56.59 577.39c19.11,0 34.61,15.4 34.61,34.4 0,19 -15.5,34.4 -34.61,34.4 -19.12,0 -34.61,-15.4 -34.61,-34.4 0,-19 15.49,-34.4 34.61,-34.4zm-2.46 -628.69c19.12,0 34.61,15.4 34.61,34.41 0,18.99 -15.49,34.39 -34.61,34.39 -19.11,0 -34.6,-15.4 -34.6,-34.4 0,-19 15.49,-34.4 34.6,-34.4z"/>
 </g>
</svg>
