<?xml version="1.0" encoding="UTF-8"?>
<!DOCTYPE svg PUBLIC "-//W3C//DTD SVG 1.1//EN" "http://www.w3.org/Graphics/SVG/1.1/DTD/svg11.dtd">
<!-- Creator: CorelDRAW -->
<svg xmlns="http://www.w3.org/2000/svg" xml:space="preserve" width="43.3492mm" height="30.48mm" version="1.1" style="shape-rendering:geometricPrecision; text-rendering:geometricPrecision; image-rendering:optimizeQuality; fill-rule:evenodd; clip-rule:evenodd"
viewBox="0 0 4334.92 3048"
 xmlns:xlink="http://www.w3.org/1999/xlink"
 xmlns:xodm="http://www.corel.com/coreldraw/odm/2003">
 <defs>
  <style type="text/css">
   <![CDATA[
    .str1 {stroke:#FEFEFE;stroke-width:8.47;stroke-miterlimit:28.6537}
    .str0 {stroke:#FEFEFE;stroke-width:25.4;stroke-miterlimit:28.6537}
    .fil0 {fill:none;fill-rule:nonzero}
    .fil1 {fill:#FEFEFE}
   ]]>
  </style>
 </defs>
 <g id="Capa_x0020_1">
  <metadata id="CorelCorpID_0Corel-Layer"/>
  <path class="fil0 str0" d="M542.81 520.13c-10.81,3.6 -25.54,10.8 -33.07,16.04 -40.6,28.16 -56.65,64.5 -98.23,224.29 -31.43,120.49 -60.58,172.88 -112.31,202.02 -18.34,10.48 -18.99,16.04 -2.62,20.3 4.26,0.98 8.51,3.93 9.5,6.55 0.98,2.62 -5.57,18.33 -14.41,35.36 -59.26,110.34 -102.48,219.7 -96.59,243.28 2.95,11.13 10.48,14.41 52.72,21.28 42.23,7.21 69.08,15.72 87.42,27.83 17.03,11.46 18.99,21.61 7.86,42.57 -30.13,55.33 -51.41,99.21 -59.59,123.11 -8.52,24.56 -9.5,32.09 -9.5,67.45 0,22.27 -0.98,40.27 -2.29,40.27 -4.59,0 -29.14,-34.7 -38.64,-54.68 -5.56,-11.46 -13.1,-33.07 -16.37,-47.8 -6.88,-27.5 -27.18,-180.74 -31.11,-233.13 -1.3,-16.37 -4.25,-39.95 -6.54,-53.04 -6.23,-32.42 -24.23,-66.47 -35.04,-66.47 -8.51,0 5.9,287.81 18.99,383.09 13.1,92.66 43.22,151.6 89.39,175.17 29.8,15.06 53.37,18.99 104.12,17.36 40.6,-1.31 46.82,-0.99 48.79,3.6 3.27,7.86 6.87,449.23 3.93,458.4 -1.64,4.25 -9.83,16.7 -18.67,27.83 -22.59,28.48 -32.41,50.09 -36.67,79.56 -3.93,28.49 -9.17,38.97 -21.94,43.88 -22.59,8.84 -60.57,16.04 -115.25,22.59 -60.57,6.55 -95.28,12.77 -112.64,19.32 -9.49,3.93 -9.49,3.93 -7.53,24.88 2.95,30.78 14.41,44.21 37.66,44.21 14.4,0 22.92,-8.52 28.81,-27.84 2.62,-10.15 7.53,-19.31 10.81,-20.95 14.07,-7.53 80.87,-14.08 163.38,-15.72 98.88,-1.96 92.01,-4.91 75.64,32.75 -16.7,37.32 -22.6,57.95 -22.6,75.96 0,21.28 7.21,31.1 27.84,38.96 12.77,4.91 16.7,5.24 24.88,1.97 15.72,-6.55 21.94,-23.25 27.5,-74.33 5.9,-51.41 9.5,-67.45 16.38,-73.01 3.6,-2.95 20.3,-2.62 75.96,1.63 74.98,5.57 161.09,14.08 164.69,16.37 1.31,0.99 3.28,10.48 4.59,21.61 2.29,22.92 5.89,29.14 17.02,29.14 13.43,0 34.06,-10.15 38.64,-19.31 8.19,-15.39 12.44,-35.69 8.84,-42.24 -3.93,-7.2 -34.71,-23.9 -57.63,-31.43 -25.86,-8.19 -67.77,-14.41 -124.42,-18.01 -28.81,-1.97 -57.63,-4.59 -64.17,-5.57l-11.79 -1.64 -2.29 -21.93c-2.95,-26.85 -14.08,-61.23 -31.76,-96.59 -13.1,-25.54 -13.76,-28.82 -17.03,-70.07 -4.26,-59.27 1.97,-414.85 7.2,-421.4 11.79,-14.08 142.76,-18.67 206.28,-6.88l34.06 6.22 16.69 -18.99c10.48,-11.46 19.32,-18.33 23.58,-18.33 16.37,0 35.69,25.86 48.13,63.19 5.89,17.68 6.88,29.8 7.53,90.7 0.98,84.47 3.93,98.88 41.59,196.45 40.92,106.09 46.49,138.83 40.92,245.57 -1.96,33.4 -2.29,78.91 -1.31,101.51 2.62,60.24 9.5,78.58 29.14,78.58l9.5 0 -2.29 -32.42c-2.29,-33.72 0.65,-51.73 10.15,-59.26 5.56,-4.91 12.44,-0.66 64.83,38.63 58.94,43.88 104.78,58.61 156.51,50.43 29.14,-4.59 48.46,-9.82 48.46,-13.1 0,-7.53 -36.67,-41.91 -69.74,-65.48 -20.63,-14.74 -45.19,-35.37 -54.36,-45.52 -39.94,-44.53 -74,-138.5 -90.04,-248.19 -7.2,-49.11 -11.13,-87.75 -19.97,-206.28 -11.13,-150.28 -18.01,-206.6 -33.07,-281.58 -11.46,-57.3 -12.77,-59.92 -26.85,-63.52 -48.79,-13.1 -92.01,-19.65 -210.21,-31.44 -112.96,-11.46 -157.16,-18.99 -164.37,-27.83 -13.09,-16.04 -9.49,-61.88 7.21,-94.62 8.51,-17.36 18,-23.25 36.34,-23.25 19.65,0 56.65,-9.5 92.33,-24.23 16.05,-6.22 46.83,-15.39 68.44,-19.97 47.15,-10.48 63.19,-17.03 80.87,-32.75l13.1 -11.78 6.55 13.09c11.13,21.29 25.54,26.2 27.17,9.17 0.99,-8.84 2.3,-10.48 9.83,-10.48 12.77,-0.33 13.42,-2.29 5.89,-18.33 -3.6,-7.86 -6.55,-18.99 -6.55,-24.56 0,-9.17 -1.64,-11.13 -13.75,-16.04 -8.84,-3.61 -22.92,-5.9 -37.33,-5.9 -20.63,0 -26.85,1.31 -49.11,12.12 -14.41,6.87 -30.78,14.73 -36.67,17.02l-10.81 4.91 -6.87 -15.39c-18.34,-41.91 -46.17,-41.58 -93.32,1.31 -30.78,27.84 -44.2,37.33 -47.48,34.06 -3.6,-3.61 2.29,-30.45 9.5,-44.53 2.94,-5.57 14.73,-20.3 26.19,-32.75 20.63,-21.93 37,-49.44 37,-62.54 0,-3.6 -8.19,-18.33 -18.34,-33.39l-18.66 -26.85 7.2 -11.79c3.61,-6.55 6.88,-16.04 6.88,-20.95 0,-8.19 -1.64,-9.83 -12.12,-11.79 -18.99,-3.28 -34.38,-15.39 -45.18,-34.71 -7.86,-14.73 -9.82,-22.26 -10.81,-46.49 -1.63,-32.09 3.28,-50.43 18.01,-68.11 19.65,-23.25 37.66,-23.9 68.76,-2.94 10.48,7.2 22.92,13.09 27.51,13.09 12.11,0 29.14,-19.64 43.87,-51.08 6.88,-14.4 16.7,-32.08 21.94,-39.61l9.49 -14.08 -7.53 -13.76c-11.13,-21.61 -9.82,-60.57 3.61,-98.88 5.56,-16.37 10.15,-33.07 10.15,-37.65 0,-21.61 -41.26,-64.83 -79.57,-83.82 -50.42,-24.56 -118.85,-32.09 -160.77,-17.68l0.01 0zm-174.19 587.4c3.6,29.14 4.91,72.36 2.29,76.62 -3.28,5.24 -53.7,3.93 -58.94,-1.31 -2.62,-2.62 3.93,-18.99 20.3,-53.05 23.25,-48.78 23.58,-49.44 29.14,-42.56 3.28,3.93 6.22,13.1 7.2,20.3l0.01 0z"/>
  <path class="fil0 str0" d="M3667.77 531.58c-36.02,9.5 -83.49,35.69 -131.95,72.37l-18.67 14.4 19.32 36.67c24.56,45.84 36.02,80.88 38.64,116.57 1.96,26.52 2.62,28.16 15.72,42.89 7.53,8.51 17.68,25.54 22.59,37.66 11.46,28.81 19.97,40.6 33.07,46.16 11.79,4.91 15.39,4.26 52.06,-10.15 12.44,-4.58 26.52,-8.18 31.11,-7.53 8.18,0.98 8.51,1.64 7.85,22.27 -2.29,67.77 -3.6,78.25 -10.8,88.4 -10.15,14.41 -24.89,48.46 -30.78,70.73 -7.86,31.1 -14.41,82.51 -21.61,166.66 -6.87,79.89 -9.49,90.69 -21.94,94.62 -22.92,7.21 -97.24,18.99 -127.04,20.63 -62.54,2.95 -98.88,-8.84 -140.79,-44.86 -12.44,-11.13 -27.18,-22.26 -32.42,-25.21 -14.08,-7.53 -36.34,-3.93 -64.83,10.15 -29.14,14.41 -40.27,24.56 -37,34.38 1.64,5.9 4.92,6.88 18.99,7.21 31.44,0.32 48.79,4.58 56.98,14.4 4.25,4.91 7.2,9.82 6.22,10.48 -0.98,0.98 -43.22,-1.64 -93.97,-5.89l-92.01 -7.53 -6.22 7.53c-3.6,4.25 -6.22,11.13 -6.22,15.06 0,4.25 -1.64,11.79 -3.28,16.7 -3.27,8.51 -3.6,8.51 -32.09,7.2 -43.87,-1.96 -63.52,-12.44 -128.68,-67.45 -26.52,-21.94 -28.48,-24.56 -30.45,-38.96 -2.29,-18.34 -2.61,-84.48 -0.32,-82.19 0.98,0.98 4.58,13.1 7.86,26.52 10.15,42.9 17.02,47.81 50.09,35.04 9.5,-3.6 20.63,-6.55 24.89,-6.55 4.58,0 7.2,-1.97 7.2,-5.89 0,-7.21 -40.6,-203.99 -60.57,-293.05 -25.54,-113.95 -71.71,-291.08 -81.21,-310.08 -2.62,-5.23 -7.53,-8.51 -13.75,-9.16 -9.17,-1.31 -46.17,7.86 -51.4,12.44 -1.31,0.98 3.27,28.49 10.47,60.57 23.91,110.67 41.26,222.65 50.75,330.71 5.9,68.1 10.15,212.5 6.88,238.36 -2.62,20.63 -3.93,22.27 -52.06,66.14 -11.13,10.48 -18.66,20.3 -19.97,26.52l-2.3 10.15 -67.77 1.97c-37.33,1.31 -107.07,3.27 -155.2,4.58l-87.75 1.97 0 45.51c0,40.6 0.65,45.18 5.89,45.84 2.95,0.33 57.96,0.65 121.8,0.65 120.5,0.33 126.72,0.99 132.94,14.08 1.31,3.28 3.27,219.05 3.93,479.36l1.31 473.46 28.48 1.96c18.01,1.31 34.38,0.66 44.53,-1.96l16.37 -3.93 1.97 -464.95c1.31,-255.72 3.27,-472.8 4.58,-482.3l2.62 -17.35 315.97 0.65 316.29 0.33 7.54 -9.17 7.2 -9.16 28.81 7.2c15.72,3.93 44.2,10.15 62.87,13.75 18.99,3.6 40.93,9.82 49.11,13.75 14.74,7.53 15.06,7.86 16.05,24.89 0.65,9.82 -0.66,19.64 -2.62,21.93 -1.97,2.62 -26.85,12.12 -55.01,21.61 -109.69,36.35 -292.72,108.06 -366.07,143.74 -68.75,33.4 -76.61,44.86 -76.61,111.98 0,69.42 -10.48,109.37 -57.3,219.05 -62.54,145.71 -88.41,227.57 -77.6,243.94 1.31,2.29 8.18,6.54 15.39,9.82 19.64,9.17 18.99,17.02 -3.61,40.6 -19.31,20.3 -20.95,21.28 -102.81,59.92 -36.67,17.35 -72.03,42.89 -66.46,48.46 4.58,4.58 116.23,10.47 156.83,8.18 41.59,-1.96 69.75,-7.86 91.36,-18.33l12.76 -6.55 10.15 9.49c14.74,14.08 28.16,19.65 55.67,23.58 30.12,3.93 37.65,0.65 43.54,-19.32 4.92,-16.7 4.92,-31.76 -0.65,-66.14 -6.88,-42.89 -3.6,-61.23 24.88,-135.88 9.17,-23.25 24.23,-71.06 34.06,-106.42 23.57,-86.44 26.19,-94.3 28.48,-88.4 1.31,2.62 12.12,59.92 24.56,127.04 12.44,67.12 23.57,122.78 24.56,123.77 0.98,1.31 20.95,4.91 43.87,8.18 52.39,7.53 57.96,9.82 64.5,26.2 6.55,16.69 6.55,28.81 0,38.96 -13.09,19.65 -44.85,48.46 -76.61,69.41 -34.38,22.6 -45.84,35.37 -45.84,50.76 0,3.92 2.62,9.49 5.56,12.44 8.19,8.18 50.43,4.91 85.46,-6.22 24.23,-7.86 68.11,-31.11 83.17,-43.55 4.58,-4.26 6.22,-3.93 12.11,1.96 10.15,10.15 21.94,11.79 40.93,5.9 31.11,-10.15 36.67,-15.39 40.93,-38.97 5.24,-29.79 4.26,-82.18 -1.31,-107.39 -2.95,-11.79 -13.75,-39.62 -24.23,-62.21 -23.58,-50.1 -63.19,-166.66 -72.03,-211.19 -13.76,-68.44 -17.03,-150.29 -6.55,-160.44 6.55,-6.55 192.52,-10.15 209.22,-4.26l11.46 4.26 -0.98 62.21c-0.98,53.7 0,71.7 7.86,130.97 7.86,58.28 9.17,80.55 9.17,145.7 0,66.47 -0.99,81.21 -6.88,108.06 -12.44,56.64 -29.47,90.37 -54.35,108.37 -15.39,11.14 -13.75,10.81 -113.62,30.78 -42.24,8.51 -77.93,16.37 -79.24,17.68 -1.31,1.31 -0.65,15.06 1.64,30.78l3.6 28.49 25.22 0 25.21 0 3.93 -11.14c13.09,-40.27 47.47,-48.78 141.44,-34.7 71.06,10.48 95.61,8.18 138.51,-13.1 24.23,-12.11 28.15,-13.1 53.04,-13.1 14.73,0 53.04,3.61 85.13,7.86 32.09,4.59 72.36,9.17 89.39,10.15 18.01,1.31 34.38,4.26 38.63,7.21 4.26,2.62 10.48,11.46 14.08,19.97 9.5,22.26 14.74,26.85 30.45,26.85 23.91,-0.33 34.71,-14.41 34.71,-45.51l0 -19.65 -13.42 -3.6c-23.58,-6.55 -58.29,-12.45 -122.46,-21.29 -78.26,-10.8 -137.52,-20.62 -152.26,-25.21 -15.06,-4.58 -25.86,-14.4 -32.74,-30.45 -13.75,-31.1 -26.52,-117.22 -32.74,-222.65 -3.6,-60.25 -3.93,-275.36 -0.33,-291.41l1.97 -9.82 72.03 -0.66c39.62,-0.32 76.62,-1.63 82.51,-2.62 13.75,-2.61 25.87,-16.69 44.2,-52.71 34.38,-67.12 47.48,-134.9 61.56,-315.64 10.8,-139.81 19.65,-225.27 26.85,-258.67 10.8,-50.75 8.18,-71.05 -11.46,-83.16 -8.19,-5.24 -9.82,-0.99 -19.97,49.76 -15.39,79.9 -43.55,292.72 -60.91,460.69 -11.13,110.02 -32.74,155.53 -73.01,155.53 -5.89,0 -12.12,-0.98 -13.1,-1.96 -0.98,-1.31 2.95,-8.19 9.17,-15.39 16.37,-19.32 42.57,-71.71 52.39,-105.43 16.7,-58.29 17.68,-124.1 1.64,-169.94 -8.52,-24.88 -8.19,-31.76 1.63,-61.23 26.85,-78.25 35.36,-244.26 18.34,-358.86 -14.74,-98.23 -41.26,-182.37 -67.78,-213.81 -5.24,-5.89 -19.32,-15.06 -33.07,-21.28 -31.76,-14.73 -42.56,-23.58 -72.36,-58.61l-24.89 -29.8 -0.32 -58.93c-0.33,-66.8 -4.91,-89.39 -27.51,-137.52 -14.73,-31.44 -31.76,-48.13 -56.31,-55.34 -21.61,-6.55 -70.4,-6.55 -94.63,0l0 0z"/>
  <path class="fil0 str0" d="M1322.08 608.86c-2.62,4.25 -6.55,14.73 -8.51,23.25 -1.96,8.84 -8.51,32.41 -14.41,52.38 -29.46,97.58 -60.57,224.62 -100.19,409.94 -14.08,66.47 -26.19,124.75 -26.85,128.68 -0.98,6.88 1.64,8.51 23.58,15.72 43.54,13.75 48.13,11.13 60.9,-36.02l7.53 -26.52 0 45.84c0,30.12 -1.31,48.13 -3.93,52.71 -2.29,3.93 -15.39,16.38 -29.47,27.83 -61.88,50.43 -85.46,63.2 -124.09,66.8 -30.78,2.95 -37.33,-1.96 -43.55,-31.76 -3.6,-17.68 -0.33,-17.68 -157.16,-6.22 -23.25,1.64 -59.92,4.26 -80.88,5.24l-38.64 2.29 0 11.13c0,6.22 -0.32,11.46 -0.65,11.46 -0.66,0.33 -20.96,1.31 -45.19,2.62l-44.2 1.96 0 47.48 0 47.48 311.06 2.62c171.24,1.31 314.33,3.27 318.26,4.25 4.25,0.66 8.18,4.59 9.16,8.85 2.95,13.42 3.28,378.5 0.33,675.48l-2.94 295.01 9.82 3.93c5.89,2.29 22.92,3.6 46.82,2.94l37.65 -0.98 2.29 -374.9c1.64,-337.91 6.55,-588.39 11.14,-600.83 3.27,-8.51 22.59,-9.5 143.08,-8.84l120.17 0.98 0 -44.53c0,-24.23 0.33,-45.18 0.98,-46.82 0.98,-2.95 8.19,-2.62 -163.71,-9.17l-151.27 -5.89 -5.24 -14.08c-4.26,-10.81 -12.12,-19.65 -33.07,-37.33 -15.07,-12.44 -29.8,-27.18 -32.42,-32.41 -8.84,-17.03 -5.89,-169.94 5.24,-283.23 9.17,-93.97 30.12,-220.36 53.7,-322.84 6.22,-27.51 11.46,-51.74 11.46,-53.7 0,-4.26 -40.6,-18.01 -53.37,-18.01 -5.57,0 -10.48,2.62 -13.43,7.2l0 0.01z"/>
  <path class="fil1 str1" d="M1961.47 1322.46l-185.42 0 -149.83 -263.38 151.32 -257.94 180.75 0.41c4.38,26.1 26.11,45.93 52.26,45.93 29.3,0 53.06,-24.92 53.06,-55.65 0,-30.74 -23.76,-55.66 -53.06,-55.66 -24.16,0 -44.55,16.93 -50.97,40.1 -0.04,0.14 -0.08,0.28 -0.11,0.42l-196.23 0.07 -167.28 283.45 163.91 288.26 201.29 2.08c5.73,24.25 26.62,42.23 51.52,42.23 29.3,0 53.06,-24.92 53.06,-55.66 0,-30.74 -23.76,-55.66 -53.06,-55.66 -24.48,0 -45.08,17.37 -51.21,41zm49.08 -500.8c-16.58,0 -30.02,-13.36 -30.02,-29.83 0,-16.48 13.44,-29.84 30.02,-29.84 16.57,0 30.01,13.36 30.01,29.84 0,16.47 -13.44,29.83 -30.01,29.83zm2.13 545.3c-16.58,0 -30.02,-13.36 -30.02,-29.84 0,-16.48 13.44,-29.84 30.02,-29.84 16.57,0 30.01,13.36 30.01,29.84 0,16.48 -13.44,29.84 -30.01,29.84z"/>
  <path class="fil1 str1" d="M2060.18 1076.72l185.41 -0.01 149.84 263.39 -151.32 257.94 -180.75 -0.41c-4.38,-26.1 -26.11,-45.93 -52.26,-45.93 -29.31,0 -53.07,24.91 -53.07,55.65 0,30.74 23.76,55.66 53.07,55.66 24.16,0 44.55,-16.94 50.97,-40.11 0.04,-0.13 0.08,-0.27 0.11,-0.41l196.22 -0.07 167.29 -283.45 -163.92 -288.27 -201.29 -2.07c-5.73,-24.25 -26.61,-42.23 -51.51,-42.23 -29.3,0 -53.06,24.92 -53.06,55.66 0,30.74 23.76,55.65 53.06,55.65 24.47,0.01 45.08,-17.37 51.21,-40.99zm-49.08 500.79c16.58,0 30.02,13.36 30.02,29.84 0,16.48 -13.44,29.84 -30.02,29.84 -16.58,0 -30.01,-13.36 -30.02,-29.84 0.01,-16.48 13.44,-29.84 30.02,-29.84zm-2.13 -545.29c16.58,0 30.02,13.36 30.02,29.84 0,16.48 -13.44,29.84 -30.02,29.84 -16.58,0 -30.01,-13.36 -30.01,-29.84 0,-16.48 13.44,-29.84 30.01,-29.84z"/>
 </g>
</svg>
