<?xml version="1.0" encoding="UTF-8"?>
<!DOCTYPE svg PUBLIC "-//W3C//DTD SVG 1.1//EN" "http://www.w3.org/Graphics/SVG/1.1/DTD/svg11.dtd">
<!-- Creator: CorelDRAW -->
<svg xmlns="http://www.w3.org/2000/svg" xml:space="preserve" width="21.1666mm" height="21.1666mm" version="1.1" style="shape-rendering:geometricPrecision; text-rendering:geometricPrecision; image-rendering:optimizeQuality; fill-rule:evenodd; clip-rule:evenodd"
viewBox="0 0 2116.66 2116.66"
 xmlns:xlink="http://www.w3.org/1999/xlink"
 xmlns:xodm="http://www.corel.com/coreldraw/odm/2003">
 <defs>
  <style type="text/css">
   <![CDATA[
    .str1 {stroke:#93D0C8;stroke-width:42.33;stroke-miterlimit:22.9256}
    .str0 {stroke:#50ACEB;stroke-width:16.93;stroke-miterlimit:22.9256}
    .str3 {stroke:#93D0C8;stroke-width:10;stroke-miterlimit:22.9256}
    .str2 {stroke:#50ACEB;stroke-width:7.62;stroke-miterlimit:22.9256}
    .fil2 {fill:none}
    .fil1 {fill:none;fill-rule:nonzero}
    .fil3 {fill:#979EA9}
    .fil4 {fill:#50ACEB}
    .fil5 {fill:#93D0C8}
    .fil0 {fill:#50ACEB;fill-rule:nonzero}
   ]]>
  </style>
 </defs>
 <g id="Capa_x0020_1">
  <metadata id="CorelCorpID_0Corel-Layer"/>
  <g id="_2278573005008">
   <path class="fil0 str0" d="M1022.35 251.31c435.08,0 786.25,351.17 786.25,786.26 0,223.72 -93.17,424.9 -242.54,567.91 81.76,-121.45 129.56,-267.57 129.56,-424.59 0,-420.38 -342.42,-762.8 -762.81,-762.8 -282.4,0 -528.99,154.94 -660.8,383.82 99.84,-319.51 397.39,-550.6 750.34,-550.6z"/>
   <path class="fil1 str1" d="M1022.35 108.35c-512.34,0 -929.22,416.88 -929.22,929.22 0,288.76 132.58,547.19 339.9,717.76 6.53,5.69 12.81,11.65 19.54,17.12 39.38,39.17 87.4,71.49 144.44,92.14 17.68,8.71 35.58,16.84 53.99,24.19 113.86,49.89 239.29,78 371.35,78 512.33,0 929.21,-416.88 929.21,-929.21 0,-512.34 -416.88,-929.22 -929.21,-929.22z"/>
   <g>
    <g>
     <ellipse class="fil2" cx="1003.31" cy="772.38" rx="53.06" ry="55.65"/>
     <ellipse class="fil2" cx="1003.31" cy="772.38" rx="30.01" ry="29.83"/>
     <ellipse class="fil2" cx="1003.31" cy="772.38" rx="53.06" ry="55.65"/>
     <ellipse class="fil2" cx="1005.43" cy="1317.57" rx="30.01" ry="29.83"/>
     <path class="fil2" d="M954.24 1302.92c6.13,-23.63 26.73,-40.99 51.19,-40.99 29.31,0 53.06,24.91 53.06,55.64 0,30.73 -23.75,55.65 -53.06,55.65 -24.88,0 -45.77,-17.98 -51.5,-42.22"/>
     <polyline class="fil2" points="952.91,756.83 756.05,757.31 588.8,1040.71 754.49,1327.71 953.93,1331 "/>
     <polyline class="fil2" points="954.24,1302.92 768.86,1302.92 619.05,1039.58 770.34,781.69 950.88,781.69 "/>
     <path class="fil3" d="M950.25 772.38c0,30.73 23.75,55.64 53.06,55.64 29.3,0 53.05,-24.91 53.05,-55.64 0,-30.73 -23.75,-55.65 -53.05,-55.65 -24.33,0 -44.83,17.17 -51.1,40.58 -1.28,4.79 -1.96,9.85 -1.96,15.07zm23.05 0c0,-16.48 13.43,-29.83 30.01,-29.83 16.57,0 30.01,13.35 30.01,29.83 0,16.47 -13.44,29.83 -30.01,29.83 -16.58,0 -30.01,-13.36 -30.01,-29.83z"/>
     <path class="fil2" d="M770.34 781.69l164.64 0m0 -24.38l-178.93 0"/>
     <path class="fil2" d="M756.05 757.31l-167.25 283.4m30.25 -1.13l151.29 -257.89"/>
     <path class="fil2" d="M588.8 1040.71l165.69 287 199.44 3.29m0.31 -28.08l-185.38 0 -149.81 -263.34"/>
     <path class="fil2" d="M619.05 1039.58l151.29 -257.89 164.64 0m0 -24.38l-178.93 0 -167.25 283.4"/>
     <path class="fil2" d="M952.23 757.25l-196.18 0.06 -167.25 283.4 165.69 287 199.44 3.29m0.31 -28.08l-185.38 0 -149.81 -263.34 151.29 -257.89 180.72 0.41"/>
     <g>
      <path class="fil3" d="M953.93 1331c5.73,24.24 26.62,42.22 51.5,42.22 29.31,0 53.06,-24.92 53.06,-55.65 0,-30.73 -23.75,-55.64 -53.06,-55.64 -24.46,0 -45.06,17.36 -51.19,40.99l-0.31 28.08zm51.5 16.4c-16.57,0 -30.01,-13.35 -30.01,-29.83 0,-16.48 13.44,-29.83 30.01,-29.83 16.58,0 30.01,13.35 30.01,29.83 0,16.48 -13.43,29.83 -30.01,29.83z"/>
     </g>
     <g>
      <path class="fil3" d="M954.24 1302.92l-185.38 0 -149.81 -263.34 151.29 -257.89 180.71 0.41c4.39,26.1 26.11,45.92 52.26,45.92 29.3,0 53.05,-24.91 53.05,-55.64 0,-30.73 -23.75,-55.65 -53.05,-55.65 -24.16,0 -44.55,16.94 -50.96,40.1 -0.04,0.14 -0.08,0.28 -0.12,0.42l-196.18 0.06 -167.25 283.4 163.88 288.21 201.25 2.08 0.31 -28.08zm19.06 -530.54c0,-16.48 13.43,-29.83 30.01,-29.83 16.57,0 30.01,13.35 30.01,29.83 0,16.47 -13.44,29.83 -30.01,29.83 -16.58,0 -30.01,-13.36 -30.01,-29.83z"/>
     </g>
    </g>
    <g>
     <ellipse class="fil2" cx="1003.86" cy="1587.75" rx="53.06" ry="55.65"/>
     <ellipse class="fil2" cx="1003.86" cy="1587.75" rx="30.01" ry="29.83"/>
     <ellipse class="fil2" cx="1003.86" cy="1587.75" rx="53.06" ry="55.65"/>
     <ellipse class="fil2" cx="1001.73" cy="1042.56" rx="30.01" ry="29.83"/>
     <path class="fil2" d="M1052.93 1057.22c-6.13,23.62 -26.73,40.99 -51.2,40.99 -29.3,0 -53.06,-24.92 -53.06,-55.65 0,-30.73 23.76,-55.64 53.06,-55.64 24.89,0 45.78,17.97 51.5,42.21"/>
     <polyline class="fil2" points="1054.26,1603.3 1251.12,1602.82 1418.37,1319.42 1252.67,1032.42 1053.23,1029.13 "/>
     <polyline class="fil2" points="1052.93,1057.22 1238.31,1057.22 1388.11,1320.55 1236.82,1578.44 1056.28,1578.44 "/>
     <path class="fil3" d="M1056.92 1587.75c0,-30.73 -23.76,-55.64 -53.06,-55.64 -29.3,0 -53.06,24.91 -53.06,55.64 0,30.74 23.76,55.65 53.06,55.65 24.32,0 44.83,-17.17 51.09,-40.58 1.28,-4.79 1.97,-9.85 1.97,-15.07zm-23.05 0c0,16.48 -13.44,29.84 -30.01,29.84 -16.58,0 -30.01,-13.36 -30.01,-29.84 0,-16.47 13.43,-29.83 30.01,-29.83 16.57,0 30.01,13.36 30.01,29.83z"/>
     <path class="fil2" d="M1236.82 1578.44l-164.63 0m0 24.38l178.93 0"/>
     <path class="fil2" d="M1251.12 1602.82l167.25 -283.4m-30.26 1.13l-151.29 257.89"/>
     <path class="fil2" d="M1418.37 1319.42l-165.7 -287 -199.44 -3.29m-0.3 28.09l185.38 0 149.8 263.33"/>
     <path class="fil2" d="M1388.11 1320.55l-151.29 257.89 -164.63 0m0 24.38l178.93 0 167.25 -283.4"/>
     <path class="fil2" d="M1054.93 1602.89l196.19 -0.07 167.25 -283.4 -165.7 -287 -199.44 -3.29m-0.3 28.09l185.38 0 149.8 263.33 -151.29 257.89 -180.71 -0.41"/>
     <g>
      <path class="fil3" d="M1053.23 1029.13c-5.73,-24.24 -26.61,-42.21 -51.5,-42.21 -29.3,0 -53.06,24.91 -53.06,55.64 0,30.73 23.76,55.65 53.06,55.65 24.47,0 45.07,-17.37 51.2,-40.99l0.3 -28.09zm-51.5 -16.4c16.57,0 30.01,13.36 30.01,29.83 0,16.48 -13.44,29.83 -30.01,29.83 -16.57,0 -30.01,-13.35 -30.01,-29.83 0,-16.47 13.44,-29.83 30.01,-29.83z"/>
     </g>
     <g>
      <path class="fil3" d="M1052.93 1057.22l185.38 0 149.8 263.33 -151.29 257.89 -180.71 -0.41c-4.38,-26.09 -26.11,-45.92 -52.25,-45.92 -29.3,0 -53.06,24.91 -53.06,55.64 0,30.74 23.76,55.65 53.06,55.65 24.16,0 44.54,-16.93 50.96,-40.1 0.04,-0.14 0.07,-0.27 0.11,-0.41l196.19 -0.07 167.25 -283.4 -163.88 -288.21 -201.26 -2.08 -0.3 28.09zm-19.06 530.53c0,16.48 -13.44,29.84 -30.01,29.84 -16.58,0 -30.01,-13.36 -30.01,-29.84 0,-16.47 13.43,-29.83 30.01,-29.83 16.57,0 30.01,13.36 30.01,29.83z"/>
     </g>
    </g>
    <path class="fil4 str2" d="M954.24 1302.92l-185.38 0 -149.81 -263.34 151.29 -257.89 180.71 0.41c4.39,26.1 26.11,45.92 52.26,45.92 29.3,0 53.05,-24.91 53.05,-55.64 0,-30.73 -23.75,-55.65 -53.05,-55.65 -24.16,0 -44.55,16.94 -50.96,40.1 -0.04,0.14 -0.08,0.28 -0.12,0.42l-196.18 0.06 -167.25 283.4 163.88 288.21 201.25 2.08c5.73,24.24 26.62,42.22 51.5,42.22 29.31,0 53.06,-24.92 53.06,-55.65 0,-30.73 -23.75,-55.64 -53.06,-55.64 -24.46,0 -45.06,17.36 -51.19,40.99zm49.07 -500.71c-16.58,0 -30.01,-13.36 -30.01,-29.83 0,-16.48 13.43,-29.83 30.01,-29.83 16.57,0 30.01,13.35 30.01,29.83 0,16.47 -13.44,29.83 -30.01,29.83zm2.12 545.19c-16.57,0 -30.01,-13.35 -30.01,-29.83 0,-16.48 13.44,-29.83 30.01,-29.83 16.58,0 30.01,13.35 30.01,29.83 0,16.48 -13.43,29.83 -30.01,29.83z"/>
    <path class="fil5 str3" d="M1052.93 1057.22l185.38 0 149.8 263.33 -151.29 257.89 -180.71 -0.41c-4.38,-26.09 -26.11,-45.92 -52.25,-45.92 -29.3,0 -53.06,24.91 -53.06,55.64 0,30.74 23.76,55.65 53.06,55.65 24.16,0 44.54,-16.93 50.96,-40.1 0.04,-0.14 0.07,-0.27 0.11,-0.41l196.19 -0.07 167.25 -283.4 -163.89 -288.21 -201.25 -2.08c-5.73,-24.24 -26.61,-42.21 -51.5,-42.21 -29.3,0 -53.06,24.91 -53.06,55.64 0,30.73 23.76,55.65 53.06,55.65 24.47,0 45.07,-17.37 51.2,-40.99zm-49.07 500.7c16.57,0 30.01,13.36 30.01,29.83 0,16.48 -13.44,29.84 -30.01,29.84 -16.58,0 -30.01,-13.36 -30.01,-29.84 0,-16.47 13.43,-29.83 30.01,-29.83zm-2.13 -545.19c16.57,0 30.01,13.36 30.01,29.83 0,16.48 -13.44,29.83 -30.01,29.83 -16.57,0 -30.01,-13.35 -30.01,-29.83 0,-16.47 13.44,-29.83 30.01,-29.83z"/>
   </g>
  </g>
 </g>
</svg>
