<svg xmlns="http://www.w3.org/2000/svg" xmlns:xlink="http://www.w3.org/1999/xlink" width="1290" zoomAndPan="magnify" viewBox="0 0 967.5 532.499984" height="710" preserveAspectRatio="xMidYMid meet" version="1.0"><defs><filter x="0%" y="0%" width="100%" height="100%" id="07fcf9e16b"><feColorMatrix values="0 0 0 0 1 0 0 0 0 1 0 0 0 0 1 0 0 0 1 0" color-interpolation-filters="sRGB"/></filter><clipPath id="07bdd0741e"><path d="M 0.203125 0 L 966.796875 0 L 966.796875 532 L 0.203125 532 Z M 0.203125 0 " clip-rule="nonzero"/></clipPath><mask id="ca71b5b61c"><g filter="url(#07fcf9e16b)"><rect x="-96.75" width="1161" fill="#000000" y="-53.249998" height="638.999981" fill-opacity="0.1569"/></g></mask><clipPath id="291ea1c7d2"><path d="M 452 0 L 966.796875 0 L 966.796875 240 L 452 240 Z M 452 0 " clip-rule="nonzero"/></clipPath><clipPath id="8827753717"><path d="M 664 0 L 938 0 L 938 240 L 664 240 Z M 664 0 " clip-rule="nonzero"/></clipPath><clipPath id="14e5e7397a"><path d="M 0.203125 250 L 249 250 L 249 532 L 0.203125 532 Z M 0.203125 250 " clip-rule="nonzero"/></clipPath><clipPath id="1cdc95100e"><path d="M 79 412 L 269 412 L 269 532 L 79 532 Z M 79 412 " clip-rule="nonzero"/></clipPath><clipPath id="acb70021b8"><path d="M 0.203125 416 L 46 416 L 46 496 L 0.203125 496 Z M 0.203125 416 " clip-rule="nonzero"/></clipPath><clipPath id="aa476a9c67"><path d="M 0.203125 415 L 3 415 L 3 460 L 0.203125 460 Z M 0.203125 415 " clip-rule="nonzero"/></clipPath><clipPath id="d5d60e0683"><path d="M 628 0 L 938 0 L 938 287 L 628 287 Z M 628 0 " clip-rule="nonzero"/></clipPath><clipPath id="d26cd5021b"><path d="M 828 109 L 966.796875 109 L 966.796875 202 L 828 202 Z M 828 109 " clip-rule="nonzero"/></clipPath><clipPath id="7509731532"><path d="M 937 58 L 966.796875 58 L 966.796875 82 L 937 82 Z M 937 58 " clip-rule="nonzero"/></clipPath><clipPath id="cf376834d6"><path d="M 0.203125 190 L 176 190 L 176 497 L 0.203125 497 Z M 0.203125 190 " clip-rule="nonzero"/></clipPath><clipPath id="91f1b43eae"><path d="M 0.203125 372 L 166 372 L 166 532 L 0.203125 532 Z M 0.203125 372 " clip-rule="nonzero"/></clipPath><clipPath id="0963098922"><path d="M 0.203125 415 L 176 415 L 176 496 L 0.203125 496 Z M 0.203125 415 " clip-rule="nonzero"/></clipPath><clipPath id="131d0f7389"><path d="M 0.203125 494 L 80 494 L 80 532 L 0.203125 532 Z M 0.203125 494 " clip-rule="nonzero"/></clipPath><clipPath id="ef968a7d67"><path d="M 675 0 L 681 0 L 681 1 L 675 1 Z M 675 0 " clip-rule="nonzero"/></clipPath><clipPath id="86d3bfa7fa"><path d="M 911 0 L 921 0 L 921 5 L 911 5 Z M 911 0 " clip-rule="nonzero"/></clipPath><clipPath id="d0c57b772f"><path d="M 964 162 L 966.796875 162 L 966.796875 168 L 964 168 Z M 964 162 " clip-rule="nonzero"/></clipPath><clipPath id="d1e4da2cfc"><path d="M 960 153 L 966.796875 153 L 966.796875 163 L 960 163 Z M 960 153 " clip-rule="nonzero"/></clipPath><clipPath id="bf1b5d2833"><path d="M 0.203125 412 L 6 412 L 6 419 L 0.203125 419 Z M 0.203125 412 " clip-rule="nonzero"/></clipPath><clipPath id="f3a2a31376"><rect x="0" width="967" y="0" height="532"/></clipPath></defs><g clip-path="url(#07bdd0741e)"><path fill="#ffffff" d="M 0.203125 0 L 967.296875 0 L 967.296875 539.023438 L 0.203125 539.023438 Z M 0.203125 0 " fill-opacity="1" fill-rule="nonzero"/><path fill="#ffffff" d="M 0.203125 0 L 967.296875 0 L 967.296875 532.273438 L 0.203125 532.273438 Z M 0.203125 0 " fill-opacity="1" fill-rule="nonzero"/><path fill="#d7edea" d="M 0.203125 0 L 967.296875 0 L 967.296875 532.273438 L 0.203125 532.273438 Z M 0.203125 0 " fill-opacity="1" fill-rule="nonzero"/><g mask="url(#ca71b5b61c)"><g transform="matrix(1, 0, 0, 1, 0, 0)"><g clip-path="url(#f3a2a31376)"><path fill="#51a7dd" d="M 487.277344 223.367188 L 487.242188 223.226562 L 430.03125 12.457031 L 429.832031 12.507812 L 487.007812 223.140625 L 260.210938 201.191406 L 260.191406 201.394531 Z M 487.277344 223.367188 " fill-opacity="1" fill-rule="nonzero"/><g clip-path="url(#291ea1c7d2)"><path fill="#51a7dd" d="M 664.53125 239.730469 L 664.488281 239.757812 L 664.46875 239.742188 L 664.410156 239.753906 L 664.398438 239.691406 L 581.441406 174.648438 L 563.492188 197.53125 L 563.421875 197.628906 L 452.964844 73.921875 L 453.101562 73.777344 L 581.410156 174.371094 L 638.101562 102.082031 L 638.238281 101.90625 L 664.566406 239.472656 L 860.230469 109.859375 L 932.707031 -33.753906 L 932.886719 -33.664062 L 860.398438 109.972656 L 860.386719 109.996094 L 665.011719 239.417969 L 989.867188 165.394531 L 989.914062 165.59375 L 664.535156 239.734375 Z M 581.566406 174.492188 L 664.34375 239.390625 L 638.121094 102.375 Z M 563.414062 197.3125 L 581.28125 174.523438 L 453.871094 74.632812 Z M 563.414062 197.3125 " fill-opacity="1" fill-rule="nonzero"/></g><path fill="#51a7dd" d="M 624.367188 353.414062 L 563.300781 197.484375 L 563.488281 197.410156 L 624.554688 353.339844 Z M 624.367188 353.414062 " fill-opacity="1" fill-rule="nonzero"/><path fill="#51a7dd" d="M 521.722656 248.738281 L 521.582031 248.589844 L 437.980469 331.46875 L 306.28125 362.914062 L 306.324219 363.113281 L 438.082031 331.648438 L 438.101562 331.628906 Z M 521.722656 248.738281 " fill-opacity="1" fill-rule="nonzero"/><g clip-path="url(#8827753717)"><path fill="#51a7dd" d="M 937.65625 81.367188 L 937.636719 81.292969 L 912.566406 -14.617188 L 912.371094 -14.570312 L 937.421875 81.273438 L 664.445312 239.546875 L 664.546875 239.722656 Z M 937.65625 81.367188 " fill-opacity="1" fill-rule="nonzero"/></g><path fill="#51a7dd" d="M 587.660156 114.695312 L 587.582031 114.507812 L 456.382812 169.152344 L 371.394531 133.71875 L 371.347656 133.746094 L 254.804688 206.578125 L 254.910156 206.746094 L 371.410156 133.945312 L 456.382812 169.371094 L 456.425781 169.355469 Z M 587.660156 114.695312 " fill-opacity="1" fill-rule="nonzero"/><path fill="#51a7dd" d="M 613.179688 189.683594 L 597.929688 145.078125 L 525.261719 155.644531 L 487.226562 223.300781 L 487.050781 223.203125 L 525.109375 155.507812 L 525.132812 155.464844 L 597.863281 144.882812 L 587.484375 114.53125 L 690.554688 88.210938 L 690.605469 88.402344 L 587.742188 114.671875 L 598.058594 144.851562 L 658.324219 136.082031 L 765.375 115.074219 L 766.128906 114.925781 L 613.167969 189.679688 Z M 613.296875 189.402344 L 764.667969 115.421875 L 658.363281 136.28125 L 598.132812 145.042969 L 613.292969 189.402344 Z M 613.296875 189.402344 " fill-opacity="1" fill-rule="nonzero"/><path fill="#51a7dd" d="M 765.398438 115.246094 L 765.328125 115.058594 L 878.792969 72.46875 L 878.863281 72.660156 Z M 765.398438 115.246094 " fill-opacity="1" fill-rule="nonzero"/><path fill="#51a7dd" d="M 955.066406 164.609375 L 860.351562 110.019531 L 860.453125 109.84375 L 955.167969 164.433594 Z M 955.066406 164.609375 " fill-opacity="1" fill-rule="nonzero"/><path fill="#51a7dd" d="M 641.28125 130.917969 L 638.105469 102.183594 L 638.304688 102.160156 L 641.480469 130.894531 Z M 641.28125 130.917969 " fill-opacity="1" fill-rule="nonzero"/><path fill="#51a7dd" d="M 539.957031 448.886719 L 293.78125 241.753906 L 293.757812 241.746094 L 187.671875 218.621094 L 187.628906 218.820312 L 293.6875 241.941406 L 539.828125 449.039062 Z M 539.957031 448.886719 " fill-opacity="1" fill-rule="nonzero"/><g clip-path="url(#14e5e7397a)"><path fill="#51a7dd" d="M 212.835938 412.863281 L 174.824219 495.421875 L 174.789062 495.496094 L 45.367188 462.921875 L -174.511719 594.40625 L -174.617188 594.234375 L 44.867188 462.988281 L -88.875 482.382812 L -88.96875 482.394531 L -106.445312 409.597656 L -106.25 409.550781 L -88.8125 482.164062 L 45.300781 462.714844 L 248.246094 250.84375 L 248.496094 250.582031 L 212.832031 412.859375 Z M 174.675781 495.257812 L 212.640625 412.800781 L 248.144531 251.246094 L 45.546875 462.761719 L 174.675781 495.261719 Z M 174.675781 495.257812 " fill-opacity="1" fill-rule="nonzero"/></g><g clip-path="url(#1cdc95100e)"><path fill="#51a7dd" d="M 268.410156 558 L 212.796875 412.675781 L 212.691406 412.734375 L 79.578125 493.066406 L 79.683594 493.238281 L 212.691406 412.972656 L 268.222656 558.070312 Z M 268.410156 558 " fill-opacity="1" fill-rule="nonzero"/></g><path fill="#51a7dd" d="M 431.402344 428.578125 L 293.929688 242.222656 L 293.769531 242.34375 L 431.015625 428.394531 L 274.230469 436.832031 L 274.238281 437.035156 Z M 431.402344 428.578125 " fill-opacity="1" fill-rule="nonzero"/><g clip-path="url(#acb70021b8)"><path fill="#51a7dd" d="M 45.367188 462.914062 L 45.339844 462.714844 L -169.878906 495.121094 L -79.1875 416.34375 L -79.320312 416.191406 L -170.539062 495.425781 L -170.195312 495.371094 Z M 45.367188 462.914062 " fill-opacity="1" fill-rule="nonzero"/></g><path fill="#51a7dd" d="M 437.964844 330.703125 L 437.820312 330.734375 L 306.292969 362.910156 L 151.035156 352.398438 L 151.019531 352.59375 L 306.3125 363.113281 L 306.324219 363.113281 L 437.71875 330.96875 L 437.5 332.449219 L 437.699219 332.476562 Z M 437.964844 330.703125 " fill-opacity="1" fill-rule="nonzero"/><path fill="#51a7dd" d="M 225.582031 357.589844 L 225.566406 357.621094 L 156.984375 384.113281 L 165.542969 430.359375 L 165.566406 430.492188 L 2.082031 415.515625 L 2.082031 415.3125 L 99.949219 405.925781 L 156.753906 383.988281 L 150.945312 352.625 L 48.4375 380.230469 L 48.382812 380.035156 L 151.105469 352.375 L 156.941406 383.914062 L 225.425781 357.460938 L 293.648438 241.800781 L 293.820312 241.898438 L 225.582031 357.59375 Z M 100.007812 406.121094 L 99.992188 406.121094 L 3.171875 415.414062 L 165.320312 430.265625 L 156.792969 384.1875 L 100.011719 406.121094 Z M 100.007812 406.121094 " fill-opacity="1" fill-rule="nonzero"/><g clip-path="url(#aa476a9c67)"><path fill="#51a7dd" d="M -123.308594 459.058594 L -123.375 458.867188 L 2.058594 415.300781 L 2.125 415.492188 Z M -123.308594 459.058594 " fill-opacity="1" fill-rule="nonzero"/></g><path fill="#51a7dd" d="M 174.816406 495.328125 L 112.265625 393 L 112.089844 393.105469 L 174.648438 495.433594 Z M 174.816406 495.328125 " fill-opacity="1" fill-rule="nonzero"/><g clip-path="url(#d5d60e0683)"><path fill="#51a7dd" d="M 937.628906 81.167969 L 937.519531 80.777344 L 765.035156 115.320312 L 765.003906 115.441406 L 721.996094 285.347656 L 638.082031 102.273438 L 628.75 -94.371094 L 628.351562 -94.351562 L 637.683594 102.371094 L 637.703125 102.40625 L 722.109375 286.558594 L 722.25 286.003906 L 765.367188 115.664062 L 935.140625 81.667969 L 860.234375 109.734375 L 860.375 110.109375 Z M 937.628906 81.167969 " fill-opacity="1" fill-rule="nonzero"/></g><path fill="#51a7dd" d="M 625.242188 355.449219 L 612.65625 189.160156 L 664.171875 239.867188 L 664.261719 239.957031 L 625.242188 355.445312 Z M 625.496094 353.441406 L 663.800781 240.070312 L 613.140625 190.203125 L 625.496094 353.4375 Z M 625.496094 353.441406 " fill-opacity="1" fill-rule="nonzero"/><path fill="#51a7dd" d="M 624.394531 353.585938 L 560.378906 325.332031 L 540.089844 448.996094 L 539.691406 448.929688 L 559.996094 325.164062 L 484.59375 291.886719 L 484.25 291.734375 L 536.324219 259.238281 L 568.710938 229.703125 L 565.054688 196.671875 L 565.035156 196.476562 L 613.519531 189.382812 L 569.132812 229.859375 L 571.910156 254.988281 L 571.910156 255.015625 L 560.445312 324.921875 L 624.550781 353.214844 L 624.390625 353.582031 Z M 569.082031 229.371094 L 612.277344 189.980469 L 565.484375 196.824219 L 569.085938 229.371094 Z M 536.570312 259.566406 L 485.113281 291.675781 L 560.070312 324.757812 L 571.511719 255.007812 L 568.765625 230.203125 L 536.566406 259.566406 Z M 536.570312 259.566406 " fill-opacity="1" fill-rule="nonzero"/><path fill="#51a7dd" d="M 487.839844 223.414062 L 487.785156 223.324219 L 456.457031 167.878906 L 456.378906 168.480469 L 435.484375 327.617188 L 435.886719 327.667969 L 456.703125 169.128906 L 487.386719 223.4375 L 438.058594 333.132812 L 484.1875 292.40625 L 431.019531 428.414062 L 431.398438 428.558594 L 485.171875 291 L 439.191406 331.59375 Z M 487.839844 223.414062 " fill-opacity="1" fill-rule="nonzero"/><path fill="#51a7dd" d="M 472.097656 235.632812 L 484.878906 291.660156 L 484.488281 291.75 L 471.75 235.898438 L 306.089844 363.507812 L 305.386719 364.054688 L 452.867188 73.757812 L 453.21875 73.0625 L 456.785156 168.453125 L 472.007812 235.191406 L 487.40625 223.328125 L 474.71875 66.664062 L 475.125 66.632812 L 487.820312 223.40625 L 487.828125 223.515625 L 472.105469 235.628906 Z M 306.546875 362.648438 L 471.652344 235.472656 L 456.378906 168.515625 L 452.867188 74.640625 Z M 306.546875 362.648438 " fill-opacity="1" fill-rule="nonzero"/><path fill="#51a7dd" d="M 669.148438 239.023438 L 722.1875 285.800781 L 721.929688 286.113281 L 663.746094 240.046875 L 666.230469 236.988281 L 612.761719 189.828125 L 613.027344 189.527344 L 666.484375 236.671875 L 765.039062 115.363281 L 765.207031 115.160156 L 829.207031 201.539062 L 669.144531 239.019531 Z M 666.785156 236.941406 L 668.773438 238.695312 L 828.515625 201.292969 L 765.191406 115.828125 L 666.785156 236.945312 Z M 664.484375 240.113281 L 716.210938 281.070312 L 668.667969 239.132812 L 664.488281 240.109375 Z M 664.5625 239.683594 L 668.292969 238.808594 L 666.53125 237.257812 L 664.5625 239.6875 Z M 664.5625 239.683594 " fill-opacity="1" fill-rule="nonzero"/><path fill="#51a7dd" d="M 962.136719 32.472656 L 961.890625 32.152344 L 860.234375 109.722656 L 765.191406 115.289062 L 637.902344 102.121094 L 637.863281 102.523438 L 765.179688 115.691406 L 860.378906 110.121094 L 860.425781 110.082031 Z M 962.136719 32.472656 " fill-opacity="1" fill-rule="nonzero"/><g clip-path="url(#d26cd5021b)"><path fill="#51a7dd" d="M 1007.121094 145.226562 L 860.171875 109.679688 L 860.117188 109.855469 L 828.554688 201.707031 L 828.917969 201.613281 L 994.953125 158.054688 L 994.851562 157.667969 L 829.179688 201.125 L 860.433594 110.160156 L 1007.027344 145.617188 Z M 1007.121094 145.226562 " fill-opacity="1" fill-rule="nonzero"/></g><g clip-path="url(#7509731532)"><path fill="#51a7dd" d="M 937.589844 81.132812 L 937.464844 80.75 L 1005.992188 58.425781 L 1006.117188 58.8125 Z M 937.589844 81.132812 " fill-opacity="1" fill-rule="nonzero"/></g><path fill="#51a7dd" d="M 722.011719 286.140625 L 565.21875 196.828125 L 565.421875 196.476562 L 722.210938 285.789062 Z M 722.011719 286.140625 " fill-opacity="1" fill-rule="nonzero"/><path fill="#51a7dd" d="M 625.472656 354.617188 L 625.25 354.28125 L 828.746094 201.257812 L 829.0625 201.023438 L 829.910156 234.0625 L 829.910156 234.179688 L 625.476562 354.617188 Z M 628.359375 352.445312 L 829.5 233.953125 L 828.675781 201.8125 Z M 628.359375 352.445312 " fill-opacity="1" fill-rule="nonzero"/><path fill="#51a7dd" d="M 829.8125 234.261719 L 829.617188 233.910156 L 965.644531 158.859375 L 965.839844 159.214844 Z M 829.8125 234.261719 " fill-opacity="1" fill-rule="nonzero"/><path fill="#51a7dd" d="M 625.222656 354.578125 L 536.308594 259.523438 L 524.046875 245.578125 L 484.832031 291.835938 L 484.816406 291.855469 L 436.652344 328.554688 L 436.40625 328.234375 L 484.535156 291.558594 L 523.773438 245.269531 L 456.425781 168.636719 L 455.988281 168.144531 L 565.300781 196.457031 L 565.613281 196.535156 L 524.308594 245.265625 L 536.601562 259.253906 L 625.511719 354.304688 L 625.21875 354.578125 Z M 524.042969 244.957031 L 564.898438 196.765625 L 457.167969 168.867188 Z M 524.042969 244.957031 " fill-opacity="1" fill-rule="nonzero"/><path fill="#51a7dd" d="M 587.496094 114.8125 L 452.910156 74.070312 L 453.027344 73.683594 L 587.613281 114.425781 Z M 587.496094 114.8125 " fill-opacity="1" fill-rule="nonzero"/><path fill="#51a7dd" d="M 372.128906 133.171875 L 253.820312 202.917969 L 254.023438 203.265625 L 370.679688 134.492188 L 293.246094 242.109375 L 293.574219 242.347656 Z M 372.128906 133.171875 " fill-opacity="1" fill-rule="nonzero"/><path fill="#51a7dd" d="M 456.441406 168.703125 L 371.261719 134.039062 L 371.414062 133.664062 L 456.59375 168.328125 Z M 456.441406 168.703125 " fill-opacity="1" fill-rule="nonzero"/><path fill="#51a7dd" d="M 438.710938 332.492188 L 438.472656 332.167969 L 536.34375 259.246094 L 536.582031 259.566406 Z M 438.710938 332.492188 " fill-opacity="1" fill-rule="nonzero"/><g clip-path="url(#cf376834d6)"><path fill="#51a7dd" d="M 175.683594 496.105469 L 175.261719 495.304688 L 13.097656 190.402344 L 12.742188 190.59375 L 174.476562 494.691406 L 11.476562 372.320312 L 2.25 415.445312 L -171.800781 495.410156 L -88.855469 482.484375 L -88.917969 482.082031 L -168.988281 494.558594 L 2.601562 415.730469 L 2.621094 415.628906 L 11.738281 373.023438 Z M 175.683594 496.105469 " fill-opacity="1" fill-rule="nonzero"/></g><path fill="#51a7dd" d="M 79.488281 494.65625 L 79.347656 494.757812 L 45.542969 462.816406 L 165.753906 430.128906 L 166.785156 429.847656 L 79.488281 494.652344 Z M 79.382812 494.234375 L 164.828125 430.804688 L 46.339844 463.019531 Z M 79.382812 494.234375 " fill-opacity="1" fill-rule="nonzero"/><path fill="#51a7dd" d="M 380.816406 521.917969 L 266.515625 453.742188 L 165.761719 430.527344 L 165.117188 430.375 L 210.769531 412.789062 L 266.660156 453.351562 L 327.558594 456.085938 L 327.65625 456.085938 L 354.371094 493.707031 L 354.039062 493.941406 L 327.4375 456.484375 L 267.375 453.789062 L 381.023438 521.570312 Z M 166.492188 430.28125 L 265.671875 453.140625 L 210.703125 413.25 L 166.492188 430.289062 Z M 166.492188 430.28125 " fill-opacity="1" fill-rule="nonzero"/><path fill="#51a7dd" d="M 540.195312 448.085938 L 410.1875 400.714844 L 431.25 429.359375 L 431.425781 429.597656 L 328.414062 456.273438 L 478.316406 489.777344 L 478.226562 490.171875 L 326.6875 456.300781 L 430.746094 429.355469 L 409.503906 400.460938 L 305.691406 362.632812 L 305.574219 362.585938 L 293.132812 241.503906 L 409.757812 400.117188 L 540.332031 447.699219 L 540.195312 448.078125 Z M 305.949219 362.300781 L 409.070312 399.875 L 293.6875 242.941406 L 305.949219 362.296875 Z M 305.949219 362.300781 " fill-opacity="1" fill-rule="nonzero"/><path fill="#51a7dd" d="M 327.746094 456.242188 L 305.953125 362.378906 L 305.941406 362.351562 L 248.664062 251.132812 L 256.40625 249.628906 L 295.371094 242.421875 L 293.414062 242.019531 L 293.371094 242.03125 L 256.335938 249.230469 L 248.019531 250.769531 L 248.058594 250.839844 L 225.695312 255.1875 L 225.773438 255.585938 L 248.25 251.214844 L 305.570312 362.519531 L 327.355469 456.332031 Z M 327.746094 456.242188 " fill-opacity="1" fill-rule="nonzero"/><g clip-path="url(#91f1b43eae)"><path fill="#51a7dd" d="M 165.734375 430.515625 L 11.957031 373.019531 L 46.503906 463.832031 L 46.003906 463.289062 L -2.105469 577.226562 L 2.21875 415.582031 L 2.234375 415.085938 L 45.375 462.015625 L 11.257812 372.328125 L 165.875 430.140625 L 165.730469 430.523438 Z M -1.644531 575.09375 L 45.703125 462.960938 L 2.613281 416.089844 Z M -1.644531 575.09375 " fill-opacity="1" fill-rule="nonzero"/></g><g clip-path="url(#0963098922)"><path fill="#51a7dd" d="M 175.164062 495.214844 L 2.402344 415.351562 L 2.304688 415.425781 L -88.890625 482.035156 L -123.234375 458.664062 L -123.464844 459 L -88.882812 482.527344 L -88.765625 482.445312 L 2.445312 415.820312 L 175 495.582031 Z M 175.164062 495.214844 " fill-opacity="1" fill-rule="nonzero"/></g><path fill="#51a7dd" d="M 210.667969 413.214844 L 11.53125 372.890625 L 11.613281 372.496094 L 210.746094 412.820312 Z M 210.667969 413.214844 " fill-opacity="1" fill-rule="nonzero"/><g clip-path="url(#131d0f7389)"><path fill="#51a7dd" d="M 79.507812 494.640625 L 79.21875 494.355469 L -1.503906 575.292969 L -2.035156 576.042969 L -1.726562 576.300781 Z M 79.507812 494.640625 " fill-opacity="1" fill-rule="nonzero"/></g><path fill="#51a7dd" d="M 327.554688 456.492188 L 327.515625 456.492188 L 274.054688 436.6875 L 266.773438 453.628906 L 266.730469 453.726562 L 79.40625 494.695312 L 79.320312 494.296875 L 266.441406 453.375 L 273.675781 436.546875 L 210.238281 413.046875 L 305.664062 362.269531 L 306.171875 361.996094 L 274.214844 436.316406 L 327.578125 456.085938 L 539.878906 448.761719 L 539.894531 449.164062 L 327.550781 456.492188 Z M 273.839844 436.175781 L 305.347656 362.894531 L 211.230469 412.980469 Z M 273.839844 436.175781 " fill-opacity="1" fill-rule="nonzero"/><path fill="#51a7dd" d="M 151.167969 352.648438 L 150.875 352.367188 L 248.144531 250.757812 L 248.433594 251.039062 Z M 151.167969 352.648438 " fill-opacity="1" fill-rule="nonzero"/><path fill="#51a7dd" d="M 540.175781 449.332031 L 437.992188 330.703125 L 436.835938 328.789062 L 436.488281 329 L 437.667969 330.941406 L 539.871094 449.597656 Z M 540.175781 449.332031 " fill-opacity="1" fill-rule="nonzero"/><path fill="#51a7dd" d="M 305.800781 362.625 L 305.707031 362.230469 L 437.792969 330.644531 L 437.886719 331.039062 Z M 305.800781 362.625 " fill-opacity="1" fill-rule="nonzero"/><path fill="#51a7dd" d="M 266.628906 453.765625 L 266.570312 453.363281 L 431.074219 429.347656 L 431.132812 429.75 Z M 266.628906 453.765625 " fill-opacity="1" fill-rule="nonzero"/><path fill="#51a7dd" d="M 724.15625 289.640625 L 723.722656 289.753906 C 723.214844 289.914062 722.699219 289.933594 722.191406 289.820312 C 721.683594 289.796875 721.207031 289.648438 720.765625 289.363281 C 720.316406 289.121094 719.957031 288.796875 719.6875 288.375 C 719.347656 288.003906 719.117188 287.570312 719.003906 287.070312 L 718.863281 286.046875 C 718.863281 285.355469 719.042969 284.710938 719.390625 284.113281 L 719.992188 283.335938 C 720.472656 282.859375 721.03125 282.53125 721.683594 282.351562 L 722.117188 282.238281 C 722.628906 282.074219 723.140625 282.054688 723.648438 282.167969 C 724.15625 282.191406 724.632812 282.34375 725.074219 282.625 C 725.523438 282.867188 725.882812 283.195312 726.152344 283.613281 C 726.492188 283.988281 726.722656 284.417969 726.839844 284.921875 L 726.976562 285.941406 C 726.976562 286.632812 726.796875 287.28125 726.453125 287.878906 L 725.851562 288.652344 C 725.371094 289.128906 724.808594 289.457031 724.15625 289.640625 Z M 724.15625 289.640625 " fill-opacity="1" fill-rule="nonzero"/><path fill="#51a7dd" d="M 460.21875 169.261719 C 460.21875 174.203125 452.546875 174.210938 452.546875 169.261719 C 452.546875 164.320312 460.21875 164.3125 460.21875 169.261719 Z M 460.21875 169.261719 " fill-opacity="1" fill-rule="nonzero"/><path fill="#51a7dd" d="M 537.050781 262.632812 L 536.613281 262.746094 C 536.105469 262.90625 535.59375 262.925781 535.082031 262.8125 C 534.574219 262.789062 534.097656 262.640625 533.65625 262.359375 C 533.210938 262.113281 532.851562 261.789062 532.578125 261.367188 C 532.242188 260.996094 532.011719 260.5625 531.894531 260.0625 L 531.757812 259.039062 C 531.757812 258.347656 531.933594 257.703125 532.28125 257.105469 L 532.882812 256.328125 C 533.363281 255.851562 533.925781 255.523438 534.574219 255.34375 L 535.011719 255.230469 C 535.519531 255.070312 536.03125 255.046875 536.542969 255.160156 C 537.050781 255.1875 537.527344 255.335938 537.964844 255.617188 C 538.414062 255.859375 538.773438 256.1875 539.042969 256.609375 C 539.382812 256.980469 539.613281 257.410156 539.730469 257.914062 L 539.867188 258.933594 C 539.867188 259.625 539.691406 260.273438 539.34375 260.871094 L 538.742188 261.644531 C 538.261719 262.125 537.699219 262.449219 537.050781 262.632812 Z M 537.050781 262.632812 " fill-opacity="1" fill-rule="nonzero"/><path fill="#51a7dd" d="M 488.886719 291.015625 C 488.886719 295.957031 481.214844 295.96875 481.214844 291.015625 C 481.214844 286.074219 488.886719 286.066406 488.886719 291.015625 Z M 488.886719 291.015625 " fill-opacity="1" fill-rule="nonzero"/><path fill="#51a7dd" d="M 628.308594 353.398438 C 628.308594 358.339844 620.640625 358.347656 620.640625 353.398438 C 620.640625 348.457031 628.308594 348.449219 628.308594 353.398438 Z M 628.308594 353.398438 " fill-opacity="1" fill-rule="nonzero"/><path fill="#51a7dd" d="M 668.191406 238.613281 L 668.304688 239.050781 C 668.464844 239.5625 668.484375 240.074219 668.371094 240.582031 C 668.347656 241.09375 668.199219 241.570312 667.917969 242.007812 C 667.675781 242.457031 667.347656 242.816406 666.925781 243.089844 C 666.554688 243.425781 666.125 243.65625 665.625 243.773438 L 664.601562 243.914062 C 663.910156 243.914062 663.265625 243.734375 662.667969 243.386719 L 661.890625 242.785156 C 661.414062 242.304688 661.089844 241.742188 660.90625 241.09375 L 660.792969 240.65625 C 660.632812 240.148438 660.613281 239.632812 660.726562 239.125 C 660.75 238.617188 660.898438 238.136719 661.183594 237.699219 C 661.425781 237.25 661.75 236.890625 662.171875 236.621094 C 662.542969 236.28125 662.972656 236.050781 663.476562 235.933594 L 664.496094 235.796875 C 665.1875 235.796875 665.832031 235.972656 666.429688 236.320312 L 667.207031 236.921875 C 667.683594 237.402344 668.007812 237.964844 668.191406 238.613281 Z M 668.191406 238.613281 " fill-opacity="1" fill-rule="nonzero"/><path fill="#51a7dd" d="M 863.546875 109.445312 C 863.546875 114.386719 855.875 114.394531 855.875 109.445312 C 855.875 104.503906 863.546875 104.496094 863.546875 109.445312 Z M 863.546875 109.445312 " fill-opacity="1" fill-rule="nonzero"/><path fill="#51a7dd" d="M 615.460938 189.546875 C 615.460938 192.40625 611.019531 192.410156 611.019531 189.546875 C 611.019531 186.683594 615.460938 186.683594 615.460938 189.546875 Z M 615.460938 189.546875 " fill-opacity="1" fill-rule="nonzero"/><path fill="#51a7dd" d="M 566.644531 197.46875 C 566.644531 201.632812 560.1875 201.636719 560.1875 197.46875 C 560.1875 193.308594 566.644531 193.304688 566.644531 197.46875 Z M 566.644531 197.46875 " fill-opacity="1" fill-rule="nonzero"/><path fill="#51a7dd" d="M 830.691406 201.039062 C 830.691406 204.414062 825.441406 204.425781 825.441406 201.039062 C 825.441406 197.660156 830.691406 197.652344 830.691406 201.039062 Z M 830.691406 201.039062 " fill-opacity="1" fill-rule="nonzero"/><path fill="#51a7dd" d="M 768.839844 115.175781 C 768.839844 119.597656 761.976562 119.605469 761.976562 115.175781 C 761.976562 110.753906 768.839844 110.746094 768.839844 115.175781 Z M 768.839844 115.175781 " fill-opacity="1" fill-rule="nonzero"/><path fill="#51a7dd" d="M 940.367188 81.320312 C 940.367188 84.960938 934.714844 84.964844 934.714844 81.320312 C 934.714844 77.679688 940.367188 77.675781 940.367188 81.320312 Z M 940.367188 81.320312 " fill-opacity="1" fill-rule="nonzero"/><g clip-path="url(#ef968a7d67)"><path fill="#51a7dd" d="M 675.472656 -1.882812 L 675.359375 -2.320312 C 675.25 -2.667969 675.234375 -3.019531 675.308594 -3.367188 C 675.324219 -3.71875 675.429688 -4.039062 675.621094 -4.34375 C 675.785156 -4.652344 676.011719 -4.898438 676.292969 -5.078125 C 676.550781 -5.308594 676.84375 -5.46875 677.1875 -5.546875 L 677.886719 -5.640625 C 678.359375 -5.640625 678.800781 -5.519531 679.210938 -5.28125 L 679.742188 -4.867188 C 680.070312 -4.542969 680.292969 -4.152344 680.417969 -3.710938 L 680.53125 -3.273438 C 680.640625 -2.925781 680.65625 -2.574219 680.578125 -2.226562 C 680.5625 -1.875 680.457031 -1.550781 680.269531 -1.25 C 680.101562 -0.941406 679.875 -0.695312 679.59375 -0.511719 C 679.339844 -0.28125 679.042969 -0.125 678.703125 -0.0429688 L 678.003906 0.046875 C 677.53125 0.046875 677.085938 -0.0742188 676.679688 -0.3125 L 676.144531 -0.722656 C 675.820312 -1.050781 675.597656 -1.4375 675.472656 -1.882812 Z M 675.472656 -1.882812 " fill-opacity="1" fill-rule="nonzero"/></g><path fill="#51a7dd" d="M 524.074219 248.664062 C 524.074219 251.785156 519.226562 251.789062 519.226562 248.664062 C 519.226562 245.539062 524.074219 245.539062 524.074219 248.664062 Z M 524.074219 248.664062 " fill-opacity="1" fill-rule="nonzero"/><path fill="#51a7dd" d="M 440.449219 331.554688 C 440.449219 334.675781 435.605469 334.679688 435.605469 331.554688 C 435.605469 328.4375 440.449219 328.433594 440.449219 331.554688 Z M 440.449219 331.554688 " fill-opacity="1" fill-rule="nonzero"/><path fill="#51a7dd" d="M 484.921875 224.335938 L 484.808594 223.898438 C 484.707031 223.578125 484.691406 223.253906 484.765625 222.933594 C 484.78125 222.609375 484.875 222.3125 485.050781 222.03125 C 485.207031 221.75 485.410156 221.523438 485.679688 221.355469 C 485.910156 221.140625 486.1875 220.996094 486.5 220.921875 L 487.148438 220.835938 C 487.582031 220.835938 487.992188 220.949219 488.371094 221.167969 L 488.859375 221.546875 C 489.160156 221.851562 489.367188 222.207031 489.480469 222.617188 L 489.59375 223.054688 C 489.695312 223.378906 489.710938 223.703125 489.640625 224.019531 C 489.621094 224.34375 489.53125 224.644531 489.351562 224.921875 C 489.199219 225.203125 488.992188 225.429688 488.726562 225.601562 C 488.492188 225.816406 488.21875 225.960938 487.902344 226.03125 L 487.257812 226.117188 C 486.820312 226.117188 486.414062 226.003906 486.03125 225.785156 L 485.542969 225.40625 C 485.246094 225.105469 485.035156 224.746094 484.921875 224.335938 Z M 484.921875 224.335938 " fill-opacity="1" fill-rule="nonzero"/><path fill="#51a7dd" d="M 455.550781 74.019531 C 455.550781 77.917969 449.496094 77.925781 449.496094 74.019531 C 449.496094 70.121094 455.550781 70.113281 455.550781 74.019531 Z M 455.550781 74.019531 " fill-opacity="1" fill-rule="nonzero"/><path fill="#51a7dd" d="M 476.597656 66.414062 C 476.597656 69.273438 472.15625 69.28125 472.15625 66.414062 C 472.15625 63.554688 476.597656 63.550781 476.597656 66.414062 Z M 476.597656 66.414062 " fill-opacity="1" fill-rule="nonzero"/><path fill="#51a7dd" d="M 308.925781 363.011719 C 308.925781 366.390625 303.675781 366.398438 303.675781 363.011719 C 303.675781 359.632812 308.925781 359.625 308.925781 363.011719 Z M 308.925781 363.011719 " fill-opacity="1" fill-rule="nonzero"/><path fill="#51a7dd" d="M 642.015625 102.136719 C 642.015625 107.078125 634.34375 107.085938 634.34375 102.136719 C 634.34375 97.195312 642.015625 97.1875 642.015625 102.136719 Z M 642.015625 102.136719 " fill-opacity="1" fill-rule="nonzero"/><path fill="#51a7dd" d="M 374.015625 134.554688 C 374.015625 137.675781 369.167969 137.679688 369.167969 134.554688 C 369.167969 131.429688 374.015625 131.429688 374.015625 134.554688 Z M 374.015625 134.554688 " fill-opacity="1" fill-rule="nonzero"/><path fill="#51a7dd" d="M 474.371094 248.136719 C 474.371094 251.253906 469.527344 251.257812 469.527344 248.136719 C 469.527344 245.015625 474.371094 245.011719 474.371094 248.136719 Z M 474.371094 248.136719 " fill-opacity="1" fill-rule="nonzero"/><path fill="#51a7dd" d="M 570.183594 230.902344 C 570.183594 233.761719 565.742188 233.765625 565.742188 230.902344 C 565.742188 228.035156 570.183594 228.035156 570.183594 230.902344 Z M 570.183594 230.902344 " fill-opacity="1" fill-rule="nonzero"/><path fill="#51a7dd" d="M 597.261719 206.230469 C 597.261719 210.128906 591.203125 210.136719 591.203125 206.230469 C 591.203125 202.332031 597.261719 202.324219 597.261719 206.230469 Z M 597.261719 206.230469 " fill-opacity="1" fill-rule="nonzero"/><path fill="#51a7dd" d="M 574.183594 256.105469 C 574.183594 259.226562 569.339844 259.230469 569.339844 256.105469 C 569.339844 252.984375 574.183594 252.984375 574.183594 256.105469 Z M 574.183594 256.105469 " fill-opacity="1" fill-rule="nonzero"/><path fill="#51a7dd" d="M 704.839844 108.492188 C 704.839844 111.089844 700.804688 111.097656 700.804688 108.492188 C 700.804688 105.886719 704.839844 105.886719 704.839844 108.492188 Z M 704.839844 108.492188 " fill-opacity="1" fill-rule="nonzero"/><path fill="#51a7dd" d="M 692.109375 88.4375 C 692.109375 91.035156 688.074219 91.042969 688.074219 88.4375 C 688.074219 85.835938 692.109375 85.828125 692.109375 88.4375 Z M 692.109375 88.4375 " fill-opacity="1" fill-rule="nonzero"/><path fill="#51a7dd" d="M 720.464844 90.796875 L 720.351562 90.359375 C 720.25 90.035156 720.234375 89.710938 720.304688 89.394531 C 720.320312 89.070312 720.414062 88.769531 720.59375 88.492188 C 720.746094 88.210938 720.953125 87.984375 721.21875 87.8125 C 721.453125 87.597656 721.726562 87.453125 722.042969 87.382812 L 722.6875 87.296875 C 723.125 87.296875 723.53125 87.410156 723.910156 87.628906 L 724.398438 88.007812 C 724.699219 88.308594 724.910156 88.664062 725.023438 89.078125 L 725.136719 89.515625 C 725.234375 89.835938 725.253906 90.160156 725.179688 90.480469 C 725.164062 90.804688 725.070312 91.101562 724.894531 91.382812 C 724.738281 91.664062 724.535156 91.890625 724.265625 92.058594 C 724.03125 92.273438 723.757812 92.417969 723.445312 92.492188 L 722.796875 92.578125 C 722.359375 92.578125 721.953125 92.464844 721.574219 92.246094 L 721.085938 91.867188 C 720.785156 91.5625 720.578125 91.207031 720.464844 90.796875 Z M 720.464844 90.796875 " fill-opacity="1" fill-rule="nonzero"/><path fill="#51a7dd" d="M 799.367188 133.761719 C 799.367188 136.359375 795.332031 136.367188 795.332031 133.761719 C 795.332031 131.164062 799.367188 131.15625 799.367188 133.761719 Z M 799.367188 133.761719 " fill-opacity="1" fill-rule="nonzero"/><path fill="#51a7dd" d="M 840.277344 161.832031 L 840.167969 161.394531 C 840.074219 161.101562 840.0625 160.804688 840.125 160.511719 C 840.136719 160.214844 840.226562 159.941406 840.386719 159.6875 C 840.53125 159.429688 840.71875 159.21875 840.960938 159.066406 C 841.175781 158.867188 841.425781 158.738281 841.714844 158.667969 L 842.304688 158.589844 C 842.707031 158.589844 843.082031 158.6875 843.429688 158.890625 L 843.875 159.238281 C 844.152344 159.515625 844.339844 159.84375 844.445312 160.21875 L 844.558594 160.65625 C 844.652344 160.953125 844.664062 161.246094 844.597656 161.542969 C 844.585938 161.835938 844.5 162.109375 844.335938 162.367188 C 844.195312 162.625 844.007812 162.835938 843.765625 162.988281 C 843.550781 163.1875 843.300781 163.316406 843.007812 163.382812 L 842.417969 163.464844 C 842.019531 163.464844 841.644531 163.363281 841.296875 163.160156 L 840.847656 162.8125 C 840.574219 162.535156 840.382812 162.207031 840.277344 161.832031 Z M 840.277344 161.832031 " fill-opacity="1" fill-rule="nonzero"/><path fill="#51a7dd" d="M 657.601562 134.085938 L 657.925781 134 C 658.222656 133.90625 658.515625 133.894531 658.8125 133.960938 C 659.105469 133.972656 659.378906 134.0625 659.636719 134.222656 C 659.894531 134.363281 660.105469 134.554688 660.257812 134.796875 C 660.453125 135.011719 660.585938 135.261719 660.652344 135.550781 L 660.734375 136.144531 C 660.734375 136.542969 660.632812 136.917969 660.429688 137.265625 L 660.082031 137.714844 C 659.804688 137.988281 659.476562 138.179688 659.101562 138.285156 L 658.773438 138.367188 C 658.480469 138.460938 658.1875 138.472656 657.890625 138.410156 C 657.597656 138.398438 657.320312 138.308594 657.066406 138.148438 C 656.808594 138.003906 656.597656 137.816406 656.445312 137.574219 C 656.246094 137.359375 656.117188 137.109375 656.050781 136.816406 L 655.96875 136.226562 C 655.96875 135.828125 656.070312 135.453125 656.273438 135.105469 L 656.617188 134.65625 C 656.898438 134.382812 657.226562 134.191406 657.601562 134.085938 Z M 657.601562 134.085938 " fill-opacity="1" fill-rule="nonzero"/><path fill="#51a7dd" d="M 642.957031 130.820312 C 642.957031 132.902344 639.726562 132.90625 639.726562 130.820312 C 639.726562 128.734375 642.957031 128.734375 642.957031 130.820312 Z M 642.957031 130.820312 " fill-opacity="1" fill-rule="nonzero"/><path fill="#51a7dd" d="M 669.804688 139.816406 C 669.804688 141.375 667.382812 141.378906 667.382812 139.816406 C 667.382812 138.25 669.804688 138.25 669.804688 139.816406 Z M 669.804688 139.816406 " fill-opacity="1" fill-rule="nonzero"/><path fill="#51a7dd" d="M 589.164062 114.804688 C 589.164062 117.144531 585.53125 117.148438 585.53125 114.804688 C 585.53125 112.460938 589.164062 112.460938 589.164062 114.804688 Z M 589.164062 114.804688 " fill-opacity="1" fill-rule="nonzero"/><path fill="#51a7dd" d="M 695.273438 93.582031 C 695.273438 95.664062 692.042969 95.667969 692.042969 93.582031 C 692.042969 91.5 695.273438 91.5 695.273438 93.582031 Z M 695.273438 93.582031 " fill-opacity="1" fill-rule="nonzero"/><path fill="#51a7dd" d="M 606.050781 163.078125 C 606.050781 165.15625 602.820312 165.160156 602.820312 163.078125 C 602.820312 160.992188 606.050781 160.992188 606.050781 163.078125 Z M 606.050781 163.078125 " fill-opacity="1" fill-rule="nonzero"/><path fill="#51a7dd" d="M 527.359375 155.410156 C 527.359375 157.492188 524.128906 157.496094 524.128906 155.410156 C 524.128906 153.332031 527.359375 153.328125 527.359375 155.410156 Z M 527.359375 155.410156 " fill-opacity="1" fill-rule="nonzero"/><path fill="#51a7dd" d="M 395.832031 151.3125 C 395.832031 153.390625 392.601562 153.394531 392.601562 151.3125 C 392.601562 149.230469 395.832031 149.226562 395.832031 151.3125 Z M 395.832031 151.3125 " fill-opacity="1" fill-rule="nonzero"/><path fill="#51a7dd" d="M 811.773438 160.347656 C 811.773438 162.429688 808.542969 162.433594 808.542969 160.347656 C 808.542969 158.265625 811.773438 158.265625 811.773438 160.347656 Z M 811.773438 160.347656 " fill-opacity="1" fill-rule="nonzero"/><path fill="#51a7dd" d="M 802.527344 77.511719 C 802.527344 79.070312 800.105469 79.074219 800.105469 77.511719 C 800.105469 75.949219 802.527344 75.945312 802.527344 77.511719 Z M 802.527344 77.511719 " fill-opacity="1" fill-rule="nonzero"/><path fill="#51a7dd" d="M 783.230469 101 C 783.230469 102.304688 781.210938 102.304688 781.210938 101 C 781.210938 99.699219 783.230469 99.699219 783.230469 101 Z M 783.230469 101 " fill-opacity="1" fill-rule="nonzero"/><path fill="#51a7dd" d="M 882.734375 72.652344 C 882.734375 77.59375 875.0625 77.601562 875.0625 72.652344 C 875.0625 67.710938 882.734375 67.703125 882.734375 72.652344 Z M 882.734375 72.652344 " fill-opacity="1" fill-rule="nonzero"/><g clip-path="url(#86d3bfa7fa)"><path fill="#51a7dd" d="M 920.183594 0.015625 C 920.183594 5.476562 911.703125 5.484375 911.703125 0.015625 C 911.703125 -5.441406 920.183594 -5.449219 920.183594 0.015625 Z M 920.183594 0.015625 " fill-opacity="1" fill-rule="nonzero"/></g><path fill="#51a7dd" d="M 908.894531 76.214844 C 908.894531 81.15625 901.226562 81.164062 901.226562 76.214844 C 901.226562 71.269531 908.894531 71.261719 908.894531 76.214844 Z M 908.894531 76.214844 " fill-opacity="1" fill-rule="nonzero"/><path fill="#51a7dd" d="M 965.300781 32.402344 C 965.300781 36.5625 958.839844 36.566406 958.839844 32.402344 C 958.839844 28.238281 965.300781 28.234375 965.300781 32.402344 Z M 965.300781 32.402344 " fill-opacity="1" fill-rule="nonzero"/><path fill="#51a7dd" d="M 945.441406 172.167969 C 945.441406 175.808594 939.789062 175.8125 939.789062 172.167969 C 939.789062 168.527344 945.441406 168.523438 945.441406 172.167969 Z M 945.441406 172.167969 " fill-opacity="1" fill-rule="nonzero"/><g clip-path="url(#d0c57b772f)"><path fill="#51a7dd" d="M 968.265625 167.542969 L 967.890625 167.640625 C 967.570312 167.738281 967.246094 167.757812 966.925781 167.683594 C 966.601562 167.667969 966.304688 167.574219 966.027344 167.394531 C 965.742188 167.242188 965.515625 167.035156 965.347656 166.769531 C 965.132812 166.535156 964.988281 166.261719 964.914062 165.945312 L 964.832031 165.300781 C 964.832031 164.863281 964.945312 164.453125 965.160156 164.074219 L 965.542969 163.585938 C 965.84375 163.285156 966.199219 163.078125 966.613281 162.964844 L 966.988281 162.867188 C 967.308594 162.765625 967.632812 162.75 967.953125 162.824219 C 968.273438 162.839844 968.574219 162.929688 968.851562 163.109375 C 969.136719 163.261719 969.359375 163.46875 969.53125 163.734375 C 969.746094 163.96875 969.890625 164.246094 969.960938 164.558594 L 970.046875 165.207031 C 970.046875 165.644531 969.933594 166.050781 969.714844 166.429688 L 969.335938 166.917969 C 969.035156 167.21875 968.679688 167.429688 968.265625 167.542969 Z M 968.265625 167.542969 " fill-opacity="1" fill-rule="nonzero"/></g><path fill="#51a7dd" d="M 955.558594 166.449219 L 955.183594 166.546875 C 954.917969 166.632812 954.648438 166.644531 954.382812 166.585938 C 954.109375 166.570312 953.859375 166.492188 953.628906 166.347656 C 953.394531 166.21875 953.207031 166.046875 953.066406 165.824219 C 952.886719 165.628906 952.765625 165.398438 952.707031 165.136719 L 952.632812 164.601562 C 952.632812 164.238281 952.726562 163.898438 952.90625 163.582031 L 953.222656 163.175781 C 953.472656 162.921875 953.773438 162.75 954.113281 162.652344 L 954.492188 162.554688 C 954.757812 162.472656 955.027344 162.457031 955.292969 162.519531 C 955.5625 162.53125 955.816406 162.613281 956.042969 162.757812 C 956.277344 162.882812 956.46875 163.058594 956.609375 163.277344 C 956.789062 163.472656 956.910156 163.703125 956.96875 163.964844 L 957.042969 164.503906 C 957.042969 164.867188 956.949219 165.207031 956.765625 165.519531 L 956.453125 165.929688 C 956.203125 166.179688 955.902344 166.355469 955.558594 166.449219 Z M 955.558594 166.449219 " fill-opacity="1" fill-rule="nonzero"/><path fill="#51a7dd" d="M 642.417969 102.136719 C 642.417969 107.597656 633.9375 107.605469 633.9375 102.136719 C 633.9375 96.679688 642.417969 96.671875 642.417969 102.136719 Z M 642.417969 102.136719 " fill-opacity="1" fill-rule="nonzero"/><path fill="#51a7dd" d="M 781.859375 104.101562 L 781.359375 104.230469 C 780.796875 104.40625 780.234375 104.433594 779.667969 104.308594 C 779.105469 104.28125 778.578125 104.113281 778.09375 103.800781 C 777.601562 103.535156 777.203125 103.171875 776.902344 102.710938 C 776.527344 102.304688 776.277344 101.820312 776.144531 101.269531 L 775.992188 100.140625 C 775.992188 99.375 776.183594 98.664062 776.566406 98 L 777.230469 97.140625 C 777.757812 96.613281 778.382812 96.25 779.097656 96.046875 L 779.601562 95.917969 C 780.164062 95.742188 780.726562 95.71875 781.292969 95.84375 C 781.855469 95.867188 782.382812 96.035156 782.867188 96.347656 C 783.359375 96.613281 783.757812 96.976562 784.058594 97.4375 C 784.433594 97.847656 784.683594 98.328125 784.816406 98.878906 L 784.96875 100.007812 C 784.96875 100.777344 784.777344 101.488281 784.394531 102.148438 L 783.730469 103.011719 C 783.203125 103.535156 782.578125 103.898438 781.859375 104.101562 Z M 781.859375 104.101562 " fill-opacity="1" fill-rule="nonzero"/><g clip-path="url(#d1e4da2cfc)"><path fill="#51a7dd" d="M 966.875 162.117188 L 966.375 162.246094 C 965.785156 162.429688 965.195312 162.453125 964.601562 162.324219 C 964.011719 162.296875 963.457031 162.125 962.949219 161.796875 C 962.433594 161.515625 962.015625 161.132812 961.703125 160.652344 C 961.308594 160.222656 961.042969 159.71875 960.90625 159.140625 L 960.75 157.960938 C 960.75 157.15625 960.953125 156.410156 961.355469 155.71875 L 962.050781 154.816406 C 962.601562 154.269531 963.257812 153.882812 964.007812 153.675781 L 964.507812 153.546875 C 965.097656 153.359375 965.6875 153.335938 966.28125 153.464844 C 966.871094 153.492188 967.421875 153.667969 967.933594 153.992188 C 968.449219 154.273438 968.863281 154.65625 969.179688 155.136719 C 969.570312 155.566406 969.835938 156.070312 969.976562 156.648438 L 970.132812 157.828125 C 970.132812 158.632812 969.925781 159.378906 969.527344 160.070312 L 968.832031 160.972656 C 968.277344 161.519531 967.625 161.90625 966.875 162.117188 Z M 966.875 162.117188 " fill-opacity="1" fill-rule="nonzero"/></g><path fill="#51a7dd" d="M 935.628906 56.425781 C 935.628906 62.925781 925.535156 62.9375 925.535156 56.425781 C 925.535156 49.925781 935.628906 49.917969 935.628906 56.425781 Z M 935.628906 56.425781 " fill-opacity="1" fill-rule="nonzero"/><path fill="#51a7dd" d="M 433.449219 12.558594 L 433.578125 13.058594 C 433.804688 13.78125 433.835938 14.507812 433.675781 15.234375 C 433.644531 15.960938 433.425781 16.636719 433.03125 17.261719 C 432.6875 17.894531 432.21875 18.410156 431.625 18.792969 C 431.101562 19.273438 430.480469 19.601562 429.769531 19.769531 L 428.320312 19.964844 C 427.335938 19.964844 426.421875 19.714844 425.570312 19.222656 L 424.46875 18.367188 C 423.796875 17.691406 423.328125 16.886719 423.070312 15.960938 L 422.941406 15.460938 C 422.714844 14.734375 422.679688 14.007812 422.84375 13.285156 C 422.875 12.558594 423.09375 11.882812 423.488281 11.257812 C 423.832031 10.621094 424.300781 10.109375 424.894531 9.726562 C 425.417969 9.246094 426.035156 8.917969 426.746094 8.746094 L 428.195312 8.554688 C 429.183594 8.554688 430.097656 8.804688 430.945312 9.296875 L 432.046875 10.148438 C 432.722656 10.828125 433.191406 11.632812 433.449219 12.558594 Z M 433.449219 12.558594 " fill-opacity="1" fill-rule="nonzero"/><path fill="#51a7dd" d="M 426.917969 37.523438 C 426.917969 43.761719 417.226562 43.777344 417.226562 37.523438 C 417.226562 31.285156 426.917969 31.273438 426.917969 37.523438 Z M 426.917969 37.523438 " fill-opacity="1" fill-rule="nonzero"/><path fill="#51a7dd" d="M 457.832031 114.273438 C 457.832031 119.996094 448.949219 120.003906 448.949219 114.273438 C 448.949219 108.554688 457.832031 108.546875 457.832031 114.273438 Z M 457.832031 114.273438 " fill-opacity="1" fill-rule="nonzero"/><path fill="#51a7dd" d="M 520.070312 156.703125 L 519.992188 156.394531 C 519.214844 153.441406 520.972656 150.253906 523.9375 149.4375 C 526.90625 148.621094 530.117188 150.421875 530.890625 153.386719 L 530.972656 153.699219 C 531.75 156.652344 529.992188 159.839844 527.023438 160.65625 C 524.101562 161.460938 520.847656 159.671875 520.070312 156.703125 L 519.992188 156.394531 C 519.214844 153.441406 520.972656 150.253906 523.9375 149.4375 C 526.90625 148.621094 530.117188 150.421875 530.890625 153.386719 L 530.972656 153.699219 C 531.75 156.652344 529.992188 159.839844 527.023438 160.65625 C 524.101562 161.460938 520.847656 159.671875 520.070312 156.703125 Z M 520.070312 156.703125 " fill-opacity="1" fill-rule="nonzero"/><path fill="#51a7dd" d="M 581.90625 148.09375 C 581.90625 154.332031 572.214844 154.34375 572.214844 148.09375 C 572.214844 141.855469 581.90625 141.84375 581.90625 148.09375 Z M 581.90625 148.09375 " fill-opacity="1" fill-rule="nonzero"/><path fill="#51a7dd" d="M 601.609375 144.851562 C 601.609375 150.050781 593.535156 150.058594 593.535156 144.851562 C 593.535156 139.648438 601.609375 139.640625 601.609375 144.851562 Z M 601.609375 144.851562 " fill-opacity="1" fill-rule="nonzero"/><path fill="#51a7dd" d="M 635.109375 139.960938 C 635.109375 145.941406 625.824219 145.949219 625.824219 139.960938 C 625.824219 133.980469 635.109375 133.972656 635.109375 139.960938 Z M 635.109375 139.960938 " fill-opacity="1" fill-rule="nonzero"/><path fill="#51a7dd" d="M 639.757812 126.722656 L 640.257812 126.59375 C 640.824219 126.417969 641.382812 126.394531 641.949219 126.519531 C 642.515625 126.542969 643.039062 126.710938 643.523438 127.023438 C 644.015625 127.289062 644.417969 127.652344 644.714844 128.113281 C 645.089844 128.523438 645.339844 129.003906 645.476562 129.554688 L 645.628906 130.683594 C 645.628906 131.453125 645.433594 132.164062 645.050781 132.824219 L 644.386719 133.6875 C 643.859375 134.210938 643.238281 134.574219 642.519531 134.777344 L 642.019531 134.90625 C 641.453125 135.082031 640.890625 135.109375 640.328125 134.984375 C 639.761719 134.957031 639.238281 134.789062 638.753906 134.476562 C 638.257812 134.210938 637.859375 133.847656 637.5625 133.386719 C 637.183594 132.980469 636.933594 132.496094 636.800781 131.945312 L 636.648438 130.816406 C 636.648438 130.050781 636.84375 129.339844 637.226562 128.675781 L 637.886719 127.816406 C 638.417969 127.289062 639.039062 126.925781 639.757812 126.722656 Z M 639.757812 126.722656 " fill-opacity="1" fill-rule="nonzero"/><path fill="#51a7dd" d="M 431.605469 330.289062 L 431.476562 329.785156 C 431.257812 329.085938 431.226562 328.386719 431.382812 327.695312 C 431.414062 326.996094 431.621094 326.34375 432.003906 325.742188 C 432.335938 325.132812 432.785156 324.640625 433.355469 324.265625 C 433.867188 323.800781 434.460938 323.492188 435.140625 323.324219 L 436.539062 323.140625 C 437.488281 323.140625 438.367188 323.382812 439.1875 323.855469 L 440.25 324.675781 C 440.898438 325.328125 441.351562 326.101562 441.597656 326.996094 L 441.726562 327.496094 C 441.945312 328.195312 441.976562 328.894531 441.820312 329.589844 C 441.789062 330.289062 441.582031 330.9375 441.199219 331.539062 C 440.867188 332.148438 440.417969 332.644531 439.84375 333.015625 C 439.335938 333.480469 438.742188 333.789062 438.0625 333.957031 L 436.664062 334.140625 C 435.714844 334.140625 434.835938 333.898438 434.015625 333.425781 L 432.953125 332.605469 C 432.304688 331.953125 431.851562 331.179688 431.605469 330.289062 Z M 431.605469 330.289062 " fill-opacity="1" fill-rule="nonzero"/><path fill="#51a7dd" d="M 804.765625 77.714844 C 804.765625 83.175781 796.289062 83.183594 796.289062 77.714844 C 796.289062 72.257812 804.765625 72.25 804.765625 77.714844 Z M 804.765625 77.714844 " fill-opacity="1" fill-rule="nonzero"/><path fill="#51a7dd" d="M 9.632812 369.488281 L 10.070312 369.375 C 10.578125 369.214844 11.089844 369.195312 11.601562 369.308594 C 12.109375 369.332031 12.585938 369.480469 13.023438 369.765625 C 13.472656 370.007812 13.832031 370.332031 14.101562 370.753906 C 14.441406 371.125 14.671875 371.558594 14.789062 372.058594 L 14.925781 373.082031 C 14.925781 373.773438 14.75 374.417969 14.402344 375.015625 L 13.800781 375.792969 C 13.320312 376.269531 12.757812 376.597656 12.109375 376.777344 L 11.671875 376.890625 C 11.164062 377.054688 10.652344 377.074219 10.140625 376.960938 C 9.632812 376.9375 9.15625 376.785156 8.71875 376.503906 C 8.269531 376.261719 7.910156 375.933594 7.640625 375.511719 C 7.300781 375.140625 7.070312 374.710938 6.953125 374.207031 L 6.816406 373.1875 C 6.816406 372.496094 6.992188 371.847656 7.339844 371.25 L 7.941406 370.476562 C 8.421875 369.996094 8.984375 369.671875 9.632812 369.488281 Z M 9.632812 369.488281 " fill-opacity="1" fill-rule="nonzero"/><path fill="#51a7dd" d="M 310.136719 363.011719 C 310.136719 367.953125 302.464844 367.960938 302.464844 363.011719 C 302.464844 358.070312 310.136719 358.0625 310.136719 363.011719 Z M 310.136719 363.011719 " fill-opacity="1" fill-rule="nonzero"/><path fill="#51a7dd" d="M 265.71875 449.238281 L 266.15625 449.125 C 266.664062 448.960938 267.175781 448.941406 267.683594 449.054688 C 268.195312 449.078125 268.671875 449.230469 269.109375 449.511719 C 269.558594 449.753906 269.917969 450.082031 270.1875 450.503906 C 270.527344 450.875 270.757812 451.304688 270.875 451.808594 L 271.011719 452.828125 C 271.011719 453.519531 270.835938 454.167969 270.488281 454.765625 L 269.886719 455.539062 C 269.40625 456.015625 268.84375 456.34375 268.195312 456.527344 L 267.757812 456.640625 C 267.25 456.800781 266.734375 456.820312 266.226562 456.707031 C 265.71875 456.683594 265.242188 456.535156 264.800781 456.25 C 264.355469 456.007812 263.996094 455.683594 263.722656 455.261719 C 263.382812 454.890625 263.15625 454.457031 263.039062 453.957031 L 262.898438 452.933594 C 262.898438 452.242188 263.078125 451.597656 263.425781 451 L 264.027344 450.222656 C 264.507812 449.746094 265.070312 449.417969 265.71875 449.238281 Z M 265.71875 449.238281 " fill-opacity="1" fill-rule="nonzero"/><path fill="#51a7dd" d="M 330.726562 455.871094 C 330.726562 460.8125 323.054688 460.820312 323.054688 455.871094 C 323.054688 450.929688 330.726562 450.921875 330.726562 455.871094 Z M 330.726562 455.871094 " fill-opacity="1" fill-rule="nonzero"/><path fill="#51a7dd" d="M 83.46875 493.148438 C 83.46875 498.09375 75.796875 498.101562 75.796875 493.148438 C 75.796875 488.207031 83.46875 488.199219 83.46875 493.148438 Z M 83.46875 493.148438 " fill-opacity="1" fill-rule="nonzero"/><path fill="#51a7dd" d="M 49.054688 461.796875 L 49.167969 462.230469 C 49.328125 462.742188 49.347656 463.253906 49.234375 463.761719 C 49.210938 464.273438 49.0625 464.75 48.78125 465.191406 C 48.539062 465.636719 48.210938 465.996094 47.789062 466.269531 C 47.417969 466.609375 46.988281 466.839844 46.484375 466.957031 L 45.464844 467.09375 C 44.773438 467.09375 44.128906 466.914062 43.53125 466.566406 L 42.753906 465.964844 C 42.277344 465.484375 41.953125 464.921875 41.769531 464.273438 L 41.65625 463.835938 C 41.496094 463.328125 41.476562 462.8125 41.589844 462.304688 C 41.613281 461.796875 41.761719 461.320312 42.042969 460.878906 C 42.285156 460.429688 42.613281 460.070312 43.035156 459.800781 C 43.40625 459.460938 43.835938 459.230469 44.339844 459.113281 L 45.359375 458.976562 C 46.050781 458.976562 46.695312 459.152344 47.292969 459.5 L 48.070312 460.101562 C 48.546875 460.582031 48.871094 461.144531 49.054688 461.796875 Z M 49.054688 461.796875 " fill-opacity="1" fill-rule="nonzero"/><path fill="#51a7dd" d="M 167.664062 430.378906 C 167.664062 433.242188 163.222656 433.246094 163.222656 430.378906 C 163.222656 427.515625 167.664062 427.515625 167.664062 430.378906 Z M 167.664062 430.378906 " fill-opacity="1" fill-rule="nonzero"/><path fill="#51a7dd" d="M 215.972656 412.824219 C 215.972656 416.984375 209.511719 416.988281 209.511719 412.824219 C 209.511719 408.65625 215.972656 408.65625 215.972656 412.824219 Z M 215.972656 412.824219 " fill-opacity="1" fill-rule="nonzero"/><g clip-path="url(#bf1b5d2833)"><path fill="#51a7dd" d="M 5.523438 415.414062 C 5.523438 419.835938 -1.339844 419.84375 -1.339844 415.414062 C -1.339844 410.984375 5.523438 410.984375 5.523438 415.414062 Z M 5.523438 415.414062 " fill-opacity="1" fill-rule="nonzero"/></g><path fill="#51a7dd" d="M 12.292969 295.449219 L 12.179688 295.011719 C 12.074219 294.664062 12.054688 294.3125 12.132812 293.96875 C 12.148438 293.617188 12.253906 293.292969 12.445312 292.988281 C 12.609375 292.683594 12.835938 292.433594 13.117188 292.253906 C 13.371094 292.023438 13.667969 291.867188 14.011719 291.785156 L 14.710938 291.691406 C 15.179688 291.691406 15.625 291.8125 16.035156 292.050781 L 16.566406 292.464844 C 16.894531 292.792969 17.117188 293.179688 17.242188 293.625 L 17.355469 294.058594 C 17.460938 294.40625 17.480469 294.757812 17.402344 295.105469 C 17.386719 295.457031 17.28125 295.78125 17.089844 296.085938 C 16.925781 296.390625 16.699219 296.636719 16.417969 296.820312 C 16.164062 297.050781 15.867188 297.207031 15.523438 297.289062 L 14.828125 297.382812 C 14.355469 297.382812 13.910156 297.261719 13.5 297.023438 L 12.96875 296.609375 C 12.640625 296.28125 12.417969 295.894531 12.292969 295.449219 Z M 12.292969 295.449219 " fill-opacity="1" fill-rule="nonzero"/><path fill="#51a7dd" d="M 276.65625 436.933594 C 276.65625 440.054688 271.8125 440.058594 271.8125 436.933594 C 271.8125 433.8125 276.65625 433.8125 276.65625 436.933594 Z M 276.65625 436.933594 " fill-opacity="1" fill-rule="nonzero"/><path fill="#51a7dd" d="M 433.632812 428.484375 C 433.632812 431.605469 428.785156 431.609375 428.785156 428.484375 C 428.785156 425.367188 433.632812 425.363281 433.632812 428.484375 Z M 433.632812 428.484375 " fill-opacity="1" fill-rule="nonzero"/><path fill="#51a7dd" d="M 291.628906 243.367188 L 291.515625 242.929688 C 291.414062 242.605469 291.398438 242.285156 291.472656 241.964844 C 291.488281 241.640625 291.582031 241.34375 291.757812 241.0625 C 291.910156 240.78125 292.117188 240.554688 292.382812 240.386719 C 292.617188 240.171875 292.890625 240.023438 293.207031 239.953125 L 293.851562 239.867188 C 294.289062 239.867188 294.695312 239.980469 295.078125 240.199219 L 295.566406 240.578125 C 295.863281 240.882812 296.074219 241.238281 296.1875 241.648438 L 296.300781 242.085938 C 296.402344 242.410156 296.417969 242.734375 296.34375 243.050781 C 296.328125 243.375 296.234375 243.675781 296.058594 243.953125 C 295.90625 244.234375 295.699219 244.460938 295.433594 244.632812 C 295.199219 244.847656 294.921875 244.992188 294.609375 245.0625 L 293.960938 245.148438 C 293.527344 245.148438 293.117188 245.035156 292.738281 244.816406 L 292.25 244.4375 C 291.953125 244.132812 291.742188 243.777344 291.628906 243.367188 Z M 291.628906 243.367188 " fill-opacity="1" fill-rule="nonzero"/><path fill="#51a7dd" d="M 251.886719 250.8125 C 251.886719 254.710938 245.828125 254.722656 245.828125 250.8125 C 245.828125 246.90625 251.886719 246.90625 251.886719 250.8125 Z M 251.886719 250.8125 " fill-opacity="1" fill-rule="nonzero"/><path fill="#51a7dd" d="M 228.304688 254.914062 C 228.304688 257.777344 223.863281 257.78125 223.863281 254.914062 C 223.863281 252.050781 228.304688 252.050781 228.304688 254.914062 Z M 228.304688 254.914062 " fill-opacity="1" fill-rule="nonzero"/><path fill="#51a7dd" d="M 296.472656 242.285156 C 296.472656 245.660156 291.226562 245.671875 291.226562 242.285156 C 291.226562 238.898438 296.472656 238.898438 296.472656 242.285156 Z M 296.472656 242.285156 " fill-opacity="1" fill-rule="nonzero"/><path fill="#51a7dd" d="M 178.566406 495.378906 C 178.566406 500.320312 170.898438 500.332031 170.898438 495.378906 C 170.898438 490.4375 178.566406 490.429688 178.566406 495.378906 Z M 178.566406 495.378906 " fill-opacity="1" fill-rule="nonzero"/><path fill="#51a7dd" d="M 16.75 191.355469 C 16.75 195.519531 10.289062 195.523438 10.289062 191.355469 C 10.289062 187.191406 16.75 187.191406 16.75 191.355469 Z M 16.75 191.355469 " fill-opacity="1" fill-rule="nonzero"/><path fill="#51a7dd" d="M 440.449219 331.554688 C 440.449219 334.675781 435.605469 334.679688 435.605469 331.554688 C 435.605469 328.4375 440.449219 328.433594 440.449219 331.554688 Z M 440.449219 331.554688 " fill-opacity="1" fill-rule="nonzero"/><path fill="#51a7dd" d="M 319.707031 412.074219 C 319.707031 415.191406 314.863281 415.195312 314.863281 412.074219 C 314.863281 408.949219 319.707031 408.949219 319.707031 412.074219 Z M 319.707031 412.074219 " fill-opacity="1" fill-rule="nonzero"/><path fill="#51a7dd" d="M 227.386719 444.191406 C 227.386719 447.050781 222.945312 447.054688 222.945312 444.191406 C 222.945312 441.324219 227.386719 441.324219 227.386719 444.191406 Z M 227.386719 444.191406 " fill-opacity="1" fill-rule="nonzero"/><path fill="#51a7dd" d="M 193.214844 435.585938 C 193.214844 439.484375 187.15625 439.492188 187.15625 435.585938 C 187.15625 431.675781 193.214844 431.675781 193.214844 435.585938 Z M 193.214844 435.585938 " fill-opacity="1" fill-rule="nonzero"/><path fill="#51a7dd" d="M 236.640625 468.019531 C 236.640625 471.136719 231.792969 471.140625 231.792969 468.019531 C 231.792969 464.894531 236.640625 464.894531 236.640625 468.019531 Z M 236.640625 468.019531 " fill-opacity="1" fill-rule="nonzero"/><path fill="#51a7dd" d="M 49.660156 403.730469 C 49.660156 406.328125 45.621094 406.335938 45.621094 403.730469 C 45.621094 401.121094 49.660156 401.121094 49.660156 403.730469 Z M 49.660156 403.730469 " fill-opacity="1" fill-rule="nonzero"/><path fill="#51a7dd" d="M 50.925781 380 C 50.925781 382.597656 46.890625 382.605469 46.890625 380 C 46.890625 377.390625 50.925781 377.390625 50.925781 380 Z M 50.925781 380 " fill-opacity="1" fill-rule="nonzero"/><path fill="#51a7dd" d="M 18.910156 398.195312 L 18.796875 397.761719 C 18.695312 397.4375 18.679688 397.113281 18.75 396.796875 C 18.765625 396.472656 18.859375 396.171875 19.039062 395.894531 C 19.191406 395.609375 19.398438 395.386719 19.664062 395.214844 C 19.898438 395 20.171875 394.855469 20.488281 394.78125 L 21.132812 394.699219 C 21.570312 394.699219 21.976562 394.8125 22.355469 395.03125 L 22.84375 395.410156 C 23.144531 395.710938 23.355469 396.066406 23.46875 396.480469 L 23.578125 396.917969 C 23.679688 397.238281 23.695312 397.5625 23.625 397.882812 C 23.609375 398.207031 23.515625 398.503906 23.335938 398.78125 C 23.183594 399.066406 22.976562 399.292969 22.710938 399.460938 C 22.476562 399.675781 22.203125 399.820312 21.886719 399.894531 L 21.242188 399.980469 C 20.804688 399.980469 20.398438 399.867188 20.019531 399.648438 L 19.53125 399.269531 C 19.230469 398.964844 19.019531 398.609375 18.910156 398.195312 Z M 18.910156 398.195312 " fill-opacity="1" fill-rule="nonzero"/><path fill="#51a7dd" d="M 100.726562 408.125 L 100.398438 408.210938 C 100.101562 408.300781 99.808594 408.316406 99.511719 408.25 C 99.21875 408.238281 98.945312 408.148438 98.691406 407.988281 C 98.429688 407.847656 98.222656 407.65625 98.066406 407.414062 C 97.871094 407.199219 97.742188 406.949219 97.671875 406.65625 L 97.589844 406.066406 C 97.589844 405.667969 97.691406 405.292969 97.894531 404.945312 L 98.242188 404.496094 C 98.519531 404.222656 98.847656 404.03125 99.222656 403.925781 L 99.550781 403.839844 C 99.84375 403.75 100.140625 403.738281 100.433594 403.800781 C 100.730469 403.8125 101.003906 403.902344 101.257812 404.0625 C 101.515625 404.207031 101.726562 404.394531 101.878906 404.636719 C 102.078125 404.851562 102.207031 405.101562 102.273438 405.394531 L 102.355469 405.984375 C 102.355469 406.382812 102.253906 406.757812 102.054688 407.105469 L 101.707031 407.554688 C 101.425781 407.828125 101.101562 408.019531 100.726562 408.125 Z M 100.726562 408.125 " fill-opacity="1" fill-rule="nonzero"/><path fill="#51a7dd" d="M 113.777344 393 C 113.777344 395.082031 110.546875 395.085938 110.546875 393 C 110.546875 390.917969 113.777344 390.917969 113.777344 393 Z M 113.777344 393 " fill-opacity="1" fill-rule="nonzero"/><path fill="#51a7dd" d="M 94.035156 414.21875 C 94.035156 415.777344 91.613281 415.78125 91.613281 414.21875 C 91.613281 412.652344 94.035156 412.652344 94.035156 414.21875 Z M 94.035156 414.21875 " fill-opacity="1" fill-rule="nonzero"/><path fill="#51a7dd" d="M 153.179688 352.539062 C 153.179688 354.878906 149.546875 354.882812 149.546875 352.539062 C 149.546875 350.195312 153.179688 350.195312 153.179688 352.539062 Z M 153.179688 352.539062 " fill-opacity="1" fill-rule="nonzero"/><path fill="#51a7dd" d="M 49.9375 386.238281 C 49.9375 388.316406 46.707031 388.320312 46.707031 386.238281 C 46.707031 384.152344 49.9375 384.152344 49.9375 386.238281 Z M 49.9375 386.238281 " fill-opacity="1" fill-rule="nonzero"/><path fill="#51a7dd" d="M 161.75 402.992188 C 161.75 405.074219 158.519531 405.078125 158.519531 402.992188 C 158.519531 400.910156 161.75 400.910156 161.75 402.992188 Z M 161.75 402.992188 " fill-opacity="1" fill-rule="nonzero"/><path fill="#51a7dd" d="M 226.566406 357.683594 C 226.566406 359.761719 223.335938 359.765625 223.335938 357.683594 C 223.335938 355.597656 226.566406 355.597656 226.566406 357.683594 Z M 226.566406 357.683594 " fill-opacity="1" fill-rule="nonzero"/><path fill="#51a7dd" d="M 339.171875 289.542969 C 339.171875 291.625 335.941406 291.628906 335.941406 289.542969 C 335.941406 287.457031 339.171875 287.457031 339.171875 289.542969 Z M 339.171875 289.542969 " fill-opacity="1" fill-rule="nonzero"/><path fill="#51a7dd" d="M 105.097656 366.453125 C 105.097656 371.914062 96.617188 371.921875 96.617188 366.453125 C 96.617188 360.996094 105.097656 360.988281 105.097656 366.453125 Z M 105.097656 366.453125 " fill-opacity="1" fill-rule="nonzero"/><path fill="#51a7dd" d="M 195.167969 217.75 L 195.296875 218.25 C 195.523438 218.972656 195.554688 219.703125 195.394531 220.425781 C 195.359375 221.152344 195.144531 221.828125 194.746094 222.453125 C 194.402344 223.085938 193.9375 223.601562 193.34375 223.984375 C 192.816406 224.464844 192.199219 224.792969 191.488281 224.960938 L 190.039062 225.15625 C 189.054688 225.15625 188.136719 224.90625 187.289062 224.414062 L 186.1875 223.558594 C 185.511719 222.882812 185.042969 222.078125 184.785156 221.152344 L 184.65625 220.652344 C 184.429688 219.925781 184.398438 219.199219 184.558594 218.476562 C 184.59375 217.75 184.808594 217.074219 185.207031 216.449219 C 185.550781 215.8125 186.019531 215.300781 186.613281 214.917969 C 187.136719 214.4375 187.753906 214.109375 188.464844 213.941406 L 189.914062 213.746094 C 190.898438 213.746094 191.816406 213.996094 192.664062 214.488281 L 193.765625 215.339844 C 194.441406 216.019531 194.910156 216.824219 195.167969 217.75 Z M 195.167969 217.75 " fill-opacity="1" fill-rule="nonzero"/><path fill="#51a7dd" d="M 262.347656 204.058594 C 262.347656 210.300781 252.65625 210.3125 252.65625 204.058594 C 252.65625 197.820312 262.347656 197.808594 262.347656 204.058594 Z M 262.347656 204.058594 " fill-opacity="1" fill-rule="nonzero"/><path fill="#51a7dd" d="M 272.277344 286.3125 C 272.277344 292.035156 263.394531 292.042969 263.394531 286.3125 C 263.394531 280.59375 272.277344 280.585938 272.277344 286.3125 Z M 272.277344 286.3125 " fill-opacity="1" fill-rule="nonzero"/><path fill="#51a7dd" d="M 219.589844 358.894531 L 219.511719 358.582031 C 218.734375 355.628906 220.492188 352.441406 223.460938 351.625 C 226.382812 350.820312 229.636719 352.613281 230.414062 355.578125 L 230.492188 355.886719 C 231.269531 358.84375 229.511719 362.03125 226.542969 362.847656 C 223.578125 363.664062 220.367188 361.859375 219.589844 358.894531 L 219.511719 358.582031 C 218.734375 355.628906 220.492188 352.441406 223.460938 351.625 C 226.382812 350.820312 229.636719 352.613281 230.414062 355.578125 L 230.492188 355.886719 C 231.269531 358.84375 229.511719 362.03125 226.542969 362.847656 C 223.578125 363.664062 220.367188 361.859375 219.589844 358.894531 Z M 219.589844 358.894531 " fill-opacity="1" fill-rule="nonzero"/><path fill="#51a7dd" d="M 181.492188 376.5 C 181.492188 382.738281 171.800781 382.75 171.800781 376.5 C 171.800781 370.261719 181.492188 370.25 181.492188 376.5 Z M 181.492188 376.5 " fill-opacity="1" fill-rule="nonzero"/><path fill="#51a7dd" d="M 161.222656 383.738281 C 161.222656 388.941406 153.148438 388.949219 153.148438 383.738281 C 153.148438 378.539062 161.222656 378.53125 161.222656 383.738281 Z M 161.222656 383.738281 " fill-opacity="1" fill-rule="nonzero"/><path fill="#51a7dd" d="M 130.765625 395.628906 C 130.765625 401.605469 121.480469 401.617188 121.480469 395.628906 C 121.480469 389.648438 130.765625 389.640625 130.765625 395.628906 Z M 130.765625 395.628906 " fill-opacity="1" fill-rule="nonzero"/><path fill="#51a7dd" d="M 113.6875 396.867188 L 113.183594 396.996094 C 112.621094 397.175781 112.058594 397.199219 111.492188 397.074219 C 110.929688 397.050781 110.402344 396.878906 109.917969 396.570312 C 109.425781 396.300781 109.027344 395.9375 108.726562 395.476562 C 108.351562 395.070312 108.101562 394.589844 107.96875 394.035156 L 107.816406 392.90625 C 107.816406 392.140625 108.007812 391.429688 108.390625 390.765625 L 109.054688 389.90625 C 109.582031 389.378906 110.207031 389.015625 110.925781 388.816406 L 111.425781 388.6875 C 111.988281 388.507812 112.550781 388.484375 113.117188 388.609375 C 113.683594 388.632812 114.207031 388.804688 114.691406 389.113281 C 115.183594 389.378906 115.582031 389.746094 115.882812 390.203125 C 116.257812 390.613281 116.507812 391.09375 116.640625 391.648438 L 116.796875 392.773438 C 116.796875 393.542969 116.601562 394.253906 116.21875 394.917969 L 115.554688 395.777344 C 115.027344 396.300781 114.40625 396.664062 113.6875 396.867188 Z M 113.6875 396.867188 " fill-opacity="1" fill-rule="nonzero"/><path fill="#51a7dd" d="M 534.960938 450.863281 L 534.832031 450.359375 C 534.613281 449.660156 534.582031 448.960938 534.742188 448.269531 C 534.773438 447.570312 534.976562 446.917969 535.363281 446.316406 C 535.691406 445.707031 536.140625 445.214844 536.714844 444.839844 C 537.222656 444.375 537.816406 444.066406 538.5 443.898438 L 539.894531 443.714844 C 540.84375 443.714844 541.726562 443.957031 542.546875 444.429688 L 543.605469 445.25 C 544.257812 445.902344 544.710938 446.675781 544.957031 447.570312 L 545.085938 448.070312 C 545.304688 448.769531 545.335938 449.46875 545.179688 450.164062 C 545.144531 450.863281 544.941406 451.511719 544.554688 452.113281 C 544.226562 452.722656 543.777344 453.21875 543.203125 453.589844 C 542.695312 454.054688 542.101562 454.363281 541.417969 454.53125 L 540.023438 454.714844 C 539.074219 454.714844 538.191406 454.472656 537.371094 454 L 536.3125 453.179688 C 535.660156 452.527344 535.207031 451.753906 534.960938 450.863281 Z M 534.960938 450.863281 " fill-opacity="1" fill-rule="nonzero"/></g></g></g></g></svg>