<svg xmlns="http://www.w3.org/2000/svg" xmlns:xlink="http://www.w3.org/1999/xlink" width="200" zoomAndPan="magnify" viewBox="0 0 150 149.999998" height="200" preserveAspectRatio="xMidYMid meet" version="1.0"><defs><clipPath id="3896521e20"><path d="M 10.496094 3.164062 L 139.496094 3.164062 L 139.496094 143.414062 L 10.496094 143.414062 Z M 10.496094 3.164062 " clip-rule="nonzero"/></clipPath></defs><rect x="-15" width="180" fill="#ffffff" y="-15" height="179.999997" fill-opacity="1"/><rect x="-15" width="180" fill="#ffffff" y="-15" height="179.999997" fill-opacity="1"/><rect x="-15" width="180" fill="#50aceb" y="-15" height="179.999997" fill-opacity="1"/><g clip-path="url(#3896521e20)"><path fill="#ffffff" d="M 74.976562 40.359375 C 96.375 40.359375 113.714844 57.710938 113.714844 79.105469 C 113.714844 100.503906 96.375 117.855469 74.976562 117.855469 C 53.578125 117.855469 36.234375 100.503906 36.234375 79.105469 C 36.234375 57.703125 53.578125 40.359375 74.976562 40.359375 Z M 98.746094 26.472656 C 97.097656 25.730469 96.359375 23.789062 97.105469 22.144531 C 97.847656 20.496094 99.789062 19.761719 101.433594 20.503906 C 112.761719 25.628906 122.335938 33.945312 129.019531 44.296875 C 135.492188 54.332031 139.253906 66.285156 139.253906 79.105469 C 139.253906 96.859375 132.0625 112.933594 120.429688 124.570312 C 108.796875 136.203125 92.722656 143.402344 74.976562 143.402344 C 57.226562 143.402344 41.152344 136.203125 29.523438 124.570312 C 17.890625 112.933594 10.699219 96.863281 10.699219 79.105469 C 10.699219 61.351562 17.890625 45.28125 29.523438 33.644531 C 39.582031 23.585938 52.953125 16.84375 67.863281 15.203125 L 62.136719 9.007812 C 60.914062 7.6875 60.992188 5.621094 62.3125 4.398438 C 63.636719 3.179688 65.699219 3.257812 66.921875 4.578125 L 77.152344 15.644531 C 77.832031 16.246094 78.253906 17.117188 78.253906 18.09375 C 78.253906 18.976562 77.910156 19.773438 77.347656 20.363281 L 68.082031 31.714844 C 66.941406 33.113281 64.890625 33.328125 63.484375 32.183594 C 62.082031 31.050781 61.871094 28.992188 63.011719 27.589844 L 67.710938 21.824219 C 54.679688 23.457031 42.992188 29.449219 34.15625 38.28125 C 23.710938 48.726562 17.253906 63.164062 17.253906 79.105469 C 17.253906 95.050781 23.710938 109.480469 34.15625 119.933594 C 44.601562 130.378906 59.035156 136.839844 74.976562 136.839844 C 90.917969 136.839844 105.34375 130.378906 115.792969 119.933594 C 126.238281 109.488281 132.699219 95.050781 132.699219 79.105469 C 132.699219 67.578125 129.324219 56.839844 123.515625 47.835938 C 117.515625 38.539062 108.917969 31.074219 98.746094 26.472656 Z M 71.695312 54.402344 C 71.695312 52.597656 73.164062 51.125 74.976562 51.125 C 76.789062 51.125 78.253906 52.589844 78.253906 54.402344 L 78.253906 75.828125 L 94.175781 75.828125 C 95.988281 75.828125 97.457031 77.292969 97.457031 79.105469 C 97.457031 80.914062 95.988281 82.386719 94.175781 82.386719 L 74.976562 82.386719 C 73.164062 82.386719 71.695312 80.921875 71.695312 79.105469 Z M 71.695312 54.402344 " fill-opacity="1" fill-rule="evenodd"/></g></svg>