<svg xmlns="http://www.w3.org/2000/svg" xmlns:xlink="http://www.w3.org/1999/xlink" width="200" zoomAndPan="magnify" viewBox="0 0 150 149.999998" height="200" preserveAspectRatio="xMidYMid meet" version="1.0"><defs><clipPath id="9e8da05c84"><path d="M 3.304688 30 L 146.554688 30 L 146.554688 126.484375 L 3.304688 126.484375 Z M 3.304688 30 " clip-rule="nonzero"/></clipPath><clipPath id="7ebb86b0a1"><path d="M 40 12.484375 L 112 12.484375 L 112 53 L 40 53 Z M 40 12.484375 " clip-rule="nonzero"/></clipPath></defs><rect x="-15" width="180" fill="#ffffff" y="-15" height="179.999997" fill-opacity="1"/><rect x="-15" width="180" fill="#50aceb" y="-15" height="179.999997" fill-opacity="1"/><g clip-path="url(#9e8da05c84)"><path fill="#ffffff" d="M 141.96875 108.480469 L 137.050781 108.480469 C 137.273438 107.8125 137.496094 107.03125 137.496094 106.140625 L 137.496094 37.179688 C 137.496094 33.386719 134.476562 30.375 130.675781 30.375 L 112.335938 30.375 C 112.785156 31.378906 113.117188 32.492188 113.117188 33.722656 C 113.117188 34.054688 113.117188 34.503906 113.007812 34.835938 L 130.675781 34.835938 C 131.90625 34.835938 133.023438 35.839844 133.023438 37.179688 L 133.023438 106.140625 C 133.023438 107.367188 132.015625 108.480469 130.675781 108.480469 L 88.292969 108.480469 C 87.0625 108.480469 86.058594 109.488281 86.058594 110.714844 C 86.058594 111.941406 85.050781 112.945312 83.820312 112.945312 L 65.929688 112.945312 C 64.699219 112.945312 63.691406 111.941406 63.691406 110.714844 C 63.691406 109.488281 62.683594 108.480469 61.453125 108.480469 L 19.074219 108.480469 C 17.84375 108.480469 16.722656 107.476562 16.722656 106.140625 L 16.722656 37.179688 C 16.722656 35.953125 17.730469 34.835938 19.074219 34.835938 L 45.128906 34.835938 L 45.128906 31.042969 L 42.554688 30.375 L 19.074219 30.375 C 15.269531 30.375 12.25 33.386719 12.25 37.179688 L 12.25 106.140625 C 12.25 106.921875 12.363281 107.699219 12.699219 108.480469 L 7.777344 108.480469 C 5.316406 108.480469 3.304688 110.492188 3.304688 112.945312 L 3.304688 117.855469 C 3.304688 122.542969 7.105469 126.335938 11.804688 126.335938 L 138.054688 126.335938 C 142.753906 126.335938 146.554688 122.542969 146.554688 117.855469 L 146.554688 112.945312 C 146.441406 110.492188 144.429688 108.480469 141.96875 108.480469 Z M 141.96875 117.855469 C 141.96875 120.085938 140.179688 121.871094 137.945312 121.871094 L 11.804688 121.871094 C 9.566406 121.871094 7.777344 120.085938 7.777344 117.855469 L 7.777344 112.945312 L 59.664062 112.945312 C 60.558594 115.511719 63.019531 117.410156 65.929688 117.410156 L 83.820312 117.410156 C 86.726562 117.410156 89.1875 115.511719 90.082031 112.945312 L 141.96875 112.945312 Z M 141.96875 117.855469 " fill-opacity="1" fill-rule="nonzero"/></g><path fill="#ffffff" d="M 122.734375 42.648438 C 124.078125 42.648438 125.195312 43.765625 125.195312 45.101562 L 125.195312 98.214844 C 125.195312 99.554688 124.078125 100.671875 122.734375 100.671875 L 27.011719 100.671875 C 25.671875 100.671875 24.550781 99.554688 24.550781 98.214844 L 24.550781 45.101562 C 24.550781 43.765625 25.671875 42.648438 27.011719 42.648438 L 45.015625 42.648438 L 45.015625 38.183594 L 27.011719 38.183594 C 23.210938 38.183594 20.078125 41.308594 20.078125 45.101562 L 20.078125 98.214844 C 20.078125 102.011719 23.210938 105.132812 27.011719 105.132812 L 122.734375 105.132812 C 126.539062 105.132812 129.667969 102.011719 129.667969 98.214844 L 129.667969 45.101562 C 129.667969 41.308594 126.539062 38.183594 122.734375 38.183594 L 115.46875 38.183594 C 115.914062 39.636719 115.800781 41.199219 115.242188 42.648438 Z M 122.734375 42.648438 " fill-opacity="1" fill-rule="nonzero"/><g clip-path="url(#7ebb86b0a1)"><path fill="#ffffff" d="M 108.199219 34.949219 C 108.308594 34.613281 108.421875 34.167969 108.421875 33.722656 C 108.421875 32.71875 107.976562 31.824219 107.304688 31.265625 L 107.304688 23.679688 C 107.304688 23.679688 107.304688 23.679688 107.304688 23.566406 C 107.304688 23.34375 107.304688 23.234375 107.191406 23.121094 C 107.191406 23.007812 107.191406 23.007812 107.082031 22.898438 C 107.082031 22.785156 106.96875 22.675781 106.96875 22.5625 C 106.855469 22.453125 106.746094 22.226562 106.632812 22.117188 C 106.410156 21.894531 106.074219 21.671875 105.625 21.558594 L 74.539062 12.742188 C 74.089844 12.632812 73.753906 12.632812 73.308594 12.742188 L 42.222656 21.449219 C 41.214844 21.671875 40.542969 22.5625 40.542969 23.566406 C 40.542969 24.570312 41.214844 25.464844 42.222656 25.6875 L 49.378906 27.695312 L 49.378906 43.316406 C 49.378906 45.324219 50.609375 47.113281 52.398438 47.78125 L 52.621094 47.890625 C 56.421875 49.34375 65.367188 52.800781 74.761719 52.800781 C 84.828125 52.800781 91.984375 49.566406 95.449219 48.117188 L 95.785156 47.890625 C 97.464844 47.113281 98.582031 45.4375 98.582031 43.539062 L 98.582031 27.917969 L 102.832031 26.691406 L 102.832031 31.265625 C 102.160156 31.824219 101.710938 32.71875 101.710938 33.722656 C 101.710938 34.503906 101.9375 35.171875 102.382812 35.730469 L 100.59375 38.964844 C 100.035156 40.082031 100.371094 41.421875 101.488281 41.980469 C 101.824219 42.203125 102.160156 42.203125 102.605469 42.203125 C 103.390625 42.203125 104.171875 41.753906 104.621094 41.085938 L 105.625 39.1875 L 106.96875 41.199219 C 107.414062 41.867188 108.085938 42.203125 108.871094 42.203125 C 109.316406 42.203125 109.652344 42.089844 110.097656 41.867188 C 111.105469 41.199219 111.441406 39.859375 110.769531 38.742188 Z M 73.980469 17.09375 L 97.128906 23.679688 L 75.210938 30.152344 L 51.277344 23.566406 Z M 94.109375 43.429688 C 94.109375 43.539062 93.996094 43.652344 93.882812 43.765625 L 93.550781 43.988281 C 90.195312 45.550781 83.820312 48.339844 74.761719 48.339844 C 66.152344 48.339844 58.101562 45.214844 54.1875 43.765625 L 53.960938 43.652344 C 53.851562 43.652344 53.738281 43.539062 53.738281 43.316406 L 53.738281 28.921875 L 74.425781 34.613281 C 74.652344 34.613281 74.875 34.726562 74.984375 34.726562 C 75.210938 34.726562 75.433594 34.726562 75.65625 34.613281 L 93.996094 29.148438 L 93.996094 43.429688 Z M 94.109375 43.429688 " fill-opacity="1" fill-rule="nonzero"/></g><path fill="#ffffff" d="M 46.917969 64.964844 C 46.917969 62.511719 44.90625 60.5 42.445312 60.5 L 37.972656 60.5 C 35.511719 60.5 33.5 62.511719 33.5 64.964844 L 33.5 69.429688 C 33.5 71.882812 35.511719 73.890625 37.972656 73.890625 L 42.445312 73.890625 C 44.90625 73.890625 46.917969 71.882812 46.917969 69.429688 Z M 37.972656 69.429688 L 37.972656 64.964844 L 42.445312 64.964844 L 42.445312 69.429688 Z M 37.972656 69.429688 " fill-opacity="1" fill-rule="nonzero"/><path fill="#ffffff" d="M 42.445312 78.355469 L 37.972656 78.355469 C 35.511719 78.355469 33.5 80.363281 33.5 82.816406 L 33.5 87.28125 C 33.5 89.734375 35.511719 91.746094 37.972656 91.746094 L 42.445312 91.746094 C 44.90625 91.746094 46.917969 89.734375 46.917969 87.28125 L 46.917969 82.816406 C 46.917969 80.363281 44.90625 78.355469 42.445312 78.355469 Z M 37.972656 87.28125 L 37.972656 82.816406 L 42.445312 82.816406 L 42.445312 87.28125 Z M 37.972656 87.28125 " fill-opacity="1" fill-rule="nonzero"/><path fill="#ffffff" d="M 60.335938 64.964844 C 59.105469 64.964844 58.101562 65.96875 58.101562 67.195312 C 58.101562 68.425781 59.105469 69.429688 60.335938 69.429688 L 114.011719 69.429688 C 115.242188 69.429688 116.25 68.425781 116.25 67.195312 C 116.25 65.96875 115.242188 64.964844 114.011719 64.964844 Z M 60.335938 64.964844 " fill-opacity="1" fill-rule="nonzero"/><path fill="#ffffff" d="M 114.011719 87.28125 C 115.242188 87.28125 116.25 86.277344 116.25 85.050781 C 116.25 83.824219 115.242188 82.816406 114.011719 82.816406 L 60.335938 82.816406 C 59.105469 82.816406 58.101562 83.824219 58.101562 85.050781 C 58.101562 86.277344 59.105469 87.28125 60.335938 87.28125 Z M 114.011719 87.28125 " fill-opacity="1" fill-rule="nonzero"/></svg>