<svg xmlns="http://www.w3.org/2000/svg" xmlns:xlink="http://www.w3.org/1999/xlink" width="200" zoomAndPan="magnify" viewBox="0 0 150 149.999998" height="200" preserveAspectRatio="xMidYMid meet" version="1.0"><defs><clipPath id="b4d4a72c4b"><path d="M 10.773438 7.324219 L 145.773438 7.324219 L 145.773438 137.074219 L 10.773438 137.074219 Z M 10.773438 7.324219 " clip-rule="nonzero"/></clipPath></defs><rect x="-15" width="180" fill="#ffffff" y="-15" height="179.999997" fill-opacity="1"/><rect x="-15" width="180" fill="#50aceb" y="-15" height="179.999997" fill-opacity="1"/><g clip-path="url(#b4d4a72c4b)"><path fill="#ffffff" d="M 137.355469 88.019531 C 136.289062 86.945312 135.132812 85.964844 133.910156 85.066406 L 133.910156 40.28125 C 133.914062 40.226562 133.917969 40.175781 133.917969 40.121094 C 133.917969 40.070312 133.914062 40.015625 133.910156 39.964844 L 133.910156 21.480469 C 133.910156 20.28125 132.933594 19.304688 131.734375 19.304688 L 120.023438 19.304688 L 120.023438 9.5 C 120.023438 8.296875 119.050781 7.324219 117.851562 7.324219 L 107.042969 7.324219 C 105.84375 7.324219 104.867188 8.296875 104.867188 9.5 L 104.867188 19.308594 L 39.863281 19.308594 L 39.863281 9.5 C 39.863281 8.296875 38.890625 7.324219 37.6875 7.324219 L 26.882812 7.324219 C 25.683594 7.324219 24.707031 8.296875 24.707031 9.5 L 24.707031 19.308594 L 13 19.308594 C 11.796875 19.308594 10.824219 20.28125 10.824219 21.480469 L 10.824219 123.953125 C 10.824219 125.15625 11.796875 126.128906 13 126.128906 L 94.746094 126.128906 C 95.4375 127.003906 96.171875 127.847656 96.957031 128.640625 C 102.128906 133.847656 109.269531 137.066406 117.15625 137.066406 C 125.039062 137.066406 132.183594 133.847656 137.355469 128.640625 C 142.527344 123.4375 145.722656 116.253906 145.722656 108.328125 C 145.722656 100.402344 142.527344 93.21875 137.355469 88.019531 Z M 109.21875 11.671875 L 115.675781 11.671875 L 115.675781 27.71875 L 109.21875 27.71875 Z M 29.058594 11.671875 L 35.511719 11.671875 L 35.511719 27.71875 L 29.058594 27.71875 Z M 24.707031 23.652344 L 24.707031 29.890625 C 24.707031 31.089844 25.683594 32.066406 26.882812 32.066406 L 37.6875 32.066406 C 38.890625 32.066406 39.863281 31.089844 39.863281 29.890625 L 39.863281 23.652344 L 104.867188 23.652344 L 104.867188 29.890625 C 104.867188 31.089844 105.84375 32.066406 107.042969 32.066406 L 117.851562 32.066406 C 119.050781 32.066406 120.023438 31.089844 120.023438 29.890625 L 120.023438 23.652344 L 129.558594 23.652344 L 129.558594 37.945312 L 15.171875 37.945312 L 15.171875 23.652344 Z M 15.171875 121.78125 L 15.171875 42.292969 L 129.5625 42.292969 L 129.5625 82.4375 C 125.808594 80.613281 121.601562 79.589844 117.160156 79.589844 C 115.621094 79.589844 114.117188 79.714844 112.640625 79.949219 C 112.449219 79.894531 112.246094 79.863281 112.03125 79.863281 L 99.945312 79.863281 C 98.746094 79.863281 97.769531 80.835938 97.769531 82.035156 C 97.769531 83.238281 98.746094 84.210938 99.945312 84.210938 L 101.636719 84.210938 C 99.949219 85.316406 98.375 86.585938 96.953125 88.015625 C 93.546875 91.441406 91.007812 95.734375 89.664062 100.523438 C 89.644531 100.523438 89.628906 100.519531 89.613281 100.519531 L 77.53125 100.519531 C 76.332031 100.519531 75.355469 101.492188 75.355469 102.691406 C 75.355469 103.890625 76.332031 104.867188 77.53125 104.867188 L 88.804688 104.867188 C 88.671875 106.003906 88.59375 107.15625 88.59375 108.324219 C 88.59375 113.183594 89.800781 117.761719 91.921875 121.777344 L 15.171875 121.777344 Z M 134.28125 125.582031 C 129.902344 129.992188 123.847656 132.71875 117.15625 132.71875 C 110.464844 132.71875 104.410156 129.992188 100.03125 125.582031 C 99.167969 124.710938 98.371094 123.769531 97.640625 122.773438 C 97.613281 122.734375 97.585938 122.699219 97.5625 122.660156 C 94.660156 118.640625 92.941406 113.6875 92.941406 108.332031 C 92.941406 101.585938 95.652344 95.484375 100.03125 91.074219 C 104.410156 86.667969 110.46875 83.941406 117.15625 83.941406 C 122.082031 83.941406 126.660156 85.425781 130.488281 87.964844 C 130.527344 87.992188 130.5625 88.019531 130.605469 88.042969 C 131.925781 88.933594 133.15625 89.945312 134.277344 91.074219 C 138.65625 95.484375 141.371094 101.585938 141.371094 108.332031 C 141.371094 115.074219 138.660156 121.175781 134.28125 125.582031 Z M 97.773438 61.378906 C 97.773438 60.179688 98.746094 59.203125 99.949219 59.203125 L 112.035156 59.203125 C 113.234375 59.203125 114.210938 60.179688 114.210938 61.378906 C 114.210938 62.578125 113.234375 63.550781 112.035156 63.550781 L 99.949219 63.550781 C 98.746094 63.550781 97.773438 62.582031 97.773438 61.378906 Z M 69.375 82.035156 C 69.375 83.238281 68.402344 84.210938 67.203125 84.210938 L 55.113281 84.210938 C 53.914062 84.210938 52.9375 83.238281 52.9375 82.035156 C 52.9375 80.835938 53.914062 79.863281 55.113281 79.863281 L 67.203125 79.863281 C 68.402344 79.863281 69.375 80.835938 69.375 82.035156 Z M 69.375 61.378906 C 69.375 62.578125 68.402344 63.550781 67.203125 63.550781 L 55.113281 63.550781 C 53.914062 63.550781 52.9375 62.578125 52.9375 61.378906 C 52.9375 60.179688 53.914062 59.203125 55.113281 59.203125 L 67.203125 59.203125 C 68.402344 59.203125 69.375 60.179688 69.375 61.378906 Z M 75.355469 61.378906 C 75.355469 60.179688 76.332031 59.203125 77.53125 59.203125 L 89.617188 59.203125 C 90.820312 59.203125 91.792969 60.179688 91.792969 61.378906 C 91.792969 62.578125 90.820312 63.550781 89.617188 63.550781 L 77.53125 63.550781 C 76.328125 63.550781 75.355469 62.578125 75.355469 61.378906 Z M 75.355469 82.035156 C 75.355469 80.835938 76.332031 79.863281 77.53125 79.863281 L 89.617188 79.863281 C 90.820312 79.863281 91.792969 80.835938 91.792969 82.035156 C 91.792969 83.238281 90.820312 84.210938 89.617188 84.210938 L 77.53125 84.210938 C 76.328125 84.210938 75.355469 83.238281 75.355469 82.035156 Z M 46.964844 61.378906 C 46.964844 62.578125 45.988281 63.550781 44.789062 63.550781 L 32.699219 63.550781 C 31.5 63.550781 30.527344 62.578125 30.527344 61.378906 C 30.527344 60.179688 31.5 59.203125 32.699219 59.203125 L 44.789062 59.203125 C 45.988281 59.203125 46.964844 60.179688 46.964844 61.378906 Z M 46.964844 82.035156 C 46.964844 83.238281 45.988281 84.210938 44.789062 84.210938 L 32.699219 84.210938 C 31.5 84.210938 30.527344 83.238281 30.527344 82.035156 C 30.527344 80.835938 31.5 79.863281 32.699219 79.863281 L 44.789062 79.863281 C 45.988281 79.863281 46.964844 80.835938 46.964844 82.035156 Z M 69.375 102.695312 C 69.375 103.894531 68.402344 104.871094 67.203125 104.871094 L 55.113281 104.871094 C 53.914062 104.871094 52.9375 103.894531 52.9375 102.695312 C 52.9375 101.496094 53.914062 100.523438 55.113281 100.523438 L 67.203125 100.523438 C 68.402344 100.523438 69.375 101.496094 69.375 102.695312 Z M 46.964844 102.695312 C 46.964844 103.894531 45.988281 104.871094 44.789062 104.871094 L 32.699219 104.871094 C 31.5 104.871094 30.527344 103.894531 30.527344 102.695312 C 30.527344 101.496094 31.5 100.523438 32.699219 100.523438 L 44.789062 100.523438 C 45.988281 100.523438 46.964844 101.496094 46.964844 102.695312 Z M 128.726562 108.332031 C 128.726562 109.53125 127.75 110.503906 126.550781 110.503906 L 117.160156 110.503906 C 115.957031 110.503906 114.984375 109.53125 114.984375 108.332031 L 114.984375 94.96875 C 114.984375 93.769531 115.957031 92.792969 117.160156 92.792969 C 118.359375 92.792969 119.332031 93.769531 119.332031 94.96875 L 119.332031 106.15625 L 126.550781 106.15625 C 127.75 106.15625 128.726562 107.128906 128.726562 108.332031 Z M 128.726562 108.332031 " fill-opacity="1" fill-rule="nonzero"/></g></svg>