<svg xmlns="http://www.w3.org/2000/svg" xmlns:xlink="http://www.w3.org/1999/xlink" width="200" zoomAndPan="magnify" viewBox="0 0 150 149.999998" height="200" preserveAspectRatio="xMidYMid meet" version="1.0"><defs><clipPath id="5101ea3093"><path d="M 3.769531 57 L 110 57 L 110 138.324219 L 3.769531 138.324219 Z M 3.769531 57 " clip-rule="nonzero"/></clipPath><clipPath id="f3a2b3fe21"><path d="M 81 19.824219 L 146.269531 19.824219 L 146.269531 85 L 81 85 Z M 81 19.824219 " clip-rule="nonzero"/></clipPath></defs><rect x="-15" width="180" fill="#ffffff" y="-15" height="179.999997" fill-opacity="1"/><rect x="-15" width="180" fill="#50aceb" y="-15" height="179.999997" fill-opacity="1"/><g clip-path="url(#5101ea3093)"><path fill="#ffffff" d="M 97.285156 85.722656 C 97.839844 85.722656 98.398438 85.496094 98.84375 85.050781 C 99.289062 84.605469 99.511719 84.046875 99.511719 83.488281 L 99.511719 65.5 L 109.308594 65.5 L 107.859375 61.03125 L 97.285156 61.03125 C 96.058594 61.03125 95.058594 62.039062 95.058594 63.265625 L 95.058594 81.253906 L 78.359375 81.253906 C 77.800781 81.253906 77.246094 81.476562 76.800781 81.921875 C 76.355469 82.257812 76.132812 82.816406 76.132812 83.488281 L 76.132812 102.476562 L 53.867188 102.476562 C 52.640625 102.476562 51.640625 103.484375 51.640625 104.710938 L 51.640625 122.476562 L 44.847656 122.476562 C 45.40625 122.027344 45.851562 121.46875 46.183594 120.910156 C 46.628906 119.90625 46.742188 118.675781 46.40625 117.558594 L 41.730469 100.46875 C 41.730469 100.46875 41.730469 100.355469 41.730469 100.355469 C 41.285156 99.238281 40.617188 98.234375 39.726562 97.449219 L 33.828125 92.425781 L 33.828125 87.621094 L 39.058594 89.519531 C 39.503906 89.742188 40.0625 89.742188 40.507812 89.742188 C 42.289062 89.742188 43.847656 88.738281 44.625 87.0625 L 45.515625 84.9375 C 45.960938 83.820312 45.960938 82.59375 45.515625 81.476562 C 45.070312 80.359375 44.070312 79.464844 42.957031 79.019531 L 33.828125 75.667969 L 33.828125 66.730469 C 33.828125 61.816406 29.820312 57.792969 24.921875 57.792969 L 16.015625 57.792969 C 11.117188 57.792969 7.109375 61.816406 7.109375 66.730469 L 7.109375 93.542969 C 7.109375 94.769531 8.109375 95.773438 9.335938 95.773438 L 9.335938 130.40625 C 9.335938 131.746094 9.890625 132.976562 10.894531 133.757812 L 5.996094 133.757812 C 4.769531 133.757812 3.769531 134.761719 3.769531 135.992188 C 3.769531 137.222656 4.769531 138.226562 5.996094 138.226562 L 31.488281 138.226562 C 32.714844 138.226562 33.714844 137.222656 33.714844 135.992188 L 33.714844 127.054688 L 53.867188 127.054688 C 55.089844 127.054688 56.09375 126.050781 56.09375 124.820312 L 56.09375 106.945312 L 78.359375 106.945312 C 79.582031 106.945312 80.585938 105.941406 80.585938 104.710938 L 80.585938 85.722656 Z M 37.390625 101.808594 L 42.066406 118.898438 C 42.066406 118.898438 42.066406 119.011719 42.066406 119.011719 L 37.945312 120.464844 L 34.71875 106.054688 C 34.71875 105.941406 34.71875 105.941406 34.605469 105.828125 C 34.160156 104.601562 33.382812 103.484375 32.378906 102.703125 L 24.140625 95.773438 L 30.820312 95.773438 L 36.722656 100.914062 C 37.054688 101.136719 37.277344 101.472656 37.390625 101.808594 Z M 11.5625 66.730469 C 11.5625 64.273438 13.566406 62.261719 16.015625 62.261719 L 24.921875 62.261719 C 27.371094 62.261719 29.375 64.273438 29.375 66.730469 L 29.375 71.308594 L 26.480469 64.941406 C 25.921875 63.824219 24.585938 63.378906 23.472656 63.824219 C 22.359375 64.382812 21.914062 65.726562 22.359375 66.84375 L 26.367188 75.445312 C 27.148438 77.007812 28.484375 78.238281 30.042969 78.90625 L 41.285156 83.152344 L 40.507812 85.273438 L 26.367188 80.246094 C 25.8125 80.023438 25.367188 79.578125 25.144531 79.128906 L 20.246094 68.628906 C 19.6875 67.511719 18.351562 67.066406 17.238281 67.511719 C 16.125 68.070312 15.679688 69.410156 16.125 70.527344 L 21.023438 81.03125 C 21.804688 82.59375 23.140625 83.933594 24.808594 84.492188 L 29.261719 86.054688 L 29.261719 91.308594 L 11.5625 91.308594 Z M 17.574219 95.773438 C 17.683594 96.109375 17.90625 96.445312 18.242188 96.667969 L 18.242188 130.40625 L 13.789062 130.40625 L 13.789062 95.773438 Z M 31.488281 122.585938 C 30.265625 122.585938 29.261719 123.59375 29.261719 124.820312 L 29.261719 133.757812 L 21.136719 133.757812 C 22.027344 132.976562 22.695312 131.746094 22.695312 130.40625 L 22.695312 100.355469 L 29.707031 106.164062 C 30.042969 106.386719 30.265625 106.722656 30.375 107.171875 L 33.605469 121.691406 C 33.605469 121.804688 33.605469 121.804688 33.714844 121.917969 C 33.828125 122.140625 33.9375 122.363281 34.050781 122.585938 Z M 31.488281 122.585938 " fill-opacity="1" fill-rule="nonzero"/></g><g clip-path="url(#f3a2b3fe21)"><path fill="#ffffff" d="M 146.046875 21.039062 C 146.046875 21.039062 146.046875 20.929688 145.933594 20.929688 C 145.824219 20.816406 145.710938 20.59375 145.601562 20.480469 C 145.488281 20.371094 145.265625 20.257812 145.15625 20.144531 C 145.15625 20.144531 145.042969 20.144531 145.042969 20.035156 C 144.933594 19.921875 144.710938 19.921875 144.597656 19.921875 C 144.597656 19.921875 144.488281 19.921875 144.488281 19.921875 C 144.265625 19.921875 144.152344 19.921875 143.929688 19.921875 C 143.929688 19.921875 143.820312 19.921875 143.820312 19.921875 C 143.707031 19.921875 143.484375 19.921875 143.375 20.035156 C 143.375 20.035156 143.375 20.035156 143.261719 20.035156 L 83.144531 42.265625 C 82.253906 42.488281 81.699219 43.382812 81.699219 44.386719 C 81.699219 45.28125 82.367188 46.175781 83.257812 46.511719 L 110.644531 55.558594 L 119.773438 83.039062 C 120.105469 83.933594 120.886719 84.605469 121.886719 84.605469 C 122.777344 84.605469 123.667969 84.046875 124.003906 83.152344 L 146.15625 22.828125 C 146.15625 22.828125 146.15625 22.828125 146.15625 22.714844 C 146.15625 22.605469 146.269531 22.378906 146.269531 22.269531 C 146.269531 22.269531 146.269531 22.15625 146.269531 22.15625 C 146.269531 21.933594 146.269531 21.820312 146.269531 21.597656 C 146.269531 21.597656 146.269531 21.597656 146.269531 21.488281 C 146.15625 21.375 146.046875 21.152344 146.046875 21.039062 Z M 135.246094 27.628906 L 111.757812 51.3125 L 90.605469 44.277344 Z M 122 75.667969 L 114.984375 54.441406 L 138.476562 30.871094 Z M 122 75.667969 " fill-opacity="1" fill-rule="nonzero"/></g><path fill="#ffffff" d="M 20.46875 55.558594 C 27.257812 55.558594 32.714844 50.085938 32.714844 43.269531 C 32.714844 36.457031 27.257812 30.980469 20.46875 30.980469 C 13.675781 30.980469 8.222656 36.457031 8.222656 43.269531 C 8.222656 50.085938 13.675781 55.558594 20.46875 55.558594 Z M 20.46875 35.449219 C 24.808594 35.449219 28.261719 38.914062 28.261719 43.269531 C 28.261719 47.628906 24.808594 51.089844 20.46875 51.089844 C 16.125 51.089844 12.675781 47.628906 12.675781 43.269531 C 12.675781 38.914062 16.125 35.449219 20.46875 35.449219 Z M 20.46875 35.449219 " fill-opacity="1" fill-rule="nonzero"/></svg>