<svg xmlns="http://www.w3.org/2000/svg" xmlns:xlink="http://www.w3.org/1999/xlink" width="200" zoomAndPan="magnify" viewBox="0 0 150 149.999998" height="200" preserveAspectRatio="xMidYMid meet" version="1.0"><defs><clipPath id="46a6145bec"><path d="M 23 3.847656 L 142 3.847656 L 142 135.097656 L 23 135.097656 Z M 23 3.847656 " clip-rule="nonzero"/></clipPath></defs><rect x="-15" width="180" fill="#ffffff" y="-15" height="179.999997" fill-opacity="1"/><rect x="-15" width="180" fill="#50aceb" y="-15" height="179.999997" fill-opacity="1"/><path fill="#ffffff" d="M 45.234375 92.632812 C 45.476562 92.15625 45.660156 91.660156 45.792969 91.144531 C 45.925781 90.625 46.003906 90.101562 46.023438 89.566406 C 46.042969 89.035156 46.003906 88.503906 45.910156 87.980469 C 45.816406 87.457031 45.667969 86.945312 45.460938 86.453125 C 45.257812 85.960938 45.003906 85.496094 44.699219 85.054688 C 44.394531 84.617188 44.046875 84.21875 43.65625 83.855469 C 43.265625 83.492188 42.839844 83.171875 42.382812 82.902344 C 41.921875 82.628906 41.4375 82.410156 40.933594 82.242188 L 40.933594 76.492188 C 40.90625 76.191406 40.828125 75.910156 40.695312 75.640625 C 40.5625 75.371094 40.386719 75.132812 40.164062 74.929688 C 39.941406 74.726562 39.691406 74.570312 39.414062 74.460938 C 39.132812 74.351562 38.84375 74.296875 38.542969 74.296875 C 38.242188 74.296875 37.953125 74.351562 37.671875 74.460938 C 37.394531 74.570312 37.140625 74.726562 36.921875 74.929688 C 36.699219 75.132812 36.523438 75.371094 36.390625 75.640625 C 36.257812 75.910156 36.179688 76.191406 36.152344 76.492188 L 36.152344 82.242188 C 35.734375 82.382812 35.332031 82.558594 34.949219 82.769531 C 34.5625 82.980469 34.195312 83.222656 33.851562 83.5 C 33.507812 83.773438 33.191406 84.078125 32.902344 84.410156 C 32.613281 84.742188 32.355469 85.09375 32.125 85.472656 C 31.898438 85.851562 31.707031 86.242188 31.550781 86.65625 C 31.390625 87.066406 31.269531 87.488281 31.1875 87.921875 C 31.105469 88.351562 31.058594 88.789062 31.054688 89.230469 C 31.046875 89.667969 31.078125 90.105469 31.152344 90.542969 C 31.222656 90.976562 31.332031 91.402344 31.476562 91.816406 C 31.621094 92.230469 31.804688 92.632812 32.019531 93.015625 C 32.238281 93.398438 32.484375 93.757812 32.765625 94.097656 C 33.046875 94.4375 33.355469 94.75 33.6875 95.035156 C 34.023438 95.320312 34.382812 95.574219 34.761719 95.796875 C 35.144531 96.019531 35.539062 96.203125 35.953125 96.355469 C 36.367188 96.507812 36.789062 96.621094 37.222656 96.699219 C 37.65625 96.777344 38.09375 96.816406 38.535156 96.816406 C 39.703125 96.8125 40.808594 96.542969 41.847656 96.003906 L 49.839844 103.996094 C 50.0625 104.222656 50.320312 104.394531 50.613281 104.519531 C 50.90625 104.640625 51.214844 104.703125 51.53125 104.703125 C 51.851562 104.703125 52.15625 104.640625 52.449219 104.519531 C 52.742188 104.394531 53 104.222656 53.226562 103.996094 C 53.445312 103.769531 53.617188 103.511719 53.734375 103.21875 C 53.855469 102.929688 53.914062 102.625 53.914062 102.308594 C 53.914062 101.996094 53.855469 101.691406 53.734375 101.398438 C 53.617188 101.109375 53.445312 100.851562 53.226562 100.625 Z M 41.265625 89.316406 C 41.269531 89.679688 41.203125 90.03125 41.066406 90.367188 C 40.929688 90.703125 40.734375 91 40.476562 91.257812 C 40.222656 91.515625 39.925781 91.714844 39.59375 91.855469 C 39.257812 91.996094 38.910156 92.066406 38.546875 92.070312 C 38.183594 92.070312 37.832031 92.003906 37.496094 91.867188 C 37.160156 91.726562 36.863281 91.53125 36.605469 91.273438 C 36.351562 91.019531 36.152344 90.722656 36.011719 90.386719 C 35.871094 90.054688 35.800781 89.703125 35.800781 89.339844 C 35.800781 88.976562 35.867188 88.628906 36.007812 88.292969 C 36.144531 87.957031 36.34375 87.660156 36.597656 87.402344 C 36.855469 87.148438 37.152344 86.949219 37.488281 86.808594 C 37.820312 86.671875 38.171875 86.601562 38.535156 86.601562 C 38.894531 86.601562 39.242188 86.667969 39.574219 86.808594 C 39.910156 86.945312 40.203125 87.140625 40.460938 87.394531 C 40.714844 87.648438 40.914062 87.945312 41.054688 88.277344 C 41.195312 88.609375 41.265625 88.957031 41.265625 89.316406 Z M 41.265625 89.316406 " fill-opacity="1" fill-rule="nonzero"/><path fill="#ffffff" d="M 45.710938 103.890625 C 45.386719 103.890625 45.074219 103.957031 44.777344 104.082031 C 42.785156 104.9375 40.703125 105.359375 38.535156 105.351562 C 37.640625 105.351562 36.757812 105.277344 35.878906 105.128906 C 34.996094 104.976562 34.136719 104.757812 33.292969 104.464844 C 32.453125 104.171875 31.640625 103.808594 30.859375 103.382812 C 30.074219 102.953125 29.335938 102.460938 28.632812 101.910156 C 27.933594 101.359375 27.285156 100.75 26.683594 100.089844 C 26.085938 99.429688 25.546875 98.722656 25.0625 97.972656 C 24.582031 97.222656 24.167969 96.4375 23.816406 95.617188 C 23.464844 94.796875 23.1875 93.953125 22.976562 93.085938 C 22.765625 92.21875 22.632812 91.339844 22.566406 90.449219 C 22.503906 89.558594 22.515625 88.671875 22.601562 87.78125 C 22.6875 86.894531 22.84375 86.019531 23.078125 85.160156 C 23.308594 84.296875 23.609375 83.460938 23.980469 82.648438 C 24.351562 81.835938 24.785156 81.0625 25.285156 80.324219 C 25.785156 79.585938 26.34375 78.894531 26.960938 78.246094 C 27.574219 77.601562 28.242188 77.011719 28.953125 76.476562 C 29.667969 75.945312 30.421875 75.472656 31.214844 75.0625 C 31.449219 74.9375 31.660156 74.777344 31.839844 74.582031 C 32.023438 74.386719 32.167969 74.167969 32.277344 73.925781 C 32.386719 73.679688 32.453125 73.425781 32.476562 73.160156 C 32.5 72.894531 32.480469 72.632812 32.414062 72.375 C 32.351562 72.113281 32.246094 71.871094 32.101562 71.648438 C 31.957031 71.421875 31.78125 71.230469 31.574219 71.0625 C 31.363281 70.898438 31.132812 70.769531 30.882812 70.683594 C 30.628906 70.59375 30.371094 70.550781 30.105469 70.546875 C 29.71875 70.550781 29.355469 70.636719 29.011719 70.8125 C 27.980469 71.339844 27 71.953125 26.070312 72.644531 C 25.140625 73.335938 24.277344 74.101562 23.476562 74.941406 C 22.675781 75.777344 21.949219 76.675781 21.300781 77.632812 C 20.648438 78.59375 20.082031 79.597656 19.597656 80.652344 C 19.117188 81.707031 18.726562 82.792969 18.421875 83.910156 C 18.121094 85.03125 17.917969 86.167969 17.804688 87.320312 C 17.695312 88.472656 17.679688 89.628906 17.761719 90.785156 C 17.84375 91.941406 18.019531 93.082031 18.292969 94.207031 C 18.5625 95.335938 18.929688 96.429688 19.382812 97.496094 C 19.839844 98.5625 20.378906 99.582031 21.007812 100.558594 C 21.632812 101.53125 22.335938 102.449219 23.113281 103.304688 C 23.894531 104.164062 24.738281 104.949219 25.648438 105.667969 C 26.558594 106.382812 27.523438 107.019531 28.539062 107.574219 C 29.558594 108.128906 30.613281 108.597656 31.707031 108.976562 C 32.804688 109.355469 33.921875 109.636719 35.066406 109.832031 C 36.207031 110.023438 37.359375 110.117188 38.515625 110.117188 C 41.328125 110.125 44.023438 109.578125 46.609375 108.476562 C 46.867188 108.371094 47.097656 108.226562 47.304688 108.042969 C 47.511719 107.855469 47.679688 107.640625 47.808594 107.398438 C 47.941406 107.152344 48.027344 106.894531 48.066406 106.621094 C 48.109375 106.347656 48.101562 106.074219 48.046875 105.804688 C 47.992188 105.53125 47.894531 105.277344 47.75 105.039062 C 47.609375 104.804688 47.429688 104.597656 47.214844 104.421875 C 47 104.25 46.761719 104.113281 46.5 104.023438 C 46.238281 103.933594 45.972656 103.886719 45.695312 103.890625 Z M 45.710938 103.890625 " fill-opacity="1" fill-rule="nonzero"/><path fill="#ffffff" d="M 68.144531 89.316406 C 68.144531 88.347656 68.097656 87.378906 68.003906 86.414062 C 67.910156 85.449219 67.769531 84.488281 67.578125 83.539062 C 67.390625 82.585938 67.15625 81.644531 66.875 80.71875 C 66.59375 79.789062 66.269531 78.875 65.898438 77.980469 C 65.527344 77.082031 65.113281 76.207031 64.65625 75.351562 C 64.199219 74.496094 63.703125 73.664062 63.164062 72.855469 C 62.625 72.050781 62.046875 71.269531 61.433594 70.519531 C 60.816406 69.769531 60.167969 69.050781 59.480469 68.367188 C 58.796875 67.679688 58.078125 67.027344 57.328125 66.414062 C 56.582031 65.796875 55.800781 65.21875 54.996094 64.679688 C 54.191406 64.140625 53.359375 63.640625 52.503906 63.183594 C 51.648438 62.726562 50.773438 62.3125 49.878906 61.941406 C 48.980469 61.570312 48.070312 61.242188 47.140625 60.960938 C 46.214844 60.675781 45.273438 60.441406 44.324219 60.25 C 43.371094 60.0625 42.414062 59.917969 41.449219 59.824219 C 40.484375 59.730469 39.515625 59.679688 38.546875 59.679688 C 37.574219 59.679688 36.609375 59.726562 35.644531 59.820312 C 34.675781 59.917969 33.71875 60.058594 32.769531 60.246094 C 31.816406 60.4375 30.875 60.671875 29.949219 60.953125 C 29.019531 61.234375 28.109375 61.558594 27.210938 61.929688 C 26.316406 62.300781 25.441406 62.714844 24.585938 63.171875 C 23.730469 63.628906 22.898438 64.128906 22.089844 64.667969 C 21.285156 65.207031 20.507812 65.78125 19.757812 66.398438 C 19.007812 67.011719 18.289062 67.664062 17.601562 68.347656 C 16.914062 69.035156 16.265625 69.753906 15.648438 70.503906 C 15.035156 71.253906 14.457031 72.03125 13.917969 72.835938 C 13.378906 73.644531 12.878906 74.476562 12.421875 75.332031 C 11.964844 76.1875 11.550781 77.0625 11.179688 77.957031 C 10.808594 78.855469 10.480469 79.765625 10.199219 80.695312 C 9.917969 81.625 9.683594 82.5625 9.492188 83.515625 C 9.304688 84.464844 9.160156 85.425781 9.066406 86.390625 C 8.972656 87.355469 8.921875 88.324219 8.921875 89.292969 C 8.921875 90.265625 8.96875 91.230469 9.066406 92.199219 C 9.160156 93.164062 9.300781 94.121094 9.492188 95.074219 C 9.679688 96.023438 9.914062 96.964844 10.195312 97.894531 C 10.476562 98.820312 10.804688 99.734375 11.175781 100.628906 C 11.546875 101.527344 11.960938 102.402344 12.417969 103.257812 C 12.875 104.113281 13.371094 104.945312 13.910156 105.753906 C 14.449219 106.558594 15.027344 107.335938 15.640625 108.085938 C 16.257812 108.835938 16.90625 109.554688 17.59375 110.242188 C 18.28125 110.929688 18.996094 111.578125 19.746094 112.195312 C 20.496094 112.808594 21.273438 113.386719 22.082031 113.925781 C 22.886719 114.464844 23.71875 114.964844 24.574219 115.421875 C 25.429688 115.878906 26.304688 116.292969 27.199219 116.664062 C 28.097656 117.035156 29.007812 117.363281 29.9375 117.644531 C 30.867188 117.925781 31.804688 118.160156 32.757812 118.351562 C 33.707031 118.539062 34.664062 118.679688 35.632812 118.777344 C 36.597656 118.871094 37.5625 118.917969 38.535156 118.917969 C 39.503906 118.917969 40.46875 118.871094 41.433594 118.773438 C 42.398438 118.679688 43.355469 118.539062 44.308594 118.347656 C 45.257812 118.15625 46.195312 117.921875 47.125 117.640625 C 48.050781 117.359375 48.964844 117.03125 49.859375 116.660156 C 50.753906 116.289062 51.628906 115.875 52.484375 115.417969 C 53.339844 114.960938 54.167969 114.464844 54.976562 113.925781 C 55.78125 113.386719 56.558594 112.808594 57.308594 112.195312 C 58.058594 111.582031 58.773438 110.929688 59.460938 110.246094 C 60.144531 109.558594 60.796875 108.84375 61.410156 108.09375 C 62.027344 107.34375 62.605469 106.566406 63.144531 105.761719 C 63.683594 104.953125 64.179688 104.125 64.636719 103.269531 C 65.09375 102.414062 65.507812 101.539062 65.882812 100.644531 C 66.253906 99.75 66.578125 98.835938 66.863281 97.910156 C 67.144531 96.980469 67.378906 96.042969 67.570312 95.09375 C 67.761719 94.140625 67.902344 93.183594 68 92.21875 C 68.09375 91.253906 68.144531 90.285156 68.144531 89.316406 Z M 13.703125 89.316406 C 13.703125 88.503906 13.742188 87.691406 13.820312 86.882812 C 13.902344 86.074219 14.019531 85.269531 14.179688 84.472656 C 14.339844 83.671875 14.535156 82.886719 14.773438 82.105469 C 15.007812 81.328125 15.28125 80.5625 15.59375 79.8125 C 15.902344 79.058594 16.25 78.324219 16.632812 77.609375 C 17.019531 76.890625 17.433594 76.195312 17.886719 75.519531 C 18.339844 74.839844 18.824219 74.1875 19.339844 73.558594 C 19.855469 72.929688 20.398438 72.328125 20.976562 71.753906 C 21.550781 71.179688 22.152344 70.632812 22.78125 70.117188 C 23.410156 69.601562 24.0625 69.117188 24.738281 68.664062 C 25.414062 68.210938 26.109375 67.796875 26.828125 67.410156 C 27.546875 67.027344 28.28125 66.679688 29.03125 66.371094 C 29.78125 66.058594 30.546875 65.785156 31.324219 65.546875 C 32.105469 65.3125 32.890625 65.113281 33.691406 64.957031 C 34.488281 64.796875 35.289062 64.679688 36.101562 64.597656 C 36.910156 64.519531 37.71875 64.480469 38.535156 64.480469 C 39.347656 64.480469 40.160156 64.519531 40.96875 64.597656 C 41.777344 64.679688 42.582031 64.796875 43.378906 64.957031 C 44.175781 65.113281 44.964844 65.3125 45.742188 65.546875 C 46.519531 65.785156 47.285156 66.058594 48.035156 66.371094 C 48.789062 66.679688 49.523438 67.027344 50.238281 67.410156 C 50.957031 67.796875 51.652344 68.210938 52.328125 68.664062 C 53.003906 69.117188 53.65625 69.601562 54.285156 70.117188 C 54.914062 70.632812 55.515625 71.179688 56.09375 71.753906 C 56.667969 72.328125 57.214844 72.929688 57.730469 73.558594 C 58.246094 74.1875 58.730469 74.839844 59.179688 75.519531 C 59.632812 76.195312 60.050781 76.890625 60.433594 77.609375 C 60.816406 78.324219 61.164062 79.058594 61.476562 79.8125 C 61.785156 80.5625 62.058594 81.328125 62.296875 82.105469 C 62.53125 82.886719 62.730469 83.671875 62.886719 84.472656 C 63.046875 85.269531 63.167969 86.074219 63.246094 86.882812 C 63.324219 87.691406 63.367188 88.503906 63.367188 89.316406 C 63.367188 90.132812 63.324219 90.941406 63.246094 91.753906 C 63.167969 92.5625 63.046875 93.367188 62.886719 94.164062 C 62.730469 94.960938 62.53125 95.75 62.296875 96.527344 C 62.058594 97.304688 61.785156 98.070312 61.476562 98.824219 C 61.164062 99.574219 60.816406 100.308594 60.433594 101.027344 C 60.050781 101.742188 59.632812 102.441406 59.179688 103.117188 C 58.730469 103.792969 58.246094 104.445312 57.730469 105.074219 C 57.214844 105.703125 56.667969 106.304688 56.09375 106.882812 C 55.515625 107.457031 54.914062 108.003906 54.285156 108.519531 C 53.65625 109.035156 53.003906 109.519531 52.328125 109.96875 C 51.652344 110.421875 50.957031 110.839844 50.238281 111.222656 C 49.523438 111.605469 48.789062 111.953125 48.035156 112.265625 C 47.285156 112.578125 46.519531 112.851562 45.742188 113.085938 C 44.964844 113.324219 44.175781 113.519531 43.378906 113.679688 C 42.582031 113.835938 41.777344 113.957031 40.96875 114.035156 C 40.160156 114.117188 39.347656 114.15625 38.535156 114.15625 C 37.722656 114.15625 36.910156 114.113281 36.101562 114.035156 C 35.292969 113.953125 34.488281 113.832031 33.691406 113.671875 C 32.894531 113.511719 32.105469 113.316406 31.328125 113.078125 C 30.550781 112.84375 29.789062 112.566406 29.035156 112.257812 C 28.285156 111.945312 27.550781 111.597656 26.835938 111.214844 C 26.117188 110.828125 25.421875 110.410156 24.746094 109.960938 C 24.070312 109.507812 23.417969 109.023438 22.789062 108.507812 C 22.160156 107.992188 21.558594 107.445312 20.984375 106.871094 C 20.410156 106.296875 19.867188 105.695312 19.351562 105.066406 C 18.832031 104.4375 18.351562 103.785156 17.898438 103.109375 C 17.445312 102.433594 17.027344 101.738281 16.644531 101.019531 C 16.261719 100.300781 15.914062 99.570312 15.601562 98.816406 C 15.289062 98.066406 15.015625 97.300781 14.78125 96.523438 C 14.542969 95.746094 14.34375 94.957031 14.183594 94.160156 C 14.027344 93.363281 13.90625 92.558594 13.824219 91.75 C 13.746094 90.941406 13.703125 90.128906 13.703125 89.316406 Z M 13.703125 89.316406 " fill-opacity="1" fill-rule="nonzero"/><path fill="#ffffff" d="M 99.183594 82.753906 L 74.070312 82.753906 C 73.734375 82.726562 73.410156 82.765625 73.089844 82.875 C 72.773438 82.984375 72.492188 83.152344 72.242188 83.378906 C 71.996094 83.605469 71.804688 83.871094 71.667969 84.179688 C 71.535156 84.488281 71.464844 84.808594 71.464844 85.144531 C 71.464844 85.480469 71.535156 85.804688 71.667969 86.109375 C 71.804688 86.417969 71.996094 86.6875 72.242188 86.914062 C 72.492188 87.140625 72.773438 87.308594 73.089844 87.417969 C 73.410156 87.523438 73.734375 87.566406 74.070312 87.535156 L 99.183594 87.535156 C 99.484375 87.511719 99.769531 87.429688 100.039062 87.296875 C 100.304688 87.164062 100.542969 86.988281 100.746094 86.765625 C 100.949219 86.546875 101.105469 86.296875 101.214844 86.015625 C 101.324219 85.734375 101.378906 85.445312 101.378906 85.144531 C 101.378906 84.84375 101.324219 84.554688 101.214844 84.273438 C 101.105469 83.996094 100.949219 83.746094 100.746094 83.523438 C 100.542969 83.300781 100.304688 83.125 100.039062 82.992188 C 99.769531 82.859375 99.484375 82.78125 99.183594 82.753906 Z M 99.183594 82.753906 " fill-opacity="1" fill-rule="nonzero"/><g clip-path="url(#46a6145bec)"><path fill="#ffffff" d="M 133.75 24.117188 L 130.980469 24.117188 L 130.980469 21.980469 C 130.980469 21.457031 130.929688 20.9375 130.824219 20.421875 C 130.722656 19.90625 130.570312 19.40625 130.371094 18.921875 C 130.167969 18.4375 129.921875 17.976562 129.632812 17.542969 C 129.339844 17.105469 129.007812 16.699219 128.636719 16.328125 C 128.265625 15.957031 127.863281 15.625 127.429688 15.332031 C 126.992188 15.042969 126.53125 14.792969 126.046875 14.589844 C 125.566406 14.390625 125.066406 14.234375 124.550781 14.132812 C 124.035156 14.027344 123.515625 13.972656 122.992188 13.972656 L 120.222656 13.972656 L 120.222656 11.835938 C 120.222656 11.3125 120.171875 10.792969 120.066406 10.277344 C 119.964844 9.761719 119.8125 9.261719 119.609375 8.777344 C 119.40625 8.292969 119.160156 7.832031 118.867188 7.398438 C 118.578125 6.960938 118.246094 6.558594 117.871094 6.1875 C 117.5 5.816406 117.097656 5.484375 116.660156 5.191406 C 116.222656 4.902344 115.761719 4.65625 115.277344 4.453125 C 114.792969 4.253906 114.292969 4.101562 113.777344 4 C 113.261719 3.898438 112.742188 3.847656 112.21875 3.847656 L 31.003906 3.847656 C 30.480469 3.847656 29.960938 3.902344 29.449219 4.003906 C 28.9375 4.109375 28.4375 4.261719 27.957031 4.464844 C 27.472656 4.667969 27.015625 4.914062 26.582031 5.207031 C 26.148438 5.496094 25.746094 5.828125 25.375 6.199219 C 25.007812 6.570312 24.679688 6.972656 24.386719 7.410156 C 24.097656 7.84375 23.855469 8.304688 23.652344 8.789062 C 23.453125 9.269531 23.304688 9.769531 23.203125 10.28125 C 23.101562 10.796875 23.050781 11.3125 23.050781 11.835938 L 23.050781 55.941406 C 23.050781 56.257812 23.109375 56.558594 23.230469 56.851562 C 23.351562 57.144531 23.523438 57.402344 23.746094 57.625 C 23.96875 57.847656 24.226562 58.019531 24.519531 58.140625 C 24.8125 58.261719 25.113281 58.320312 25.429688 58.320312 C 25.746094 58.320312 26.050781 58.261719 26.339844 58.140625 C 26.632812 58.019531 26.890625 57.847656 27.113281 57.625 C 27.335938 57.402344 27.507812 57.144531 27.628906 56.851562 C 27.75 56.558594 27.8125 56.257812 27.8125 55.941406 L 27.8125 11.835938 C 27.8125 11.414062 27.894531 11.003906 28.058594 10.613281 C 28.21875 10.222656 28.449219 9.875 28.75 9.570312 C 29.046875 9.269531 29.390625 9.035156 29.78125 8.871094 C 30.171875 8.703125 30.578125 8.617188 31.003906 8.609375 L 112.21875 8.609375 C 112.644531 8.613281 113.054688 8.695312 113.449219 8.859375 C 113.84375 9.023438 114.191406 9.257812 114.496094 9.558594 C 114.796875 9.863281 115.03125 10.210938 115.195312 10.605469 C 115.359375 11 115.441406 11.410156 115.445312 11.835938 L 115.445312 13.972656 L 41.761719 13.972656 C 41.234375 13.972656 40.714844 14.027344 40.203125 14.128906 C 39.6875 14.234375 39.1875 14.386719 38.703125 14.585938 C 38.21875 14.789062 37.757812 15.035156 37.320312 15.328125 C 36.886719 15.621094 36.480469 15.953125 36.109375 16.324219 C 35.738281 16.695312 35.410156 17.101562 35.117188 17.539062 C 34.828125 17.972656 34.582031 18.433594 34.378906 18.921875 C 34.179688 19.40625 34.027344 19.90625 33.925781 20.421875 C 33.824219 20.9375 33.773438 21.457031 33.773438 21.980469 L 33.773438 50.859375 C 33.773438 51.175781 33.832031 51.480469 33.953125 51.769531 C 34.074219 52.0625 34.246094 52.320312 34.46875 52.542969 C 34.695312 52.765625 34.949219 52.9375 35.242188 53.058594 C 35.535156 53.179688 35.835938 53.238281 36.152344 53.238281 C 36.46875 53.238281 36.773438 53.179688 37.0625 53.058594 C 37.355469 52.9375 37.613281 52.765625 37.835938 52.542969 C 38.058594 52.320312 38.230469 52.0625 38.351562 51.769531 C 38.472656 51.480469 38.535156 51.175781 38.535156 50.859375 L 38.535156 21.980469 C 38.535156 21.554688 38.617188 21.140625 38.78125 20.746094 C 38.941406 20.351562 39.175781 20 39.480469 19.699219 C 39.78125 19.394531 40.128906 19.164062 40.527344 19 C 40.921875 18.835938 41.332031 18.753906 41.761719 18.753906 L 122.992188 18.753906 C 123.417969 18.753906 123.828125 18.839844 124.222656 19.003906 C 124.617188 19.167969 124.960938 19.402344 125.261719 19.703125 C 125.5625 20.007812 125.796875 20.355469 125.957031 20.75 C 126.121094 21.144531 126.203125 21.554688 126.203125 21.980469 L 126.203125 24.117188 L 52.519531 24.117188 C 51.996094 24.117188 51.476562 24.167969 50.964844 24.269531 C 50.453125 24.371094 49.953125 24.519531 49.46875 24.722656 C 48.988281 24.921875 48.527344 25.164062 48.089844 25.457031 C 47.65625 25.746094 47.253906 26.074219 46.882812 26.445312 C 46.511719 26.8125 46.179688 27.214844 45.890625 27.648438 C 45.597656 28.082031 45.351562 28.542969 45.148438 29.023438 C 44.945312 29.507812 44.792969 30.003906 44.691406 30.519531 C 44.585938 31.03125 44.53125 31.546875 44.53125 32.070312 L 44.53125 53.066406 C 44.53125 53.378906 44.589844 53.683594 44.710938 53.976562 C 44.832031 54.269531 45.003906 54.527344 45.226562 54.75 C 45.449219 54.972656 45.707031 55.144531 46 55.265625 C 46.292969 55.386719 46.59375 55.445312 46.910156 55.445312 C 47.226562 55.445312 47.53125 55.386719 47.820312 55.265625 C 48.113281 55.144531 48.371094 54.972656 48.59375 54.75 C 48.816406 54.527344 48.988281 54.269531 49.109375 53.976562 C 49.230469 53.683594 49.292969 53.378906 49.292969 53.066406 L 49.292969 32.070312 C 49.292969 31.644531 49.375 31.230469 49.539062 30.835938 C 49.703125 30.441406 49.933594 30.09375 50.238281 29.789062 C 50.539062 29.488281 50.890625 29.253906 51.285156 29.089844 C 51.679688 28.925781 52.089844 28.84375 52.519531 28.84375 L 133.75 28.84375 C 134.175781 28.847656 134.585938 28.929688 134.980469 29.09375 C 135.375 29.257812 135.722656 29.492188 136.023438 29.796875 C 136.320312 30.097656 136.554688 30.445312 136.714844 30.839844 C 136.878906 31.234375 136.960938 31.644531 136.960938 32.070312 L 136.960938 127.140625 C 136.960938 127.566406 136.878906 127.976562 136.714844 128.371094 C 136.554688 128.765625 136.324219 129.113281 136.023438 129.417969 C 135.722656 129.71875 135.375 129.953125 134.980469 130.117188 C 134.585938 130.28125 134.175781 130.367188 133.75 130.367188 L 52.519531 130.367188 C 52.089844 130.367188 51.679688 130.285156 51.285156 130.121094 C 50.890625 129.957031 50.539062 129.726562 50.238281 129.421875 C 49.933594 129.121094 49.703125 128.769531 49.539062 128.375 C 49.375 127.980469 49.292969 127.566406 49.292969 127.140625 L 49.292969 125.128906 C 49.292969 124.8125 49.230469 124.507812 49.109375 124.21875 C 48.988281 123.925781 48.816406 123.667969 48.59375 123.445312 C 48.371094 123.222656 48.113281 123.050781 47.820312 122.929688 C 47.53125 122.808594 47.226562 122.746094 46.910156 122.746094 C 46.59375 122.746094 46.292969 122.808594 46 122.929688 C 45.707031 123.050781 45.449219 123.222656 45.226562 123.445312 C 45.003906 123.667969 44.832031 123.925781 44.710938 124.21875 C 44.589844 124.507812 44.53125 124.8125 44.53125 125.128906 L 44.53125 127.140625 C 44.53125 127.664062 44.582031 128.183594 44.683594 128.699219 C 44.785156 129.214844 44.9375 129.714844 45.136719 130.199219 C 45.339844 130.6875 45.585938 131.148438 45.875 131.585938 C 46.167969 132.019531 46.5 132.425781 46.867188 132.796875 C 47.238281 133.167969 47.644531 133.5 48.078125 133.792969 C 48.515625 134.085938 48.976562 134.332031 49.460938 134.535156 C 49.945312 134.734375 50.445312 134.890625 50.960938 134.992188 C 51.472656 135.09375 51.996094 135.148438 52.519531 135.148438 L 133.75 135.148438 C 134.277344 135.148438 134.796875 135.09375 135.308594 134.992188 C 135.824219 134.890625 136.324219 134.734375 136.808594 134.535156 C 137.292969 134.332031 137.753906 134.085938 138.191406 133.792969 C 138.625 133.5 139.03125 133.167969 139.402344 132.796875 C 139.773438 132.425781 140.101562 132.019531 140.394531 131.585938 C 140.683594 131.148438 140.929688 130.6875 141.132812 130.199219 C 141.332031 129.714844 141.484375 129.214844 141.585938 128.699219 C 141.6875 128.183594 141.738281 127.664062 141.738281 127.140625 L 141.738281 32.070312 C 141.738281 31.546875 141.683594 31.03125 141.582031 30.519531 C 141.476562 30.003906 141.324219 29.507812 141.121094 29.023438 C 140.921875 28.542969 140.671875 28.082031 140.382812 27.648438 C 140.089844 27.214844 139.757812 26.8125 139.386719 26.445312 C 139.015625 26.074219 138.613281 25.746094 138.179688 25.457031 C 137.742188 25.164062 137.285156 24.921875 136.800781 24.722656 C 136.316406 24.519531 135.816406 24.371094 135.304688 24.269531 C 134.792969 24.167969 134.273438 24.117188 133.75 24.117188 Z M 133.75 24.117188 " fill-opacity="1" fill-rule="nonzero"/></g><path fill="#ffffff" d="M 99.183594 74.023438 L 81.25 74.023438 C 80.914062 73.992188 80.585938 74.035156 80.269531 74.140625 C 79.953125 74.25 79.667969 74.417969 79.421875 74.644531 C 79.171875 74.871094 78.980469 75.140625 78.847656 75.449219 C 78.710938 75.753906 78.644531 76.078125 78.644531 76.414062 C 78.644531 76.75 78.710938 77.070312 78.847656 77.378906 C 78.980469 77.6875 79.171875 77.953125 79.421875 78.179688 C 79.667969 78.40625 79.953125 78.574219 80.269531 78.683594 C 80.585938 78.792969 80.914062 78.832031 81.25 78.804688 L 99.183594 78.804688 C 99.484375 78.777344 99.769531 78.699219 100.039062 78.566406 C 100.304688 78.433594 100.542969 78.257812 100.746094 78.035156 C 100.949219 77.8125 101.105469 77.5625 101.214844 77.285156 C 101.324219 77.003906 101.378906 76.714844 101.378906 76.414062 C 101.378906 76.113281 101.324219 75.824219 101.214844 75.542969 C 101.105469 75.261719 100.949219 75.011719 100.746094 74.789062 C 100.542969 74.570312 100.304688 74.394531 100.039062 74.261719 C 99.769531 74.128906 99.484375 74.046875 99.183594 74.023438 Z M 99.183594 74.023438 " fill-opacity="1" fill-rule="nonzero"/><path fill="#ffffff" d="M 65.234375 52.554688 C 65.226562 52.875 65.28125 53.183594 65.398438 53.484375 C 65.519531 53.78125 65.6875 54.046875 65.914062 54.277344 C 66.136719 54.507812 66.394531 54.6875 66.691406 54.8125 C 66.984375 54.9375 67.292969 55.003906 67.617188 55.003906 L 99.183594 55.003906 C 99.484375 54.980469 99.769531 54.902344 100.039062 54.769531 C 100.304688 54.636719 100.542969 54.457031 100.746094 54.238281 C 100.949219 54.015625 101.105469 53.765625 101.214844 53.484375 C 101.324219 53.207031 101.378906 52.914062 101.378906 52.613281 C 101.378906 52.316406 101.324219 52.023438 101.214844 51.746094 C 101.105469 51.464844 100.949219 51.214844 100.746094 50.992188 C 100.542969 50.773438 100.304688 50.59375 100.039062 50.460938 C 99.769531 50.328125 99.484375 50.25 99.183594 50.226562 L 67.617188 50.226562 C 67.304688 50.226562 67.007812 50.285156 66.71875 50.40625 C 66.433594 50.523438 66.175781 50.691406 65.957031 50.910156 C 65.734375 51.125 65.558594 51.375 65.433594 51.660156 C 65.3125 51.945312 65.242188 52.242188 65.234375 52.554688 Z M 65.234375 52.554688 " fill-opacity="1" fill-rule="nonzero"/><path fill="#ffffff" d="M 99.183594 46.183594 C 99.484375 46.160156 99.769531 46.078125 100.039062 45.949219 C 100.304688 45.816406 100.542969 45.636719 100.746094 45.417969 C 100.949219 45.195312 101.105469 44.945312 101.214844 44.664062 C 101.324219 44.386719 101.378906 44.09375 101.378906 43.792969 C 101.378906 43.496094 101.324219 43.203125 101.214844 42.925781 C 101.105469 42.644531 100.949219 42.394531 100.746094 42.171875 C 100.542969 41.949219 100.304688 41.773438 100.039062 41.640625 C 99.769531 41.507812 99.484375 41.429688 99.183594 41.402344 L 76.664062 41.402344 C 76.363281 41.429688 76.078125 41.507812 75.808594 41.640625 C 75.539062 41.773438 75.304688 41.949219 75.101562 42.171875 C 74.898438 42.394531 74.742188 42.644531 74.632812 42.925781 C 74.523438 43.203125 74.46875 43.496094 74.46875 43.792969 C 74.46875 44.09375 74.523438 44.386719 74.632812 44.664062 C 74.742188 44.945312 74.898438 45.195312 75.101562 45.417969 C 75.304688 45.636719 75.539062 45.816406 75.808594 45.949219 C 76.078125 46.078125 76.363281 46.160156 76.664062 46.183594 Z M 99.183594 46.183594 " fill-opacity="1" fill-rule="nonzero"/><path fill="#ffffff" d="M 99.183594 106.625 L 76.664062 106.625 C 76.347656 106.625 76.042969 106.683594 75.75 106.804688 C 75.460938 106.925781 75.203125 107.097656 74.980469 107.320312 C 74.757812 107.542969 74.585938 107.800781 74.464844 108.09375 C 74.34375 108.386719 74.28125 108.6875 74.28125 109.003906 C 74.28125 109.320312 74.34375 109.625 74.464844 109.917969 C 74.585938 110.207031 74.757812 110.464844 74.980469 110.6875 C 75.203125 110.914062 75.460938 111.085938 75.75 111.207031 C 76.042969 111.324219 76.347656 111.386719 76.664062 111.386719 L 99.183594 111.386719 C 99.5 111.386719 99.804688 111.324219 100.09375 111.207031 C 100.386719 111.085938 100.644531 110.914062 100.867188 110.6875 C 101.089844 110.464844 101.261719 110.207031 101.382812 109.917969 C 101.503906 109.625 101.566406 109.320312 101.566406 109.003906 C 101.566406 108.6875 101.503906 108.386719 101.382812 108.09375 C 101.261719 107.800781 101.089844 107.542969 100.867188 107.320312 C 100.644531 107.097656 100.386719 106.925781 100.09375 106.804688 C 99.804688 106.683594 99.5 106.625 99.183594 106.625 Z M 99.183594 106.625 " fill-opacity="1" fill-rule="nonzero"/><path fill="#ffffff" d="M 99.183594 115.355469 L 67.617188 115.355469 C 67.316406 115.382812 67.03125 115.460938 66.761719 115.59375 C 66.492188 115.726562 66.257812 115.902344 66.054688 116.125 C 65.851562 116.34375 65.695312 116.597656 65.585938 116.875 C 65.476562 117.15625 65.421875 117.445312 65.421875 117.746094 C 65.421875 118.046875 65.476562 118.335938 65.585938 118.617188 C 65.695312 118.894531 65.851562 119.148438 66.054688 119.367188 C 66.257812 119.589844 66.492188 119.765625 66.761719 119.898438 C 67.03125 120.03125 67.316406 120.109375 67.617188 120.136719 L 99.183594 120.136719 C 99.484375 120.109375 99.769531 120.03125 100.039062 119.898438 C 100.304688 119.765625 100.542969 119.589844 100.746094 119.367188 C 100.949219 119.148438 101.105469 118.894531 101.214844 118.617188 C 101.324219 118.335938 101.378906 118.046875 101.378906 117.746094 C 101.378906 117.445312 101.324219 117.15625 101.214844 116.875 C 101.105469 116.597656 100.949219 116.34375 100.746094 116.125 C 100.542969 115.902344 100.304688 115.726562 100.039062 115.59375 C 99.769531 115.460938 99.484375 115.382812 99.183594 115.355469 Z M 99.183594 115.355469 " fill-opacity="1" fill-rule="nonzero"/><path fill="#ffffff" d="M 113.980469 117.597656 C 114.207031 117.910156 114.488281 118.152344 114.832031 118.332031 C 115.171875 118.507812 115.535156 118.597656 115.921875 118.601562 C 116.703125 118.601562 117.332031 118.289062 117.808594 117.667969 L 123.097656 110.734375 C 123.289062 110.480469 123.425781 110.203125 123.507812 109.898438 C 123.589844 109.589844 123.609375 109.28125 123.570312 108.96875 C 123.527344 108.652344 123.429688 108.359375 123.269531 108.085938 C 123.113281 107.808594 122.90625 107.574219 122.65625 107.382812 C 122.410156 107.1875 122.132812 107.050781 121.824219 106.96875 C 121.519531 106.886719 121.210938 106.863281 120.898438 106.90625 C 120.585938 106.949219 120.292969 107.046875 120.019531 107.207031 C 119.746094 107.367188 119.515625 107.570312 119.324219 107.824219 L 115.992188 112.214844 L 115.761719 111.878906 C 115.539062 111.566406 115.253906 111.320312 114.914062 111.144531 C 114.570312 110.964844 114.207031 110.875 113.820312 110.875 C 113.375 110.875 112.960938 110.988281 112.578125 111.222656 C 112.195312 111.453125 111.898438 111.769531 111.695312 112.167969 C 111.492188 112.566406 111.40625 112.988281 111.4375 113.433594 C 111.472656 113.882812 111.621094 114.285156 111.882812 114.648438 Z M 113.980469 117.597656 " fill-opacity="1" fill-rule="nonzero"/><path fill="#ffffff" d="M 104.914062 85.117188 C 104.914062 85.59375 104.960938 86.0625 105.054688 86.527344 C 105.148438 86.992188 105.285156 87.441406 105.464844 87.878906 C 105.644531 88.316406 105.867188 88.734375 106.132812 89.128906 C 106.394531 89.519531 106.695312 89.886719 107.027344 90.222656 C 107.363281 90.554688 107.726562 90.855469 108.121094 91.117188 C 108.515625 91.382812 108.929688 91.605469 109.367188 91.785156 C 109.804688 91.964844 110.257812 92.101562 110.722656 92.195312 C 111.1875 92.289062 111.65625 92.335938 112.128906 92.335938 L 123.117188 92.335938 C 123.589844 92.335938 124.058594 92.289062 124.523438 92.195312 C 124.988281 92.101562 125.4375 91.964844 125.875 91.785156 C 126.3125 91.605469 126.730469 91.382812 127.125 91.117188 C 127.515625 90.855469 127.882812 90.554688 128.214844 90.222656 C 128.550781 89.886719 128.851562 89.519531 129.113281 89.128906 C 129.375 88.734375 129.597656 88.316406 129.78125 87.878906 C 129.960938 87.441406 130.097656 86.992188 130.191406 86.527344 C 130.285156 86.0625 130.328125 85.59375 130.328125 85.117188 L 130.328125 74.128906 C 130.328125 73.65625 130.285156 73.183594 130.191406 72.722656 C 130.097656 72.257812 129.960938 71.804688 129.78125 71.367188 C 129.597656 70.929688 129.375 70.515625 129.113281 70.121094 C 128.851562 69.726562 128.550781 69.363281 128.214844 69.027344 C 127.882812 68.691406 127.515625 68.390625 127.125 68.128906 C 126.730469 67.867188 126.3125 67.644531 125.875 67.460938 C 125.4375 67.28125 124.988281 67.144531 124.523438 67.050781 C 124.058594 66.960938 123.589844 66.914062 123.117188 66.914062 L 112.128906 66.914062 C 111.65625 66.914062 111.1875 66.960938 110.722656 67.050781 C 110.257812 67.144531 109.804688 67.28125 109.367188 67.460938 C 108.929688 67.644531 108.515625 67.867188 108.121094 68.128906 C 107.726562 68.390625 107.363281 68.691406 107.027344 69.027344 C 106.695312 69.363281 106.394531 69.726562 106.132812 70.121094 C 105.867188 70.515625 105.644531 70.929688 105.464844 71.367188 C 105.285156 71.804688 105.148438 72.257812 105.054688 72.722656 C 104.960938 73.183594 104.914062 73.65625 104.914062 74.128906 Z M 125.566406 85.117188 C 125.566406 85.445312 125.503906 85.757812 125.382812 86.058594 C 125.257812 86.359375 125.078125 86.621094 124.851562 86.851562 C 124.621094 87.082031 124.355469 87.261719 124.054688 87.382812 C 123.753906 87.507812 123.441406 87.570312 123.117188 87.570312 L 112.128906 87.570312 C 111.804688 87.570312 111.492188 87.507812 111.191406 87.382812 C 110.890625 87.261719 110.625 87.082031 110.394531 86.851562 C 110.164062 86.621094 109.988281 86.359375 109.863281 86.058594 C 109.738281 85.757812 109.675781 85.445312 109.675781 85.117188 L 109.675781 74.128906 C 109.675781 73.804688 109.738281 73.492188 109.863281 73.191406 C 109.988281 72.890625 110.164062 72.625 110.394531 72.394531 C 110.625 72.164062 110.890625 71.988281 111.191406 71.863281 C 111.492188 71.738281 111.804688 71.675781 112.128906 71.675781 L 123.117188 71.675781 C 123.441406 71.679688 123.753906 71.742188 124.050781 71.867188 C 124.351562 71.992188 124.617188 72.171875 124.84375 72.398438 C 125.074219 72.628906 125.25 72.894531 125.375 73.191406 C 125.5 73.492188 125.566406 73.804688 125.566406 74.128906 Z M 125.566406 85.117188 " fill-opacity="1" fill-rule="nonzero"/><path fill="#ffffff" d="M 114.121094 51.371094 C 114.613281 52.023438 115.265625 52.351562 116.078125 52.359375 C 116.847656 52.367188 117.476562 52.070312 117.964844 51.476562 L 123.257812 44.542969 C 123.539062 44.183594 123.699219 43.777344 123.746094 43.324219 C 123.792969 42.871094 123.71875 42.441406 123.515625 42.03125 C 123.316406 41.621094 123.023438 41.296875 122.636719 41.054688 C 122.246094 40.816406 121.824219 40.695312 121.371094 40.699219 C 120.59375 40.699219 119.964844 41.007812 119.484375 41.617188 L 116.097656 46.007812 L 115.851562 45.671875 C 115.625 45.359375 115.34375 45.117188 115 44.941406 C 114.65625 44.769531 114.292969 44.683594 113.910156 44.683594 C 113.398438 44.683594 112.933594 44.832031 112.515625 45.125 C 112.261719 45.308594 112.050781 45.535156 111.882812 45.804688 C 111.71875 46.070312 111.609375 46.359375 111.558594 46.671875 C 111.507812 46.984375 111.519531 47.292969 111.589844 47.597656 C 111.660156 47.90625 111.789062 48.1875 111.96875 48.441406 Z M 114.121094 51.371094 " fill-opacity="1" fill-rule="nonzero"/><path fill="#ffffff" d="M 112.128906 59.734375 L 123.117188 59.734375 C 123.589844 59.734375 124.058594 59.6875 124.523438 59.59375 C 124.988281 59.503906 125.4375 59.367188 125.875 59.183594 C 126.3125 59.003906 126.730469 58.78125 127.125 58.515625 C 127.515625 58.253906 127.882812 57.953125 128.214844 57.621094 C 128.550781 57.285156 128.851562 56.921875 129.113281 56.527344 C 129.375 56.132812 129.597656 55.71875 129.78125 55.277344 C 129.960938 54.839844 130.097656 54.390625 130.191406 53.925781 C 130.285156 53.460938 130.328125 52.992188 130.328125 52.519531 L 130.328125 41.527344 C 130.328125 41.054688 130.285156 40.585938 130.191406 40.121094 C 130.097656 39.65625 129.960938 39.203125 129.78125 38.765625 C 129.597656 38.328125 129.375 37.914062 129.113281 37.519531 C 128.851562 37.125 128.550781 36.761719 128.214844 36.425781 C 127.882812 36.089844 127.515625 35.792969 127.125 35.527344 C 126.730469 35.265625 126.3125 35.042969 125.875 34.863281 C 125.4375 34.679688 124.988281 34.542969 124.523438 34.449219 C 124.058594 34.359375 123.589844 34.3125 123.117188 34.3125 L 112.128906 34.3125 C 111.65625 34.3125 111.1875 34.359375 110.722656 34.449219 C 110.257812 34.542969 109.804688 34.679688 109.367188 34.863281 C 108.929688 35.042969 108.515625 35.265625 108.121094 35.527344 C 107.726562 35.792969 107.363281 36.089844 107.027344 36.425781 C 106.695312 36.761719 106.394531 37.125 106.132812 37.519531 C 105.867188 37.914062 105.644531 38.328125 105.464844 38.765625 C 105.285156 39.203125 105.148438 39.65625 105.054688 40.121094 C 104.960938 40.585938 104.914062 41.054688 104.914062 41.527344 L 104.914062 52.519531 C 104.914062 52.992188 104.960938 53.460938 105.054688 53.925781 C 105.148438 54.390625 105.285156 54.839844 105.464844 55.277344 C 105.644531 55.71875 105.867188 56.132812 106.132812 56.527344 C 106.394531 56.921875 106.695312 57.285156 107.027344 57.621094 C 107.363281 57.953125 107.726562 58.253906 108.121094 58.515625 C 108.515625 58.78125 108.929688 59.003906 109.367188 59.183594 C 109.804688 59.367188 110.257812 59.503906 110.722656 59.59375 C 111.1875 59.6875 111.65625 59.734375 112.128906 59.734375 Z M 109.675781 41.527344 C 109.683594 41.207031 109.75 40.898438 109.878906 40.605469 C 110.007812 40.3125 110.183594 40.050781 110.414062 39.828125 C 110.644531 39.605469 110.90625 39.429688 111.203125 39.308594 C 111.5 39.1875 111.808594 39.128906 112.128906 39.128906 L 123.117188 39.128906 C 123.441406 39.128906 123.753906 39.195312 124.050781 39.320312 C 124.351562 39.445312 124.617188 39.621094 124.84375 39.851562 C 125.074219 40.082031 125.25 40.34375 125.375 40.644531 C 125.5 40.945312 125.566406 41.257812 125.566406 41.582031 L 125.566406 52.570312 C 125.566406 52.894531 125.5 53.207031 125.375 53.503906 C 125.25 53.800781 125.074219 54.066406 124.84375 54.292969 C 124.613281 54.523438 124.347656 54.695312 124.050781 54.820312 C 123.75 54.945312 123.441406 55.003906 123.117188 55.003906 L 112.128906 55.003906 C 111.804688 55.003906 111.492188 54.941406 111.191406 54.820312 C 110.890625 54.695312 110.625 54.515625 110.394531 54.289062 C 110.164062 54.058594 109.988281 53.792969 109.863281 53.492188 C 109.738281 53.191406 109.675781 52.878906 109.675781 52.554688 Z M 109.675781 41.527344 " fill-opacity="1" fill-rule="nonzero"/><path fill="#ffffff" d="M 121.351562 73.777344 C 120.980469 73.773438 120.628906 73.851562 120.296875 74.015625 C 119.964844 74.183594 119.6875 74.414062 119.464844 74.710938 L 116.078125 79.085938 L 115.832031 78.75 C 115.609375 78.4375 115.324219 78.195312 114.984375 78.019531 C 114.640625 77.84375 114.277344 77.757812 113.894531 77.761719 C 113.382812 77.761719 112.917969 77.910156 112.5 78.203125 C 112.25 78.386719 112.046875 78.609375 111.886719 78.875 C 111.722656 79.136719 111.617188 79.421875 111.566406 79.726562 C 111.515625 80.027344 111.523438 80.332031 111.589844 80.632812 C 111.65625 80.933594 111.777344 81.210938 111.953125 81.46875 L 114.050781 84.429688 C 114.277344 84.742188 114.558594 84.988281 114.902344 85.164062 C 115.242188 85.34375 115.605469 85.433594 115.992188 85.4375 C 116.773438 85.433594 117.402344 85.125 117.878906 84.5 L 123.167969 77.570312 C 123.363281 77.316406 123.5 77.039062 123.585938 76.730469 C 123.667969 76.425781 123.6875 76.117188 123.644531 75.800781 C 123.605469 75.484375 123.503906 75.191406 123.34375 74.917969 C 123.1875 74.640625 122.980469 74.410156 122.726562 74.214844 C 122.316406 73.917969 121.859375 73.773438 121.351562 73.777344 Z M 121.351562 73.777344 " fill-opacity="1" fill-rule="nonzero"/><path fill="#ffffff" d="M 104.914062 117.71875 C 104.914062 118.195312 104.960938 118.664062 105.054688 119.128906 C 105.148438 119.59375 105.285156 120.042969 105.464844 120.480469 C 105.644531 120.917969 105.867188 121.335938 106.132812 121.726562 C 106.394531 122.121094 106.695312 122.488281 107.027344 122.820312 C 107.363281 123.15625 107.726562 123.457031 108.121094 123.71875 C 108.515625 123.980469 108.929688 124.203125 109.367188 124.386719 C 109.804688 124.566406 110.257812 124.703125 110.722656 124.796875 C 111.1875 124.890625 111.65625 124.933594 112.128906 124.933594 L 123.117188 124.933594 C 123.589844 124.933594 124.058594 124.890625 124.523438 124.796875 C 124.988281 124.703125 125.4375 124.566406 125.875 124.386719 C 126.3125 124.203125 126.730469 123.980469 127.125 123.71875 C 127.515625 123.457031 127.882812 123.15625 128.214844 122.820312 C 128.550781 122.488281 128.851562 122.121094 129.113281 121.726562 C 129.375 121.335938 129.597656 120.917969 129.78125 120.480469 C 129.960938 120.042969 130.097656 119.59375 130.191406 119.128906 C 130.285156 118.664062 130.328125 118.195312 130.328125 117.71875 L 130.328125 106.730469 C 130.328125 106.253906 130.285156 105.785156 130.191406 105.320312 C 130.097656 104.855469 129.960938 104.40625 129.78125 103.96875 C 129.597656 103.53125 129.375 103.113281 129.113281 102.71875 C 128.851562 102.328125 128.550781 101.960938 128.214844 101.628906 C 127.882812 101.292969 127.515625 100.992188 127.125 100.730469 C 126.730469 100.46875 126.3125 100.246094 125.875 100.0625 C 125.4375 99.882812 124.988281 99.746094 124.523438 99.652344 C 124.058594 99.558594 123.589844 99.515625 123.117188 99.515625 L 112.128906 99.515625 C 111.65625 99.515625 111.1875 99.558594 110.722656 99.652344 C 110.257812 99.746094 109.804688 99.882812 109.367188 100.0625 C 108.929688 100.246094 108.515625 100.46875 108.121094 100.730469 C 107.726562 100.992188 107.363281 101.292969 107.027344 101.628906 C 106.695312 101.960938 106.394531 102.328125 106.132812 102.722656 C 105.867188 103.113281 105.644531 103.53125 105.464844 103.96875 C 105.285156 104.40625 105.148438 104.855469 105.054688 105.320312 C 104.960938 105.785156 104.914062 106.253906 104.914062 106.730469 Z M 109.675781 106.730469 C 109.675781 106.402344 109.738281 106.089844 109.863281 105.789062 C 109.988281 105.492188 110.164062 105.226562 110.394531 104.996094 C 110.625 104.765625 110.890625 104.589844 111.191406 104.464844 C 111.492188 104.339844 111.804688 104.277344 112.128906 104.277344 L 123.117188 104.277344 C 123.441406 104.28125 123.753906 104.34375 124.050781 104.46875 C 124.351562 104.59375 124.617188 104.769531 124.84375 105 C 125.074219 105.230469 125.25 105.496094 125.375 105.792969 C 125.5 106.09375 125.566406 106.40625 125.566406 106.730469 L 125.566406 117.71875 C 125.566406 118.042969 125.503906 118.359375 125.382812 118.65625 C 125.257812 118.957031 125.078125 119.222656 124.851562 119.453125 C 124.621094 119.683594 124.355469 119.859375 124.054688 119.984375 C 123.753906 120.109375 123.441406 120.171875 123.117188 120.171875 L 112.128906 120.171875 C 111.804688 120.171875 111.492188 120.109375 111.191406 119.984375 C 110.890625 119.859375 110.625 119.683594 110.394531 119.453125 C 110.164062 119.222656 109.988281 118.957031 109.863281 118.65625 C 109.738281 118.359375 109.675781 118.042969 109.675781 117.71875 Z M 109.675781 106.730469 " fill-opacity="1" fill-rule="nonzero"/></svg>