<svg xmlns="http://www.w3.org/2000/svg" xmlns:xlink="http://www.w3.org/1999/xlink" width="200" zoomAndPan="magnify" viewBox="0 0 150 149.999998" height="200" preserveAspectRatio="xMidYMid meet" version="1.0"><defs><clipPath id="0bff932ebf"><path d="M 4.113281 4.339844 L 145.863281 4.339844 L 145.863281 146 L 4.113281 146 Z M 4.113281 4.339844 " clip-rule="nonzero"/></clipPath></defs><rect x="-15" width="180" fill="#ffffff" y="-15" height="179.999997" fill-opacity="1"/><rect x="-15" width="180" fill="#ffffff" y="-15" height="179.999997" fill-opacity="1"/><rect x="-15" width="180" fill="#50aceb" y="-15" height="179.999997" fill-opacity="1"/><g clip-path="url(#0bff932ebf)"><path fill="#ffffff" d="M 79.675781 75.886719 C 79.890625 77.984375 79.308594 80.175781 77.871094 81.9375 L 77.71875 82.109375 C 76.828125 83.003906 75.386719 83.003906 74.496094 82.117188 C 73.628906 81.25 73.609375 79.851562 74.429688 78.957031 C 75.007812 78.191406 75.246094 77.25 75.148438 76.347656 C 75.058594 75.441406 74.636719 74.574219 73.914062 73.941406 L 71.132812 71.667969 C 70.34375 71.027344 69.355469 70.765625 68.410156 70.863281 C 67.460938 70.960938 66.546875 71.414062 65.90625 72.203125 C 65.269531 72.992188 65.007812 73.980469 65.105469 74.925781 C 65.199219 75.875 65.65625 76.785156 66.445312 77.425781 L 69.121094 79.605469 C 70.886719 81.042969 71.902344 83.0625 72.117188 85.167969 C 72.335938 87.273438 71.75 89.457031 70.316406 91.222656 C 68.878906 92.988281 66.855469 94.007812 64.75 94.222656 C 62.820312 94.421875 60.820312 93.9375 59.140625 92.746094 L 57.390625 94.890625 C 56.597656 95.863281 55.167969 96.011719 54.195312 95.21875 C 53.222656 94.425781 53.074219 92.996094 53.867188 92.023438 L 55.613281 89.871094 C 54.105469 88.46875 53.21875 86.609375 53.023438 84.675781 C 52.808594 82.578125 53.390625 80.386719 54.828125 78.621094 L 54.984375 78.449219 C 55.871094 77.554688 57.3125 77.554688 58.207031 78.441406 C 59.070312 79.308594 59.09375 80.707031 58.273438 81.597656 C 57.691406 82.367188 57.460938 83.304688 57.550781 84.210938 C 57.644531 85.117188 58.0625 85.984375 58.785156 86.617188 L 61.570312 88.890625 C 62.355469 89.53125 63.339844 89.792969 64.292969 89.695312 C 65.238281 89.601562 66.152344 89.144531 66.792969 88.355469 C 67.433594 87.566406 67.695312 86.582031 67.59375 85.632812 C 67.5 84.683594 67.042969 83.773438 66.253906 83.132812 L 63.578125 80.953125 C 61.8125 79.515625 60.796875 77.492188 60.582031 75.390625 C 60.367188 73.285156 60.949219 71.101562 62.386719 69.335938 C 63.820312 67.570312 65.84375 66.550781 67.949219 66.335938 C 69.878906 66.136719 71.882812 66.621094 73.5625 67.8125 L 75.308594 65.667969 C 76.101562 64.695312 77.535156 64.546875 78.503906 65.339844 C 79.476562 66.128906 79.625 67.5625 78.835938 68.535156 L 77.085938 70.6875 C 78.59375 72.089844 79.476562 73.949219 79.675781 75.886719 Z M 63.441406 109.574219 L 38.257812 89.085938 C 37.285156 88.296875 35.851562 88.445312 35.0625 89.417969 C 34.269531 90.390625 34.417969 91.820312 35.390625 92.613281 L 60.570312 113.101562 C 61.542969 113.894531 62.976562 113.746094 63.769531 112.773438 C 64.5625 111.800781 64.414062 110.367188 63.441406 109.574219 Z M 56.824219 117.707031 L 31.640625 97.21875 C 30.667969 96.425781 29.238281 96.574219 28.445312 97.546875 C 27.652344 98.519531 27.800781 99.953125 28.773438 100.746094 L 53.953125 121.230469 C 54.925781 122.023438 56.359375 121.875 57.152344 120.902344 C 57.945312 119.929688 57.796875 118.5 56.824219 117.707031 Z M 145.863281 37.382812 C 145.863281 46.503906 142.164062 54.761719 136.183594 60.738281 C 130.210938 66.710938 121.949219 70.40625 112.820312 70.410156 C 111.574219 70.410156 110.355469 70.355469 109.167969 70.234375 C 108.773438 70.195312 108.382812 70.144531 107.992188 70.09375 L 106.355469 83.792969 C 106.296875 84.296875 106.082031 84.738281 105.761719 85.078125 L 57.035156 144.96875 C 56.242188 145.941406 54.808594 146.089844 53.835938 145.300781 L 5.234375 105.75 C 4.261719 104.957031 4.113281 103.523438 4.902344 102.550781 L 53.730469 42.542969 C 54.015625 42.199219 54.378906 41.953125 54.773438 41.824219 L 80.03125 33.351562 C 80.941406 25.839844 84.375 19.105469 89.460938 14.019531 C 95.4375 8.039062 103.699219 4.339844 112.820312 4.339844 C 121.945312 4.339844 130.203125 8.039062 136.183594 14.019531 C 142.164062 20 145.863281 28.261719 145.863281 37.382812 Z M 101.914062 82.617188 L 105.605469 51.726562 L 86.328125 36.039062 L 84.363281 36.703125 C 84.355469 36.929688 84.34375 37.160156 84.34375 37.382812 C 84.34375 40.703125 84.929688 43.859375 85.976562 46.792969 C 86.242188 46.742188 86.507812 46.707031 86.78125 46.6875 L 86.796875 46.6875 C 88.988281 46.511719 91.050781 47.242188 92.609375 48.566406 C 94.175781 49.898438 95.234375 51.824219 95.414062 54.03125 L 95.414062 54.042969 C 95.589844 56.234375 94.859375 58.300781 93.53125 59.859375 C 92.203125 61.425781 90.273438 62.488281 88.066406 62.664062 C 85.867188 62.84375 83.800781 62.109375 82.238281 60.785156 C 80.671875 59.453125 79.609375 57.523438 79.433594 55.316406 C 79.253906 53.121094 79.988281 51.050781 81.3125 49.488281 C 81.496094 49.269531 81.691406 49.066406 81.898438 48.871094 C 80.636719 45.539062 79.890625 41.96875 79.792969 38.230469 L 56.839844 45.925781 L 9.867188 103.65625 L 54.945312 140.332031 Z M 83.972656 54.957031 C 84.050781 55.910156 84.503906 56.738281 85.175781 57.308594 C 85.71875 57.769531 86.417969 58.058594 87.167969 58.117188 C 86.042969 56.699219 85.03125 55.191406 84.128906 53.605469 C 83.996094 54.027344 83.933594 54.484375 83.972656 54.957031 Z M 90.871094 54.46875 L 90.859375 54.316406 C 90.765625 53.394531 90.316406 52.597656 89.664062 52.039062 C 89.207031 51.652344 88.644531 51.386719 88.03125 51.277344 C 88.84375 52.71875 89.765625 54.09375 90.800781 55.382812 C 90.863281 55.085938 90.886719 54.777344 90.871094 54.46875 Z M 141.300781 37.382812 C 141.300781 29.515625 138.113281 22.394531 132.960938 17.242188 C 127.808594 12.089844 120.6875 8.902344 112.820312 8.902344 C 104.957031 8.902344 97.835938 12.09375 92.683594 17.242188 C 88.800781 21.121094 86.039062 26.125 84.90625 31.714844 L 86.066406 31.328125 C 86.847656 31.066406 87.671875 31.253906 88.261719 31.746094 L 109.449219 48.988281 C 110.074219 49.496094 110.355469 50.273438 110.273438 51.019531 L 108.535156 65.578125 C 108.894531 65.628906 109.257812 65.675781 109.617188 65.710938 C 110.679688 65.816406 111.75 65.867188 112.820312 65.867188 C 120.679688 65.867188 127.804688 62.671875 132.964844 57.515625 C 138.113281 52.363281 141.300781 45.246094 141.300781 37.382812 Z M 141.300781 37.382812 " fill-opacity="1" fill-rule="nonzero"/></g></svg>